<svg xmlns="http://www.w3.org/2000/svg" viewBox="-0.5 -0.5 200 200"><g fill="#000000"><path d="M167.09035 88.8933 165.47845 107.46a3.98 3.98 0 0 0 -1.3333000000000002 0.5671499999999999c-0.6965 0.48755 -1.1342999999999999 1.24375 -1.8705999999999998 1.6915 -0.92535 0.5572 -5.38295 1.46265 -6.47745 1.74125a10.63655 10.63655 0 0 0 -0.60695 -1.6716c-2.4875 0.26865 -10.8654 1.72135 -12.507150000000001 1.99 -2.7661 -5.18395 -5.54215 -10.47735 -9.4525 -14.925a31.044 31.044 0 0 0 -6.0794500000000005 -5.3929 44.86455 44.86455 0 0 0 -7.4227 -3.53225c0.6666500000000001 -0.10945 1.2338 -0.92535 0.8358 -1.4726a1.9303 1.9303 0 0 0 2.2188499999999998 -2.31835 1.99 1.99 0 0 0 2.5273 0.11939999999999999v-0.90545a1.4726 1.4726 0 0 0 2.1293 -1.8904999999999998 1.72135 1.72135 0 0 0 2.587 -2.13925 3.98 3.98 0 0 0 3.3034 -2.05965 2.985 2.985 0 0 0 -0.8557 -3.7014 1.9103999999999999 1.9103999999999999 0 0 0 1.3333000000000002 -3.2636 2.985 2.985 0 0 0 0.3184 -4.368049999999999 2.3084 2.3084 0 0 0 0.995 -2.6666000000000003 6.7461 6.7461 0 0 0 -1.6119 -2.5671 2.15915 2.15915 0 0 0 0.6169 -2.985 6.248600000000001 6.248600000000001 0 0 0 -2.5472 -2.1492 2.15915 2.15915 0 0 0 -0.36815 -2.61685 6.4078 6.4078 0 0 0 -2.4476999999999998 -1.4128999999999998 0.8557 0.8557 0 0 0 0.4975 -1.1741 2.0696 2.0696 0 0 0 -1.0746 -0.995c-1.32335 -0.6368 -3.0546499999999996 -0.8358 -4.14915 0.1393a0.8855500000000001 0.8855500000000001 0 0 0 -1.592 0c-0.5572 -1.0547 -0.8756 -2.2885 -1.7711000000000001 -3.0845000000000002s-2.65665 -0.7363 -2.985 0.42785a3.383 3.383 0 0 0 -1.2039499999999999 -1.99c-0.6666500000000001 -0.40795 -1.78105 -0.0796 -1.80095 0.6965a1.99 1.99 0 0 0 -1.9103999999999999 -1.1144 1.99 1.99 0 0 0 -1.7114 1.393 1.4726 1.4726 0 0 0 -2.7064000000000004 0.597 2.5472 2.5472 0 0 0 -1.2039499999999999 -0.64675c-0.4577 0 -0.995 0.2587 -0.995 0.7163999999999999s0.4378 0.796 0.36815 1.2139a0.796 0.796 0 0 1 -0.84575 0.5572 6.696350000000001 6.696350000000001 0 0 1 -1.0746 -0.23879999999999998 2.4377500000000003 2.4377500000000003 0 0 0 -2.79595 2.3084 1.38305 1.38305 0 0 0 -1.9103999999999999 1.99 0.995 0.995 0 0 0 -1.14425 1.48255 1.9303 1.9303 0 0 0 -1.99 1.44275 5.80085 5.80085 0 0 0 0.0796 2.7064000000000004c-0.995 -0.2587 -2.25865 -0.35819999999999996 -2.65665 0.54725a2.1094 2.1094 0 0 0 0 1.3532000000000002c0.2786 1.12435 0.5572 2.2487 0.82585 3.37305A1.6616499999999998 1.6616499999999998 0 0 0 93.26135000000001 64.675a4.76605 4.76605 0 0 0 0.33830000000000005 2.45765 1.72135 1.72135 0 0 0 -1.2537 1.88055A3.79095 3.79095 0 0 0 93.53 71.16239999999999a1.4726 1.4726 0 0 0 0.16915000000000002 2.3283 1.99 1.99 0 0 0 -0.16915000000000002 2.2487 5.88045 5.88045 0 0 0 1.6417499999999998 1.72135 1.6417499999999998 1.6417499999999998 0 0 0 1.6218499999999998 2.6765499999999998A3.75115 3.75115 0 0 0 98.505 83.58c1.14425 0.7263499999999999 3.4825 0 3.4825 0 0.90545 -0.80595 0.35819999999999996 -2.3482 -0.5572 -3.1342499999999998s-2.1293 -1.2238499999999999 -2.8556500000000002 -2.17905c-0.9154 -1.2139 -0.82585 -2.8855 -0.5671499999999999 -4.378a29.3326 29.3326 0 0 1 4.875500000000001 -11.94c0.52735 -0.74625 1.2537 -1.5422500000000001 2.15915 -1.4726s1.70145 1.18405 2.69645 1.2139c1.3134000000000001 0 2.1094 -1.8109 3.4228 -1.7512 1.04475 0.04975 1.60195 1.2537 1.8308 2.27855s0.5174 2.2487 1.4925 2.6367499999999997c0.6368 0.2587 1.4925 0.10945 1.8904999999999998 0.6666500000000001s-0.1592 1.5323 -0.06965 2.3283c0.16915000000000002 1.4128999999999998 2.3084 1.592 3.0447 2.8059a2.3084 2.3084 0 0 1 -0.12935 2.31835 6.5471 6.5471 0 0 1 -1.6915 1.74125c1.30345 0.0995 2.985 0.5174 3.1044 1.8109a1.99 1.99 0 0 1 -1.40295 1.90045 5.731199999999999 5.731199999999999 0 0 1 -2.53725 0.08954999999999999 11.2833 11.2833 0 0 1 -4.1193 3.98c0.16915000000000002 1.2338 0.32835000000000003 2.4775500000000004 0.50745 3.71135a14.09915 14.09915 0 0 1 4.4974 1.12435 12.1191 12.1191 0 0 1 -9.2535 7.1242c-4.84565 0.7163999999999999 -10.945 -2.2885 -10.079350000000002 -7.96a27.27295 27.27295 0 0 1 3.98 -0.7064499999999999 0.08954999999999999 0.08954999999999999 0 0 0 0 -0.16915000000000002c-5.06455 0.24875 -9.810699999999999 2.53725 -14.367799999999999 4.56705a61.24225 61.24225 0 0 0 -12.82555 7.25355c-3.5223 2.7263 -7.0446 6.1690000000000005 -7.9003000000000005 10.716149999999999a22.0492 22.0492 0 0 0 -0.20895 7.2734499999999995 27.61125 27.61125 0 0 0 2.57705 6.965c2.1492 4.7959000000000005 4.6964 9.552 8.80575 12.935a0.2786 0.2786 0 0 0 0.2189 0l0.6965 -0.5671499999999999a1.6218499999999998 1.6218499999999998 0 0 1 0.597 1.5522c-0.12935 0.597 -0.6368 0.7263499999999999 -0.995 1.14425a0.8955 0.8955 0 0 0 0 1.06465c0.5174 0.7562 2.2885 1.06465 2.4476999999999998 -0.10945 0 -0.14925 -0.18905 -0.2786 -0.26865 -0.10945 -0.4378 0.995 -2.45765 0.48755 -1.6218499999999998 -0.86565 0.06965 -0.10945 0.26865 -0.22885 0.35819999999999996 -0.33830000000000005a1.7512 1.7512 0 0 0 0.3781 -0.9452499999999999 1.592 1.592 0 0 0 -0.78605 -1.5323c0.995 -0.8358 1.9303 -1.7313 2.8556500000000002 -2.6268000000000002 -0.995 7.23365 -1.8507 14.4673 -2.7661 21.70095a89.7291 89.7291 0 0 0 -0.995 13.462349999999999 24.636200000000002 24.636200000000002 0 0 0 2.985 2.2885l-0.995 24.58645h19.61145l4.049650000000001 -16.915 5.84065 16.915h21.2333v-23.7407c0.995 -0.30845 2.25865 -0.6567000000000001 2.25865 -0.6567000000000001a0.1393 0.1393 0 0 0 0.11939999999999999 -0.14925c-0.11939999999999999 -1.7114 -2.6069 -34.75535 -2.985 -37.81a16.915 16.915 0 0 0 9.064449999999999 1.84075c7.96 -0.5572 14.527 -5.4526 20.248250000000002 -10.546999999999999 0.059699999999999996 0 0 -0.18905 0 -0.199 -0.6666500000000001 -1.5124 -1.2338 -3.0646 -1.791 -4.62675 1.46265 -0.6666500000000001 3.0447 -1.88055 4.6566 -1.9303 0.6169 0 1.18405 0.23879999999999998 1.7313 0.16915000000000002l-10.4674 77.61h11.482299999999999L187.50775 94.525s-5.5919 -8.30825 -20.4174 -5.6317zM81.59 169.15c-0.995 -0.6368 -2.75615 -1.99 -2.75615 -1.99 0 -1.99 0.0796 -3.98 0.2189 -5.97 2.2487 2.31835 5.4327 3.43275 8.46745 4.2984a79.6 79.6 0 0 0 10.85545 2.55715 64.46605000000001 64.46605000000001 0 0 0 11.94 0.23879999999999998 81.04275 81.04275 0 0 0 10.726099999999999 -1.12435l2.587 -0.5174 -0.796 6.0794500000000005S100.38555 177.53785000000002 81.59 169.15zm51.74 0.17909999999999998a14.11905 14.11905 0 0 0 -2.7462 0.9154l-1.4327999999999999 0.32835000000000003 -2.985 -4.5371999999999995c2.23875 -0.4975 4.46755 -0.995 6.706300000000001 -1.5323 0.18905 1.6616499999999998 0.3184 3.2238 0.4577 4.8357zm-0.44775 -5.24365c-2.3283 0.42785 -4.62675 0.995 -6.965 1.52235l-1.82085 -2.81585 -0.4378 3.3432c-1.1342999999999999 0.24875 -2.2685999999999997 0.48755 -3.41285 0.6965a85.57 85.57 0 0 1 -14.168800000000001 1.1741 54.25735 54.25735 0 0 1 -14.25835 -1.70145c-2.2089000000000003 -0.5671499999999999 -4.447649999999999 -1.12435 -6.616750000000001 -1.8507a20.5766 20.5766 0 0 1 -6.159050000000001 -3.5123499999999996c0.2786 -3.98 0.796 -7.87045 1.32335 -11.79075 7.49235 4.049650000000001 16.2782 7.154050000000001 24.875 7.29335a57.9488 57.9488 0 0 0 13.32305 -1.72135 91.85839999999999 91.85839999999999 0 0 0 13.26335 -3.98c0.36815 4.4775 0.7064499999999999 8.9152 1.06465 13.3529zm26.7456 -41.28255c-5.4526 4.80585 -11.641499999999999 9.46245 -19.094050000000003 10.2883 -6.57695 0.7263499999999999 -13.8305 -2.189 -16.30805 -8.736099999999999 0 0 -0.059699999999999996 0 0 0a13.0544 13.0544 0 0 0 6.188899999999999 7.17395c0.06965 3.19395 1.194 15.75085 1.4327999999999999 18.825400000000002a110.33555 110.33555 0 0 1 -12.46735 3.7611 61.9288 61.9288 0 0 1 -13.631499999999999 1.9103999999999999c-8.80575 0 -17.50205 -3.2436999999999996 -25.273 -7.1242 0.08954999999999999 -0.6965 0.8855500000000001 -6.4675 1.8507 -13.631499999999999 2.6765499999999998 2.6765499999999998 6.5272 3.93025 10.11915 4.815799999999999a49.521150000000006 49.521150000000006 0 0 0 12.68625 1.34325c8.6963 -0.14925 17.20355 -2.31835 25.402350000000002 -5.0944 0.2587 -0.0796 0.14925 -0.4975 -0.10945 -0.40795 -7.8804 2.65665 -16.02945 4.7959000000000005 -24.38745 5.1143a49.81965 49.81965 0 0 1 -12.62655 -1.04475c-3.98 -0.8855500000000001 -7.89035 -2.2089000000000003 -11.0246 -4.8556 1.60195 -11.85045 3.6815 -27.43215 3.98 -30.23805a0.08954999999999999 0.08954999999999999 0 0 0 -0.16915000000000002 0c-0.48755 2.4078999999999997 -0.8358 4.8556 -1.1542 7.3033a27.979400000000002 27.979400000000002 0 0 0 -3.98 4.46755c-0.06965 0.0995 2.5273 5.5521 2.5969499999999996 5.5521 -0.3184 2.31835 -1.14425 8.52715 -1.2537 9.32315 -1.2537 1.194 -2.55715 2.3283 -3.8207999999999998 3.5123499999999996 -3.53225 -2.87555 -5.8506 -6.706300000000001 -7.770949999999999 -10.686300000000001 -0.995 -2.1492 -2.05965 -4.3382000000000005 -2.8855 -6.57695a17.5717 17.5717 0 0 1 -0.68655 -7.71125 13.243450000000001 13.243450000000001 0 0 1 2.5969499999999996 -7.0844000000000005A28.656 28.656 0 0 1 74.625 98.16669999999999a56.2971 56.2971 0 0 1 11.741000000000001 -6.965 82.585 82.585 0 0 1 9.581850000000001 -3.98c-0.47759999999999997 0.5771 -0.84575 1.30345 -0.34825 1.99a0.995 0.995 0 0 0 0.84575 0.3781 1.7512 1.7512 0 0 0 -0.14925 1.7711000000000001 1.3134000000000001 1.3134000000000001 0 0 0 1.1342999999999999 0.6368 1.30345 1.30345 0 0 0 0 1.393 1.9103999999999999 1.9103999999999999 0 0 0 2.13925 0.6965c0.20895 0 0.11939999999999999 -0.38805 -0.0995 -0.33830000000000005 -0.597 0.1592 -2.5671 -0.08954999999999999 -1.5621500000000001 -1.94025 0.0796 -0.1393 0 -0.32835000000000003 -0.1592 -0.26865 -0.50745 0.17909999999999998 -2.1094 -0.24875 -0.64675 -2.4676 0.059699999999999996 -0.0796 -0.0995 -0.18905 -0.16915000000000002 -0.0995 -0.46764999999999995 0.5671499999999999 -1.18405 0.14925 -1.194 -0.5174a2.2685999999999997 2.2685999999999997 0 0 1 0.54725 -1.3134000000000001c0.5771 -0.18905 1.16415 -0.35819999999999996 1.7512 -0.50745 -1.06465 5.4327 4.776 8.78585 9.5321 8.4575A12.4574 12.4574 0 0 0 117.9672 87.56a6.1789499999999995 6.1789499999999995 0 0 0 1.06465 0.3781c0.995 0.90545 0.6666500000000001 2.75615 -1.2537 1.92035 -0.059699999999999996 0 -0.11939999999999999 0 -0.12935 0.0995s1.2039499999999999 3.1342499999999998 -1.8606500000000001 2.2188499999999998c-0.17909999999999998 0 -0.34825 0.04975 -0.2587 0.199 1.7512 2.8257999999999996 -2.33825 3.98 -3.0646 2.11935 0 -0.10945 -0.22885 -0.10945 -0.2189 0 0.36815 4.66655 -4.16905 2.0895 -3.81085 1.3532000000000002 0.0995 -0.2189 -0.34825 -0.23879999999999998 -0.3781 0 -0.1393 1.48255 -0.995 2.8655999999999997 -2.61685 2.8655999999999997a2.83575 2.83575 0 0 1 -2.587 -2.87555c0 -0.0796 -0.12935 -0.10945 -0.1393 0a2.8257999999999996 2.8257999999999996 0 1 0 5.5919 0.7761 3.184 3.184 0 0 0 2.985 0.995c0.995 -0.1393 1.4128999999999998 -1.2935 1.34325 -2.29845a2.37805 2.37805 0 0 0 2.65665 0.16915000000000002 2.3084 2.3084 0 0 0 0.7263499999999999 -2.9253c0.7363 0.18905 1.84075 0.28855 2.09945 -0.4378a3.5422000000000002 3.5422000000000002 0 0 0 0.08954999999999999 -1.7711000000000001 1.6119 1.6119 0 0 0 1.4925 -0.42785 1.78105 1.78105 0 0 0 0.5174 -1.40295 54.1877 54.1877 0 0 1 6.43765 2.985 30.536550000000002 30.536550000000002 0 0 1 6.3481 5.572c3.8606 4.3979 6.616750000000001 9.62165 9.36295 14.7459l-2.5969499999999996 0.42785a0.0796 0.0796 0 0 0 0 0.14925c2.3979500000000002 -0.06965 10.41765 -1.5820500000000002 12.02955 -1.8308 0.4577 2.4875 4.20885 11.94 5.273499999999999 14.178749999999999 0.08954999999999999 0.17909999999999998 0.36815 0 0.2786 -0.16915000000000002 -1.1044500000000002 -2.35815 -4.46755 -11.810649999999999 -5.3530999999999995 -14.039449999999999 0.995 -0.14925 3.0447 -0.40795 3.0646 -0.40795a87.0625 87.0625 0 0 0 4.577 12.68625zm-76.00805 -0.995c-0.64675 -1.6815499999999999 -2.3681 -4.975 -2.37805 -4.975 1.26365 -1.3532000000000002 2.45765 -2.83575 3.6218 -4.288449999999999 -0.18905 1.50245 -1.02485 7.691350000000001 -1.2338 9.2535zm84.9929 -9.72115c-0.995 -0.2985 -1.99 -2.1293 -3.4626 0l-0.5373 3.98c-0.995 0.14925 -1.99 -0.199 -2.985 0.14925a21.26315 21.26315 0 0 0 -3.5024 1.74125c-0.7363 -2.1094 -1.4327999999999999 -4.2188 -2.25865 -6.2884a41.79 41.79 0 0 0 5.78095 -1.38305 4.30835 4.30835 0 0 0 1.6218499999999998 -1.06465 4.4775 4.4775 0 0 1 2.41785 -1.5323c0.796 0.0995 3.4825 0.597 3.8407 3.184 0.00995 0.0199 0.12935 1.5621500000000001 -0.90545 1.2039499999999999z" stroke-width="1"></path><path d="M185.07 65.24215a4.0596 4.0596 0 0 0 -4.975 -0.7263499999999999L167.34905 86.565s13.979750000000001 -3.15415 20.895 5.174zm-0.84575 -1.9999499999999997 0.24875 -4.4576s-0.2985 -0.995 -1.28355 -0.199l-1.6318 4.20885s2.2288 -0.32835000000000003 2.6666000000000003 0.44775zm-79.82885 7.23365c-0.42785 0.398 -1.74125 1.76115 -1.7114 2.1293 0 0.54725 0.7761 0.8955 1.26365 0.82585 0.12935 0 0.2189 -0.18905 0.0796 -0.2587a6.03965 6.03965 0 0 1 -0.8358 -0.38805c-0.20895 -0.2587 0.9352999999999999 -1.76115 1.2736 -2.2487 0.00995 -0.04975 0.00995 -0.0995 -0.06965 -0.059699999999999996zm3.5024 1.16415c0.3184 -0.33830000000000005 0.8557 -1.06465 0.58705 -1.5422500000000001a0.059699999999999996 0.059699999999999996 0 0 0 -0.0796 0c-0.33830000000000005 0.16915000000000002 -1.18405 1.52235 -0.76615 1.6318a0.26865 0.26865 0 0 0 0.2587 -0.08954999999999999zM102.485 69.48085c0.2587 -0.10945 0.7163999999999999 -1.28355 0.8159 -1.5721s-0.22885 -0.30845 -0.33830000000000005 -0.1393 -0.8358 1.3134000000000001 -0.76615 1.592a0.199 0.199 0 0 0 0.28855 0.11939999999999999zm1.99 -4.0397c-1.12435 -0.995 -2.1094 0.06965 -2.4875 0.47759999999999997a0.1592 0.1592 0 0 0 0.22885 0.2189c0.54725 -0.46764999999999995 1.2935 -1.06465 1.99 -0.48755 0.16915000000000002 0.11939999999999999 0.44775 -0.06965 0.26865 -0.20895zm5.8107999999999995 4.6367a2.33825 2.33825 0 0 0 -1.14425 -2.7263 0.14925 0.14925 0 0 0 -0.14925 0.24875 2.4875 2.4875 0 0 1 0.995 2.4377500000000003c-0.0398 0.18905 0.22885 0.199 0.2985 0.0398zm-4.0794999999999995 8.20875c1.6318 0.398 4.1392 -0.8855500000000001 4.16905 -2.7661 0 -0.18905 -0.30845 -0.2786 -0.35819999999999996 -0.08954999999999999 -0.58705 2.1691000000000003 -2.9352500000000004 2.5671 -3.7611 2.5472a0.1592 0.1592 0 0 0 -0.04975 0.30845zm-3.65165 17.0941a2.985 2.985 0 0 1 -2.07955 0.8955c-1.26365 0 -1.24375 -1.18405 -0.995 -2.1094 0 -0.08954999999999999 -0.10945 -0.12935 -0.1393 0 -0.2786 0.84575 -0.46764999999999995 1.99 0.5572 2.37805a2.985 2.985 0 0 0 2.9253 -0.8756c0.12935 -0.14925 -0.10945 -0.42785 -0.26865 -0.28855zm-39.51145 61.1925c-0.23879999999999998 -1.52235 -0.2189 -3.98 -1.5820500000000002 -4.975s-3.3432 -0.80595 -4.8357 -0.8756c-2.33825 -0.11939999999999999 -4.66655 -0.14925 -6.965 -0.0995A104.54464999999999 104.54464999999999 0 0 0 35.82 151.80714999999998c-2.29845 0.35819999999999996 -4.6168 0.7562 -6.87545 1.30345 -1.791 0.42785 -2.4278 1.592 -2.71635 3.37305a42.416850000000004 42.416850000000004 0 0 0 -0.08954999999999999 7.37295 47.88935 47.88935 0 0 0 0.38805 7.074450000000001c0.2587 1.592 0.58705 4.0596 2.2885 4.7561a11.3231 11.3231 0 0 0 6.5073 0.2786c-0.33830000000000005 2.0397499999999997 -1.36315 4.66655 -0.42785 4.5272499999999996a7.96 7.96 0 0 0 6.7261999999999995 -4.975c1.7512 -0.1592 10.25845 -0.0995 12.8554 -0.14925s5.193899999999999 -0.18905 7.2436 -1.82085c3.0447 -2.4377500000000003 2.41785 -6.965 2.1094 -10.35795q-0.2587 -3.3232999999999997 -0.78605 -6.616750000000001zm-2.5969499999999996 17.30305c-2.05965 1.0547 -4.417800000000001 0.995 -6.6665 1.06465 -4.10935 0.0796 -8.3182 -0.1393 -12.40765 0.22885a0.18905 0.18905 0 0 0 -0.16915000000000002 0.2189c-0.995 2.51735 -4.825749999999999 4.3382000000000005 -5.97 4.5371999999999995a0.60695 0.60695 0 0 1 -0.3184 0 3.21385 3.21385 0 0 0 0.17909999999999998 -0.48755c0.10945 -0.3781 0.995 -3.83075 0.995 -4.06955 -0.0796 -0.48755 -3.87055 1.0746 -6.79585 -0.199 -1.99 -0.8855500000000001 -2.23875 -4.179 -2.4078999999999997 -6.11925s-0.1592 -3.87055 -0.17909999999999998 -5.80085 -0.14925 -3.85065 0 -5.76105a6.0794500000000005 6.0794500000000005 0 0 1 0.82585 -3.15415c0.8557 -1.06465 2.37805 -1.1542 3.6218 -1.40295 1.90045 -0.38805 3.61185 -0.6169 5.5322 -0.8955a103.1815 103.1815 0 0 1 12.26835 -0.995c1.99 -0.04975 4.049650000000001 0 6.0695 0 1.74125 0.059699999999999996 3.98 -0.14925 5.651599999999999 0.5671499999999999 1.8507 0.82585 1.8308 3.98 2.09945 5.7511q0.4577 3.11435 0.7363 6.25855c0.2786 3.6616 0.76615 8.28835 -3.0646 10.25845zm-43.3621 -50.366899999999994c0.10945 -0.0995 0 -0.28855 -0.1592 -0.20895a9.243549999999999 9.243549999999999 0 0 0 -2.7462 2.985c-0.06965 0.12935 0.0995 0.2786 0.20895 0.1592a27.4819 27.4819 0 0 1 2.69645 -2.9352500000000004zm-4.26855 4.975a7.96 7.96 0 0 0 -1.6517 4.16905c0 0.17909999999999998 0.2587 0.199 0.30845 0a25.452099999999998 25.452099999999998 0 0 1 1.5522 -4.0397c0.06965 -0.08954999999999999 -0.08954999999999999 -0.2587 -0.20895 -0.12935zm-1.6119 7.89035c0 -0.20895 -0.30845 -0.20895 -0.32835000000000003 0a7.11425 7.11425 0 0 0 0.22885 3.2039c0.059699999999999996 0.12935 0.2985 0.12935 0.2786 0a17.671200000000002 17.671200000000002 0 0 1 -0.17909999999999998 -3.2039zm1.0348 6.616750000000001c0 -0.12935 -0.26865 -0.10945 -0.2587 0a4.975 4.975 0 0 0 1.2039499999999999 2.985c0.12935 0.12935 0.30845 0 0.23879999999999998 -0.18905 -0.2189 -0.40795 -1.04475 -2.2885 -1.18405 -2.79595zm4.76605 8.5968a6.43765 6.43765 0 0 1 -1.99 -2.388c-0.06965 -0.1592 -0.32835000000000003 0 -0.26865 0.10945a4.049650000000001 4.049650000000001 0 0 0 2.1691000000000003 2.4676c0.08954999999999999 0.0398 0.17909999999999998 -0.11939999999999999 0.08954999999999999 -0.18905zm5.88045 3.87055c-0.995 -0.5771 -2.0497 -0.995 -2.985 -1.6218499999999998 -0.14925 -0.0995 -0.33830000000000005 0.12935 -0.199 0.24875a7.9003000000000005 7.9003000000000005 0 0 0 3.07455 1.6517 0.14925 0.14925 0 0 0 0.10945 -0.2786zm3.2039 1.32335a4.3979 4.3979 0 0 0 -0.995 -0.44775 0.1592 0.1592 0 0 0 -0.11939999999999999 0.28855 4.3979 4.3979 0 0 0 1.0547 0.398 0.1393 0.1393 0 0 0 0.059699999999999996 -0.23879999999999998zm26.13865 -26.3078c-0.11939999999999999 -0.11939999999999999 -0.30845 0.059699999999999996 -0.18905 0.199a3.2834999999999996 3.2834999999999996 0 0 0 2.55715 1.26365 0.11939999999999999 0.11939999999999999 0 0 0 0 -0.22885 5.4725 5.4725 0 0 1 -2.3681 -1.2338zm5.58195 1.60195a0.16915000000000002 0.16915000000000002 0 0 0 -0.08954999999999999 0.32835000000000003 4.22875 4.22875 0 0 0 2.8655999999999997 -0.10945 0.12935 0.12935 0 0 0 -0.06965 -0.23879999999999998 7.5023 7.5023 0 0 1 -2.7064000000000004 0.0199zm8.746049999999999 -1.82085c-0.7163999999999999 0.2189 -1.393 0.5771 -2.1094 0.78605a0.1592 0.1592 0 1 0 0.0796 0.2985 6.39785 6.39785 0 0 0 2.13925 -0.8358c0.11939999999999999 -0.0796 0.04975 -0.2985 -0.10945 -0.24875zm5.08445 -3.43275c0 -0.0995 -0.0995 -0.1592 -0.17909999999999998 -0.0995 -0.34825 0.2985 -1.72135 1.5323 -2.07955 1.82085 -0.10945 0.08954999999999999 0 0.2786 0.1393 0.22885a3.5919499999999998 3.5919499999999998 0 0 0 2.11935 -1.9502zM32.437000000000005 56.46625a11.3231 11.3231 0 0 1 3.25365 -3.29345c0.0995 -0.059699999999999996 0 -0.23879999999999998 -0.11939999999999999 -0.199a6.3083 6.3083 0 0 0 -3.4029 3.33325c-0.06965 0.17909999999999998 0.1592 0.32835000000000003 0.26865 0.1592zm-1.8507 2.8655999999999997a9.790799999999999 9.790799999999999 0 0 0 -0.6368 5.76105 0.11939999999999999 0.11939999999999999 0 0 0 0.22885 0A13.93 13.93 0 0 1 30.845 59.401500000000006c0.04975 -0.1592 -0.199 -0.22885 -0.2587 -0.06965zm1.6815499999999999 14.0892A6.6864 6.6864 0 0 1 30.845 69.28184999999999a0.12935 0.12935 0 1 0 -0.2587 0A5.572 5.572 0 0 0 32.04895 73.63c0.10945 0.059699999999999996 0.30845 -0.0796 0.2189 -0.20895zm6.0794500000000005 8.0794c0.1592 0.059699999999999996 0.2189 -0.16915000000000002 0.10945 -0.2587 -1.14425 -0.8557 -3.1044 -1.72135 -3.4427 -3.2436999999999996 0 -0.16915000000000002 -0.2587 -0.08954999999999999 -0.23879999999999998 0.06965 0.12935 1.6417499999999998 2.73625 3.0845000000000002 3.57205 3.43275zm3.5521499999999997 0.9452499999999999c-0.1393 -0.059699999999999996 -0.24875 0.18905 -0.0995 0.2587a11.2634 11.2634 0 0 0 4.975 1.1542c0.17909999999999998 0 0.24875 -0.30845 0.04975 -0.32835000000000003a22.35765 22.35765 0 0 1 -4.92525 -1.0845500000000001zm9.581850000000001 1.44275c-0.2189 0 -0.30845 0.2786 -0.0995 0.32835000000000003a17.810499999999998 17.810499999999998 0 0 0 4.7561 0.4378 0.1592 0.1592 0 0 0 0 -0.3184c-1.5621500000000001 -0.1393 -3.1044 -0.16915000000000002 -4.6566 -0.44775zm12.974799999999998 3.0845000000000002a9.1739 9.1739 0 0 0 -3.41285 -1.8705999999999998c-0.18905 -0.06965 -0.26865 0.22885 -0.08954999999999999 0.2985a20.5368 20.5368 0 0 1 3.3133500000000002 1.8109c0.14925 0.0995 0.30845 -0.11939999999999999 0.18905 -0.23879999999999998zm3.5422000000000002 3.2636a0.16915000000000002 0.16915000000000002 0 0 0 -0.23879999999999998 0.23879999999999998 22.138749999999998 22.138749999999998 0 0 1 2.73625 3.5621c0.059699999999999996 0.0796 0.2189 0 0.17909999999999998 -0.0796a8.875399999999999 8.875399999999999 0 0 0 -2.6765499999999998 -3.7213000000000003zm4.8854500000000005 8.52715c0 0.10945 0.22885 0 0.22885 -0.06965a6.29835 6.29835 0 0 0 -0.796 -2.4278c-0.08954999999999999 -0.17909999999999998 -0.34825 0 -0.26865 0.1592 0.34825 0.7562 0.4975 1.5721 0.8358 2.33825zM50.95395 47.57095A13.93 13.93 0 0 0 45.77 48.755c-0.1393 0.059699999999999996 -0.0796 0.2985 0.06965 0.23879999999999998A23.551650000000002 23.551650000000002 0 0 1 50.9838 47.76c0.11939999999999999 0 0.08954999999999999 -0.199 -0.029849999999999998 -0.18905zm3.15415 0.5572c-0.1592 0 -0.16915000000000002 0.26865 0 0.26865a7.6814 7.6814 0 0 1 5.7511 2.4078999999999997c0.12935 0.11939999999999999 0.28855 -0.059699999999999996 0.18905 -0.18905a6.87545 6.87545 0 0 0 -5.94015 -2.4875zm16.9349 6.3580499999999995a0.12935 0.12935 0 0 0 0 -0.2587 13.86035 13.86035 0 0 1 -7.850549999999999 -1.2736c-0.16915000000000002 -0.0796 -0.30845 0.16915000000000002 -0.14925 0.24875a11.631549999999999 11.631549999999999 0 0 0 7.999799999999999 1.28355zm3.582 -1.3731a7.96 7.96 0 0 0 4.32825 -4.2785 0.11939999999999999 0.11939999999999999 0 0 0 -0.20895 -0.12935c-1.2039499999999999 1.592 -2.25865 3.33325 -4.1989 4.0994 -0.23879999999999998 0.06965 -0.1592 0.3781 0.0796 0.30845zm6.188899999999999 -7.482399999999999a10.666400000000001 10.666400000000001 0 0 0 -0.11939999999999999 -6.8854c-0.059699999999999996 -0.18905 -0.35819999999999996 -0.10945 -0.2985 0.0796a14.85535 14.85535 0 0 1 0.199 6.7461 0.11939999999999999 0.11939999999999999 0 1 0 0.2189 0.059699999999999996zM79.6 32.72555c0.1592 -1.99 0.92535 -5.3530999999999995 3.19395 -5.88045a0.11939999999999999 0.11939999999999999 0 0 0 0 -0.22885c-2.4476999999999998 0.20895 -3.5621 4.0994 -3.41285 6.109299999999999a0.12935 0.12935 0 0 0 0.2189 0zm39.31245 -8.566949999999999c1.791 -0.30845 2.985 0.8159 4.40785 1.6716a0.1592 0.1592 0 0 0 0.18905 -0.2587 5.4426499999999995 5.4426499999999995 0 0 0 -4.6566 -1.6915c-0.1592 0.06965 -0.0995 0.30845 0.059699999999999996 0.2786zm10.546999999999999 11.55195c0.06965 0.14925 0.26865 0 0.23879999999999998 -0.0995a11.85045 11.85045 0 0 0 -2.985 -5.54215c-0.1393 -0.14925 -0.35819999999999996 0.0796 -0.22885 0.22885a19.57165 19.57165 0 0 1 2.9750500000000004 5.412800000000001zm4.62675 10.15895a9.820649999999999 9.820649999999999 0 0 1 -2.53725 -4.6765c0 -0.18905 -0.33830000000000005 -0.10945 -0.2985 0.08954999999999999a8.3779 8.3779 0 0 0 2.6367499999999997 4.78595 0.1393 0.1393 0 0 0 0.199 -0.199zm10.51715 5.9899c0.1592 0 0.14925 -0.33830000000000005 0 -0.3184a6.89535 6.89535 0 0 1 -6.0496 -1.72135c-0.0995 -0.0995 -0.24875 0.059699999999999996 -0.1592 0.1592a6.188899999999999 6.188899999999999 0 0 0 6.2088 1.88055zm12.5171 -23.8601c0.3781 -1.0945 2.587 -6.3879 4.129250000000001 1.592 0 0.14925 0.30845 0.12935 0.26865 0 -1.791 -8.885349999999999 -4.34815 -2.75615 -4.60685 -1.6119a0.10945 0.10945 0 0 0 0.20895 0.0199zm12.56685 3.5422000000000002c0.0995 -0.48755 2.9053999999999998 -5.6118 3.3531500000000003 1.4327999999999999 0 0.24875 0.398 0.24875 0.38805 0 -0.30845 -7.63165 -4.10935 -2.71635 -3.98 -1.46265 0.029849999999999998 0.11939999999999999 0.2189 0.16915000000000002 0.23879999999999998 0.029849999999999998zm-16.3578 2.6666000000000003c0.68655 4.16905 8.557 16.18865 20.686049999999998 5.0546 0.1393 -0.11939999999999999 -0.0995 -0.33830000000000005 -0.26865 -0.20895 -11.35295 9.30325 -19.4224 -0.995 -20.1786 -4.905349999999999 -0.029849999999999998 -0.1592 -0.2587 -0.08954999999999999 -0.23879999999999998 0.059699999999999996z" stroke-width="1"></path><path d="M149.49875 22.01935c-2.4476999999999998 1.4526999999999999 -3.5621 4.16905 -3.98 6.8854a17.60155 17.60155 0 0 0 1.1144 10.2883c1.2935 2.985 2.73625 6.11925 5.4526 7.96h-0.08954999999999999c-0.35819999999999996 0.33830000000000005 -1.8109 1.76115 -2.25865 2.0497a0.17909999999999998 0.17909999999999998 0 0 0 0.17909999999999998 0.3184 6.4476 6.4476 0 0 0 2.31835 -2.13925 0.11939999999999999 0.11939999999999999 0 0 0 0 -0.10945c0.16915000000000002 0.10945 0.32835000000000003 0.22885 0.50745 0.32835000000000003A21.32285 21.32285 0 0 0 163.22975000000002 49.75c6.6068 -0.17909999999999998 14.7459 -3.11435 17.44235 -9.66145A22.2681 22.2681 0 0 0 182.2442 28.855a13.68125 13.68125 0 0 0 -4.378 -7.96 19.2234 19.2234 0 0 0 -9.5321 -4.4576 19.701 19.701 0 0 0 -10.835550000000001 1.194 4.54715 4.54715 0 0 0 0.23879999999999998 -0.7363 6.33815 6.33815 0 0 0 -2.81585 -6.77595 6.696350000000001 6.696350000000001 0 0 0 -7.7809 0.54725c-2.0895 1.99 -3.0546499999999996 4.8556 -1.791 7.6018a6.7261999999999995 6.7261999999999995 0 0 0 4.14915 3.75115zm17.064249999999998 -5.4327a21.014400000000002 21.014400000000002 0 0 1 8.557 2.73625 14.8653 14.8653 0 0 1 5.84065 6.368c1.5820500000000002 3.4626 1.2139 7.33315 0.40795 10.945a13.6116 13.6116 0 0 1 -5.4327 8.666450000000001 23.09395 23.09395 0 0 1 -9.30325 3.7411999999999996 23.949650000000002 23.949650000000002 0 0 1 -9.95 -0.4179 14.45735 14.45735 0 0 1 -4.577 -1.8606500000000001 11.452449999999999 11.452449999999999 0 0 1 -3.53225 -4.368049999999999 33.1534 33.1534 0 0 1 -2.3979500000000002 -5.32325 16.0195 16.0195 0 0 1 -0.54725 -6.0695c0.23879999999999998 -3.29345 1.1144 -6.965 4.16905 -8.8157v-0.06965a4.7561 4.7561 0 0 0 1.9103999999999999 0 8.0794 8.0794 0 0 0 5.52225 -3.98 20.10895 20.10895 0 0 1 9.3331 -1.5522zM145.87695000000002 12.935a6.5371500000000005 6.5371500000000005 0 0 1 3.6218 -3.1044 6.6068 6.6068 0 0 1 5.2536000000000005 0.5671499999999999 6.4476 6.4476 0 0 1 2.55715 6.6864c-0.8855500000000001 3.0646 -5.32325 5.820749999999999 -8.38785 4.3581s-4.8556 -5.4426499999999995 -3.0447 -8.50725z" stroke-width="1"></path><path d="M151.75740000000002 18.825400000000002c0.10945 0.11939999999999999 0.3781 0 0.35819999999999996 -0.14925 -0.199 -1.99 1.0547 -3.2436999999999996 1.9303 -4.84565a0.12935 0.12935 0 0 0 -0.199 -0.16915000000000002 6.5371500000000005 6.5371500000000005 0 0 0 -2.17905 4.4775 16.0394 16.0394 0 0 0 -4.129250000000001 -3.03475 0.0995 0.0995 0 0 0 -0.0995 0.17909999999999998 35.0837 35.0837 0 0 1 4.3183 3.5422000000000002zM22.626299999999997 35.0638a16.317999999999998 16.317999999999998 0 0 0 1.9103999999999999 6.965 12.40765 12.40765 0 0 0 7.96 6.03965c1.5721 0.3781 3.6815 0.7163999999999999 4.24865 2.4078999999999997l-0.7761 0.2786c2.3084 5.9003499999999995 3.98 7.0943499999999995 7.35305 5.72125 5.26355 -2.1293 1.2139 -8.875399999999999 1.2139 -8.875399999999999l-0.92535 0.33830000000000005c-1.24375 -2.35815 0.74625 -5.7113000000000005 1.5721 -7.9003000000000005a11.83055 11.83055 0 0 0 0.62685 -6.965 12.7758 12.7758 0 0 0 -9.44255 -9.2336c-2.2089000000000003 -0.4378 -4.447649999999999 0.4179 -6.4277 1.32335a13.93 13.93 0 0 0 -5.4725 4.16905 8.955 8.955 0 0 0 -1.84075 5.731199999999999zm5.5919 -8.64655c2.0497 -1.26365 4.78595 -2.55715 7.25355 -2.41785s5.22375 1.8507 6.965 3.65165a11.43255 11.43255 0 0 1 3.3034 6.965c0.22885 2.8855 -1.0547 5.3929 -1.99 8.0197 -0.62685 1.6716 -1.2935 3.71135 -0.44775 5.363049999999999l-0.8159 0.2985a51.07335 51.07335 0 0 1 -1.8109 -12.76585 0.0796 0.0796 0 0 0 -0.1592 0 41.2328 41.2328 0 0 0 1.5522 12.935l-3.98 1.4726c-1.0845500000000001 -1.393 -5.84065 -6.6665 -7.2436 -7.96A2.1293 2.1293 0 0 1 33.063849999999995 40.795a3.98 3.98 0 0 0 0.76615 0 1.99 1.99 0 0 0 1.2537 -0.995 5.870500000000001 5.870500000000001 0 0 1 0.4975 -0.7263499999999999 1.80095 1.80095 0 0 1 1.99 -0.18905 2.2685999999999997 2.2685999999999997 0 0 0 1.06465 0c0.5771 -0.16915000000000002 0.82585 -0.9352999999999999 1.7512 -0.995 0.1393 0 0.199 -0.22885 0 -0.26865 -0.8159 -0.1592 -0.9352999999999999 0.28855 -1.24375 0.47759999999999997a3.3432 3.3432 0 0 1 -1.82085 0.3184c-0.796 -0.059699999999999996 -1.28355 -0.35819999999999996 -1.99 0.28855 -0.34825 0.3184 -0.4179 0.84575 -0.7363 1.18405 -0.7163999999999999 0.7761 -1.50245 0.47759999999999997 -2.41785 0.48755A1.90045 1.90045 0 0 0 30.49675 41.79c-0.35819999999999996 -0.3184 -0.7263499999999999 -0.6368 -1.1044500000000002 -0.92535a0.04975 0.04975 0 0 0 -0.059699999999999996 0.0796c1.5721 1.84075 7.2038 7.9102500000000004 8.28835 9.2336l-0.58705 0.20895a3.98 3.98 0 0 0 -2.8457 -2.2685999999999997c-2.2685999999999997 -0.68655 -4.30835 -1.12435 -6.2287 -2.6268000000000002a12.0395 12.0395 0 0 1 -3.91035 -5.32325c-0.8955 -2.4775500000000004 -1.52235 -5.50235 -0.6567000000000001 -8.0595a11.0246 11.0246 0 0 1 4.825749999999999 -5.6914zM17.0145 165.30929999999998c-0.18905 -0.2189 -0.54725 0.06965 -0.398 0.30845 1.99 3.33325 4.4376999999999995 6.5272 6.6864 9.7112a0.12935 0.12935 0 0 0 0.22885 -0.12935 65.3118 65.3118 0 0 0 -6.51725 -9.8903zm48.58585 -21.56165c0 0.199 0.3184 0.2587 0.35819999999999996 0.04975 0.34825 -1.99 2.7661 -4.2785 4.80585 -2.65665a2.77605 2.77605 0 0 1 0.46764999999999995 3.49245 8.70625 8.70625 0 0 1 -1.6616499999999998 1.76115 4.3979 4.3979 0 0 0 -0.2985 6.0794500000000005c0.22885 0.23879999999999998 0.6368 -0.08954999999999999 0.398 -0.398a3.91035 3.91035 0 0 1 -0.76615 -3.5621 6.13915 6.13915 0 0 1 1.99 -2.55715 3.7809999999999997 3.7809999999999997 0 0 0 0.995 -4.2387c-1.48255 -3.3531500000000003 -6.21875 -1.02485 -6.2884 2.0298zm4.7561 9.74105a0.6766000000000001 0.6766000000000001 0 0 0 -0.38805 0.76615 0.4577 0.4577 0 0 0 0.28855 0.5174 0.597 0.597 0 0 0 0.6766000000000001 -0.14925 0.76615 0.76615 0 0 0 0.10945 -0.76615 0.5373 0.5373 0 0 0 -0.68655 -0.36815zM37.58115 19.233349999999998a95.2215 95.2215 0 0 0 3.5024 -9.154c0.04975 -0.1592 -0.20895 -0.2786 -0.28855 -0.11939999999999999a94.1469 94.1469 0 0 0 -3.582 9.1739c-0.0796 0.22885 0.2786 0.3184 0.36815 0.0995zm9.8903 10.726099999999999a63.3218 63.3218 0 0 0 9.581850000000001 -3.93025 0.16915000000000002 0.16915000000000002 0 0 0 -0.12935 -0.2985c-3.25365 0.995 -6.3580499999999995 2.65665 -9.5321 3.9203 -0.18905 0.06965 -0.10945 0.3781 0.0796 0.30845zM25.10385 17.2533c0.08954999999999999 0.14925 0.34825 0 0.28855 -0.12935a50.11815 50.11815 0 0 0 -4.9153 -10.0296c-0.08954999999999999 -0.14925 -0.30845 0 -0.22885 0.1393 1.72135 3.2834999999999996 3.1342499999999998 6.696350000000001 4.8556 10.01965zM19.581599999999998 26.865a0.16915000000000002 0.16915000000000002 0 0 0 0.16915000000000002 -0.2985 38.7453 38.7453 0 0 0 -8.2187 -3.98c-0.10945 0 -0.18905 0.1393 -0.0796 0.199 2.6865 1.3532000000000002 5.373 2.8655999999999997 8.12915 4.0794999999999995zM21.89 43.71035a0.16915000000000002 0.16915000000000002 0 0 0 -0.23879999999999998 -0.23879999999999998c-2.19895 1.99 -4.1989 3.98 -6.566999999999999 5.76105 -0.199 0.14925 0 0.4975 0.199 0.34825a33.173300000000005 33.173300000000005 0 0 0 6.6068 -5.870500000000001zm2.71635 17.671200000000002c0.796 -0.7562 0.995 -2.4078999999999997 0 -2.985C21.691 56.714999999999996 20.7159 59.7 21.492 60.86415a2.17905 2.17905 0 0 0 3.11435 0.5174zM22.098950000000002 58.705a1.74125 1.74125 0 0 1 2.07955 -0.0796 1.592 1.592 0 0 1 0.199 2.3681c-1.32335 1.4925 -3.6218 -0.995 -2.27855 -2.2885zm70.2271 -12.28825a6.41775 6.41775 0 0 0 0 -2.13925 0.14925 0.14925 0 0 0 -0.28855 0 6.41775 6.41775 0 0 0 0 2.13925 0.14925 0.14925 0 0 0 0.28855 0zm0.10945 4.825749999999999a13.99965 13.99965 0 0 0 -0.0796 -2.71635c0 -0.14925 -0.26865 -0.20895 -0.28855 0a7.71125 7.71125 0 0 0 0.1592 2.77605 0.11939999999999999 0.11939999999999999 0 0 0 0.20895 -0.059699999999999996zm0.3781 -3.83075c-0.18905 0 -0.11939999999999999 0.28855 0 0.30845a3.98 3.98 0 0 0 2.4476999999999998 -0.398 0.16915000000000002 0.16915000000000002 0 0 0 -0.08954999999999999 -0.3184c-0.34825 0 -1.94025 0.33830000000000005 -2.35815 0.40795zm-3.4427 0.199c-0.18905 0 -0.23879999999999998 0.2985 0 0.33830000000000005a3.98 3.98 0 0 0 2.388 -0.1592c0.12935 -0.059699999999999996 0 -0.23879999999999998 -0.06965 -0.24875 -0.80595 -0.0398 -1.5621500000000001 0.08954999999999999 -2.31835 0.06965zM125.8277 11.94c0.04975 0 0.30845 -0.08954999999999999 0.32835000000000003 -0.17909999999999998 0 -0.26865 -3.11435 -6.616750000000001 -3.11435 -6.616750000000001a0.11939999999999999 0.11939999999999999 0 0 0 -0.2189 -0.059699999999999996 43.332249999999995 43.332249999999995 0 0 0 -3.2039 6.368v0.1592c0.9751 0.11939999999999999 5.10435 0.26865 6.2088 0.32835000000000003zm-2.9053999999999998 -6.566999999999999c0.30845 0.995 2.6865 5.6118 2.8556500000000002 6.1789499999999995 -1.88055 0 -3.3630999999999998 0 -5.870500000000001 -0.18905 1.00495 -1.99 2.0397499999999997 -3.98 3.0148499999999996 -5.9899zM13.293199999999999 91.6793a21.89 21.89 0 0 0 -0.3781 3.98l3.3232999999999997 17.48215 1.99 -0.54725s-2.985 -17.20355 -3.0546499999999996 -17.2533a23.88 23.88 0 0 0 -1.88055 -3.6616zm0.1592 0.597c0.10945 0.28855 0.23879999999999998 0.5671499999999999 0.36815 0.8557a3.6815 3.6815 0 0 0 -0.44775 0c0.029849999999999998 -0.2786 0.059699999999999996 -0.597 0.0796 -0.8557zm-0.398 3.2834999999999996c0.0796 -0.6766000000000001 0.18905 -1.36315 0.26865 -2.0397499999999997a2.3681 2.3681 0 0 0 0.7163999999999999 0.04975c0.28855 0.58705 0.58705 1.16415 0.82585 1.76115zm25.95955 16.76575a5.5123 5.5123 0 0 0 4.8854500000000005 -2.3084 6.6665 6.6665 0 0 0 0.7761 -5.0944 5.6317 5.6317 0 0 0 -2.8855 -4.20885 7.1838999999999995 7.1838999999999995 0 0 0 -4.4775 -0.34825c-3.71135 0.80595 -5.2138 4.049650000000001 -4.129250000000001 7.5520499999999995a6.7859 6.7859 0 0 0 1.99 3.2238 5.5919 5.5919 0 0 0 3.8407 1.18405zm-4.72625 -6.25855c-0.059699999999999996 -1.1144 1.3333000000000002 -4.18895 3.25365 -3.7710500000000002 0.11939999999999999 0 0 0.2189 -0.10945 0.2587A3.75115 3.75115 0 0 0 34.825 106.067a0.28855 0.28855 0 0 1 -0.5373 0zm1.12435 2.5074a0.7761 0.7761 0 0 1 0.46764999999999995 0.76615 0.2587 0.2587 0 0 1 -0.4577 0.059699999999999996c-0.059699999999999996 -0.0796 -0.199 -0.4378 -0.2587 -0.50745a0.20895 0.20895 0 0 1 0.24875 -0.3184z" stroke-width="1"></path><path d="M46.41675 126.365c0.42785 -0.2189 0.8557 -0.44775 1.2736 -0.6965a4.2984 4.2984 0 0 0 1.88055 2.587 0.14925 0.14925 0 0 0 0.17909999999999998 -0.22885 22.99445 22.99445 0 0 1 -1.76115 -2.5472 16.0195 16.0195 0 0 0 6.0496 -6.6366499999999995 22.2283 22.2283 0 0 0 1.80095 -9.074399999999999 19.9 19.9 0 0 0 -0.60695 -5.97 15.55185 15.55185 0 0 0 -8.835600000000001 -9.4326l-0.7761 -0.3184c-4.26855 -1.6716 -8.676400000000001 -2.07955 -15.17375 -0.22885 -3.2436999999999996 0.9154 -7.2237 5.820749999999999 -8.76595 9.4326a23.263099999999998 23.263099999999998 0 0 0 -0.995 14.07925 11.0047 11.0047 0 0 0 1.3731 2.6765499999999998 6.79585 6.79585 0 0 0 -2.73625 1.52235c-0.10945 0.0995 0 0.23879999999999998 0.14925 0.18905 0.9352999999999999 -0.4179 1.88055 -0.9154 2.79595 -1.393a17.770699999999998 17.770699999999998 0 0 0 13.532 7.96A21.492 21.492 0 0 0 46.41675 126.365zM34.128499999999995 101.16165a7.96 7.96 0 0 1 7.8804 -0.995c2.79595 1.30345 3.8606 4.975 3.3034 7.87045 -0.62685 3.21385 -3.2238 4.825749999999999 -6.29835 4.825749999999999a6.33815 6.33815 0 0 1 -6.1491 -4.0794999999999995c-1.02485 -2.5074 -1.02485 -5.76105 1.26365 -7.6217zm-0.44775 19.47215c-0.4577 -0.76615 1.84075 -5.97 2.31835 -6.33815 1.50245 -0.98505 -1.1741 8.28835 -2.31835 6.33815zm68.7346 -92.00765c-0.11939999999999999 0 -0.1592 -0.1393 -0.0995 -0.2189s2.4974499999999997 -4.975 2.6268000000000002 -5.3431500000000005a5.4526 5.4526 0 0 0 -5.174 0.1592 4.46755 4.46755 0 0 0 -1.99 4.4376999999999995 5.820749999999999 5.820749999999999 0 0 0 3.7809999999999997 4.179 3.5521499999999997 3.5521499999999997 0 0 0 4.577 -3.27355 22.1686 22.1686 0 0 0 -3.7213000000000003 0.059699999999999996z" stroke-width="1"></path><path d="M102.69394999999999 28.297800000000002a69.47089999999999 69.47089999999999 0 0 1 8.50725 -0.3781 53.9489 53.9489 0 0 1 -4.5969 -8.3779 63.99839999999999 63.99839999999999 0 0 1 -3.91035 8.756z" stroke-width="1"></path><path d="M85.4506 29.78035a3.2436999999999996 3.2436999999999996 0 0 0 2.8059 -0.3781 23.0442 23.0442 0 0 0 0.2985 3.1442 17.691100000000002 17.691100000000002 0 0 0 3.5123499999999996 -0.3184l0.3184 3.98 25.87 -1.5721 -1.2139 -19.581599999999998 -4.8953999999999995 0.36815c-0.1592 -0.995 -0.1592 -3.2834999999999996 -0.35819999999999996 -3.3531500000000003a7.6415999999999995 7.6415999999999995 0 0 0 -2.4974499999999997 -0.36815c0.0796 0 0 -2.8954500000000003 -0.22885 -2.9053999999999998 -4.34815 0 -21.60145 1.24375 -25.949599999999997 1.18405 -0.14925 0 1.78105 16.2384 2.1691000000000003 19.43235a0.5671499999999999 0.5671499999999999 0 0 0 0.16915000000000002 0.36815zm25.87 -1.42285a46.51625 46.51625 0 0 0 -4.78595 0.199c0.4378 2.0497 -1.60195 3.5919499999999998 -3.4626 3.83075 -2.35815 0.2985 -4.5173 -1.6119 -5.3929 -3.67155a4.84565 4.84565 0 0 1 1.5721 -5.60185 5.4924 5.4924 0 0 1 5.8307 -0.35819999999999996c0.4577 -1.194 0.8358 -2.41785 1.3333000000000002 -3.5919499999999998a0.14925 0.14925 0 0 1 0.28855 0s3.1641000000000004 5.7511 4.875500000000001 8.5371c0.059699999999999996 0.1592 -0.0796 0.6666500000000001 -0.2786 0.6567000000000001zm0.23879999999999998 -15.92a13.80065 13.80065 0 0 0 0.12935 2.985l-20.895 1.5522L91.9977 31.84a18.099050000000002 18.099050000000002 0 0 1 -3.2238 0.44775c-0.06965 -2.985 -1.44275 -15.0046 -1.40295 -18.0692 4.10935 -0.0995 22.079050000000002 -2.27855 24.16855 -1.74125zm-2.79595 -3.184a9.0943 9.0943 0 0 0 0.2985 2.4875c-0.8159 0 -17.91 1.99 -22.198449999999998 2.19895 -0.12935 0 1.18405 13.18375 1.36315 15.2434a3.4029 3.4029 0 0 1 -2.65665 0.32835000000000003s-1.8109 -16.16875 -2.3283 -19.25325c4.18895 0.50745 21.2333 -1.0149 25.521749999999997 -1.00495zM25.800349999999998 177.91595a0.8159 0.8159 0 0 0 -0.8159 0.80595 0.8159 0.8159 0 0 0 0.8159 0.8159 0.8159 0.8159 0 0 0 0.80595 -0.8159 0.80595 0.80595 0 0 0 -0.80595 -0.80595zm8.5371 -14.029499999999999a1.194 1.194 0 1 0 1.194 1.194 1.194 1.194 0 0 0 -1.194 -1.194zm10.7659 -0.7064499999999999a1.14425 1.14425 0 1 0 1.14425 1.1342999999999999 1.14425 1.14425 0 0 0 -1.14425 -1.1342999999999999zm10.61665 -0.5572a1.18405 1.18405 0 1 0 1.18405 1.18405 1.18405 1.18405 0 0 0 -1.18405 -1.18405z" stroke-width="1"></path></g></svg>