<svg xmlns="http://www.w3.org/2000/svg" fill="none" viewBox="-0.5 -0.5 200 200"><g id="work-life-balance-4--work-work-life-balance"><g id="hand"><path id="vector" fill="#000000" d="M94.48122000000001 82.27058c2.09945 -2.0626349999999998 2.3641199999999998 -2.404915 2.7670950000000003 -2.3979500000000002 0.59899 0.01592 0.73232 1.1561899999999998 0.6855549999999999 1.7561749999999998 -0.016915 0.215915 -0.037809999999999996 0.43083499999999997 -0.059699999999999996 0.64476l0.9999749999999998 0.0029850000000000002c0.018904999999999998 -0.18905 0.036815 -0.379095 0.051739999999999994 -0.570135 0.10149 -1.28952 -0.361185 -2.7939599999999998 -1.64971 -2.8277900000000002 -0.918385 -0.040795000000000005 -1.216885 0.446755 -4.213825 3.39295h1.419865l-0.000995 -0.000995Z" stroke-width="1"></path><path id="vector_2" fill="#000000" d="M52.45043 123.58895c-0.45571 0.18308 -0.7910250000000001 0.7711250000000001 -0.731325 1.2855400000000001 0.09751 0.848735 1.2935 1.143255 1.825825 0.24875 0.544265 -0.91142 -0.35223 -1.831795 -1.0945 -1.53429Z" stroke-width="1"></path><path id="vector_3" fill="#000000" d="M94.430475 112.13450999999999c0.75222 -5.6506050000000005 -3.596925 -7.05853 -8.317205 -7.587870000000001 5.771 -5.429715 10.66242 -11.84647 12.301185 -19.3826l-1.0198749999999999 -0.000995c-1.70742 7.527175000000001 -6.780925000000001 13.907115000000001 -12.605655 19.25723 -1.6566750000000001 -0.138305 -3.306385 -0.20695999999999998 -4.7451550000000005 -0.35123499999999996a0.4975 0.4975 0 0 0 -0.0995 0.990025c4.37004 0.43581 10.70819 0.17909999999999998 12.80565 3.177035 1.79299 2.560135 0.060695 6.595854999999999 -1.407925 10.633564999999999 -2.7223200000000003 7.48041 -2.1113899999999997 7.34907 -2.4775500000000004 7.881395 -0.176115 0.249745 -0.56317 0.30646 -0.8557 0.23283 -0.42785 -0.10547 -0.80595 -0.444765 -1.0547 -0.6895349999999999 -2.53725 -2.514365 -3.1899699999999998 -6.63864 -1.74324 -11.032559999999998 0.180095 -0.5422750000000001 -0.5562050000000001 -0.908435 -0.880575 -0.43979 -4.32427 6.211785 -12.611625 8.29034 -19.357725 4.85958a0.4975 0.4975 0 1 0 -0.450735 0.88754 16.205565 16.205565 0 0 0 19.174645 -3.3909599999999998 14.57476 14.57476 0 0 0 -0.22487000000000001 1.9810450000000002c-2.989975 2.084525 -3.169075 2.231785 -3.598915 2.82381 -0.9233600000000001 1.268625 -0.7054549999999999 2.858635 0.741275 3.55016 -0.38805 0.7741100000000001 -0.261685 1.571105 0.50148 2.207905 -1.00097 0.9303250000000001 -0.8855500000000001 2.77207 2.07756 3.9252749999999996 -3.6407049999999996 1.977065 -8.2187 2.99097 -13.354890000000001 2.9561450000000002l0.33830000000000005 -0.365165a0.4975 0.4975 0 0 0 -0.73033 -0.675605c-0.317405 0.34426999999999996 -1.01888 1.0945 -1.83677 1.96811 -1.5900100000000001 -6.47148 -6.65058 -12.036515 -12.99271 -14.12502 7.473445 -6.725205 16.543865 -16.17074 36.92445 -36.25979l-1.42086 0.00398c-20.2582 19.980595 -29.170415 29.266930000000002 -36.628935000000006 35.925470000000004 -2.4427250000000003 -0.615905 -2.46163 -0.13532 -7.25952 3.81881 -0.9482349999999999 -0.110445 -1.8188600000000001 -0.036815 -2.623815 0.219895 -3.4466799999999997 1.10246 -6.304320000000001 3.47852 -9.068430000000001 5.77697 -14.96878 12.452425 -23.962584999999997 16.625455 -25.815275 24.784454999999998 -3.013855 13.264344999999999 13.520059999999999 25.03022 25.154594999999997 25.03022 4.99888 0 7.5222 -2.44571 10.79575 -6.42372 7.626675 -9.26743 11.41464 -14.65038 13.857365 -17.777665000000002 2.60292 -3.33126 5.2934 -6.794855 5.2416599999999995 -11.02858 1.13032 -1.405935 3.045695 -3.915325 3.45265 -4.339195 0.641775 -0.671625 0.9830599999999999 -1.193005 0.842765 -2.8277900000000002a18.115965 18.115965 0 0 0 -0.20895 -1.591005l1.06664 -1.13828c5.36106 0.160195 10.97883 -0.7641600000000001 15.548865000000001 -3.523295 1.29549 0.34029000000000004 2.673565 0.504465 3.7014 0.504465 3.14818 0 6.286409999999999 -2.6695849999999997 6.03567 -5.88443 2.329295 -2.17109 2.404915 -5.781945 1.2039499999999999 -8.6366 -0.09552000000000001 -0.225865 1.390015 -2.267605 -0.98704 -5.925225l0.000995 0.000995ZM66.1675 140.84822c-0.37213 0.47063499999999997 -2.0497 2.617845 -2.51735 3.2078800000000003 -1.143255 -7.053555 -6.263525 -14.430485000000001 -13.747915 -17.993579999999998a13.93398 13.93398 0 0 0 -2.4009349999999996 -0.90545c3.971045 -3.27355 3.883485 -3.5650850000000003 5.5998600000000005 -3.137235 7.44658 1.8526900000000002 13.326035000000001 8.747045 13.97776 16.392625000000002 0.14726 1.726325 -0.337305 1.71339 -0.9124150000000001 2.436755l0.000995 -0.000995Zm27.97343 -27.237129999999997c0.6427700000000001 1.28952 0.8616699999999999 2.5939650000000003 0.410935 3.8217950000000003 -0.436805 1.1910150000000002 -2.1810400000000003 3.165095 -3.0785299999999998 4.045669999999999 0.86764 -2.52133 2.1293 -5.748115 2.667595 -7.867465Zm-13.462349999999999 8.954005c0.31641 -0.43581 0.5353100000000001 -0.62088 2.7979399999999996 -2.20094 0.080595 1.630805 0.47759999999999997 3.1442 1.1741 4.46158 -0.5572 0.066665 -1.141265 0.10347999999999999 -1.75518 0.11343 -2.560135 0.04975 -3.04868 -1.22584 -2.21686 -2.37407Zm0.910425 3.270565c1.0626600000000002 0.19502 2.65665 0.059699999999999996 3.618815 -0.088555 0.627845 0.908435 1.6556799999999998 2.072585 2.747195 2.23875 -0.75222 0.023880000000000002 -1.54026 0.00199 -2.36611 -0.032835 -1.50842 -0.06368 -2.8347550000000004 -0.180095 -3.7929399999999998 -0.9422649999999999 -0.186065 -0.14726 -0.301485 -0.28258 -0.35422 -0.412925 -0.09850500000000001 -0.23979499999999998 -0.00398 -0.540285 0.14626499999999998 -0.761175l0.000995 -0.000995Zm7.4227 5.69339c-1.849705 0.33034 -7.36499 -0.66267 -7.4625 -2.5541650000000002 -0.012934999999999999 -0.26666 0.17909999999999998 -0.50347 0.460685 -0.67461 1.155195 0.54327 2.4984450000000002 0.60098 3.5362299999999998 0.645755 2.75615 0.120395 5.37897 0.100495 7.6615 -1.445735 -0.24875 2.102435 -2.26462 3.6805049999999997 -4.19691 4.02776v0.000995Zm-0.227855 -3.5919499999999998c0.367155 -0.10347999999999999 0.68655 -0.317405 0.89749 -0.619885 0.46168000000000003 -0.6636650000000001 0.06567 -0.48456499999999997 1.1701199999999998 -3.9650749999999997 1.435785 -1.111415 2.98898 -2.880525 3.905375 -4.21482 1.5253349999999999 4.68645 -0.91341 8.361979999999999 -5.972985 8.79978Z" stroke-width="1"></path></g><path id="vector_4" fill="#000000" d="M179.628345 73.77626500000001c-0.37611 0.13134 -0.753215 0.26268 -1.133305 0.39203 -1.41688 3.36111 -11.9798 6.691375 -27.178425 6.691375 -16.354815000000002 0 -27.34061 -3.855625 -27.34061 -7.45653 0 -1.18405 1.187035 -2.39397 3.36111 -3.48648 -0.43581 -0.14328 -0.868635 -0.28855 -1.29748 -0.43083499999999997 -1.9303 1.12435 -3.05863 2.4377500000000003 -3.05863 3.91831 0 5.132210000000001 13.558865 8.260489999999999 27.085890000000003 8.442575 -0.03383 0.13532 -0.070645 0.21691 -0.070645 0.914405 -37.570205 -1.30146 -73.67975 -1.30743 -107.4799 -0.01592 0 -0.30447 0.004975 -0.4378 -0.0199 -0.63282 15.644385000000002 -0.594015 27.36449 -4.46357 27.36449 -9.297279999999999 0 -3.5621 -6.36402 -6.599835 -15.972735 -8.189845l-0.9959949999999999 0.84376c9.926120000000001 1.52633 15.973729999999998 4.506355 15.973729999999998 7.3460849999999995 0 4.04766 -12.28825 8.381879999999999 -30.579335 8.381879999999999 -18.291085 0 -30.579335 -4.3332250000000005 -30.579335 -8.381879999999999 0 -4.049650000000001 12.28825 -8.380885 30.579335 -8.380885 0.60098 0 1.194995 0.004975 1.7820449999999999 0.01393a103.90785000000001 103.90785000000001 0 0 1 -0.6736150000000001 -1.00495c-0.36815 -0.00199 -0.737295 -0.00398 -1.10843 -0.00398 -17.70503 0 -31.574335 4.118305 -31.574335 9.375885 0 4.94714 12.275314999999999 8.884355000000001 28.47093 9.3331 -0.02189 0.186065 -0.01592 0.10347999999999999 -0.01592 2.287505a2.3820300000000003 2.3820300000000003 0 0 0 2.3800399999999997 2.37805c2.5541650000000002 0 2.81585 0.052735 3.33723 -0.11939999999999999 62.4462 -2.4476999999999998 108.94653 0.11939999999999999 114.08471 0.11939999999999999a2.3820300000000003 2.3820300000000003 0 0 0 2.379045 -2.37805c0 -2.13129 0.038805 -2.2845199999999997 -0.122385 -2.76809 11.487275 -0.73033 21.837265 -3.56011 22.402425 -7.89035v-0.000995ZM41.52334 84.432715c0 0.7641600000000001 -0.62088 1.3850399999999998 -1.384045 1.3850399999999998h-2.591975a1.386035 1.386035 0 0 1 -1.3850399999999998 -1.384045c0 -2.2367600000000003 -0.00796 -2.09149 0.022885 -2.26263 1.74324 0.03184 3.4964299999999997 0.025869999999999997 5.3093200000000005 -0.025869999999999997 0.0398 0.196015 0.02786 0.11144 0.02786 2.2885l0.000995 0Zm0.661675 1.2139c0.39004 -0.6567000000000001 0.33332500000000004 -1.167135 0.33332500000000004 -1.907415 33.797165 -1.29151 69.90670999999999 -1.286535 107.4799 0.01592 0 0.753215 -0.052735 1.25171 0.341285 1.9044299999999998 -35.60906 -1.2507149999999998 -72.12456499999999 -1.38703 -108.15450999999999 -0.012934999999999999Zm114.16928499999999 -1.2139c0 0.7641600000000001 -0.62088 1.3850399999999998 -1.384045 1.3850399999999998h-2.591975a1.386035 1.386035 0 0 1 -1.3850399999999998 -1.384045c0 -1.96811 -0.052735 -2.19497 0.12139 -2.580035 1.68354 0 3.228775 -0.030845 5.0526100000000005 -0.126365 0.24875 0.42785 0.18706 0.582075 0.18706 2.7064000000000004Z" stroke-width="1"></path><g id="laptop"><path id="vector_5" fill="#000000" d="M177.992565 24.07303c3.58399 -0.28058999999999995 7.783885000000001 1.1542 10.55098 4.195914999999999 0.890525 0.97908 1.4128999999999998 2.1531800000000003 2.1929800000000004 3.19793 0.247755 0.331335 0.72237 0.13532 0.6567000000000001 -0.27661 -0.36317499999999997 -2.30044 -3.350165 -5.026739999999999 -5.415785 -6.1491 -3.06858 -1.6676199999999999 -5.489415 -1.758165 -8.016715 -1.1959899999999999 -0.126365 0.02786 -0.10149 0.23879999999999998 0.030845 0.22885l0.000995 -0.000995Z" stroke-width="1"></path><path id="vector_6" fill="#000000" d="M178.29305499999998 19.32887c1.8855250000000001 -0.07561999999999999 3.742195 -0.162185 5.610805 0.184075 5.288425 0.980075 8.483369999999999 4.384965 9.34106 8.2386 0.186065 0.8358 0.152235 1.72135 0.38208000000000003 2.544215 0.11243500000000001 0.402975 0.61093 0.33233 0.749235 0 0.59302 -1.42285 -0.199995 -3.88647 -0.894505 -5.26952 -2.798935 -5.574985 -9.808710000000001 -7.8545300000000005 -15.273249999999999 -6.317255 -0.33531500000000003 0.094525 -0.2786 0.63481 0.08457500000000001 0.619885Z" stroke-width="1"></path><path id="vector_7" fill="#000000" d="M182.26211 67.346575c-1.0547 0 -20.125865 -3.67155 -37.38812 -8.595804999999999a2.25467 2.25467 0 0 1 -1.618865 -1.9322899999999998 133.38771 133.38771 0 0 1 -0.06865500000000001 -24.891915c0.094525 -1.0338049999999999 0.9343049999999999 -2.07955 2.315365 -2.044725 11.801695 0.289545 24.355610000000002 2.44571 37.317475 6.103330000000001a2.2536750000000003 2.2536750000000003 0 0 1 1.652695 2.0805450000000003c0.34029000000000004 8.94505 0.35322499999999996 18.0692 0.04179 27.12171 -0.046765 1.25967 -1.089525 2.15915 -2.2516849999999997 2.15915ZM145.42522 30.874850000000002a1.26365 1.26365 0 0 0 -1.24773 1.1422599999999998 132.419575 132.419575 0 0 0 0.06865500000000001 24.705849999999998c0.048755 0.500485 0.40993999999999997 0.93132 0.8994800000000001 1.0706200000000001 11.666375 3.32728 24.076014999999998 6.199845 36.88465 8.5371 0.741275 0.13532 1.46066 -0.40397000000000005 1.4875250000000002 -1.18007 0.311435 -9.027635 0.2985 -18.127905000000002 -0.04179 -27.048080000000002a1.26166 1.26166 0 0 0 -0.928335 -1.161165c-12.884255 -3.634735 -25.36056 -5.676475 -37.082654999999995 -6.06552 -0.04577 -0.54327 -0.04179 -0.78008 -0.04179 0l0.00199 0Z" stroke-width="1"></path><path id="vector_8" fill="#000000" d="M188.89279000000002 36.761269999999996a3.6198099999999998 3.6198099999999998 0 0 0 -2.649685 -3.34519c-14.79963 -4.17502 -29.14156 -6.520235 -42.62779 -6.968979999999999 -1.88055 -0.04975 -3.54419 1.380065 -3.7203049999999998 3.286485 -0.860675 9.359965 -0.8338099999999999 18.935845 0.080595 28.461975 0.082585 0.85769 0.47759999999999997 1.6427450000000001 1.077585 2.22681 -7.41872 1.27957 -14.74192 2.95913 -22.381529999999998 5.132210000000001 -1.28952 0.36616 -1.652695 2.589985 -0.07561999999999999 3.181015 9.912189999999999 3.718315 23.319815000000002 8.47342 39.144295 12.263375 1.98403 0.47561 4.028755 0.48556 5.9222399999999995 0.037809999999999996 8.465459999999998 -2.00194 16.112035000000002 -5.187930000000001 22.256159999999998 -7.7480649999999995 0.77212 -0.32138500000000003 1.0905200000000002 -0.8308249999999999 1.384045 -1.70145a0.739285 0.739285 0 0 0 -0.32636000000000004 -0.874605 3.6019 3.6019 0 0 0 1.965125 -3.0795250000000003 427.51767 427.51767 0 0 0 -0.047760000000000004 -30.87286l-0.000995 0.000995Zm-25.365534999999998 41.168124999999996a11.937015 11.937015 0 0 1 -5.517275 -0.0059700000000000005c-15.520010000000001 -3.714335 -28.662965 -7.576925 -39.066685 -11.411655 7.6435900000000006 -2.17507 14.967785 -3.85264 22.388495000000002 -5.127235l43.480505 9.91617c-6.372975 2.55715 -13.525034999999999 4.7839599999999995 -21.28504 6.62869ZM187.94555 67.6003c-0.05572 1.5949849999999999 -1.5253349999999999 2.76013 -3.099425 2.47357 -2.0497 -0.373125 -36.286655 -8.089350000000001 -41.99497 -9.71916a2.62481 2.62481 0 0 1 -1.8845299999999998 -2.2536750000000003c-0.908435 -9.46444 -0.9352999999999999 -18.977635 -0.080595 -28.274915a2.62481 2.62481 0 0 1 2.69645 -2.383025c13.405635 0.44576 27.667965 2.77804 42.39098 6.9321649999999995a2.62282 2.62282 0 0 1 1.925325 2.4248149999999997c0.38805 10.175865 0.402975 20.53879 0.047760000000000004 30.800224999999998h-0.000995Z" stroke-width="1"></path><path id="vector_9" fill="#000000" d="m174.941895 70.65296 -33.641945 -7.57195a168.8714 168.8714 0 0 0 -12.368844999999999 2.60292c-0.47063499999999997 0.11740999999999999 -0.51143 0.7780900000000001 -0.05373 0.9492299999999999 0.40795 0.152235 30.8848 8.15701 33.618065 8.82963 0.199 0.046765 0.0398 0.047760000000000004 3.0218149999999997 -0.796 3.29743 -0.9352999999999999 6.707294999999999 -1.90244 9.505235 -3.06858 0.44576 -0.186065 0.39004 -0.8377899999999999 -0.08159000000000001 -0.944255l0.000995 0Zm-12.337005 3.81085c-3.26559 -0.8139099999999999 -25.0342 -6.543119999999999 -31.548465 -8.27243 1.30743 -0.31044 2.60491 -0.60297 3.8994050000000002 -0.87958 10.154969999999999 2.816845 21.5716 5.17002 31.81811 7.961990000000001 -2.35019 0.66864 -3.085495 0.87361 -4.16905 1.1900199999999999Zm5.988905 -1.71936c-9.98582 -2.802915 -21.299965 -5.1471350000000005 -31.482795 -7.877415 1.415885 -0.281585 2.83177 -0.544265 4.259595 -0.79003l31.77035 7.18788c-1.425835 0.524365 -2.96908 1.011915 -4.54715 1.479565Z" stroke-width="1"></path></g><g id="leisure"><path id="vector_10" fill="#000000" d="M4.950125 84.078495c-1.708415 4.62277 0.70048 12.62655 6.75008 16.599585 2.5412299999999997 1.66961 4.205865 1.8467200000000001 5.80881 1.6278199999999998 0.397005 -0.05373 0.249745 -0.613915 -0.08756 -0.64874 -1.175095 -0.12338 -2.40392 -0.586055 -3.465585 -1.089525 -4.301385000000001 -2.0437299999999996 -7.238625000000001 -6.287405 -8.148055 -10.764905 -0.38606 -1.8984599999999998 -0.2985 -3.7213000000000003 -0.237805 -5.63966 0.011940000000000001 -0.375115 -0.502475 -0.402975 -0.619885 -0.08457500000000001Z" stroke-width="1"></path><path id="vector_11" fill="#000000" d="M10.69028 82.35615c-1.30345 2.21089 -1.326335 6.629685 0.6527200000000001 9.98781 1.559165 2.643715 4.327255 4.972015 7.45056 5.298375 0.28855 0.029849999999999998 0.42188 -0.44377 0.152235 -0.5611799999999999 -2.66461 -1.163155 -5.105345 -2.63277 -6.633665 -5.193899999999999a10.909180000000001 10.909180000000001 0 0 1 -1.48852 -4.42576c-0.17909999999999998 -1.6895099999999998 0.1393 -3.2317600000000004 0.381085 -4.88744 0.04378 -0.29651 -0.34029000000000004 -0.51342 -0.51541 -0.21691Z" stroke-width="1"></path><path id="vector_12" fill="#000000" d="M64.6551 43.06161c-2.3521799999999997 -2.1094 -6.109299999999999 -2.1691000000000003 -8.605754999999998 -1.135295 -0.717395 0.29651 -3.74916 2.64073 -5.68742 4.43173 -0.63083 -1.8785599999999998 -1.336285 -3.2685750000000002 -2.24671 -4.43969 -1.923335 -2.4755599999999998 -6.0695 -4.727245 -9.412700000000001 -4.04766 -4.06159 0.824855 -7.66349 5.701350000000001 -6.5869 11.95393 0.355215 0.06766 0.7064499999999999 0.14726 1.053705 0.241785 -1.29151 -6.48342 2.68451 -11.3231 6.78988 -11.3231 2.691475 0 5.829705 1.80294 7.37096 3.78697 0.95122 1.222855 1.6676199999999999 2.729285 2.323325 4.880475000000001a0.4975 0.4975 0 0 0 0.824855 0.20895c1.9273150000000001 -1.90045 5.38096 -4.538195 5.951095 -4.773015 2.209895 -0.91341 5.51429 -0.876595 7.561005 0.9551999999999999 2.4128749999999997 2.1631299999999998 2.3730749999999996 6.0695 1.08654 8.809729999999998 -1.780055 3.78896 -4.363074999999999 5.52623 -19.556725 18.460235a123.82178 123.82178 0 0 1 -8.866444999999999 -12.910124999999999c-0.34825 0.11343 -0.7163999999999999 0.1592 -1.079575 0.126365 2.41387 4.128255 5.78095 9.123155 9.485335 13.805625a0.4975 0.4975 0 0 0 0.713415 0.06965C61.68203999999999 58.61346 64.108845 57.01349999999999 65.97845 53.0335c1.443745 -3.07455 1.4526999999999999 -7.485385 -1.32136 -9.970895l-0.00199 -0.000995Z" stroke-width="1"></path><path id="vector_13" fill="#000000" d="M60.768629999999995 45.73617c0.32835000000000003 0.249745 0.70446 0.7193849999999999 0.9163950000000001 1.069625 0.23382499999999998 0.38606 0.37412 0.828835 0.43382 1.274595 0.54725 4.03373 -4.0188049999999995 5.9003499999999995 -4.8008750000000004 8.02567 -0.09353 0.255715 0.213925 0.40894499999999995 0.41391999999999995 0.3184 0.87361 -0.39601000000000003 2.436755 -1.96413 3.087485 -2.6536649999999997 0.86764 -0.920375 1.68752 -1.98005 2.028805 -3.218825 0.502475 -1.819855 0.078605 -3.4427 -0.72237 -4.396904999999999 -0.36815 -0.4378 -0.6984899999999999 -0.56914 -1.230815 -0.721375 -0.19303 -0.05572 -0.26765500000000003 0.19502 -0.12736 0.301485l0.000995 0.000995Z" stroke-width="1"></path><path id="vector_14" fill="#000000" d="M39.10748 55.69214c0.156215 -1.672595 -0.67859 -3.6048850000000003 -3.117335 -5.00883 -2.6268000000000002 -1.5114049999999999 -5.756075 -1.720355 -8.772915 -1.720355 -2.13129 0 -4.585955 0.08358 -6.796845 1.04674 -2.10542 0.91739 -3.5093650000000003 2.1492 -4.172034999999999 3.66359 -1.7123950000000001 3.903385 -3.1402200000000002 8.46745 -1.68553 12.043479999999999 1.5750849999999998 3.87851 5.70931 5.807815 8.900275 6.74212 2.7103800000000002 0.79401 5.56006 1.1989750000000001 8.29432 0.5950099999999999 7.728165000000001 -1.7104050000000002 11.51215 -10.59078 7.3510599999999995 -17.359765l-0.000995 -0.00199Zm-18.291085 -4.771025c2.036765 -0.88754 4.37004 -0.964155 6.40183 -0.964155 2.8327649999999998 0 5.833685 0.18308 8.27641 1.58802 2.61884 1.50842 3.0795250000000003 3.728265 2.3084 5.09241 -0.468645 0.82983 -1.47459 1.30345 -2.3800399999999997 1.12634 -0.22885 -0.044774999999999995 -0.46367 -0.12139 -0.697495 -0.19701000000000002 -1.46265 -0.47262499999999996 -2.16711 -0.432825 -3.01286 0.81192a4.01383 4.01383 0 0 1 -0.263675 0.36218c-0.41889499999999996 0.486555 -1.169125 0.735305 -1.977065 0.6696350000000001 -1.648715 -0.134325 -2.91933 -1.2188750000000002 -4.28646 -1.023855 -1.149225 0.16318000000000002 -2.04771 1.167135 -2.785005 0.9293300000000001 -0.946245 -0.303475 -0.92535 -2.3143700000000003 -2.215865 -3.093455 -0.259695 -0.15721 -2.3820300000000003 -0.93331 -3.29345 -1.314395 0.40795 -1.95617 2.09149 -3.18798 3.923285 -3.98597l0.00199 -0.000995Z" stroke-width="1"></path><path id="vector_15" fill="#000000" d="M28.838085 52.10218c-0.58705 -0.154225 -3.429765 -0.789035 -3.35713 0.13333 0.028855000000000002 0.37013999999999997 0.375115 0.62685 0.7064499999999999 0.7910250000000001a4.5272499999999996 4.5272499999999996 0 0 0 2.854655 0.37412c1.023855 -0.203975 0.7780900000000001 -1.039775 -0.203975 -1.2984749999999998Z" stroke-width="1"></path><path id="vector_16" fill="#000000" d="M30.94052 36.698585c-3.2805150000000003 -4.22079 -10.878335 -5.25758 -15.054350000000001 -2.054675 -1.92831 1.4805599999999999 -3.41285 3.6377200000000003 -4.288449999999999 6.23865 -1.4726 4.361085 -0.64078 6.866495 -0.603965 6.97097a0.498495 0.498495 0 0 0 0.78008 0.22885c3.60588 -2.86958 5.218775 -2.05965 7.2177299999999995 -0.5780949999999999a0.49551 0.49551 0 0 0 0.73829 -0.186065c0.7363 -1.5124 2.1094 -2.792965 2.9352500000000004 -3.47255a154.54936999999998 154.54936999999998 0 0 1 4.65461 8.809729999999998 0.4975 0.4975 0 1 0 0.89351 -0.43581 153.824015 153.824015 0 0 0 -4.737195 -8.959975c1.057685 -0.64675 2.23278 -0.9392799999999999 3.3133500000000002 -0.81192a0.498495 0.498495 0 0 0 0.5552100000000001 -0.446755c0.19701000000000002 -2.072585 1.49051 -4.382975 3.23574 -4.50138a0.4975 0.4975 0 0 0 0.35819999999999996 -0.8019700000000001h0.00199Zm-19.14579 10.11915c-0.40795 -3.129275 0.982065 -8.026665 4.010845 -10.8057 -0.8338099999999999 2.948185 -0.243775 6.3142700000000005 1.6417499999999998 9.395785 -1.30345 -0.46566 -3.09843 -0.422875 -5.652595 1.40892Zm10.356955000000001 -3.837715c-0.7562 0.61093 -2.0556699999999997 1.78105 -2.9452 3.228775 -2.23079 -2.924305 -3.807865 -7.2237 -1.99398 -11.14997 2.96908 -0.0398 6.94709 4.19691 8.64456 6.380935 -1.294495 0.0995 -2.587 0.63481 -3.7053800000000003 1.5392649999999999Zm4.40785 -2.255665c-1.788015 -2.2685999999999997 -5.095395000000001 -5.651599999999999 -7.87642 -6.450584999999999 3.61185 -1.25171 8.33014 -0.275615 10.940024999999999 2.42382 -1.53429 0.5601849999999999 -2.6098850000000002 2.243725 -3.0616149999999998 4.028755l-0.000995 -0.00199Z" stroke-width="1"></path></g></g></svg>