<svg xmlns="http://www.w3.org/2000/svg" fill="none" viewBox="-0.5 -0.5 200 200"><g id="researchers--science-technology-researchers"><g id="table"><path id="Subtract" fill="#000000" fill-rule="evenodd" d="M120.342265 79.24378999999999h-13.304145a11.0843 11.0843 0 0 1 1.728315 -0.796h9.396780000000001c0.727345 0.2189 1.4556850000000001 0.48357 2.17905 0.796Zm4.546155 0h21.23131c3.706375 0 7.1958400000000005 2.000945 9.165939999999999 5.29539 0.08656499999999999 0.088555 8.796795 9.1142 19.794529999999998 29.328619999999997 10.797740000000001 19.84627 17.29111 33.888704999999995 17.62145 34.60411l0.012934999999999999 0.026865c2.20293 3.758115 -0.166165 9.063455 -5.178975 9.063455v0.000995H11.46439c-4.617795 0 -7.611750000000001 -4.84167 -5.2536000000000005 -9.13012 0.047760000000000004 -0.13134 4.908335 -13.394689999999999 16.647345 -34.88271 7.79085 -14.25835 13.93199 -22.29795 17.1936 -26.103825a28.66595 28.66595 0 0 0 -0.446755 -0.6984899999999999c-3.2636 3.7809999999999997 -9.5122 11.901195 -17.445335 26.421229999999998 -11.77284 21.546725000000002 -16.649335 34.860820000000004 -16.671225 34.935444999999994 -2.6088899999999997 4.6964 0.60098 15.03445 5.976965 15.03445h10.15099c1.133305 3.7033899999999997 2.5541650000000002 8.07741 4.25263 12.41959 0.241785 0.61491 1.16614 0.247755 0.92734 -0.36218 -1.6427450000000001 -4.199895 -3.025795 -8.43561 -4.1392 -12.05741h9.73508c0.6696350000000001 3.8695549999999996 1.340265 7.83463 1.94423 11.887265a0.4975 0.4975 0 0 0 0.984055 -0.14626499999999998c-0.596005 -4.00388 -1.25768 -7.919205 -1.9183599999999998 -11.741000000000001h132.79071a124.01083 124.01083 0 0 1 -2.289495 11.05445 0.4975 0.4975 0 0 0 0.96316 0.24576499999999998 125.315275 125.315275 0 0 0 2.33626 -11.29922h10.26044a2157.7251600000004 2157.7251600000004 0 0 1 -3.676525 11.44847 0.4975 0.4975 0 0 0 0.946245 0.30646c1.288525 -3.982985 2.5133699999999997 -7.7809 3.774035 -11.753935h9.027635c5.339169999999999 0 8.655505 -10.285314999999999 5.88443 -15.006590000000001l0.000995 -0.0029850000000000002c-0.064675 -0.14129 -6.61078 -14.370785 -17.640355 -34.64391 -11.04848 -20.308945 -19.83632 -29.41419 -19.86617 -29.429115000000003 -2.054675 -3.4606100000000004 -5.807815 -5.610805 -9.793785 -5.610805l-22.5666 0c0.448745 0.24875 0.894505 0.5144150000000001 1.33529 0.796Zm-20.716895 -0.796 -45.18593499999999 0c0.20099 0.26268 0.398 0.52735 0.590035 0.796h43.659605c0.30049 -0.281585 0.61292 -0.54725 0.936295 -0.796Z" clip-rule="evenodd" stroke-width="1"></path></g><g id="computer"><path id="Subtract_2" fill="#000000" fill-rule="evenodd" d="M132.815585 27.398320000000002a4.05761 4.05761 0 0 0 -3.76309 -3.53424c-12.884255 -0.87361 -38.16621 -1.21788 -62.286004999999996 0.424865 -1.941245 0.12139 -3.551155 1.7313 -3.6655800000000003 3.68946 0.000995 0.40695499999999996 -0.044774999999999995 1.1223599999999998 -0.11144 2.15716 -0.054725 0.85371 -0.12338 1.925325 -0.19104000000000002 3.2198200000000003a146.51375 146.51375 0 0 0 4.4277500000000005 -0.36616c0.052735 -0.84376 0.11144 -1.69946 0.176115 -2.5671v-0.398a2.80192 2.80192 0 0 1 2.60292 -2.60292c10.545010000000001 -0.7402799999999999 21.301955 -1.0815649999999999 32.1584 -1.043755 -0.016915 0.52337 0.008955 1.085545 0.052735 2.00194 0.13731000000000002 2.9262949999999996 0.44377 9.46245 0.04378 29.86592l0.000995 -0.000995c-0.038805 1.135295 -0.12338 2.33825 -0.20895 3.55812 -0.138305 1.973085 -0.27959500000000004 3.9929349999999997 -0.23879999999999998 5.8506 -14.47327 0.221885 -23.073055 -0.19701000000000002 -27.8202 -0.42785 -1.6716 -0.08159000000000001 -2.8655999999999997 -0.1393 -3.6705550000000002 -0.138305 -1.417875 -0.094525 -2.512375 -1.14425 -2.601925 -2.46959 -0.0029850000000000002 -0.221885 -0.047760000000000004 -0.731325 -0.11542000000000001 -1.50643 -0.1393 -1.5840400000000001 -0.37412 -4.2785 -0.5492400000000001 -7.89035a38.404015 38.404015 0 0 1 -4.291435 0.126365c0.1393 3.37305 0.35123499999999996 7.06848 0.655705 11.097235000000001 0.15123999999999999 2.00393 1.65966 3.54817 3.68946 3.66757 0.5641649999999999 0 1.66364 0.04975 3.28151 0.124375 4.3979 0.20298 12.629534999999999 0.58307 24.355610000000002 0.5850599999999999v6.360040000000001c-0.504465 0.048755 -1.00893 0.106465 -1.5133949999999998 0.17909999999999998 -2.788985 0.34825 -8.08736 1.7900049999999998 -8.18885 4.591925 -0.046765 1.31738 0.432825 1.9919899999999997 1.81687 1.9919899999999997 2.4815300000000002 0.41192999999999996 8.64854 0.5522250000000001 13.0146 0.570135a12.7758 12.7758 0 0 1 2.703415 -4.60685 12.589735000000001 12.589735000000001 0 0 1 2.49347 -2.09348A36.626945 36.626945 0 0 0 101.49 77.23190000000001v-6.463520000000001c12.112135 -0.1592 19.89005 -0.63282 24.23024 -0.89749l0.000995 0 0.000995 0c1.77707 -0.10945 2.97704 -0.182085 3.66359 -0.184075a4.26855 4.26855 0 0 0 3.74916 -3.772045c0.138305 -2.49148 0.271635 -4.92525 0.381085 -7.358025a4751.0255 4751.0255 0 0 0 -4.522275 1.50444c-0.07164 1.16614 -0.08557 1.3551900000000001 -0.108455 1.6765750000000001 -0.02189 0.31243 -0.052735 0.749235 -0.154225 2.32233v-0.000995a2.800925 2.800925 0 0 1 -2.589985 2.601925l-0.116415 0h-0.08358c-0.122385 0 -0.20695999999999998 0 -0.29252999999999996 0.00199 -0.196015 0.00398 -0.391035 0.01592 -1.03281 0.056715l-0.000995 0 -0.0029850000000000002 0c-0.645755 0.04179 -1.7422449999999998 0.11144 -3.740205 0.22984500000000002l0.28357499999999997 -6.810775c1.25768 0.006965 4.026764999999999 -0.30247999999999997 6.088405 -0.572125a20.76565 20.76565 0 0 1 -0.438795 -0.988035c-0.6835650000000001 0.07164 -1.370115 0.13731000000000002 -2.026815 0.199l-0.000995 0.000995c-1.47658 0.14129 -2.796945 0.26765500000000003 -3.571055 0.41591l0.11542000000000001 -2.0158699999999996 0 -0.004975 0 -0.000995c0.14726 -2.5412299999999997 0.160195 -2.76411 0.16119 -4.84167l3.79095 -0.0199a20.686049999999998 20.686049999999998 0 0 1 -0.047760000000000004 -0.60695l-12.158900000000001 0.11243500000000001c-0.000995 -2.76809 -0.042785 -7.89234 -0.377105 -10.84948 2.1691000000000003 -0.00995 7.97194 -0.022885 12.0992 -0.030845l0.000995 0c2.512375 -0.004975 4.40387 -0.00995 4.4765049999999995 -0.010945 0.07263499999999999 1.98602 0.11243500000000001 3.9740300000000004 0.12139 5.9610449999999995 0.848735 -0.20895 1.696475 -0.42386999999999997 2.544215 -0.63879l0.000995 0a564.8217 564.8217 0 0 1 1.8606500000000001 -0.468645c-0.038805 -5.509315 -0.311435 -11.453444999999999 -0.980075 -18.37765l0.00199 -0.00199Zm-24.676994999999998 51.29822a10.42959 10.42959 0 0 0 -3.6476699999999997 2.591975 10.561925 10.561925 0 0 0 -1.9919899999999997 3.220815 60.62535 60.62535 0 0 0 1.778065 -0.034825c1.911395 0.106465 3.82279 -0.10547 5.628715 -0.743265 0.84973 -0.3184 0.9551999999999999 -1.380065 0.9551999999999999 -2.229795 -0.106465 -0.9551999999999999 -0.6368 -1.8049300000000001 -1.48653 -2.229795a9.308225 9.308225 0 0 0 -1.23579 -0.57511Zm-32.80515 -31.653934999999997c1.439765 -0.059699999999999996 2.76411 -0.160195 4.0994 -0.261685 2.15716 -0.16517 4.34616 -0.331335 7.111265 -0.331335l1.11639 0.00199c1.5422500000000001 0.00398 2.2516849999999997 0.0059700000000000005 2.812865 -0.108455 0.27263000000000004 0 0.26268 -0.40795 0.026865 -0.40795 -1.10246 -0.27462000000000003 -2.3969549999999997 -0.34426999999999996 -4.06159 -0.215915 -0.745255 0 -1.4755850000000001 0.026865 -2.1810400000000003 0.05373 -0.43382 0.01592 -0.888535 0.025869999999999997 -1.374095 0.03582 -1.815875 0.036815 -4.0794999999999995 0.08358 -7.43265 0.524365 -0.036815 0.23681 -0.076615 0.47362 -0.118405 0.7094349999999999Zm0.679585 -6.817740000000001c1.92035 -0.11939999999999999 5.65956 -0.30646 12.973805 -0.46566 1.6706050000000001 -0.036815 3.260615 -0.10149 4.99092 -0.3184 0.190045 0 0.32636000000000004 -0.19104000000000002 0.20198500000000003 -0.35322499999999996a0.199 0.199 0 0 0 -0.19502 -0.16417500000000002c-3.57802 -0.23879999999999998 -12.958879999999999 0.373125 -17.955769999999998 0.79401 -0.00398 0.16915000000000002 -0.00995 0.33830000000000005 -0.01592 0.50745Zm-0.010945 -5.569015c1.13231 -0.04378 2.53924 -0.142285 4.922265 -0.30944499999999997 1.88851 -0.132335 4.388945 -0.30845 7.850549999999999 -0.53332 1.67359 0 3.322305 -0.20099 4.9919150000000005 -0.424865a0.32835000000000003 0.32835000000000003 0 0 0 0.311435 -0.311435c0 -0.160195 -0.152235 -0.311435 -0.305465 -0.311435l-0.000995 -0.000995c-1.6318 -0.096515 -3.286485 0.01592 -5.217779999999999 0.21293 -5.70931 0.5810799999999999 -8.70227 0.753215 -10.75993 0.870625 -0.6885399999999999 0.0398 -1.2716100000000001 0.07363 -1.81687 0.11343l0.024875 0.69451Zm49.914175 -7.55404c1.41688 0.106465 2.512375 1.14425 2.603915 2.5083949999999997 0.341285 3.517325 0.57312 7.0505700000000004 0.715405 10.58879 -0.10547 -0.00199 -22.80142 -0.09552000000000001 -25.922735 0.04577 -0.038805 -5.94015 -0.100495 -12.197705000000001 -0.11740999999999999 -13.868310000000001 6.502325 0.036815 17.714979999999997 0.35024 22.720825 0.725355Zm-22.599435 13.783735c1.3183749999999999 0.124375 1.5721 0.12338 5.950100000000001 0.0995l2.840725 -0.01592c-0.036815 0.496505 -0.01393 0.8756 0.02189 1.48852 0.04577 0.76814 0.11343 1.905425 0.11343 4.104375l0.07761 5.26952 -0.93132 0.020895 -0.000995 0c-2.560135 0.057710000000000004 -5.412800000000001 0.122385 -8.07144 0.11243500000000001 0.000995 -0.20895 0.026865 -6.56501 -0.000995 -11.080319999999999l0.000995 0.000995Zm16.579685 21.423344999999998c-0.223875 2.56312 -0.325365 3.73125 -0.21691 4.713315 -5.59389 0.31442 -11.236535 0.516405 -16.912015 0.61491 0.18706 -1.78105 0.23084000000000002 -3.7809999999999997 0.27462000000000003 -5.712294999999999 0.018904999999999998 -0.85968 0.037809999999999996 -1.70543 0.06865500000000001 -2.5133699999999997l0.0029850000000000002 -0.076615 0 -0.000995 0 -0.000995c0.08954999999999999 -2.323325 0.17312999999999998 -4.506355 0.199 -6.7868949999999995 1.97209 -0.023880000000000002 2.6536649999999997 -0.025869999999999997 3.350165 -0.02786 1.36514 -0.0029850000000000002 2.790975 -0.0059700000000000005 14.10313 -0.17711 -0.22984500000000002 1.47061 -0.34625999999999996 3.117335 -0.49949 5.282455000000001l0 0.00398 0 0.0029850000000000002c-0.05373 0.755205 -0.11144 1.5721 -0.180095 2.466605l-0.000995 0.000995c-0.06965 0.8377899999999999 -0.13333 1.56812 -0.18905 2.21089ZM96.76574 52.62555c-0.914405 -0.22885 -1.393 -0.22686 -6.860525 -0.2189 -1.258675 0.00199 -2.781025 0.00398 -4.63471 0.00398 -1.879555 0 -3.51434 0.08954999999999999 -5.2466349999999995 0.18506999999999998l-0.48755 0.026865c-1.8705999999999998 0 -3.73523 0.20099 -5.63966 0.42586 -0.184075 0.023880000000000002 -0.27462000000000003 0.504465 0.11542000000000001 0.5174l0.25472 0.00796c0.82983 0.02786 1.2139 0.040795000000000005 3.192955 -0.046765 1.59399 -0.07164 2.162135 -0.07164 2.7213249999999998 -0.07164 0.7989850000000001 -0.000995 1.579065 -0.00199 5.307329999999999 -0.20895 0.982065 -0.054725 1.45071 -0.04975 3.1342499999999998 -0.03383 1.10047 0.00995 2.7213249999999998 0.026865 5.34514 0.03383 1.10047 0.122385 2.014875 0.08656499999999999 2.77207 -0.10547 0.27462000000000003 0 0.271635 -0.51541 0.026865 -0.51541h-0.000995Zm-8.530135 6.599835c0.80595 0.034825 1.06664 0.04577 1.52633 0.199l0.000995 0.000995c0.32636000000000004 0.16119 0.28556499999999996 0.6188899999999999 -0.03184 0.6188899999999999 -1.25768 0 -2.55715 0 -3.73523 -0.213925 -3.465585 -0.28855 -5.965025 -0.23879999999999998 -8.047559999999999 -0.19701000000000002 -1.28753 0.025869999999999997 -2.41586 0.048755 -3.51434 -0.01393 -0.24079 -0.01393 -0.33332500000000004 -0.5174 0.004975 -0.5174l0.23283 -0.0199c1.18007 -0.0995 2.2914849999999998 -0.19303 3.483495 -0.19303 0.47958999999999996 0 0.9293300000000001 -0.012934999999999999 1.368125 -0.024875 0.846745 -0.023880000000000002 1.654685 -0.04577 2.5690899999999997 0.024875a65.63019999999999 65.63019999999999 0 0 0 2.14323 0.11740999999999999 65.9088 65.9088 0 0 1 1.786025 0.094525c1.04475 0.07363 1.728315 0.10347999999999999 2.2138750000000003 0.124375Z" clip-rule="evenodd" stroke-width="1"></path><path id="Subtract_3" fill="#000000" fill-rule="evenodd" d="M129.38582 86.32222c1.3532000000000002 1.7303050000000002 2.394965 3.57404 3.105395 5.43668l-0.054725 0a47.5809 47.5809 0 0 1 -0.9561949999999999 -1.688515l-0.000995 -0.000995 -0.000995 -0.00199 -0.00199 -0.0029850000000000002 0 -0.000995c-0.11144 -0.20298 -0.22089 -0.402975 -0.33034 -0.59899l-29.47389 -0.144275a14.2285 14.2285 0 0 1 0.000995 -0.58307c14.451379999999999 0.046765 28.163475 0.08457500000000001 29.031115 0.07164a9.40076 9.40076 0 0 1 -0.40795 -0.72436 8.75799 8.75799 0 0 0 -0.49152999999999997 -0.8178899999999999l-0.000995 -0.00199 -0.000995 -0.000995c-0.09253499999999999 -0.14328 -0.18905 -0.29252999999999996 -0.28656 -0.44974000000000003 -2.23278 0.096515 -14.605605 0.144275 -27.679904999999998 0.12935 0.03184 -0.19303 0.066665 -0.38407 0.106465 -0.57312 4.56108 0.00995 9.736075 0.01592 15.60956 0.01592 1.397975 0 2.7999300000000003 -0.042785 4.201885 -0.08656499999999999 2.54521 -0.078605 5.093405 -0.15721 7.63165 0.022885Zm0.868635 -2.51138h2.16711c1.07261 0 2.0407450000000003 0.39999 2.75217 1.10246l3.284495 4.751125 1.58006 2.28651 0.99699 0.04378 -5.252605 -7.588864999999999a4.65859 4.65859 0 0 0 -3.36111 -1.3910099999999999h-2.9103749999999997c0.25472 0.261685 0.502475 0.52735 0.743265 0.796Zm-4.00985 -0.796c0.148255 0.13034500000000002 0.29551499999999997 0.26268 0.440785 0.398 0.144275 0.13134 0.28556499999999996 0.26467 0.42586 0.398h-24.30785c0.12935 -0.27064 0.269645 -0.5373 0.42188 -0.796h23.019325000000002Zm-25.761544999999998 0H65.83616500000001c-1.0765900000000002 0 -2.1492 0.41192999999999996 -3.019825 1.15818l-0.23979499999999998 0.34825c0.124375 0.28357499999999997 0.243775 0.56914 0.35819999999999996 0.8557l0.4378 -0.63282h0.000995c0.518395 -0.43382 1.3551900000000001 -0.93331 2.46362 -0.93331h34.296655c0.10746 -0.26865 0.223875 -0.534315 0.34924499999999997 -0.796Zm-1.0905200000000002 3.34917a3345.29348 3345.29348 0 0 1 -26.1884 -0.15522c-5.17599 -0.04975 -5.182955 -0.04975 -5.30534 0.13034500000000002 -1.0338049999999999 1.529315 -2.07557 3.73523 -2.488495 5.569015 -0.07263499999999999 0.32138500000000003 0.26069000000000003 0.458695 0.47958999999999996 0.37213 1.70344 0.13034500000000002 6.953060000000001 0.21492 13.815574999999999 0.26865 0.156215 -0.08457500000000001 0.32636000000000004 -0.17213499999999998 0.51342 -0.26566500000000004 0.22089 -0.10945 0.5283450000000001 -0.247755 0.9193800000000001 -0.39601000000000003 -2.79595 -0.029849999999999998 -5.340165 -0.059699999999999996 -7.50827 -0.08457500000000001 -4.17502 -0.047760000000000004 -6.956045 -0.0796 -7.459515 -0.07561999999999999 0.3184 -1.02286 0.67262 -1.8606500000000001 1.0139049999999998 -2.5760549999999998l31.934524999999997 0.156215c0 -0.194025 0.00398 -0.38705500000000004 0.00995 -0.57909 -14.990670000000001 -0.04975 -30.013180000000002 -0.10746 -31.675825 -0.12537 0.13134 -0.2587 0.2587 -0.49949 0.377105 -0.7263499999999999 0.25074 -0.47759999999999997 0.46566 -0.8855500000000001 0.61292 -1.25569 2.769085 0.19303 16.862265 0.29252999999999996 30.85097 0.3184 0.029849999999999998 -0.19303 0.06169 -0.385065 0.09850500000000001 -0.57511Zm-0.05572 5.698365 -0.96714 -0.00796c0.373125 0.16915000000000002 0.72436 0.345265 1.0547 0.524365a18.9448 18.9448 0 0 1 -0.088555 -0.516405Zm2.6387400000000003 0.0199c0.03582 0.182085 0.074625 0.36317499999999997 0.11740999999999999 0.5452600000000001l6.86948 0a44.9541 44.9541 0 0 1 1.3731 -0.49352c-2.72033 -0.012934999999999999 -5.5322 -0.029849999999999998 -8.35999 -0.050745ZM64.815295 99.21145h11.220614999999999a343.8322 343.8322 0 0 0 1.236785 -2.81585H64.98842499999999c-0.011940000000000001 0.936295 -0.06965 1.8765699999999998 -0.17312999999999998 2.81585Z" clip-rule="evenodd" stroke-width="1"></path></g><g id="book 3"><path id="vector" fill="#000000" d="M55.94884999999999 138.10401c-0.8447549999999999 -0.5353100000000001 -2.761125 -0.45969000000000004 -2.761125 0.9551999999999999 0 0.6368 0.5313300000000001 1.274595 1.16813 1.38106 0.743265 0.10547 1.380065 -0.21193499999999998 1.911395 -0.74426 0.3184 -0.530335 0.20496999999999999 -1.26166 -0.3184 -1.592995v0.000995Z" stroke-width="1"></path><path id="Subtract_4" fill="#000000" fill-rule="evenodd" d="M66.96151 119.32836s0.5422750000000001 -0.182085 1.49449 -0.428845a28.78535 28.78535 0 0 0 -1.2646449999999998 0.357205c-0.500485 1.42882 0.402975 2.872565 1.397975 4.46357 0.28855 0.46168000000000003 0.58705 0.936295 0.858685 1.42683 3.50439 -1.8049300000000001 7.433645 -2.229795 11.3629 -2.33626a23.528765 23.528765 0 0 1 7.433645 0.5313300000000001c0.40795 0.09751 0.83978 0.215915 1.28156 0.355215l-0.30845 0.5601849999999999h0.000995c-1.857665 3.37106 -2.67058 6.882415 -1.0845500000000001 8.848535 -0.741275 -0.74227 -1.16415 -1.696475 -1.057685 -2.75615 0 -1.328325 0.39601000000000003 -3.1044 1.2109150000000002 -4.40387 -0.97709 0.424865 -2.3919799999999998 0.45471500000000004 -4.473520000000001 0.500485 -0.779085 0.016915 -1.650705 0.03582 -2.627795 0.07761h-0.000995c-3.415835 0.148255 -18.851270000000003 -1.5900100000000001 -25.646124999999998 -2.57705 1.194 -1.50046 2.61685 -3.310365 4.351135 -5.596875 1.963135 -2.65068 4.01781 -5.30136 6.2466099999999996 -7.78488 0.701475 -0.78207 1.17808 -0.860675 2.7213249999999998 -0.78207 0.231835 0.011940000000000001 1.08853 0.06766 2.36213 0.154225a4059.4607 4059.4607 0 0 1 -4.259595 9.39081h0.000995Zm26.22223 6.042635000000001c-1.254695 2.47158 -2.500435 4.770029999999999 -3.56011 6.46551 -0.2985 0.39999 -1.169125 1.0427600000000001 -1.485535 1.274595 -1.48653 0.3184 -3.0795250000000003 0.424865 -4.67252 0.424865 -10.406704999999999 0.106465 -20.813409999999998 -1.911395 -31.114645 -3.929255a4.80983 4.80983 0 0 1 -1.069625 -0.25671 31.876815 31.876815 0 0 0 -1.772095 2.66063c-1.08654 1.829805 -1.039775 4.876494999999999 -0.769135 6.40979 0 1.48653 0.743265 2.974055 2.01786 3.82279 1.48653 0.637795 3.0795250000000003 1.0616649999999999 4.778985 1.16813 1.67359 0.37213 3.429765 0.66267 5.12425 0.9422649999999999l0 0.000995 0.7163999999999999 0.118405c7.64558 1.48653 15.292155 2.54919 23.0442 3.0795250000000003 2.0278099999999997 0.10149 4.152135 0.154225 6.18691 0.20496999999999999l0.29053999999999996 0.006965c1.973085 0.04975 3.559115 -0.094525 5.531205 -0.5452600000000001 0.16915000000000002 -0.038805 0.301485 -0.06368 0.41192999999999996 -0.08457500000000001 0.45969000000000004 -0.08756 0.5373 -0.10248499999999999 1.1741 -0.68257 1.42683 -1.2984749999999998 3.2954399999999997 -4.96903 4.892415 -8.108255 0.36815 -0.72237 0.721375 -1.41688 1.051715 -2.04771 0.2985 -0.596005 0.6019749999999999 -1.19798 0.910425 -1.807915 1.4477250000000002 -2.866595 2.99296 -5.92423 4.50536 -9.554985 0.08557 -0.21492 0.18905 -0.428845 0.29551499999999997 -0.65073a8.76595 8.76595 0 0 0 0.44775 -1.04873c0.21193499999999998 -0.35322499999999996 0.37412 -0.7562 0.522375 -1.1741a21.452199999999998 21.452199999999998 0 0 0 -1.01092 0.156215l0.03582 0.00995c-1.2935 3.5889650000000004 -7.67941 16.0394 -8.309245 17.267229999999998l-0.04975 0.09751h-0.000995c-0.763165 1.52633 -2.77207 5.350115 -4.0765150000000006 6.449590000000001 -0.38606 -0.34029000000000004 -0.63879 -0.8139099999999999 -0.7920200000000001 -1.36514 0.7920200000000001 -1.332305 4.162084999999999 -7.01276 4.723265 -8.136115 0.106465 -0.21193499999999998 -0.33631 -0.35223 -0.44277500000000003 -0.24576499999999998 -0.452725 0.452725 -3.33922 5.0526100000000005 -4.456605 6.844605 0.023880000000000002 -1.7183650000000001 0.643765 -3.71135 1.457675 -5.099375l0.038805 -0.032835c0.10945 -0.09253499999999999 0.20695999999999998 -0.174125 0.30049 -0.26069000000000003 0.70446 -0.65073 1.179075 -1.55021 5.24564 -9.240565l0.000995 -0.00199c0.796 -1.50643 1.7303050000000002 -3.27355 2.830775 -5.350115 -2.623815 0.972115 -5.026739999999999 2.55516 -6.635655 4.96903 -1.119375 0.10149 -2.1402449999999997 0.008955 -3.2516599999999998 -0.09353l-0.14626499999999998 -0.012934999999999999c-0.24576499999999998 0 -0.47958999999999996 -0.0029850000000000002 -0.743265 -0.530335 -0.51143 -0.82585 -1.28355 -1.5273249999999998 -2.176065 -2.1133800000000003Zm15.606575000000001 -6.9878849999999995a31.49175 31.49175 0 0 1 1.0616649999999999 -0.249745l0 -0.000995c-0.36218 0.0796 -0.7163999999999999 0.16318000000000002 -1.0616649999999999 0.25074Zm-0.14129 0.036815c-6.52123 1.68752 -9.871395 4.77401 -10.78182 5.724235 0.910425 -0.950225 4.26059 -4.036715 10.78182 -5.72523l0 0.000995Zm-57.255285 22.975545c0.743265 0.3184 1.5959800000000002 0.51342 2.33626 0.6368 1.193005 0.199 2.37805 0.432825 3.5650850000000003 0.6666500000000001l0 0.000995 0.00199 0c0.6805800000000001 0.134325 1.3611600000000001 0.26865 2.042735 0.39601000000000003 -0.43083499999999997 -1.7303050000000002 -0.23283 -5.06057 0.162185 -6.663515a88.85549 88.85549 0 0 1 -4.285465 -0.77212c-0.24477 -0.046765 -0.478595 -0.08954999999999999 -0.70446 -0.13134 -1.666625 -0.30447 -2.8655999999999997 -0.524365 -4.368049999999999 -1.5253349999999999 -0.974105 1.4755850000000001 -0.8198799999999999 3.45464 -0.343275 5.26753 0.21293 0.84973 0.743265 1.69946 1.592995 2.124325Zm33.10962000000001 5.218775c-7.785875 -0.440785 -16.398595 -1.8984599999999998 -24.068055 -3.3183249999999997 -0.7711250000000001 -1.1820599999999999 -0.29750499999999996 -5.672495 -0.17810499999999999 -6.757045000000001 8.134125000000001 1.2139 21.102954999999998 2.428795 24.392425 2.58899 -0.54327 1.02286 -0.6994849999999999 2.33626 -0.681575 3.65563 0.012934999999999999 0.9412699999999999 0.08656499999999999 2.8059 0.5353100000000001 3.83075Zm1.4726 0.07263499999999999c0.14328 0.008955 0.35422 0.022885 1.8049300000000001 0.06766 -0.377105 -1.051715 -0.440785 -2.74819 -0.452725 -3.6287649999999996 -0.0199 -1.42086 0.156215 -2.8377399999999997 0.806945 -3.88846 -0.85172 -0.010945 -1.70344 -0.028855000000000002 -2.55715 -0.06169 -0.4975 1.159175 -0.71043 2.414865 -0.6965 3.7103550000000003 0.02786 2.6059050000000004 0.59899 3.393945 0.87958 3.7809999999999997l0.006965 0.00995c0.104475 0.00398 0.15123999999999999 0.006965 0.20695999999999998 0.00995Zm3.073555 -7.439615c-1.242755 2.6059050000000004 -0.898485 6.2734749999999995 -0.076615 7.549065v-0.000995l0.11939999999999999 0.00199c2.790975 0.042785 4.64665 0.07164 7.153055 -0.44775 -1.42683 -1.9999499999999997 -0.98903 -5.11032 0.020895 -7.545085a6.360040000000001 6.360040000000001 0 0 1 -1.96811 0.361185l-1.159175 0.025869999999999997c-1.35718 0.030845 -2.7213249999999998 0.06169 -4.08945 0.05572Z" clip-rule="evenodd" stroke-width="1"></path></g><g id="paper"><path id="vector_2" fill="#000000" d="M56.06626 74.598135c-0.21691 -0.207955 -0.424865 -0.424865 -0.743265 -0.424865 -6.817740000000001 1.708415 -15.238425 3.943185 -21.451205 5.84065 -0.450735 0.225865 -0.438795 0.6636650000000001 -0.100495 0.940275 7.773935 6.361034999999999 11.636525 16.220489999999998 9.457475 25.217280000000002a97.124935 97.124935 0 0 1 -8.536105000000001 1.40295c-0.241785 -0.13731000000000002 -0.71441 -0.17213499999999998 -0.71441 0.156215 0 3.0397250000000002 1.0706200000000001 6.421729999999999 4.09343 6.735155 3.5521499999999997 0.36815 8.428645 -0.448745 11.94199 -1.2129050000000001 2.54919 -0.5313300000000001 4.99092 -1.38106 7.32718 -2.33626 2.229795 -0.743265 4.247655 -2.124325 5.84065 -3.82279 0.6368 -0.9551999999999999 1.16813 -2.01786 1.380065 -3.18599 2.725305 -10.217655 -0.27661 -21.42235 -8.49531 -29.309715Zm-21.118875000000003 33.50364a79.49055 79.49055 0 0 0 8.084375 -1.1741c-0.50347 1.716375 -1.27957 3.338225 -2.25865 4.838685000000001 -0.5353100000000001 0.713415 -1.401955 1.392005 -2.30442 1.610905 -1.77309 -0.12338 -3.1272849999999996 -0.16517 -3.5223 -5.27549h0.000995Zm29.295785000000002 -8.548045c-0.106465 1.274595 -0.3184 2.4427250000000003 -0.743265 3.716325 -0.7920200000000001 3.561105 -1.857665 4.09542 -5.097385 5.947115 -3.2924550000000004 1.592995 -6.902315000000001 2.761125 -10.51317 3.2924550000000004 -2.24671 0.47262499999999996 -5.589910000000001 0.920375 -8.008754999999999 0.91341 0.743265 -0.46466500000000005 1.386035 -1.0746 1.849705 -1.869605a16.630429999999997 16.630429999999997 0 0 0 1.911395 -4.45959c2.673565 -10.026615 -1.06664 -19.463195 -8.80376 -26.377450000000003 6.747095 -2.00592 13.49817 -3.913335 20.342775 -5.62971 6.780925000000001 6.26054 10.11517 15.309069999999998 9.06246 24.46705Z" stroke-width="1"></path><path id="vector_3" fill="#000000" d="M48.664455 82.976035c0.946245 -0.29252999999999996 2.01985 -0.554215 2.96908 -0.848735 1.56613 -0.48556 1.47658 -0.42984 1.7512 -0.47759999999999997 0.359195 -0.06865500000000001 0.765155 -0.14626499999999998 0.958185 -0.51541 0.16318000000000002 -0.174125 0.100495 -0.337305 -0.036815 -0.36616 -0.28656 -0.26467 -0.5780949999999999 -0.17213499999999998 -0.884555 -0.074625 -2.81585 0.9094300000000001 -3.65563 0.84973 -7.993830000000001 2.301435 -1.598965 0.319395 -3.007885 0.992015 -3.10838 1.33529 -0.056715 0.19502 0.15123999999999999 0.24875 0.35322499999999996 0.24875 0.763165 0 1.75319 -0.29252999999999996 5.990895 -1.6039400000000001l0.000995 0.000995Z" stroke-width="1"></path><path id="vector_4" fill="#000000" d="M50.27934 86.37196999999999c0.259695 0 0.450735 -0.12139 0.6188899999999999 -0.22885 0.160195 -0.10149 0.22487000000000001 -0.108455 0.22487000000000001 -0.18905 0 -0.09751 0 -0.29452 -0.18109 -0.31044 -0.4577 -0.21193499999999998 -0.806945 -0.028855000000000002 -4.319295 1.037785 -1.74722 0.5313300000000001 -1.644735 0.500485 -2.466605 1.0079349999999998 -0.16716 0.16716 -0.020895 0.488545 0.17711 0.488545 0.91341 -0.080595 3.13226 -1.0905200000000002 5.947115 -1.8049300000000001l-0.000995 -0.000995Z" stroke-width="1"></path><path id="vector_5" fill="#000000" d="M51.18081 90.259435c1.92831 -0.6427700000000001 3.9272650000000002 -1.167135 5.853585 -1.917365 0.526355 -0.263675 0.26566500000000004 -1.0626600000000002 -0.28855 -0.92734 -8.762965000000001 2.92132 -8.69829 2.655655 -11.250465 3.503395 -0.860675 0.28556499999999996 -0.51143 0.89351 0.24079 0.79401 1.69349 -0.22885 4.5949100000000005 -1.1701199999999998 5.444640000000001 -1.4526999999999999Z" stroke-width="1"></path><path id="vector_6" fill="#000000" d="M52.80465 94.58271c1.00893 -0.34426999999999996 5.642645 -1.70344 6.896345 -2.122335 0.550235 -0.13731000000000002 0.29750499999999996 -1.07858 -0.26666 -0.9343049999999999 -10.36392 3.286485 -11.57583 3.340215 -13.204645000000001 4.148154999999999 -0.800975 0.39601000000000003 -0.62088 0.6955049999999999 -0.14129 0.6955049999999999 1.05868 0 5.71528 -1.445735 6.71625 -1.78702Z" stroke-width="1"></path><path id="vector_7" fill="#000000" d="M59.76965 96.47918c-2.120345 0.317405 -4.35611 0.954205 -6.488395 1.48852 -2.0855200000000003 0.520385 -4.259595 0.9382849999999999 -6.325215 1.5472249999999999 -0.51939 0.154225 -0.49551 0.64874 0.03383 0.64874 0.944255 0 5.608815 -1.1561899999999998 6.446605 -1.366135 2.14323 -0.5353100000000001 4.347155 -0.84575 6.498345 -1.49449 0.307455 -0.15323 0.31243 -0.34924499999999997 0.28855 -0.45173 -0.050745 -0.21193499999999998 -0.299495 -0.373125 -0.452725 -0.373125l-0.000995 0.000995Z" stroke-width="1"></path><path id="vector_8" fill="#000000" d="M46.984894999999995 104.9128c5.28146 -1.001965 9.02067 -1.985025 13.662345 -3.3073799999999998 0.26865 -0.010945 0.41591 -0.27760500000000005 0.29551499999999997 -0.5482450000000001 -0.01592 -0.2786 -0.31243 -0.40795 -0.546255 -0.28556499999999996 -0.09552000000000001 0.02189 -13.465335 3.358125 -13.624535 3.399915 -0.619885 0.16318000000000002 -0.715405 0.918385 0.21193499999999998 0.741275h0.000995Z" stroke-width="1"></path><path id="vector_9" fill="#000000" d="M60.919869999999996 104.57151499999999c-0.048755 -0.046765 -0.057710000000000004 -0.004975 -0.10547 -0.052735a0.241785 0.241785 0 0 0 -0.18905 -0.08159000000000001c-0.7233649999999999 0.120395 -2.972065 0.9482349999999999 -3.632745 1.27957 -6.7600299999999995 2.45765 -7.578915 2.1561649999999997 -10.0097 2.936245 -1.163155 0.37213 -3.46658 2.67257 9.919155 -1.8099049999999999 1.01092 -0.33830000000000005 3.10838 -1.0218649999999998 4.01781 -1.70543a0.420885 0.420885 0 0 0 0 -0.56516v-0.000995Z" stroke-width="1"></path></g><g id="book 5"><path id="Subtract_5" fill="#000000" fill-rule="evenodd" d="M118.95224999999999 117.41a30.81515 30.81515 0 0 0 0.000995 0.000995l-0.000995 -0.000995Zm1.155195 5.206835a37.08564 37.08564 0 0 0 -4.146165 -0.65471 21.460160000000002 21.460160000000002 0 0 0 -1.177085 -0.08457500000000001c1.0149 6.560035 2.016865 11.92408 3.405885 17.180664999999998 0.10945 0.383075 0.21492 0.7711250000000001 0.32138500000000003 1.1621599999999999 0.6567000000000001 2.4078999999999997 1.33529 4.8953999999999995 2.99296 6.71824l0.0029850000000000002 0.00398c0.5373 0.5910299999999999 0.590035 0.64874 1.50842 0.81192 1.9183599999999998 0.34029000000000004 8.555010000000001 0.24875 14.05736 0.17312999999999998 2.07955 -0.028855000000000002 3.9969150000000004 -0.054725 5.43668 -0.054725 3.1959400000000002 0 6.227705 -0.271635 9.672395 -0.5810799999999999 0.98505 -0.088555 2.00393 -0.180095 3.07057 -0.26865a8.099300000000001 8.099300000000001 0 0 0 2.229795 -0.3184c1.29151 -0.369145 0.802965 -1.7760749999999998 0.4577 -2.7700799999999997l0 -0.000995c-0.051739999999999994 -0.14925 -0.100495 -0.289545 -0.1393 -0.414915 -0.160195 -0.518395 -0.31442 -1.035795 -0.468645 -1.5522l-0.000995 -0.000995c-0.17114 -0.5741149999999999 -0.34228 -1.147235 -0.520385 -1.7183650000000001 0.319395 -1.0338049999999999 0.82585 -2.0248250000000003 1.5701100000000001 -2.8049049999999998 0.7979900000000001 -0.06368 1.585035 -0.313425 1.7561749999999998 -1.25171 0 -0.856695 -0.20695999999999998 -2.036765 -0.5641649999999999 -3.43275l-0.8099299999999999 0.051739999999999994c0.056715 0.22288 0.114425 0.45969000000000004 0.17909999999999998 0.721375l0 0.000995 0.237805 0.9621649999999999c0.106465 0.424865 0.21193499999999998 0.84973 0.106465 1.274595 -0.15522 0.45969000000000004 -0.643765 0.47461499999999995 -1.10246 0.488545a3.085495 3.085495 0 0 0 -0.48954 0.0398s-25.38046 1.274595 -30.796245 1.38106c-1.234795 0 -2.287505 -0.20099 -2.8675900000000003 -1.16813 -0.5313300000000001 -1.16813 -0.9233600000000001 -2.450685 -1.274595 -3.716325 -1.23181 -4.44566 -2.04174 -7.617719999999999 -2.6486899999999998 -10.17686Zm36.82893 2.23875 -0.8756 0.048755 0.8756 -0.047760000000000004 0 -0.000995Zm-0.438795 13.817565 -5.758065 0.31243c-1.726325 -0.034825 -3.59991 0.10347999999999999 -5.72921 0.41989 -0.231835 0.00796 -0.22885 0.305465 0.00199 0.305465 1.7114 0.12736 2.5481949999999998 0.08656499999999999 5.0456449999999995 -0.03582 1.380065 -0.066665 3.266585 -0.1592 6.088405 -0.26069000000000003 -0.50148 1.21589 -0.623865 2.2914849999999998 -0.5591900000000001 3.455635a866.63505 866.63505 0 0 1 -21.72483 0.68456c-3.7660750000000003 0.076615 -5.64961 0.114425 -6.8655 0.30944499999999997 -0.67461 0.10746 -0.347255 0.33034 -0.03184 0.361185 1.236785 0.120395 2.36213 0.108455 3.5372250000000003 0.06368 5.535184999999999 -0.21193499999999998 8.832615 -0.26268 12.000695 -0.31044 3.55613 -0.054725 6.950075 -0.106465 13.161859999999999 -0.38208000000000003 0.05373 0.315415 0.11939999999999999 0.50546 0.166165 0.639785a0.763165 0.763165 0 0 1 0.05870499999999999 0.23879999999999998c0 0.313425 -5.332205 0.424865 -5.52225 0.424865 -12.254420000000001 0.6567000000000001 -18.239345 0.64874 -25.0342 0.639785l-2.4705850000000003 -0.00199c-0.35422 -0.088555 -0.414915 -0.255715 -0.48556 -0.49152999999999997a6.820725 6.820725 0 0 1 0.3184 -2.99097c0.9551999999999999 0.052735 12.036515 0.110445 16.866245 -0.06169 4.0257700000000005 -0.14328 4.96704 -0.138305 5.728215 -0.13333h0.000995l0.40894499999999995 0.000995c0.301485 0 0.355215 -0.72834 -0.14726 -0.715405 -11.21365 0.2985 -18.11298 0.223875 -21.04624 0.192035l-0.00199 0a59.9786 59.9786 0 0 0 -1.5253349999999999 -0.00796 7.047585 7.047585 0 0 1 2.170095 -2.68451c0.60894 0.17810499999999999 1.2507149999999998 0.23084000000000002 1.85468 0.096515 4.6506300000000005 0 25.636175 -0.994005 30.280835 -1.246735a7.596825 7.596825 0 0 0 -0.787045 1.181065v-0.0029850000000000002Z" clip-rule="evenodd" stroke-width="1"></path></g><g id="book 4"><path id="Subtract_6" fill="#000000" fill-rule="evenodd" d="M132.63748 92.15690000000001c-2.540235 -0.00796 -4.8516200000000005 0.06169 -6.56501 0.25273a3.093455 3.093455 0 0 0 -0.35422 -0.17114 15.75085 15.75085 0 0 0 -1.485535 -0.50944c1.246735 -0.243775 2.80789 -0.4577 3.4088700000000003 -0.4577 1.30345 -0.08159000000000001 2.88152 -0.11343 4.61083 -0.108455 0.138305 0.33034 0.26666 0.661675 0.385065 0.99301Zm2.500435 0.02786a22.37158 22.37158 0 0 0 -0.34825 -0.990025c5.865525 0.11939999999999999 12.683265 0.5601849999999999 16.53292 0.9263450000000001 1.0626600000000002 0 2.124325 0.3184 2.974055 1.0616649999999999 0.743265 0.9551999999999999 1.48653 2.01786 1.911395 3.18599 2.502425 4.585955 10.301235 22.03527 10.301235 27.291854999999998 -0.17114 0.9382849999999999 -0.958185 1.18803 -1.7561749999999998 1.25171 -0.74426 0.78008 -1.2507149999999998 1.7711000000000001 -1.5701100000000001 2.8049049999999998 0.17810499999999999 0.5711299999999999 0.34924499999999997 1.14425 0.520385 1.7183650000000001l0.000995 0.000995 0.000995 0.00398c0.15323 0.5144150000000001 0.307455 1.03082 0.46764999999999995 1.5482200000000002 0.038805 0.126365 0.08756 0.26666 0.1393 0.41591 0.345265 0.994005 0.8338099999999999 2.4009349999999996 -0.4577 2.7700799999999997a8.099300000000001 8.099300000000001 0 0 1 -2.229795 0.3184c-1.06664 0.088555 -2.0855200000000003 0.180095 -3.07057 0.26865 -3.44469 0.30944499999999997 -6.4764550000000005 0.5810799999999999 -9.672395 0.5810799999999999 -1.439765 0 -3.35713 0.025869999999999997 -5.43668 0.054725 -5.50235 0.07561999999999999 -12.139 0.16716 -14.05736 -0.17312999999999998 -0.918385 -0.16318000000000002 -0.97112 -0.22089 -1.5074249999999998 -0.81192l-0.00398 -0.00398c-1.65767 -1.82284 -2.33626 -4.31034 -2.99296 -6.71824l0 -0.000995c-0.106465 -0.39004 -0.21193499999999998 -0.7780900000000001 -0.32138500000000003 -1.161165 -0.25472 -0.9621649999999999 -0.49551 -1.92831 -0.7263499999999999 -2.904405a40.42685 40.42685 0 0 1 4.44367 1.73727c0.182085 -0.39004 0.395015 -0.7810750000000001 0.609935 -1.1741 0.323375 -0.59302 0.65073 -1.194 0.88157 -1.811895 0.18905 0.550235 0.397005 1.08853 0.631825 1.604935 0.580085 0.96714 1.632795 1.16813 2.8675900000000003 1.16813 5.415785 -0.106465 30.796245 -1.38106 30.796245 -1.38106 0.14626499999999998 -0.028855000000000002 0.315415 -0.034825 0.48954 -0.0398 0.458695 -0.01393 0.94724 -0.028855000000000002 1.10246 -0.488545 0.10547 -0.424865 0 -0.84973 -0.106465 -1.274595l-0.237805 -0.96316c-0.299495 -1.21788 -0.45969000000000004 -1.873585 -0.9303250000000001 -3.284495 -1.503445 -5.0148 -7.71324 -19.08609 -10.406704999999999 -23.57553 -0.580085 -0.968135 -1.515385 -1.053705 -2.4805349999999997 -1.141265a33.41011 33.41011 0 0 1 -0.28058999999999995 -0.026865c-2.341235 -0.168155 -9.54603 -0.66267 -16.078205 -0.7880400000000001Zm-12.522075000000001 25.711795000000002 0 0.000995c3.029775 0.6119249999999999 5.226735 1.6039400000000001 6.492375 2.29447l0 -0.000995c-1.266635 -0.69053 -3.4645900000000003 -1.682545 -6.492375 -2.29447Zm34.495655 8.55899 5.758065 -0.31243v0.0029850000000000002c0.22686 -0.41690499999999997 0.48755 -0.814905 0.787045 -1.181065 -4.64466 0.25273 -25.630205 1.246735 -30.280835 1.246735 -0.603965 0.134325 -1.24574 0.08159000000000001 -1.85468 -0.096515a7.047585 7.047585 0 0 0 -2.170095 2.68451c0.213925 -0.006965 0.72038 -0.000995 1.52633 0.00796h0.000995c2.9332599999999998 0.03184 9.833585 0.106465 21.04624 -0.192035 0.502475 -0.012934999999999999 0.448745 0.715405 0.14726 0.715405l-0.402975 -0.000995 -0.0059700000000000005 0 -0.000995 0c-0.761175 -0.004975 -1.702445 -0.00995 -5.728215 0.13333 -4.82973 0.17213499999999998 -15.911045 0.114425 -16.866245 0.06169 -0.3184 0.9522149999999999 -0.44277500000000003 1.969105 -0.3184 2.99097 0.070645 0.235815 0.13134 0.402975 0.48556 0.49152999999999997l2.4705850000000003 0.00199c6.794855 0.008955 12.779779999999999 0.016915 25.0342 -0.639785 0.190045 0 5.52225 -0.11144 5.52225 -0.424865a0.763165 0.763165 0 0 0 -0.05870499999999999 -0.23879999999999998 3.61185 3.61185 0 0 1 -0.166165 -0.639785c-6.211785 0.275615 -9.60573 0.327355 -13.161859999999999 0.38208000000000003 -3.1680800000000002 0.047760000000000004 -6.46551 0.09850500000000001 -12.000695 0.31044 -1.175095 0.044774999999999995 -2.30044 0.056715 -3.5372250000000003 -0.06368 -0.315415 -0.030845 -0.6427700000000001 -0.253725 0.03184 -0.361185 1.21589 -0.19502 3.099425 -0.23283 6.8655 -0.30944499999999997a866.63505 866.63505 0 0 0 21.72483 -0.68456c-0.064675 -1.16415 0.057710000000000004 -2.239745 0.5591900000000001 -3.455635 -2.8218199999999998 0.10149 -4.709334999999999 0.194025 -6.0894 0.26069000000000003 -2.4974499999999997 0.122385 -3.33325 0.162185 -5.04465 0.03582 -0.23084000000000002 0 -0.23382499999999998 -0.29750499999999996 -0.00199 -0.305465 2.1293 -0.31641 4.002885 -0.45471500000000004 5.72921 -0.41989Z" clip-rule="evenodd" stroke-width="1"></path></g><g id="book 2"><path id="vector_10" fill="#000000" d="M54.172775 125.82571c-1.135295 0 -1.49449 1.16017 -1.0616649999999999 1.592995 0.3184 0.5313300000000001 0.9561949999999999 0.84973 1.592995 0.84973 0.661675 0 1.48653 -0.5213800000000001 1.48653 -1.16813 0 -1.03082 -0.98704 -1.274595 -2.01786 -1.274595Z" stroke-width="1"></path><path id="Subtract_7" fill="#000000" fill-rule="evenodd" d="M66.96151 119.32836s0.5422750000000001 -0.182085 1.49449 -0.428845a28.78535 28.78535 0 0 0 -1.2646449999999998 0.357205c-0.500485 1.42882 0.402975 2.872565 1.397975 4.46357 0.28855 0.46168000000000003 0.58705 0.936295 0.858685 1.42683 3.50439 -1.8049300000000001 7.433645 -2.229795 11.3629 -2.33626a23.528765 23.528765 0 0 1 7.433645 0.5313300000000001 18.9249 18.9249 0 0 1 1.955175 0.582075c-0.6596850000000001 1.18007 -0.9303250000000001 1.60593 -1.107435 1.883535a6.31825 6.31825 0 0 0 -0.39999 0.7024699999999999c-0.617895 1.2338 -0.9343049999999999 2.46362 -0.93729 4.0257700000000005 1.02485 -1.77707 2.914355 -5.051615 3.5680699999999996 -6.1640250000000005 0.19701000000000002 0.08656499999999999 0.393025 0.17810499999999999 0.58705 0.27462000000000003 -0.562175 1.0556949999999998 -2.76013 5.162059999999999 -3.9979099999999996 7.05455 0.08656499999999999 0.27263000000000004 0.213925 0.52735 0.40695499999999996 0.74625 0.34825 -0.22487000000000001 0.65869 -0.54725 0.87958 -0.822865a30.410185 30.410185 0 0 0 2.5481949999999998 -4.45959c0.33531500000000003 -0.767145 0.653715 -1.4526999999999999 0.96117 -2.088505 0.303475 0.17810499999999999 0.597 0.36815 0.8756 0.570135 -1.20196 2.45566 -3.789955 7.5470749999999995 -5.12823 7.9948250000000005 -6.96699 1.52434 -22.740725 -0.8308249999999999 -29.73458 -2.229795l-4.884455 -0.9551999999999999c-1.274595 -0.106465 -2.54919 -0.424865 -3.7173200000000004 -1.0616649999999999 -0.9551999999999999 -0.743265 -1.48653 -1.911395 -1.48653 -3.0795250000000003 -0.247755 -1.728315 -0.029849999999999998 -4.10338 0.76814 -5.433695 1.397975 -2.331285 3.1402200000000002 -4.466555 4.860575 -6.573965 0.72038 -0.88356 1.437775 -1.7621449999999999 2.1233299999999997 -2.647695 2.02582 -2.93724 4.245665000000001 -5.68145 6.657545 -8.324169999999999 0.06965 -0.07561999999999999 0.12139 -0.13731000000000002 0.16318000000000002 -0.18706 0.0796 -0.094525 0.124375 -0.14626499999999998 0.180095 -0.17213499999999998 0.06965 -0.032835 0.156215 -0.025869999999999997 0.34924499999999997 -0.011940000000000001 0.08159000000000001 0.0059700000000000005 0.182085 0.01393 0.30845 0.0199a72.6947 72.6947 0 0 0 3.81085 0.07363c2.287505 0.15123999999999999 4.37402 0.287555 6.2804400000000005 0.41192999999999996 -3.184 7.09634 -7.17395 15.858310000000001 -7.17395 15.858310000000001h0.000995Zm-10.01368 10.729085 1.6119 0.299495c-0.46367 -1.16813 -0.75819 -3.555135 0.17909999999999998 -5.435685 -1.634785 -0.249745 -3.26957 -0.508445 -4.904355000000001 -0.8358 -1.559165 -0.184075 -3.03077 -0.70048 -4.363074999999999 -1.44872 -0.275615 1.53628 -0.468645 3.093455 0.00995 4.528245 0.5313300000000001 1.48653 1.805925 1.8049300000000001 3.2924550000000004 2.1233299999999997 1.393 0.253725 2.78003 0.510435 4.16507 0.76814l0.00995 0.000995Zm21.822339999999997 2.924305c-6.820725 -0.301485 -12.489239999999999 -1.2099199999999999 -19.20549 -2.4407349999999997a8.623664999999999 8.623664999999999 0 0 0 -0.29452 -0.92137c-0.3184 -0.868635 -0.502475 -1.370115 0.13134 -4.5969 6.1640250000000005 0.924355 17.0344 1.879555 19.46618 1.969105 -0.67461 1.2716100000000001 -0.91142 4.540185 -0.09751 5.9899Zm2.9869899999999996 0.114425c-0.6955049999999999 -0.018904999999999998 -1.386035 -0.044774999999999995 -2.066615 -0.07263499999999999 -0.773115 -1.44474 -0.6049599999999999 -4.7282399999999996 0.024875 -6.00184 0.7094349999999999 0.018904999999999998 1.417875 0.020895 2.12731 0.020895 -0.6925199999999999 1.4556850000000001 -0.82585 4.746149999999999 -0.08557 6.053579999999999Zm1.02485 0.016915c-0.864655 -1.801945 -0.838785 -3.682495 0.02786 -6.068505 0.6019749999999999 -0.00796 1.2039499999999999 -0.028855000000000002 1.80692 -0.050745 0.42984 -0.01592 0.85968 -0.03184 1.2905149999999999 -0.04179a5.42872 5.42872 0 0 0 1.6039400000000001 -0.271635c-0.460685 1.04475 -0.7880400000000001 2.166115 -0.860675 3.24569 -0.158205 1.0278349999999998 0.096515 1.9959699999999998 0.63083 2.81784 -1.473595 0.29750499999999996 -2.99097 0.3781 -4.49939 0.37013999999999997v-0.000995Z" clip-rule="evenodd" stroke-width="1"></path></g><g id="book 1"><path id="Subtract_8" fill="#000000" fill-rule="evenodd" d="M129.19975499999998 110.02511c0.367155 2.3193449999999998 0.6596850000000001 4.152135 0.89152 5.604835 0.83182 5.206835 0.88157 5.51827 0.765155 5.744135a0.643765 0.643765 0 0 1 -0.029849999999999998 0.054725c-0.42785 0.74824 -0.8019700000000001 1.54026 -1.1760899999999999 2.33029l0 0.000995c-0.307455 0.647745 -0.61292 1.29549 -0.9482349999999999 1.917365 -0.156215 0.31243 -0.43183 0.19104000000000002 -1.3104149999999999 -0.19800500000000001 -1.04873 -0.46367 -2.95714 -1.30743 -6.548095 -2.2447199999999996 -4.35412 -1.167135 -8.920175 -1.167135 -13.274294999999999 -0.10547a16.237405 16.237405 0 0 0 -5.947115 2.866595c-0.424865 0.424865 -0.743265 0.84973 -1.0616649999999999 1.274595 -0.23382499999999998 0.32835000000000003 -0.39402000000000004 0.5771 -0.5144150000000001 0.7641600000000001 -0.253725 0.39402000000000004 -0.32835000000000003 0.510435 -0.54725 0.510435 -0.42188 0 -0.7761 0.00199 -1.07858 0.0029850000000000002l-0.00199 0c-1.437775 0.00796 -1.74523 0.008955 -2.7422199999999997 -0.21492 -0.36417 -0.082585 -0.5711299999999999 -0.40993999999999997 -0.755205 -0.7024699999999999 -0.03184 -0.050745 -0.062685 -0.100495 -0.094525 -0.14726 -0.789035 -1.5810549999999999 -3.754135 -3.0357450000000004 -5.62772 -3.50439 -2.1233299999999997 -0.5313300000000001 -4.247655 -0.84973 -6.47745 -0.84973 -8.099300000000001 0 -11.25942 1.49449 -12.598690000000001 2.1283049999999997 -0.613915 0.29053999999999996 -0.84575 0.39999 -0.994005 0.10149a134.65335000000002 134.65335000000002 0 0 1 -2.595955 -5.182955c-0.305465 -0.0199 -0.59899 -0.395015 -0.377105 -0.7641600000000001 3.1849950000000002 -6.487399999999999 6.45755 -14.00363 8.76993 -19.317925 1.515385 -3.4795149999999997 2.61884 -6.014775 3.017835 -6.699335 0.743265 -0.9561949999999999 1.911395 -1.69946 3.0795250000000003 -2.01786 3.9491549999999997 -1.5193649999999999 7.957015 -2.209895 12.106164999999999 -1.380065 2.104425 0.27462000000000003 4.20885 0.94326 6.177955 1.8705999999999998 0.066665 0.4577 0.150245 0.91739 0.25273 1.378075 -2.71237 -1.3671300000000002 -6.3361600000000005 -2.205915 -8.66048 -2.39994 -2.6546600000000002 -0.21193499999999998 -5.29141 0.162185 -7.85851 0.9561949999999999l-0.05572 0.016915c-0.715405 0.221885 -1.3412600000000001 0.41591 -1.96214 0.7263499999999999 -0.637795 0.21193499999999998 -1.16813 0.530335 -1.69946 0.9551999999999999 -0.530335 0.530335 -0.84973 1.167135 -1.0616649999999999 1.8049300000000001h0.000995c-0.31641 0.633815 -1.32932 2.9511700000000003 -2.6467 5.967015 -2.3123799999999997 5.290415 -5.564039999999999 12.730030000000001 -7.64558 17.00057 1.9133850000000001 -0.530335 3.827765 -0.751225 5.78493 -0.9760949999999999 0.345265 -0.0398 0.691525 -0.0796 1.039775 -0.12139 8.148055 -1.0059449999999999 16.975694999999998 0.651725 22.27009 6.341135a21.904925000000002 21.904925000000002 0 0 1 0.31243 -4.317305c0.679585 -7.479415 2.76013 -15.79861 4.279495 -20.3776 0.2189 0.40695499999999996 0.45173 0.8099299999999999 0.6984899999999999 1.208925 -1.979055 6.45755 -3.43872 13.08823 -4.0237799999999995 19.80846a13.22355 13.22355 0 0 0 -0.21193499999999998 3.6098600000000003c4.645655 -5.023755 15.14191 -8.496305 26.548589999999997 -5.52225l0.03582 0.008955c1.678565 0.41889499999999996 3.415835 0.852715 4.8556 1.85667a839.45762 839.45762 0 0 0 -1.46464 -9.244545 13.333 13.333 0 0 0 1.1044500000000002 -0.522375Zm-26.79535 -16.243375c0.43979 0.37213 0.8109249999999999 0.753215 1.00893 1.0845500000000001 5.781945 -4.36407 15.958805000000002 -6.022735 23.061115 -2.7462 0.743265 0.3184 0.743265 0.9561949999999999 0.743265 1.69946 0 3.919305 0.755205 8.579884999999999 1.46265 12.945945l0.050745 0.31442a10.9848 10.9848 0 0 1 -1.097485 0.629835c-0.986045 -6.0744750000000005 -1.6905050000000001 -10.671375 -1.6905050000000001 -13.5718a2.1860150000000003 2.1860150000000003 0 0 0 0 -1.16813c-0.08557 -0.34625999999999996 -0.526355 -0.47561 -0.85769 -0.57312a3.889455 3.889455 0 0 1 -0.203975 -0.06368c-7.01077 -2.5133699999999997 -14.81953 -1.02087 -21.073104999999998 3.38499a6.47148 6.47148 0 0 1 -0.0796 0.156215l-0.06368 0.12736c-0.038805 0.08557 -0.06766 0.17512 -0.16417500000000002 0.466655a2.506405 2.506405 0 0 0 -0.01791 0.056715 19.270165000000002 19.270165000000002 0 0 1 -1.07858 -2.743215Zm3.67155 6.850575 -0.11939999999999999 -0.150245c0.21094 -0.2985 1.2626549999999999 -0.95122 1.82682 -1.139275 1.569115 -0.9422649999999999 6.034675 -2.002935 9.98184 -1.69946 1.38106 0.106465 2.761125 0.3184 4.03572 0.743265 0.462675 0.23084000000000002 0.22885 0.6368 -0.21193499999999998 0.6368 -3.6367249999999998 -0.83978 -5.589910000000001 -0.729335 -7.964975000000001 -0.5313300000000001 -2.3521799999999997 0.196015 -4.01383 0.868635 -5.093405 1.3054400000000002 -0.29053999999999996 0.11740999999999999 -0.53929 0.217905 -0.747245 0.287555v0.000995c-0.950225 0.38009 -1.4726 0.53332 -1.70742 0.546255Zm-0.39899500000000004 3.648665c-0.61292 0.506455 -0.667645 0.9343049999999999 0.510435 0.510435 -0.17312999999999998 -0.168155 -0.343275 -0.33830000000000005 -0.510435 -0.510435Zm3.3481750000000003 -0.5611799999999999a25.99736 25.99736 0 0 1 -0.7780900000000001 -0.711425c3.4078749999999998 -1.2736 9.007735 -1.81687 13.87229 -0.375115 0.379095 0.3781 0.22089 0.743265 -0.21193499999999998 0.743265 -5.377975 -1.5054349999999999 -8.862465 -0.910425 -12.882264999999999 0.343275Zm-0.2587 3.27753c-1.658665 0.50745 -3.09047 1.1989750000000001 -4.16905 2.00791 -0.27661 0.82983 0.271635 0.5850599999999999 1.531305 0.020895 0.86565 -0.38705500000000004 2.06562 -0.9233600000000001 3.5650850000000003 -1.3671300000000002a24.285960000000003 24.285960000000003 0 0 1 -0.92734 -0.661675Zm4.95908 -0.08656499999999999a21.60145 21.60145 0 0 1 -1.2387750000000002 -0.67859c3.29743 -0.379095 7.007785 -0.066665 10.482325 1.286535 0.53332 0.207955 0.32039 1.059675 -0.21193499999999998 0.84973 -3.427775 -1.354195 -6.46551 -1.6536899999999999 -9.031615 -1.457675Zm2.46362 3.89045a20.408445 20.408445 0 0 0 -2.03378 0.008955c-3.8944300000000003 0.215915 -5.913284999999999 0.93331 -7.845575 1.6198599999999999l-0.22487000000000001 0.0796c-0.9492299999999999 0.33631 -1.8049300000000001 0.743265 -2.5481949999999998 1.380065 -0.21193499999999998 0.3184 0 0.743265 0.3184 0.5313300000000001h-0.000995c0.30845 -0.116415 0.671625 -0.27263000000000004 1.089525 -0.452725 2.64272 -1.141265 7.469465 -3.22579 14.627495 -1.883535 2.026815 0.506455 2.916345 0.9233600000000001 3.730255 1.3044449999999999 0.36815 0.17213499999999998 0.72038 0.337305 1.155195 0.500485 0.424865 0.21193499999999998 0.633815 -0.526355 0.3184 -0.743265 -0.74227 -0.512425 -1.8845299999999998 -1.029825 -3.27355 -1.44872a20.390535 20.390535 0 0 1 -5.312305 -0.896495Zm13.02455 11.638515c-1.841745 -1.143255 -5.23768 -2.102435 -7.7311499999999995 -2.60093 -1.48653 -0.3184 -2.97306 -0.424865 -4.45959 -0.424865 -1.4556850000000001 -0.10347999999999999 -2.9113700000000002 0 -4.36606 0.402975a0.39203 0.39203 0 0 1 0.011940000000000001 0.128355c0.32138500000000003 0.022885 0.8238599999999999 0.029849999999999998 1.45071 0.037809999999999996 1.8765699999999998 0.023880000000000002 4.860575 0.062685 7.363 0.599985 2.6258049999999997 0.402975 5.348125 1.549215 6.8854 2.1959649999999997l0 0.000995 0.5611799999999999 0.23382499999999998 -0.28855 0.603965c-0.194025 0.40496499999999996 -0.38805 0.8129149999999999 -0.5880449999999999 1.22186a35.484685 35.484685 0 0 0 -13.472299999999999 -3.304395c-4.71232 -0.21492 -12.120095 1.397975 -14.655354999999998 5.20385 -0.05572 0.08358 -0.14029499999999998 0.18905 -0.23481999999999997 0.30646 -0.15721 0.19701000000000002 -0.343275 0.42785 -0.468645 0.64874h-0.8208749999999999c0.036815 -0.0796 0.07363 -0.16716 0.11343 -0.26069000000000003 0.2786 -0.655705 0.6965 -1.6417499999999998 2.066615 -2.836745 1.14027 -0.995 2.6785400000000004 -1.65966 4.14318 -2.0397499999999997 0.13134 -0.114425 0.184075 -0.43382 -0.14129 -0.45571 -2.8387350000000002 0.16119 -6.03368 2.91734 -6.713265 5.592895h-0.180095c-0.24875 -0.79401 -1.02684 -2.1681049999999997 -2.44571 -2.878535 -0.476605 -0.23879999999999998 -0.787045 -0.05572 -0.35024 0.29750499999999996a7.708265 7.708265 0 0 1 2.03378 2.5481949999999998c-1.00296 -0.09154 -1.194 -0.397005 -1.425835 -0.77013a2.41785 2.41785 0 0 0 -0.355215 -0.47163l-0.9551999999999999 -0.9561949999999999c-4.85958 -3.7362249999999997 -11.65543 -3.6078699999999997 -17.73488 -2.866595 -2.30442 0.30049 -4.60287 0.990025 -6.729185 1.95816 -0.32238 -0.607945 -0.6497350000000001 -1.21589 -0.978085 -1.8238349999999999 0.6169 -0.168155 1.129325 -0.371135 1.662645 -0.58307 1.90045 -0.755205 4.0745249999999995 -1.618865 12.212629999999999 -1.36912 2.4278 0.215915 3.1243000000000003 0.36019 3.6218 0.462675 0.24079 0.04975 0.434815 0.090545 0.7562 0.124375 0.3184 -0.010945 0.40596 -0.5452600000000001 0.18905 -0.643765 -1.3989699999999998 -0.480585 -2.89147 -0.64078 -4.3819799999999995 -0.6925199999999999 -4.363074999999999 -0.38805 -10.78182 -0.114425 -14.36979 2.126315a104.70385 104.70385 0 0 0 -1.314395 -2.3402399999999997c10.844505 -2.67058 21.74473 -2.71436 30.025119999999998 4.916295 0.070645 0.693515 0.58705 0.691525 0.970125 0.307455 3.90836 -4.80983 13.236485 -8.705255000000001 25.168525000000002 -6.265515 2.225815 0.40397000000000005 4.825749999999999 0.91739 6.5371500000000005 2.432775 -0.17512 0.33432 -0.343275 0.679585 -0.510435 1.02485l-0.000995 0.000995 -0.100495 0.20695999999999998ZM82.05963999999999 95.3608c1.8606500000000001 -0.44377 3.632745 -0.86565 7.56399 -0.586055 1.48653 0.106465 2.862615 0.438795 4.247655 0.84973 0.57511 0.17014500000000002 1.08853 0.39601000000000003 1.63777 0.637795l0.486555 0.21193499999999998c2.89147 1.73528 2.8257999999999996 -0.20895 0.21193499999999998 -0.9561949999999999 -2.118355 -1.05868 -7.28738 -2.14522 -11.150965000000001 -1.592995a10.825600000000001 10.825600000000001 0 0 0 -4.35412 1.274595c-0.3184 0.106465 -0.106465 0.5313300000000001 0.21193499999999998 0.424865h0.000995c0.397005 -0.08557 0.77212 -0.174125 1.14425 -0.263675Zm24.342675 2.17507c1.274595 -0.3184 2.5481949999999998 -0.6368 3.7173200000000004 -1.16813 3.9780100000000003 -1.326335 7.889355 -1.9870150000000002 12.106164999999999 -0.6368 0.424865 0.106465 0.6368 -0.5313300000000001 0.21193499999999998 -0.6368 -2.5481949999999998 -0.84973 -5.40484 -1.001965 -8.070445000000001 -0.5313300000000001 -2.160145 0.38208000000000003 -4.50536 1.21987 -5.60782 1.612895 -0.257705 0.09253499999999999 -0.44775 0.1592 -0.55123 0.192035 -0.641775 0.19800500000000001 -1.274595 0.5313300000000001 -1.8049300000000001 0.84973 -0.21193499999999998 0.21193499999999998 -0.21193499999999998 0.424865 0 0.3184h-0.000995Zm-18.478145 1.59399c-1.955175 -0.15721 -4.114325 -0.080595 -6.159050000000001 0.21193499999999998h0.000995c-3.4815050000000003 0.6965 -1.42882 -0.43183 -0.106465 -0.6368l0.49551 -0.07761c2.17706 -0.34029000000000004 3.662595 -0.572125 5.98194 -0.24079 1.380065 0.106465 2.761125 0.424865 4.14119 0.84973 1.38106 0.319395 2.6546600000000002 0.9561949999999999 3.929255 1.69946 0.37213 0.37213 -0.022885 0.936295 -0.424865 0.743265l-0.446755 -0.21492 0 -0.000995c-1.187035 -0.57312 -2.25865 -1.091515 -3.4825 -1.4835450000000001 -1.27957 -0.40993999999999997 -2.6546600000000002 -0.747245 -3.929255 -0.84973Zm-7.8495550000000005 4.492425c1.306435 -0.22686 2.70839 -0.46963999999999995 5.407825 -0.24477 2.10343 0.17512 4.801869999999999 1.097485 5.628715 1.592995 0.5313300000000001 0.3184 1.16813 0.6368 1.8049300000000001 0.84973 0.21193499999999998 0 0.6368 -0.21193499999999998 0.424865 -0.5313300000000001 -0.424865 -0.424865 -0.9561949999999999 -0.84973 -1.592995 -1.0616649999999999a16.65033 16.65033 0 0 0 -5.947115 -1.69946c-2.667595 -0.24278 -5.19987 0.176115 -6.265515 0.5313300000000001 -1.793985 0.299495 -2.87555 1.630805 0.106465 0.6368l0.43183 -0.07363 0.000995 0Zm11.77881 6.55108c-3.07455 -2.0497 -9.08037 -3.2516599999999998 -14.01756 -2.01786h-0.000995c-2.57307 1.286535 -3.11435 -0.327355 0.21193499999999998 -0.743265 0.743265 -0.21293 1.592995 -0.32138500000000003 2.4427250000000003 -0.424865 1.8039349999999998 -0.2189 3.5073749999999997 -0.23283 5.3093200000000005 0.106465 3.15813 0.5950099999999999 5.748115 1.74324 6.796845 2.4427250000000003 0.07164 0.05373 0.14925 0.10746 0.22885 0.16119 0.39004 0.27064 0.8159 0.56516 0.727345 1.00694a0.570135 0.570135 0 0 0 -0.08656499999999999 0.11542000000000001c-0.034825 0.05572 -0.059699999999999996 0.096515 -0.12537 0.096515 -0.36218 0.14526999999999998 -0.72436 -0.156215 -1.0547 -0.428845 -0.15123999999999999 -0.126365 -0.29750499999999996 -0.247755 -0.43183 -0.31442Zm-12.20467 1.815875 0.0995 -0.010945c0.9661449999999999 0 1.84473 0.088555 2.79595 0.18308l0.28357499999999997 0.028855000000000002c0.26666 0.05373 0.50745 0.106465 0.74625 0.160195l0.000995 0c0.237805 0.052735 0.47561 0.10547 0.739285 0.158205 1.44872 0.482575 1.596975 -0.21094 0.3184 -0.6368 -0.291535 -0.05870499999999999 -0.5771 -0.13731000000000002 -0.87958 -0.219895 -1.34922 -0.369145 -3.0218149999999997 -0.8278399999999999 -6.97893 0.00796 -1.2994700000000001 0.27462000000000003 -4.655605 1.96015 -1.48653 1.16813 1.2268350000000001 -0.490535 3.02082 -0.6895349999999999 4.361085 -0.838785Zm32.965345 7.8376149999999996a1.01689 1.01689 0 0 0 -0.052735 0.012934999999999999c0.054725 -0.054725 0.080595 -0.051739999999999994 0.09353 -0.02189l-0.040795000000000005 0.008955Z" clip-rule="evenodd" stroke-width="1"></path></g><g id="magnifier"><path id="vector_11" fill="#000000" d="M110.81514 81.36612500000001c11.545979999999998 -0.14328 20.61441 11.42857 17.991590000000002 21.04624 -0.106465 0.3184 0.424865 0.5313300000000001 0.5313300000000001 0.21193499999999998 1.911395 -4.460585 0.412925 -9.230614999999998 -2.229795 -13.16783 -2.3472049999999998 -3.4974250000000002 -5.773985 -6.16104 -9.769905000000001 -7.752045000000001 -2.10542 -0.838785 -4.35213 -1.137285 -6.63267 -0.645755 -0.566155 0.122385 -0.91341 0.32039 0.110445 0.30845l-0.000995 -0.000995Z" stroke-width="1"></path><g id="group"><path id="vector_12" fill="#000000" d="M144.67001499999998 116.792105c-0.04975 -0.0995 0.006965 -0.020895 -10.53705 -10.669385 4.16905 -6.193874999999999 2.989975 -16.78167 -5.48046 -24.491925 -7.640605 -6.954054999999999 -19.4821 -9.55797 -27.21723 -1.1422599999999998 -2.50541 2.729285 -3.732245 6.34611 -3.5471749999999997 10.460435 0.522375 11.620605 11.899205 22.01139 23.33474 22.01139 3.706375 0 7.15604 -1.119375 9.78881 -3.3969300000000002 3.449665 3.74717 10.082334999999999 10.484315 10.15099 10.55297 0.345265 0.35024 2.219845 0.20895 3.204895 -1.1571850000000001 0.512425 -0.71043 0.625855 -1.521355 0.30247999999999997 -2.16711Zm-37.57518 -11.69125c-12.413620000000002 -11.29922 -8.977884999999999 -29.100765 6.044625 -29.100765 10.999725 0 22.03527 10.062434999999999 22.537745 21.25718 0.64675 14.45536 -16.370735 18.959725 -28.583365 7.8425899999999995l0.000995 0.000995Zm34.53645 14.356855c-0.84177 -0.8547049999999999 -6.840625 -6.964004999999999 -10.048505 -10.448495 1.222855 -1.19798 1.3910099999999999 -1.32136 2.0835299999999997 -2.2248200000000002l10.314169999999999 10.416654999999999c0.37611 0.898485 -0.7810750000000001 2.3919799999999998 -2.35019 2.257655l0.000995 -0.000995Z" stroke-width="1"></path><path id="vector_13" fill="#000000" d="M126.957025 83.12030999999999c-4.217805 -3.907365 -9.456479999999999 -6.01975 -14.37974 -5.80483 -12.90515 0.572125 -15.208575 16.161785 -4.321285 26.248099999999997 3.895425 3.6088649999999998 9.047535 6.0098 14.25437 5.80881 12.677294999999999 -0.494515 15.90408 -15.78866 4.446655000000001 -26.25208Zm2.713365 22.7457c-1.8904999999999998 1.666625 -4.353125 2.5989400000000002 -7.1908650000000005 2.7103800000000002 -4.657595 0.184075 -9.646525 -1.857665 -13.682245 -5.596875 -7.013755000000001 -6.49735 -8.81371 -16.10905 -4.010845 -21.42235 3.163105 -3.49842 12.78177 -4.313325 20.675105 2.999925 4.160095 3.797915 6.66053 8.67043 6.86152 13.36882 0.13333 3.121315 -0.787045 5.86055 -2.6536649999999997 7.9401h0.000995Z" stroke-width="1"></path></g></g><g id="post-it 1"><path id="vector_14" fill="#000000" d="M76.34933500000001 32.757389999999994c0 -0.3184 -0.21193499999999998 -0.5313300000000001 -0.424865 -0.5313300000000001 -7.00878 -0.6368 -13.911095 1.274595 -20.919874999999998 0.84973 -0.176115 0 -0.731325 0.29551499999999997 -0.751225 0.6994849999999999 -0.33233 6.528195 -1.604935 13.05241 -3.9212949999999998 19.265189999999997 -0.106465 0.21193499999999998 0.106465 0.424865 0.3184 0.5313300000000001a38.83485 38.83485 0 0 0 17.73488 1.911395c1.48653 -0.10547 2.878535 -0.28457 4.247655 -0.743265 1.17808 -0.395015 1.48653 -1.592995 1.911395 -2.6546600000000002 2.09945 -6.297355 2.219845 -12.70217 1.8049300000000001 -19.327875000000002Zm-2.6546600000000002 19.00848c-0.3184 0.6368 -0.424865 1.592995 -0.9551999999999999 1.911395 -0.530335 0.3184 -1.16813 0.424865 -1.8049300000000001 0.5313300000000001 -0.743265 0.106465 -1.48653 0.3184 -2.229795 0.3184 -6.2535750000000005 0.6955049999999999 -11.240515 0.35223 -17.167730000000002 -1.75717 2.3422300000000003 -5.9003499999999995 3.561105 -12.2584 3.47056 -18.54282 6.7888850000000005 0.345265 13.749905 -1.5959800000000002 20.529835 -1.07261 0.72834 8.79779 -1.0984800000000001 17.124944999999997 -1.841745 18.61048l-0.000995 0.000995Z" stroke-width="1"></path><path id="vector_15" fill="#000000" d="M69.057975 39.515429999999995c-0.9024650000000001 -0.22288 -0.52337 -0.196015 -2.49546 -0.00398 -1.382055 0.134325 -3.99592 0.19502 -8.713215 0.71839 -0.176115 0.0199 -0.261685 0.088555 -0.255715 0.20496999999999999 0.011940000000000001 0.2189 0.42188 0.249745 0.42188 0.249745 1.6984650000000001 0 8.144075 -0.319395 9.837565 -0.450735 0.426855 0 0.86764 0 1.2188750000000002 -0.21691 0.29252999999999996 -0.054725 0.166165 -0.456705 -0.014924999999999999 -0.50148h0.000995Z" stroke-width="1"></path><path id="vector_16" fill="#000000" d="M70.73654 42.48451c-1.5124 -0.150245 -2.7103800000000002 -0.059699999999999996 -5.067535 0.052735 -2.406905 0.11542000000000001 -2.004925 -0.028855000000000002 -4.931220000000001 0.26566500000000004 -1.087535 0 -2.164125 0.11144 -3.0795250000000003 0.3184 -0.09850500000000001 0 -0.17810499999999999 0.048755 -0.21193499999999998 0.13134 -0.06368 0.154225 0.082585 0.367155 0.19701000000000002 0.379095 1.393995 0.1393 0.15721 -0.059699999999999996 9.891295000000001 -0.21193499999999998 1.04873 -0.016915 2.237755 0 3.33922 -0.11343 0.47759999999999997 -0.15721 0.329345 -0.8208749999999999 -0.13731000000000002 -0.8208749999999999v-0.000995Z" stroke-width="1"></path><path id="vector_17" fill="#000000" d="M68.437095 46.20979c-0.86963 -0.325365 -1.7502049999999998 -0.43581 -2.60093 -0.327355 -0.850725 0 -1.81488 0 -2.66262 0.10547 -6.23268 0.35322499999999996 -5.75707 0.30944499999999997 -5.863535 0.373125 -0.217905 0.13134 -0.10945 0.44576 0.13134 0.45571 2.73227 0.11542000000000001 3.94418 0.06965 6.28442 -0.022885 2.01985 -0.078605 1.64971 0.12935 4.55312 0.12935 0.36218 0 0.53929 -0.52536 0.1592 -0.71441l-0.000995 0.000995Z" stroke-width="1"></path></g><g id="post-it 2"><path id="vector_18" fill="#000000" d="M140.91588 53.99666c-0.914405 -2.9541549999999996 -2.33626 -6.265515 -1.911395 -9.34504 0 -0.3184 -0.3184 -0.424865 -0.5313300000000001 -0.424865 -2.229795 0.424865 -4.35412 1.0616649999999999 -6.47745 1.592995 -7.063505 1.766125 -6.8376399999999995 1.4875250000000002 -6.946095 2.17308 -0.596005 3.768065 0.10248499999999999 7.877415 1.423845 10.782815 0.878585 2.34422 0.910425 2.36213 5.947115 0.424865 0 0 6.902315000000001 -2.229795 8.17691 -2.6546600000000002 1.274595 -0.424865 0.615905 -1.58603 0.3184 -2.54919Zm-0.743265 1.911395c-7.986864999999999 2.66859 -0.04378 0.014924999999999999 -11.574834999999998 3.82279 -0.319395 0.10547 -0.6368 0.21193499999999998 -0.84973 -0.10547 -0.21293 -0.21193499999999998 -0.3184 -0.5313300000000001 -0.424865 -0.84973 -1.3999650000000001 -3.5004099999999996 -2.1412400000000003 -5.471505 -1.517375 -10.52511 0.9293300000000001 0.036815 5.1929050000000005 -1.278575 6.40183 -1.5810549999999999 1.951195 -0.48755 3.98597 -0.9760949999999999 5.95209 -1.463645 -0.04378 4.07751 1.194 6.182930000000001 2.2248200000000002 9.958955 0.106465 0.21293 0.106465 0.3184 0.106465 0.5313300000000001 0 0.21293 -0.106465 0.106465 -0.3184 0.21193499999999998Z" stroke-width="1"></path><path id="vector_19" fill="#000000" d="M135.39363 49.330110000000005c-0.8925150000000001 0 -4.776995 1.3134000000000001 -5.980945 1.788015 -0.31243 0.122385 -0.633815 0.249745 -0.9522149999999999 0.36815 -0.546255 0.203975 -0.50148 0.7094349999999999 0.24477 0.508445 3.4964299999999997 -0.9412699999999999 2.611875 -0.8377899999999999 5.540159999999999 -1.60593 0.49551 -0.13034500000000002 0.54725 -0.144275 1.292505 -0.44178 0.21193499999999998 -0.08159000000000001 0.3184 -0.6169 -0.14328 -0.6169h-0.000995Z" stroke-width="1"></path><path id="vector_20" fill="#000000" d="M135.87123 51.80169c-0.52337 0 -0.7193849999999999 0.074625 -1.2994700000000001 0.29551499999999997 -2.191985 0.8308249999999999 -4.243675 1.312405 -5.509315 1.963135 -0.494515 0.253725 -0.315415 0.5810799999999999 0.22089 0.43581 0.58904 -0.1592 6.040645 -1.660655 6.76401 -2.205915 0.16716 -0.16716 0.02189 -0.488545 -0.176115 -0.488545Z" stroke-width="1"></path></g></g></svg>