<svg xmlns="http://www.w3.org/2000/svg" viewBox="-0.5 -0.5 200 200"><g fill="#000000" fill-rule="evenodd"><path d="M121.87755 53.889199999999995a2.9253 2.9253 0 0 0 0.3184 0.36815c0.10945 0.23879999999999998 0.0995 0.1592 0 0.38805 -0.22885 0.10945 -0.12935 0.0995 -0.38805 0a2.23875 2.23875 0 0 1 -0.40795 -0.4577c-0.059699999999999996 -0.24875 -0.0796 -0.1592 0.06965 -0.38805 0.26865 -0.06965 0.17909999999999998 -0.06965 0.40795 0.08954999999999999zm1.8308 5.3929a0.92535 0.92535 0 0 0 0.7064499999999999 0.16915000000000002c0.26865 0.059699999999999996 0.18905 0 0.32835000000000003 0.2189 -0.059699999999999996 0.2587 0 0.18905 -0.2189 0.32835000000000003a1.4128999999999998 1.4128999999999998 0 0 1 -1.1342999999999999 -0.24875c-0.1393 -0.2189 -0.12935 -0.12935 -0.0796 -0.38805 0.2189 -0.14925 0.12935 -0.12935 0.398 -0.0796zM140.295 190.68179999999998c-0.995 -6.965 -8.70625 -9.08435 -12.4375 -7.8406a13.4325 13.4325 0 0 0 -1.2139 -3.98c-1.99 -4.049650000000001 -5.5521 -6.8257 -10.2087 -6.0894 -0.6766000000000001 0.0995 -0.54725 0.60695 -0.11939999999999999 0.76615a23.4621 23.4621 0 0 1 2.37805 0.92535 15.15385 15.15385 0 0 1 8.2386 8.845550000000001c-0.398 0.24875 -0.50745 0.8855500000000001 0.32835000000000003 0.7163999999999999a4.975 4.975 0 0 1 2.81585 0.04975c4.1193 0.86565 6.7261999999999995 2.2685999999999997 8.54705 6.4078a11.1639 11.1639 0 0 1 0.84575 2.75615c0.17909999999999998 1.04475 0.7761 0.995 0.8557 0.4179a10.726099999999999 10.726099999999999 0 0 0 -0.029849999999999998 -2.9750500000000004zm-18.4274 -4.40785c0.40795 0.90545 -0.22885 1.0746 -0.7064499999999999 0.50745a16.606550000000002 16.606550000000002 0 0 0 -5.54215 -3.8606c-2.6467 -1.1342999999999999 -5.7113000000000005 -1.5522 -8.06945 0.059699999999999996 -0.5174 0.34825 -0.995 0.12935 -0.6965 -0.48755a4.975 4.975 0 0 1 3.1044 -2.1293c3.98 -1.18405 9.800749999999999 1.24375 11.91015 5.9103zm-5.820749999999999 -63.242200000000004c-1.40295 10.85545 -2.985 22.417350000000003 -3.43275 23.88 -0.10945 0.3781 -0.86565 0.8159 -0.78605 0 1.8904999999999998 -22.397450000000003 1.9103999999999999 -23.9596 2.2089000000000003 -24.48695a1.06465 1.06465 0 0 1 2.0099 0.60695zm-6.89535 -0.9352999999999999c-1.2935 5.4924 -2.8655999999999997 10.29825 -3.69145 14.138950000000001 -1.99 9.02465 -4.288449999999999 16.64635 -5.54215 22.0094 -0.11939999999999999 0.4975 -0.995 0.42785 -0.84575 -0.1592 2.57705 -13.16385 1.1741 -8.16895 4.447649999999999 -22.27805 2.77605 -11.94 3.3630999999999998 -14.148900000000001 3.73125 -14.6265a1.06465 1.06465 0 0 1 1.90045 0.9154zm-6.75605 -2.4775500000000004c-8.158999999999999 18.905 -10.29825 23.45215 -11.05445 24.228250000000003 -0.2786 0.28855 -0.62685 0.2786 -0.6169 -0.18905 0 -1.4327999999999999 9.2734 -24.327749999999998 9.95 -25.273 0.7263499999999999 -1.16415 2.2885 -0.08954999999999999 1.72135 1.2338zM74.625 178.77165c0.58705 0.34825 0.78605 1.1342999999999999 -0.80595 0.597a5.6217500000000005 5.6217500000000005 0 0 0 -4.2188 0.059699999999999996 7.6615 7.6615 0 0 0 -3.49245 3.47255c-0.42785 0.7064499999999999 -0.995 0.6567000000000001 -1.6616499999999998 0.24875a7.8804 7.8804 0 0 0 -6.51725 -1.06465c-2.23875 0.7064499999999999 -5.12425 3.17405 -5.46255 5.7511 -0.17909999999999998 1.32335 -0.7761 1.1144 -0.8855500000000001 0.14925 -0.4577 -3.75115 5.10435 -11.23355 13.303149999999999 -6.87545 2.4974499999999997 -3.49245 5.950100000000001 -4.56705 9.74105 -2.33825zm42.9243 -32.9544c3.8606 1.78105 5.363049999999999 5.14415 3.8009 9.4525 4.0794999999999995 2.17905 6.109299999999999 5.870500000000001 4.975 10.2485a6.965 6.965 0 0 1 -3.1442 4.6367c-0.7263499999999999 0.4378 -1.3731 0.12935 -0.26865 -0.8955 1.8606500000000001 -1.74125 2.29845 -5.22375 1.6417499999999998 -7.57195a7.2038 7.2038 0 0 0 -3.33325 -4.2188c-1.6218499999999998 -0.995 -1.74125 -0.6766000000000001 -2.05965 -1.3532000000000002s0.0995 -0.60695 0.60695 -2.0895c1.82085 -5.3530999999999995 -2.1691000000000003 -7.014749999999999 -2.73625 -7.761 -0.30845 -0.33830000000000005 0.0995 -0.6368 0.5174 -0.44775zM78.40599999999999 162.185a10.81565 10.81565 0 0 1 8.64655 3.7710500000000002c0.7363 0.8159 0.2786 1.3333000000000002 -0.597 0.62685 -4.5571 -3.65165 -10.945 -2.985 -16.34785 -0.24875 -3.0546499999999996 1.5422500000000001 -3.98 2.4676 -6.965 5.22375 -0.3184 0.33830000000000005 -1.1144 0 -0.597 -0.5373 1.7114 -2.189 2.73625 -3.7411999999999996 4.8854500000000005 -5.273499999999999A18.5866 18.5866 0 0 1 78.40599999999999 162.185z" stroke-width="1"></path><path d="M147.30975 94.525c-0.2985 -0.68655 -6.8456 -8.7759 -10.75595 -13.18375 0.5373 -2.65665 0.995 -5.174 1.5124 -7.5520499999999995 2.5472 -2.2188499999999998 5.6715 -5.5521 5.3133 -8.955 -0.1592 -0.8955 -0.22885 -0.995 -0.42785 -1.0547 0.33830000000000005 -1.7512 -0.58705 -2.8059 -2.23875 -3.2834999999999996 6.39785 -31.999199999999995 5.8107999999999995 -29.024150000000002 5.80085 -29.4719 -0.398 -10.75595 -4.179 -21.56165 -6.39785 -24.636200000000002 -1.40295 -1.99 -2.2188499999999998 -1.6915 -4.2586 0 -4.776 4.0397 -13.76085 15.51205 -16.0195 20.94475 -0.17909999999999998 0.47759999999999997 -2.4676 9.163950000000002 -5.2138 19.621399999999998a7.96 7.96 0 0 0 -1.80095 0.995c-1.7512 1.2139 -1.50245 1.48255 -2.2288 2.8954500000000003a1.3532000000000002 1.3532000000000002 0 0 1 -0.50745 0.58705c-0.4975 0.2587 -1.194 0.26865 -1.7711000000000001 0.58705a4.1392 4.1392 0 0 0 -1.592 1.92035A5.4526 5.4526 0 0 0 107.46 58.705a23.51185 23.51185 0 0 0 -3.5123499999999996 6.6864C94.63445 68.32665 81.18205 77.93835 76.217 81.59c-6.67645 4.975 -15.61155 11.94 -20.6363 18.905 -3.2436999999999996 4.54715 -1.7114 6.23865 0.2587 5.97 2.57705 -0.40795 13.02455 -4.0397 14.925 -3.81085 0.22885 0 -2.31835 8.44755 -2.55715 10.885299999999999 -0.14925 1.60195 0.4378 2.4278 2.4377500000000003 2.07955a21.82035 21.82035 0 0 0 5.8307 -2.35815c-1.6815499999999999 5.0745 -3.81085 12.148950000000001 -8.3779 29.362450000000003 -0.597 2.2685999999999997 -1.99 6.965 -2.07955 9.243549999999999 -0.08954999999999999 1.42285 0.12935 2.7263 1.2238499999999999 2.9253 1.7313 0.3184 2.8556500000000002 -3.79095 5.68145 -9.54205 2.13925 -4.368049999999999 7.96 -16.4374 12.46735 -24.994400000000002 -1.40295 5.572 -5.2138 20.7557 -5.9103 26.865 -0.4975 4.3581 -1.4128999999999998 7.03465 -0.9452499999999999 9.4525 0.34825 1.7711000000000001 1.5522 1.99 2.388 1.12435s1.4327999999999999 -2.985 2.1293 -4.72625c0.2786 -0.6965 2.2288 -4.975 2.4278 -5.4426499999999995 1.42285 -3.3133500000000002 5.06455 -11.94 13.70115 -32.46685a12.06935 12.06935 0 0 0 2.4974499999999997 1.18405c7.104299999999999 2.1492 10.835550000000001 3.5919499999999998 18.2881 4.18895 3.4228 0.26865 3.7710500000000002 0.20895 4.1392 0a2.4974499999999997 2.4974499999999997 0 0 0 0.995 -1.4925c0 -0.16915000000000002 0.32835000000000003 -1.42285 0.5572 -2.55715a24.5964 24.5964 0 0 0 5.04465 0c3.21385 4.16905 10.0097 10.2286 11.343 10.945 0.2189 0.0995 0.40795 0.11939999999999999 0.5572 -0.059699999999999996 0.6766000000000001 -0.98505 5.651599999999999 -30.447000000000003 4.7063500000000005 -32.74545zm-75.819 51.74 -3.21385 -0.995c4.975 -18.536849999999998 6.33815 -23.9596 9.30325 -32.52655 2.7462 -1.5422500000000001 5.3929 -3.27355 6.79585 -4.179 0.059699999999999996 2.985 -0.12935 7.25355 0.9352999999999999 10.1689 -1.8705999999999998 3.7213000000000003 -5.572 11.2037 -13.82055 27.462zm58.705 -68.14755a35.9394 35.9394 0 0 1 -11.71115 3.67155c-4.2785 0.64675 -3.89045 0.0796 -4.4376999999999995 0.796 -1.24375 1.6119 -3.6616 6.5471 -5.2337 7.3033a26.069 26.069 0 0 1 -3.1641000000000004 0.64675c6.8257 -14.158850000000001 5.97 -11.94 10.945 -20.98455a15.21355 15.21355 0 0 0 0.8855500000000001 -1.7512c5.97 1.2238499999999999 15.711049999999998 1.6218499999999998 20.6363 -1.84075a11.05445 11.05445 0 0 1 3.8207999999999998 2.6069c-2.3681 3.97005 -7.5421000000000005 7.4426000000000005 -11.7211 9.482349999999999zm-12.546949999999999 14.049399999999999c-0.20895 0.17909999999999998 0.12935 0 -4.1392 1.5422500000000001l0.059699999999999996 -3.7710500000000002c1.3134000000000001 -0.4179 3.8407 -4.4376999999999995 3.98 -7.472449999999999 0.76615 -0.08954999999999999 1.3532000000000002 -0.16915000000000002 1.99 -0.26865 0.20895 3.7411999999999996 -0.4577 8.756 -1.8904999999999998 9.969899999999999zm24.42725 -23.969549999999998a10.706199999999999 10.706199999999999 0 0 0 -3.3531500000000003 -2.786 2.65665 2.65665 0 0 0 0.995 -1.5323c0.06965 -0.16915000000000002 0.17909999999999998 -0.3184 0.35819999999999996 -0.30845a8.955 8.955 0 0 1 2.6666000000000003 0.6766000000000001 4.905349999999999 4.905349999999999 0 0 1 -0.6666500000000001 3.9501500000000003zm0.22885 -4.6566a8.1789 8.1789 0 0 0 -2.1094 -0.46764999999999995c0.14925 -0.7263499999999999 0.28855 -1.4327999999999999 0.42785 -2.1293 1.50245 0.6666500000000001 1.8606500000000001 1.5820500000000002 1.6616499999999998 2.5969499999999996zm-22.079050000000002 -35.39215c0.92535 -2.73625 3.9004 -7.17395 7.19385 -11.3828 6.6665 3.47255 14.049399999999999 4.32825 17.0742 3.75115a49.75 49.75 0 0 1 1.32335 9.6117c0.06965 1.4526999999999999 0.90545 -3.0546499999999996 -6.37795 33.1335 -0.28855 0.3184 -0.32835000000000003 0.995 -0.6567000000000001 1.393a8.06945 8.06945 0 0 1 -2.35815 1.6417499999999998c-5.0944 2.45765 -11.94 2.17905 -17.492099999999997 1.3532000000000002a10.85545 10.85545 0 0 1 0.08954999999999999 -2.786c0.35819999999999996 0 1.30345 0.18905 1.74125 0.20895a6.2684999999999995 6.2684999999999995 0 0 0 2.1691000000000003 -0.44775 5.174 5.174 0 0 0 2.985 -3.73125c0 -0.7163999999999999 -0.48755 -3.23375 -0.28855 -3.79095 0 -0.06965 0.32835000000000003 -0.597 0.40795 -0.7363 0.4378 -1.1342999999999999 -1.44275 -1.78105 -2.5671 -2.6367499999999997a29.85 29.85 0 0 1 -2.388 -2.985 2.985 2.985 0 0 0 0.30845 -0.5373 6.2287 6.2287 0 0 0 0.11939999999999999 -3.3232999999999997c-0.47759999999999997 -1.99 -1.99 -2.41785 -2.8855 -1.3134000000000001 -0.0796 0.08954999999999999 -0.38805 0.54725 -0.5572 0.7562 -0.6666500000000001 0.8358 -0.995 -0.0995 -2.8855 0.4179 1.4925 -5.38295 3.1442 -11.5619 5.04465 -18.59655zm-6.45755 36.1782c0.8756 -0.2985 1.2039499999999999 -1.2139 1.90045 -1.92035 0.35819999999999996 -0.36815 1.1741 -1.0547 0.90545 -1.6517 -0.16915000000000002 -0.199 -0.48755 -0.0796 -1.28355 -0.35819999999999996a1.1741 1.1741 0 0 1 -0.82585 -1.4327999999999999c0.11939999999999999 -1.18405 1.8904999999999998 -0.80595 1.99 -0.86565 0.23879999999999998 -0.2189 -0.5572 -0.7761 -0.7163999999999999 -2.2885a2.79595 2.79595 0 0 1 1.26365 -2.8556500000000002c1.44275 -0.8955 2.6467 -0.3781 3.98 -1.92035a28.337600000000002 28.337600000000002 0 0 0 2.1293 2.81585 19.51195 19.51195 0 0 0 1.99 1.40295c0.597 0.4378 0.5572 0.5572 0.6368 0.8159s-0.34825 0.5771 -0.47759999999999997 0.90545c-0.32835000000000003 0.995 0.48755 3.57205 0.059699999999999996 4.48745A5.8506 5.8506 0 0 1 123.38 63.68a5.0546 5.0546 0 0 1 -2.0497 0.68655c-0.74625 0.0796 -0.2985 0.04975 -1.8109 -0.1393 -0.58705 -0.06965 -0.80595 -0.10945 -0.995 0.23879999999999998a8.109250000000001 8.109250000000001 0 0 0 -0.20895 3.0646l-0.7163999999999999 -0.11939999999999999a0.5373 0.5373 0 0 0 0 -0.17909999999999998 32.108650000000004 32.108650000000004 0 0 0 -3.98 -1.5522c0.0398 -0.597 0.10945 -1.00495 0.14925 -1.3532000000000002zm-6.03965 -5.1541a16.6961 16.6961 0 0 0 1.1741 1.52235 18.3677 18.3677 0 0 0 2.1691000000000003 3.1044 2.4476999999999998 2.4476999999999998 0 0 0 1.99 0.6169c-0.059699999999999996 0.3781 -0.11939999999999999 0.7263499999999999 -0.16915000000000002 1.06465 -1.3731 -0.4577 -2.53725 -0.82585 -2.7462 -0.8756a11.65145 11.65145 0 0 0 -5.72125 0.5572 23.084 23.084 0 0 1 3.3034 -5.9899zM84.04765 149.25a5.97 5.97 0 0 1 -3.7411999999999996 -0.50745c-0.22885 -2.05965 1.84075 -14.178749999999999 5.8904 -28.38735a3.87055 3.87055 0 0 0 2.51735 1.5422500000000001c1.28355 0.2189 3.0845000000000002 -2.79595 3.7611 -3.9004 6.0794500000000005 -12.68625 10.0893 -21.06415 12.8753 -26.865 1.12435 -0.1592 2.2487 -0.40795 3.33325 -0.64675 -2.9253 6.566999999999999 -24.28795 58.41645 -24.636200000000002 58.764700000000005zm40.60595 -31.0042c-0.1592 0.6965 -0.42785 1.7512 -1.14425 1.80095 -8.24855 -0.199 -13.04445 -1.8109 -20.2582 -3.98A15.074250000000001 15.074250000000001 0 0 1 99.40050000000001 114.425l1.791 -4.22875a96.8533 96.8533 0 0 0 23.88 6.09935c-0.11939999999999999 0.5373 -0.24875 1.1741 -0.4179 1.92035zm0 -2.4278a92.2166 92.2166 0 0 1 -23.3825 -5.9103l8.4177 -19.9995c1.8308 -1.6218499999999998 4.06955 -5.76105 4.905349999999999 -7.1242 0.4577 -0.06965 1.7313 -0.17909999999999998 2.53725 -0.2587 -0.2189 2.4676 -2.2089000000000003 5.88045 -3.5521499999999997 6.79585 -0.30845 0.2189 -0.33830000000000005 0.059699999999999996 -0.52735 0.199s0 0 -0.059699999999999996 0.06965 -0.1393 4.58695 -0.08954999999999999 4.7063500000000005a0.28855 0.28855 0 0 0 0.35819999999999996 0.1393c4.776 -1.70145 4.4576 -1.46265 4.975 -1.99 1.52235 -1.6716 1.99 -6.5869 1.6517 -10.27835a40.317400000000006 40.317400000000006 0 0 0 17.283150000000003 -7.6415999999999995c-2.8257999999999996 13.93 -3.47255 14.925 -2.985 24.477 1.0547 9.78085 2.11935 13.3131 -1.6417499999999998 16.298099999999998 -1.5820500000000002 1.1144 -5.8506 0.7064499999999999 -7.8406 0.48755zm17.382649999999998 10.8057a71.82905 71.82905 0 0 1 -10.69625 -10.348 4.975 4.975 0 0 0 3.47255 -2.73625c2.7661 -4.7959000000000005 -1.12435 -10.05945 0.199 -24.50685 0.50745 -2.5472 0.995 -4.975 1.46265 -7.3033 3.8407 4.4974 10.21865 12.4773 10.348 13.0345 0.58705 2.83575 -3.83075 28.7754 -4.7362 31.83005z" stroke-width="1"></path><path d="M132.2156 24.3377a10.61665 10.61665 0 0 1 6.368 2.5969499999999996c1.5820500000000002 1.592 1.8904999999999998 4.5371999999999995 1.84075 6.766 -0.11939999999999999 4.975 -2.91535 7.83065 -5.8904 8.3182a13.3529 13.3529 0 0 1 -9.32315 -2.3681c-2.25865 -1.7711000000000001 -2.15915 -4.0397 -1.5721 -7.0446 0.90545 -4.6964 3.45265 -7.0844000000000005 6.39785 -7.96a8.20875 8.20875 0 0 1 2.17905 -0.30845zm0.04975 0.47759999999999997a7.35305 7.35305 0 0 0 -3.43275 0.9352999999999999 9.18385 9.18385 0 0 0 -4.4576 6.41775 14.53695 14.53695 0 0 0 -0.40795 3.7611 3.98 3.98 0 0 0 2.0895 3.5123499999999996c2.3482 1.5422500000000001 6.7461 2.6865 9.3331 1.6915 1.99 -0.7562 3.7710500000000002 -2.65665 4.378 -5.9103 0.4577 -2.4476999999999998 0.28855 -6.6864 -1.6218499999999998 -8.26845a10.5271 10.5271 0 0 0 -5.88045 -2.13925zm6.71625 2.5969499999999996zM128.355 90.4853a1.4128999999999998 1.4128999999999998 0 0 0 -0.995 2.45765c0.995 1.2935 3.2436999999999996 -0.16915000000000002 2.8556500000000002 -1.3333000000000002 -0.20895 -0.44775 -0.44775 -1.1342999999999999 -1.8606500000000001 -1.12435z" stroke-width="1"></path><path d="M130.4644 91.58975c0.35819999999999996 1.2139 -1.3333000000000002 2.45765 -2.53725 2.1492a1.99 1.99 0 0 1 -1.36315 -1.8705999999999998 1.5323 1.5323 0 0 1 1.4726 -1.5124c1.2039499999999999 -0.11939999999999999 2.0895 0.06965 2.4278 1.2338zm-2.13925 -0.995a1.4128999999999998 1.4128999999999998 0 0 0 -0.995 0.54725 0.995 0.995 0 0 0 -0.14925 0.90545c0.54725 1.90045 2.6069 0.796 2.69645 -0.17909999999999998a0.995 0.995 0 0 0 -0.0995 -0.4577c-0.2189 -0.58705 -0.796 -0.7263499999999999 -1.42285 -0.796zm-0.029849999999999998 6.03965a1.4128999999999998 1.4128999999999998 0 0 0 -0.995 2.45765c0.995 1.2935 3.23375 -0.16915000000000002 2.8556500000000002 -1.3333000000000002 -0.17909999999999998 -0.44775 -0.4179 -1.12435 -1.8606500000000001 -1.12435z" stroke-width="1"></path><path d="M128.6535 96.515a1.8308 1.8308 0 0 1 1.18405 0.34825 1.7512 1.7512 0 0 1 0.6368 1.0945 1.99 1.99 0 1 1 -3.9203 -0.1393 1.4128999999999998 1.4128999999999998 0 0 1 0.5174 -0.90545 2.15915 2.15915 0 0 1 1.5820500000000002 -0.398zm-0.35819999999999996 0.2786a1.5422500000000001 1.5422500000000001 0 0 0 -0.64675 0.22885 1.2338 1.2338 0 0 0 0 1.99 1.44275 1.44275 0 0 0 1.99 -0.38805 0.8855500000000001 0.8855500000000001 0 0 0 0.1393 -1.1044500000000002c-0.2985 -0.5572 -0.86565 -0.6965 -1.48255 -0.7562zm0.059699999999999996 6.05955a1.4128999999999998 1.4128999999999998 0 0 0 -0.995 2.45765c0.995 1.2935 3.23375 -0.16915000000000002 2.8556500000000002 -1.3333000000000002 -0.14925 -0.44775 -0.38805 -1.1342999999999999 -1.8606500000000001 -1.12435z" stroke-width="1"></path><path d="M128.74304999999998 102.7039a1.6417499999999998 1.6417499999999998 0 0 1 1.78105 1.2537c0.5174 1.76115 -3.1342499999999998 3.53225 -3.85065 0.6766000000000001a1.46265 1.46265 0 0 1 0.54725 -1.5721 2.11935 2.11935 0 0 1 1.52235 -0.35819999999999996zm-0.35819999999999996 0.2786c-0.995 0.18905 -1.30345 0.82585 -1.14425 1.4327999999999999a1.88055 1.88055 0 0 0 0.6368 0.9352999999999999 1.4327999999999999 1.4327999999999999 0 0 0 1.50245 -0.23879999999999998c0.68655 -0.54725 0.6567000000000001 -0.995 0.40795 -1.4526999999999999a1.6318 1.6318 0 0 0 -1.4327999999999999 -0.6766000000000001zm3.184 -74.73445c1.99 1.6915 1.4327999999999999 1.1741 2.61685 2.25865a22.3875 22.3875 0 0 1 1.9103999999999999 1.84075c0.5572 0.7761 -0.16915000000000002 1.44275 -0.995 0.92535a46.8446 46.8446 0 0 1 -3.98 -4.64665c-0.1592 -0.28855 0.14925 -0.5771 0.44775 -0.3781zm-3.65165 1.2338c6.57695 6.51725 6.965 7.3431 6.8655 7.2436s0.34825 0.64675 -0.1393 0.995a0.80595 0.80595 0 0 1 -0.995 -0.26865c-0.30845 -0.47759999999999997 -5.97 -7.3232 -6.159050000000001 -7.75105s0.22885 -0.398 0.42785 -0.2189zm-4.815799999999999 17.9896c1.76115 1.1144 12.487250000000001 4.38795 16.22845 4.2984 0.6368 0 0.5373 0.4378 0.0796 0.5373 -2.5273 0.5572 -14.308100000000001 -1.99 -17.024449999999998 -3.69145a0.6666500000000001 0.6666500000000001 0 0 1 -0.20895 -0.9352999999999999 0.6368 0.6368 0 0 1 0.92535 -0.20895z" stroke-width="1"></path></g></svg>