<svg xmlns="http://www.w3.org/2000/svg" viewBox="-0.5 -0.5 200 200"><g fill="#000000"><path d="m97.31099999999999 28.2381 1.46265 0.995 1.3333000000000002 -1.94025 -1.6716 -1.36315 0.34825 -0.92535 2.07955 0.20895 0.16915000000000002 -2.3283 -2.2188499999999998 -0.30845 -0.30845 -1.2338 1.6417499999999998 -1.36315 -0.9154 -1.60195 -1.88055 0.84575 -0.58705 -0.7163999999999999 0.92535 -2.2885 -1.3333000000000002 -0.74625 -1.5323 1.50245 -1.4726 -0.40795v-1.88055l-2.41785 0.16915000000000002v1.7114l-1.16415 0.40795 -1.50245 -1.50245 -1.12435 0.8855500000000001 0.33830000000000005 1.7711000000000001 -0.995 0.8557 -1.3333000000000002 -0.7163999999999999 -1.194 0.995 1.5621500000000001 1.99 -0.16915000000000002 1.5422500000000001 -2.2885 -0.20895v1.99l1.99 0.20895 0.36815 1.46265 -1.74125 0.995 0.7263499999999999 1.50245 2.2487 -0.54725 0.995 0.995 -0.995 1.5323 1.5721 1.26365L89.55 30.21815l1.40295 0.1393v1.99l1.99 0.23879999999999998 0.33830000000000005 -2.189 1.5323 -0.30845 1.194 1.6716 1.4327999999999999 -0.995 -0.5771 -2.0895zM91.938 27.86a4.2188 4.2188 0 0 1 -4.24865 -4.24865c0.10945 -5.64165 8.3779 -5.64165 8.4973 0A4.22875 4.22875 0 0 1 91.938 27.86z" stroke-width="1"></path><path d="M91.938 21.332800000000002a2.2885 2.2885 0 1 0 2.2885 2.2885 2.2685999999999997 2.2685999999999997 0 0 0 -2.2885 -2.2885zm17.56175 6.8058 0.84575 -1.1144 -1.6417499999999998 -1.50245 -1.36315 1.2736a5.7113000000000005 5.7113000000000005 0 0 0 -2.985 0l-1.14425 -1.0547 -1.5820500000000002 1.3731 0.46764999999999995 1.06465a5.0546 5.0546 0 0 0 -1.24375 2.4775500000000004l-1.592 0.20895v2.4974499999999997l1.5621500000000001 0.18905a3.3630999999999998 3.3630999999999998 0 0 0 1.592 2.4476999999999998l-0.54725 1.48255 1.8507 1.06465 0.995 -1.36315a7.03465 7.03465 0 0 0 3.23375 -0.199l1.06465 1.1542 1.592 -1.1741c-0.17909999999999998 -0.5771 -0.35819999999999996 -1.1542 -0.54725 -1.7313a2.5273 2.5273 0 0 0 0.995 -1.8705999999999998h1.1741l0.6169 -2.3681 -1.9103999999999999 -0.38805a4.577 4.577 0 0 0 -1.4327999999999999 -2.4676zm-3.6218 7.0844000000000005a3.25365 3.25365 0 1 1 3.25365 -3.25365 3.23375 3.23375 0 0 1 -3.25365 3.25365z" stroke-width="1"></path><path d="M105.87795 30.25795a1.7114 1.7114 0 1 0 1.70145 1.7114 1.70145 1.70145 0 0 0 -1.70145 -1.7114zM42.5263 175.7767l-10.238549999999998 12.656400000000001h35.63095l4.825749999999999 -12.1987 -30.21815 -0.4577zM103.66905 113.42999999999999a0.1592 0.1592 0 0 0 0.1592 0c3.383 -3.98 3.184 -3.67155 3.17405 -3.7710500000000002 -0.04975 -0.34825 -2.51735 -1.32335 -3.79095 -1.4327999999999999a0.14925 0.14925 0 0 0 -0.1592 0.16915000000000002c0.5373 5.2934 0.47759999999999997 5.0347 0.6169 5.0347zm70.15745000000001 -9.8903a7.8008 7.8008 0 0 1 -3.3232999999999997 0.11939999999999999c-0.5373 -0.12935 0.1592 1.5820500000000002 1.6517 1.5820500000000002s2.189 -1.8904999999999998 1.6716 -1.70145zM27.262999999999998 99.37065c0.7163999999999999 2.6865 0.68655 2.69645 0.8756 2.65665 2.3482 -0.46764999999999995 11.1838 -3.184 12.76585 -3.83075a0.1393 0.1393 0 0 0 0.08954999999999999 -0.14925c-0.2189 -1.72135 -2.8556500000000002 -18.37765 -3.11435 -18.536849999999998 -0.08954999999999999 -0.059699999999999996 0 -0.059699999999999996 -3.27355 0.78605 -0.16915000000000002 -0.54725 -0.35819999999999996 -1.0845500000000001 -0.47759999999999997 -1.6218499999999998a0.398 0.398 0 0 0 -0.46764999999999995 -0.2786 113.42999999999999 113.42999999999999 0 0 0 -13.0146 3.5919499999999998 0.34825 0.34825 0 0 0 -0.3781 0.398c0.50745 2.985 3.3432 17.2334 3.6616 17.50205s0.30845 -0.00995 3.33325 -0.5174zm9.760950000000001 -2.77605c-0.995 0.22885 -11.94 2.41785 -12.58675 2.55715 -0.16915000000000002 -0.8855500000000001 -3.3133500000000002 -15.721 -3.4825 -16.64635a99.5 99.5 0 0 1 12.507150000000001 -3.2834999999999996c0.14925 0.6567000000000001 3.27355 16.1588 3.5621 17.372700000000002z" stroke-width="1"></path><path d="M27.75055 91.739a0.22885 0.22885 0 0 0 0.16915000000000002 -0.3781c-0.3781 -0.46764999999999995 -0.78605 -0.8955 -1.1342999999999999 -1.3731 -0.5572 -0.7761 1.6318 -2.41785 1.1542 -4.049650000000001a1.80095 1.80095 0 0 0 -2.33825 -0.995c-1.04475 0.34825 -0.995 1.52235 -0.2786 2.3681a0.2985 0.2985 0 0 0 0.50745 -0.30845c-0.6666500000000001 -0.995 -0.3781 -1.5820500000000002 0.796 -1.3532000000000002 0.8159 0.16915000000000002 0.6766000000000001 1.1144 0.30845 1.80095a6.09935 6.09935 0 0 0 -0.995 2.35815c-0.0199 0.47759999999999997 1.592 1.9303 1.8109 1.9303zm4.1591 -0.34825a0.22885 0.22885 0 0 0 0.44775 -0.0796c-0.17909999999999998 -1.3333000000000002 -1.3532000000000002 -6.6665 -1.6716 -7.96a0.34825 0.34825 0 0 0 -0.6766000000000001 0.17909999999999998c0.059699999999999996 0.2189 1.46265 6.4277 1.90045 7.8605zm-4.2188 1.78105a0.6567000000000001 0.6567000000000001 0 1 0 0 1.30345 0.6567000000000001 0.6567000000000001 0 1 0 0 -1.30345zm4.825749999999999 -1.02485a0.6567000000000001 0.6567000000000001 0 1 0 0 1.3134000000000001 0.6567000000000001 0.6567000000000001 0 1 0 0 -1.3134000000000001zm20.5567 -38.83485c2.53725 1.42285 5.0347 -0.1393 4.975 -2.15915a2.91535 2.91535 0 0 0 2.45765 -4.1591c1.393 -1.2139 1.5820500000000002 -3.8009 -0.22885 -4.84565 1.5124 -1.84075 0.35819999999999996 -5.2337 -2.0696 -5.46255a3.07455 3.07455 0 0 0 -4.4775 -3.1342499999999998A2.33825 2.33825 0 0 0 52.1977 31.84c-4.0596 -1.1741 -3.98 9.2137 -3.98 13.631499999999999 0 1.4526999999999999 0.059699999999999996 3.2834999999999996 0.20895 4.905349999999999 0.10945 1.2039499999999999 0.23879999999999998 2.69645 1.34325 3.582a2.13925 2.13925 0 0 0 3.3034 -0.64675zm4.3581 -6.39785c-0.2985 0 -0.40795 0.40795 -0.0995 0.46764999999999995a4.975 4.975 0 0 0 2.65665 0c0.995 2.587 -2.2089000000000003 4.288449999999999 -4.1591 2.4676 -0.22885 -0.2189 -0.5771 0.11939999999999999 -0.34825 0.34825a3.4825 3.4825 0 0 0 1.99 0.995c-0.35819999999999996 1.8705999999999998 -2.4875 2.53725 -4.1193 1.5422500000000001a4.2188 4.2188 0 0 0 -0.7562 -3.47255 0.18905 0.18905 0 0 0 -0.3184 0.18905c0.4975 1.0746 0.995 2.31835 0.38805 3.37305a1.5621500000000001 1.5621500000000001 0 0 1 -2.3482 0.6368c-0.8756 -0.6965 -0.995 -1.84075 -1.06465 -3.2834999999999996a4.9153 4.9153 0 0 1 0.40795 -2.985 3.63175 3.63175 0 0 1 1.4526999999999999 -1.32335 0.26865 0.26865 0 0 0 -0.12935 -0.50745 3.87055 3.87055 0 0 0 -1.9303 1.60195 65.57050000000001 65.57050000000001 0 0 1 0.06965 -6.67645 3.15415 3.15415 0 0 0 3.0845000000000002 1.4925c0.35819999999999996 0 0.34825 -0.60695 0 -0.5671499999999999a2.6268000000000002 2.6268000000000002 0 0 1 -2.6467 -1.60195c-0.5174 -1.0547 0 -3.83075 0.33830000000000005 -4.975 1.0547 -3.4825 3.6218 -1.8904999999999998 3.39295 0.2189a2.6069 2.6069 0 0 1 -1.5820500000000002 2.189 0.199 0.199 0 0 0 -0.11939999999999999 0.2587c0.199 0.5572 2.4078999999999997 -0.86565 2.29845 -3.0845000000000002a2.55715 2.55715 0 0 1 3.69145 2.53725A2.6268000000000002 2.6268000000000002 0 0 0 55.72 37.87965a0.2786 0.2786 0 0 0 0.47759999999999997 0.2985 1.99 1.99 0 0 1 1.791 -0.84575c3.2039 0.2189 2.985 5.30335 0.12935 5.18395a0.20895 0.20895 0 0 0 -0.06965 0.40795 2.17905 2.17905 0 0 0 1.76115 -0.30845A2.35815 2.35815 0 0 1 60.695 45.77c-0.4975 1.4726 -2.2487 1.3333000000000002 -3.2636 1.14425z" stroke-width="1"></path><path d="M55.2026 39.5214c-0.4378 0.08954999999999999 0.17909999999999998 0.68655 -0.4975 1.6716 -0.82585 1.194 -1.8507 0.7064499999999999 -1.76115 1.3532000000000002 0.1393 0.995 2.985 -0.47759999999999997 2.51735 -2.8655999999999997a0.20895 0.20895 0 0 0 -0.2587 -0.1592zm-1.96015 4.38795a0.2189 0.2189 0 0 0 -0.10945 0.4179c0.995 0.2786 1.2238499999999999 1.46265 1.38305 2.4078999999999997a0.38805 0.38805 0 1 0 0.7562 -0.08954999999999999c-0.2985 -1.2039499999999999 -0.8159 -2.4476999999999998 -2.0298 -2.73625zM45.2725 33.213100000000004c-1.0845500000000001 -2.0696 -3.5422000000000002 -1.8507 -4.10935 0.33830000000000005a3.1442 3.1442 0 0 0 -3.2436999999999996 0.20895 3.0646 3.0646 0 0 0 -1.26365 2.985c-2.45765 0.199 -3.582 3.63175 -2.07955 5.4526 -1.82085 1.0547 -1.60195 3.63175 -0.22885 4.84565A2.8954500000000003 2.8954500000000003 0 0 0 36.815 51.143c0 1.99 2.4476999999999998 3.61185 4.975 2.1691000000000003 1.2338 1.99 4.10935 1.4327999999999999 4.4974 -1.99 0.96515 -8.258500000000002 -0.029849999999999998 -16.1588 -1.0149 -18.108999999999998zm-10.35795 14.129a4.875500000000001 4.875500000000001 0 0 0 2.6467 0c0.30845 -0.059699999999999996 0.199 -0.52735 -0.10945 -0.46764999999999995 -0.995 0.199 -2.75615 0.32835000000000003 -3.25365 -1.1144a2.31835 2.31835 0 0 1 0.8955 -3.184 2.1094 2.1094 0 0 0 1.7512 0.30845 0.20895 0.20895 0 0 0 -0.059699999999999996 -0.40795c-1.94025 0.0796 -2.77605 -2.35815 -1.84075 -3.9004a2.2288 2.2288 0 0 1 3.75115 -0.44775 0.2786 0.2786 0 0 0 0.47759999999999997 -0.28855 2.53725 2.53725 0 0 0 -1.82085 -1.16415 2.55715 2.55715 0 0 1 3.71135 -2.53725 3.1342499999999998 3.1342499999999998 0 0 0 1.99 3.19395 0.199 0.199 0 0 0 0.12935 -0.3781 2.5472 2.5472 0 0 1 -0.86565 -4.0994c0.6965 -0.597 1.74125 -0.42785 2.37805 0.8855500000000001 0.54725 1.1342999999999999 1.1342999999999999 4.975 0.64675 5.820749999999999a2.51735 2.51735 0 0 1 -2.6666000000000003 1.60195c-0.36815 0 -0.38805 0.52735 0 0.5771A3.184 3.184 0 0 0 45.77 40.307449999999996a58.85425 58.85425 0 0 1 0.0796 6.65655 4.40785 4.40785 0 0 0 -1.8109 -1.592c-0.3184 -0.14925 -0.5771 0.32835000000000003 -0.24875 0.48755 2.09945 0.9452499999999999 1.99 3.184 1.7711000000000001 5.373 -0.30845 2.79595 -2.189 2.985 -3.0944499999999997 1.88055s-0.40795 -2.45765 0.1592 -3.7014a0.18905 0.18905 0 0 0 -0.3184 -0.18905 4.1392 4.1392 0 0 0 -0.7562 3.5123499999999996c-1.6218499999999998 0.995 -3.7611 0.38805 -4.0994 -1.5621500000000001a3.5123499999999996 3.5123499999999996 0 0 0 1.99 -0.995 0.24875 0.24875 0 0 0 -0.34825 -0.35819999999999996c-1.99 1.82085 -5.12425 0.10945 -4.179 -2.4775500000000004z" stroke-width="1"></path><path d="M41.6109 42.83475a0.33830000000000005 0.33830000000000005 0 0 0 0.0796 -0.6766000000000001A2.15915 2.15915 0 0 1 39.86965 39.8a0.2189 0.2189 0 0 0 -0.4378 -0.08954999999999999 2.6467 2.6467 0 0 0 2.17905 3.1243000000000003zm0.04975 1.0746c-0.995 0.2587 -1.6815499999999999 1.18405 -1.99 2.73625 -0.12935 0.47759999999999997 0.6368 0.6766000000000001 0.7263499999999999 0.17909999999999998 0.52735 -2.985 1.4327999999999999 -2.2487 1.5621500000000001 -2.6367499999999997a0.2189 0.2189 0 0 0 -0.2985 -0.2786zm110.09675 -10.31815c-1.06465 0.32835000000000003 -0.8159 -0.06965 -3.6019 4.7063500000000005 -0.30845 0.52735 -0.5671499999999999 0.796 -0.32835000000000003 1.0746a0.3184 0.3184 0 0 0 0.35819999999999996 0.08954999999999999c1.3532000000000002 -0.52735 2.65665 -1.14425 4.18895 -1.9103999999999999 1.4726 1.06465 1.42285 1.06465 1.5323 0.995s9.54205 -7.6018 9.68135 -7.7809a0.26865 0.26865 0 0 0 -0.20895 -0.35819999999999996c-3.98 -0.90545 -14.75585 -2.25865 -16.08915 -2.3482a0.40795 0.40795 0 0 0 -0.40795 0.40795c0.0199 0.5373 3.5123499999999996 3.8606 4.875500000000001 5.12425zm-0.5174 1.04475c0.23879999999999998 -0.12935 4.825749999999999 -1.6915 7.850549999999999 -2.71635a0.14925 0.14925 0 0 0 -0.04975 -0.2985c-0.10945 0 -1.76115 0.2985 -6.965 1.18405 -0.44775 -0.4577 -3.7213000000000003 -3.582 -3.98 -3.8606 3.98 0.33830000000000005 12.2584 1.5422500000000001 14.328 1.90045 -1.48255 0.995 -8.34805 5.651599999999999 -13.4922 7.5819a38.93435 38.93435 0 0 1 2.3084 -3.79095z" stroke-width="1"></path><path d="M147.7177 34.37725s1.6716 -0.398 2.09945 -0.42785a0.24875 0.24875 0 0 0 0 -0.4975 15.701099999999999 15.701099999999999 0 0 0 -2.17905 0.33830000000000005 0.30845 0.30845 0 0 0 0.0796 0.58705zm-4.8953999999999995 2.01985a6.55705 6.55705 0 0 0 1.4526999999999999 -0.6766000000000001c2.2089000000000003 -1.14425 2.1094 -0.995 2.1492 -1.1542a0.23879999999999998 0.23879999999999998 0 0 0 -0.30845 -0.28855 21.14375 21.14375 0 0 0 -3.5024 1.6218499999999998 0.2985 0.2985 0 0 0 0.20895 0.4975zm-3.6616 3.8407c1.5721 -2.8556500000000002 2.8556500000000002 -2.786 2.51735 -3.2834999999999996a0.26865 0.26865 0 0 0 -0.35819999999999996 -0.08954999999999999 7.2734499999999995 7.2734499999999995 0 0 0 -2.8059 3.1442 0.34825 0.34825 0 0 0 0.64675 0.22885zm-0.8557 3.9601a3.2436999999999996 3.2436999999999996 0 0 1 0.23879999999999998 -2.6865 0.2587 0.2587 0 0 0 -0.4378 -0.2587 3.8009 3.8009 0 0 0 -0.4577 3.1342499999999998 0.33830000000000005 0.33830000000000005 0 0 0 0.6567000000000001 -0.18905zm2.29845 3.6417c-1.99 -1.1342999999999999 -1.72135 -2.4078999999999997 -2.23875 -2.15915a0.2587 0.2587 0 0 0 -0.12935 0.33830000000000005 5.64165 5.64165 0 0 0 1.99 2.3979500000000002c0.398 0.23879999999999998 0.7562 -0.35819999999999996 0.3781 -0.5771zm0.995 1.2338a24.546650000000003 24.546650000000003 0 0 0 2.985 0.86565 0.34825 0.34825 0 0 0 0.08954999999999999 -0.68655c-0.22885 -0.06965 -2.57705 -0.597 -2.77605 -0.68655s-0.60695 0.34825 -0.2985 0.50745zm9.4724 0.52735c-0.3781 -0.059699999999999996 -0.5174 0.5174 -0.11939999999999999 0.58705a7.03465 7.03465 0 0 0 3.1243000000000003 -0.5373 0.34825 0.34825 0 0 0 -0.33830000000000005 -0.597 11.3629 11.3629 0 0 1 -2.6666000000000003 0.54725zm6.0695 -3.0148499999999996a0.34825 0.34825 0 0 0 -0.4378 0.23879999999999998 2.587 2.587 0 0 1 -1.32335 1.6119 0.3184 0.3184 0 0 0 0.16915000000000002 0.58705c0.7761 0 2.5074 -2.189 1.592 -2.4377500000000003zm-1.6815499999999999 -2.91535a2.07955 2.07955 0 0 1 1.6218499999999998 1.5522 0.24875 0.24875 0 0 0 0.4975 -0.059699999999999996 2.27855 2.27855 0 0 0 -1.99 -2.1691000000000003 0.34825 0.34825 0 0 0 -0.12935 0.6766000000000001zm-3.7411999999999996 0.7263499999999999a3.582 3.582 0 0 1 2.13925 -0.5373 0.2985 0.2985 0 0 0 0.30845 -0.4577 2.7263 2.7263 0 0 0 -2.61685 0.4179 0.3184 0.3184 0 0 0 0.16915000000000002 0.5771zm-2.5273 1.80095c0.34825 0 0.38805 -0.68655 1.24375 -0.995a0.30845 0.30845 0 0 0 -0.2985 -0.54725c-0.32835000000000003 0.12935 -1.16415 0.84575 -1.2238499999999999 1.24375a0.26865 0.26865 0 0 0 0.2786 0.2985zm-1.52235 4.24865a6.4675 6.4675 0 0 0 2.0696 -0.04975 0.38805 0.38805 0 0 0 -0.0995 -0.7562 16.0792 16.0792 0 0 1 -1.99 0.08954999999999999c0.23879999999999998 -2.15915 1.4726 -2.6367499999999997 0.9352999999999999 -2.985a0.33830000000000005 0.33830000000000005 0 0 0 -0.47759999999999997 0.06965 6.4277 6.4277 0 0 0 -1.24375 2.8954500000000003 6.278449999999999 6.278449999999999 0 0 1 -0.9154 -0.14925 0.2786 0.2786 0 0 0 -0.1393 0.5373c0.32835000000000003 0.08954999999999999 0.6766000000000001 0.17909999999999998 0.995 0.24875a4.6168 4.6168 0 0 0 1.8507 3.6218 0.34825 0.34825 0 0 0 0.23879999999999998 -0.58705 4.26855 4.26855 0 0 1 -1.2238499999999999 -2.9352500000000004zm4.6765 4.4576a13.7509 13.7509 0 0 1 -2.3681 -0.76615c-0.3184 -0.20895 -0.60695 0.26865 -0.30845 0.47759999999999997a7.96 7.96 0 0 0 2.55715 0.84575 0.28855 0.28855 0 0 0 0.11939999999999999 -0.5572zm3.67155 0.17909999999999998a22.885 22.885 0 0 1 -2.388 0.0796c-0.38805 -0.0796 -0.5572 0.5174 -0.14925 0.60695A9.66145 9.66145 0 0 0 156.215 55.72a0.3184 0.3184 0 0 0 -0.199 -0.6368zm3.6616 -1.2537a22.417350000000003 22.417350000000003 0 0 1 -2.3979500000000002 1.1342999999999999 0.36815 0.36815 0 0 0 0.20895 0.6965 8.258500000000002 8.258500000000002 0 0 0 2.53725 -1.3532000000000002c0.26865 -0.22885 -0.0398 -0.6368 -0.34825 -0.47759999999999997zm12.0395 45.252599999999994c-2.4377500000000003 -0.14925 -3.3034 -0.995 -3.3232999999999997 -0.5373a6.33815 6.33815 0 0 0 0 0.90545 0.1393 0.1393 0 0 0 0.06965 0.11939999999999999 9.651499999999999 9.651499999999999 0 0 0 6.7261999999999995 0.995 0.1592 0.1592 0 0 0 0.11939999999999999 -0.11939999999999999 5.97 5.97 0 0 0 0.08954999999999999 -1.6716c-0.059699999999999996 -0.48755 -0.84575 0.47759999999999997 -3.6815 0.30845zm3.11435 2.33825c-4.30835 0.7562 -5.97 -1.0845500000000001 -6.23865 -0.8756a0.1393 0.1393 0 0 0 -0.059699999999999996 0.1393 2.15915 2.15915 0 0 0 0.995 1.8507 3.8009 3.8009 0 0 0 2.6467 0.40795c1.36315 0 2.2885 -0.14925 2.83575 -1.3134000000000001a0.14925 0.14925 0 0 0 -0.17909999999999998 -0.20895zm-11.0047 -10.9848a5.6317 5.6317 0 0 0 2.985 3.8407c0.6666500000000001 0.398 1.6318 0.64675 1.7512 1.44275a9.2933 9.2933 0 0 1 -0.1393 1.8606500000000001 0.14925 0.14925 0 0 0 0.0995 0.1592 12.2783 12.2783 0 0 0 6.67645 0c0.2985 -0.0796 -0.0995 -0.46764999999999995 -0.32835000000000003 -2.587 0 -0.3781 -0.0796 -0.7263499999999999 0.199 -0.92535a7.691350000000001 7.691350000000001 0 1 0 -8.1988 -13.00465 8.158999999999999 8.158999999999999 0 0 0 -3.0447 9.2137zm8.3978 6.29835h-1.16415a34.665800000000004 34.665800000000004 0 0 0 -3.63175 -8.6565c0.6169 0.0995 0.6965 0.3781 0.995 0.2985s0.26865 -0.5771 0.8955 -0.6368c0.30845 0 0.58705 0.20895 0.995 0.24875s0.6169 -0.22885 0.8855500000000001 -0.28855a0.796 0.796 0 0 1 0.796 0.28855 0.35819999999999996 0.35819999999999996 0 0 0 0.22885 0.10945c0.32835000000000003 0 0.4577 -0.48755 0.90545 -0.50745s0.9154 0.22885 1.36315 0a17.024449999999998 17.024449999999998 0 0 0 -2.2685999999999997 9.14405zm1.99 -0.28855a11.6614 11.6614 0 0 1 -1.4726 0.24875 16.3578 16.3578 0 0 1 1.88055 -7.96c0.28855 -0.5671499999999999 0.64675 -1.2736 0.14925 -1.8705999999999998a0.3184 0.3184 0 0 0 -0.50745 0.059699999999999996c-0.199 0.32835000000000003 -0.8159 0.04975 -1.2039499999999999 0a1.40295 1.40295 0 0 0 -0.995 0.34825 1.4526999999999999 1.4526999999999999 0 0 0 -1.6716 0 0.398 0.398 0 0 1 -0.40795 0 1.5522 1.5522 0 0 0 -1.8606500000000001 0.35819999999999996c-0.40795 -0.199 -1.4327999999999999 -0.40795 -1.60195 0 -0.0995 0.22885 0 0.08954999999999999 0.86565 1.88055a35.41205 35.41205 0 0 1 2.985 7.1838999999999995 9.14405 9.14405 0 0 1 -1.30345 -0.23879999999999998c0.398 -2.5671 -2.0895 -2.07955 -3.7611 -4.32825a7.71125 7.71125 0 0 1 -0.36815 -7.65155 6.85555 6.85555 0 0 1 11.5022 -1.1044500000000002 6.965 6.965 0 0 1 -1.6218499999999998 10.079350000000002c-0.9452499999999999 0.6169 -0.7761 0.82585 -0.5572 2.99495zm-16.6165 -9.38285a9.66145 9.66145 0 0 1 2.65665 0.5174 0.40795 0.40795 0 0 0 0.40795 -0.7064499999999999 5.5919 5.5919 0 0 0 -3.1342499999999998 -0.3184 0.2587 0.2587 0 0 0 0.06965 0.50745zm5.58195 -5.3431500000000005a0.3781 0.3781 0 0 0 0.3184 -0.5671499999999999c-0.12935 -0.2189 -1.2139 -1.2139 -2.1094 -2.11935a0.28855 0.28855 0 0 0 -0.40795 0.40795c1.592 1.7114 1.90045 2.27855 2.19895 2.27855zm7.532150000000001 -3.5621c0.059699999999999996 -0.44775 -0.08954999999999999 -1.38305 -0.14925 -3.1442a0.2587 0.2587 0 0 0 -0.5174 0c0 0.52735 -0.06965 2.61685 0 3.15415a0.35819999999999996 0.35819999999999996 0 0 0 0.6666500000000001 -0.00995zm6.0098 2.2188499999999998c0.398 0 1.36315 -1.5422500000000001 2.27855 -2.587 0.23879999999999998 -0.2786 -0.16915000000000002 -0.6567000000000001 -0.40795 -0.38805s-1.8606500000000001 1.84075 -2.189 2.2487a0.42785 0.42785 0 0 0 0.3184 0.7263499999999999zm3.45265 3.81085c0.24875 0 2.09945 -0.9154 2.61685 -1.1144 0.34825 -0.1393 0.17909999999999998 -0.68655 -0.17909999999999998 -0.5572s-2.189 0.6965 -2.6268000000000002 0.8955a0.4179 0.4179 0 0 0 0.18905 0.7761zm1.2537 4.507350000000001a0.398 0.398 0 0 0 0 0.7761 11.19375 11.19375 0 0 0 2.75615 -0.34825 0.2587 0.2587 0 0 0 0.0796 -0.46764999999999995c-0.18905 -0.16915000000000002 -1.06465 0.38805 -2.83575 0.0398z" stroke-width="1"></path><path d="M25.02425 109.45c0 12.935 4.8953999999999995 26.31775 14.57675 39.84975 0.18905 0.26865 0.60695 0 0.4179 -0.26865 -9.2336 -13.412600000000001 -14.0693 -26.6461 -14.3479 -39.402C41.04375 113.73845 54.725 98.3657 48.963950000000004 83.58c-2.3283 -7.41275 -8.5172 -12.357899999999999 -16.5767 -13.26335a31.3226 31.3226 0 0 1 5.2934 -9.56195c4.8357 2.4974499999999997 14.925 4.7959000000000005 22.67605 -2.2089000000000003a20.1388 20.1388 0 0 0 4.7063500000000005 -23.7009 66.06800000000001 66.06800000000001 0 0 1 13.16385 -5.66155c0.76615 6.67645 3.7611 11.462399999999999 9.95 15.104099999999999 11.94 7.0446 27.86 -0.8557 29.2331 -15.4026a42.387 42.387 0 0 1 14.328 5.1541c-6.706300000000001 17.4125 12.1788 34.029 28.78535 24.14865a84.03769999999999 84.03769999999999 0 0 1 6.965 12.228549999999998c-12.059399999999998 1.5323 -18.905 15.92 -14.925 26.865a20.08905 20.08905 0 0 0 23.243199999999998 12.377799999999999 77.9284 77.9284 0 0 1 -15.064300000000001 42.785c-0.18905 0.26865 0.2189 0.52735 0.40795 0.2786a74.2071 74.2071 0 0 0 15.462299999999999 -43.23275 19.5617 19.5617 0 0 0 14.188699999999999 -19.37265 22.61635 22.61635 0 0 0 -1.30345 -6.49735A19.7607 19.7607 0 0 0 168.155 70.37635a69.16245 69.16245 0 0 0 -7.11425 -12.507150000000001 19.9 19.9 0 0 0 8.6963 -16.86525 24.08895 24.08895 0 0 0 -4.4376999999999995 -12.58675c-8.905249999999999 -11.3231 -28.1983 -9.412700000000001 -33.34245 4.975a39.3622 39.3622 0 0 0 -14.51705 -5.24365 22.5666 22.5666 0 0 0 -4.4277500000000005 -14.039449999999999c-6.1491 -8.2187 -21.06415 -10.63655 -29.42215 -1.38305a22.1686 22.1686 0 0 0 -5.412800000000001 15.83045 59.37165 59.37165 0 0 0 -13.42255 5.6217500000000005c-4.975 -11.3828 -21.89 -14.5867 -30.71565 -5.8307 -9.0346 9.18385 -8.6167 25.0342 2.985 31.94945a31.740499999999997 31.740499999999997 0 0 0 -5.333200000000001 9.99975c-22.098950000000002 -1.8904999999999998 -29.85995 31.55145 -6.6665 39.15325zm56.10805 -91.4007a17.2732 17.2732 0 0 1 16.218500000000002 -10.35795 19.9 19.9 0 0 1 12.935 4.66655c4.4277500000000005 3.98 6.965 11.0644 6.19885 17.24335 -2.91535 18.905 -26.75555 21.89 -35.382200000000005 6.4078C78.207 30.845 78.33635000000001 23.88 81.1323 18.0493zM30.13855 71.1027c17.790599999999998 0 24.30785 20.606450000000002 14.6862 31.84 -4.84565 5.84065 -13.4325 8.0197 -20.895 5.30335 -19.33285 -7.4625 -14.2882 -37.14335 6.2088 -37.14335zm0.52735 -18.5866c-5.4526 -10.3082 0.34825 -25.5516 12.08925 -27.86A20.029349999999997 20.029349999999997 0 0 1 59.84925 28.855c4.4277500000000005 3.98 6.965 11.0644 6.188899999999999 17.24335 -2.8457 18.6662 -26.3874 22.1487 -35.372249999999994 6.41775zm139.98655 18.5866a19.9 19.9 0 0 1 12.935 4.66655 20.895 20.895 0 0 1 6.188899999999999 17.24335 18.83535 18.83535 0 0 1 -25.292900000000003 15.21355 21.34275 21.34275 0 0 1 -10.079350000000002 -8.80575c-5.790900000000001 -10.8654 0.8159 -28.317700000000002 16.24835 -28.317700000000002zm-39.252750000000006 -31.41215a20.42735 20.42735 0 0 1 8.2784 -14.87525c8.676400000000001 -5.6715 22.25815 -2.587 26.73565 6.965 5.88045 11.03455 0.7363 24.656100000000002 -11.53205 27.86 -13.074300000000001 3.33325 -24.9546 -7.23365 -23.482000000000003 -19.94975zM74.4658 178.0254c-0.597 -0.2189 -1.38305 0.82585 -1.60195 1.5124s-0.2189 1.88055 0.48755 1.88055c0.4975 0 1.1044500000000002 -0.64675 1.36315 -1.18405s0.35819999999999996 -1.99 -0.24875 -2.2089000000000003zm-1.92035 5.40285c-0.597 -0.22885 -1.38305 0.8159 -1.60195 1.50245s-0.2189 1.88055 0.48755 1.88055c0.4975 0 1.1044500000000002 -0.6368 1.3532000000000002 -1.18405s0.36815 -1.99 -0.23879999999999998 -2.19895z" stroke-width="1"></path><path d="M77.71945 173.71705c-0.6567000000000001 -0.11939999999999999 -35.3026 -0.4378 -35.98915 -0.33830000000000005 -3.25365 0.4975 -14.308100000000001 15.064300000000001 -14.69615 15.67125 -0.6666500000000001 1.06465 -0.4179 1.82085 0.60695 2.3084s44.50635 0.82585 44.396899999999995 0.8358a1.393 1.393 0 0 0 1.1044500000000002 -0.4577c0.059699999999999996 -0.08954999999999999 6.2088 -15.5021 6.188899999999999 -16.3578a1.8507 1.8507 0 0 0 -1.6119 -1.6616499999999998zm0.17909999999999998 3.47255c-0.36815 0.64675 -4.34815 11.7808 -5.193899999999999 13.8703 -0.1592 0.398 -0.44775 0.4179 -0.9452499999999999 0.4378 -0.9154 0 -42.416850000000004 -0.64675 -42.91435 -0.68655s-1.50245 -0.34825 -1.30345 -0.9154S38.39705 175.12 41.89945 174.2046c0.7263499999999999 -0.16915000000000002 25.9894 0.28855 34.626 0.22885 2.2885 -0.00995 2.45765 0.8159 1.3731 2.75615zM101.95765 79.6a30.765400000000003 30.765400000000003 0 0 1 1.7512 2.7064000000000004c0.398 0.6368 0 1.2537 -0.5771 2.0696l-0.0796 0.0995a0.40795 0.40795 0 0 0 0.5771 0.5671499999999999c1.50245 -1.14425 1.4726 -2.189 1.194 -2.8655999999999997a34.33745 34.33745 0 0 0 -2.1492 -3.0447 0.42785 0.42785 0 0 0 -0.7163999999999999 0.46764999999999995zm-7.23365 -1.2039499999999999a14.795649999999998 14.795649999999998 0 0 0 0.64675 2.65665 0.58705 0.58705 0 0 0 1.0945 0.059699999999999996c0.199 -0.4179 -0.42785 -1.2238499999999999 -0.8855500000000001 -2.91535a0.4378 0.4378 0 0 0 -0.8557 0.199zm10.546999999999999 -2.2885a0.4378 0.4378 0 0 0 -0.8557 0.20895 15.0046 15.0046 0 0 0 0.64675 2.65665 0.58705 0.58705 0 0 0 1.0945 0.059699999999999996c0.199 -0.42785 -0.4179 -1.194 -0.8855500000000001 -2.9253zM94.525 75.87870000000001a1.6716 1.6716 0 0 0 -1.3731 0.5373A3.1044 3.1044 0 0 0 92.535 78.605a0.36815 0.36815 0 0 0 0.7363 -0.08954999999999999c0 -0.14925 0.2189 -1.4327999999999999 1.28355 -1.4925a0.58705 0.58705 0 0 0 -0.029849999999999998 -1.14425zm9.95 -4.4974c-0.74625 -0.46764999999999995 -2.29845 -0.46764999999999995 -2.15915 0.40795a0.5373 0.5373 0 0 0 0.5671499999999999 0.4577 2.0397499999999997 2.0397499999999997 0 0 1 2.07955 1.18405 0.35819999999999996 0.35819999999999996 0 0 0 0.6965 -0.16915000000000002 2.985 2.985 0 0 0 -1.18405 -1.88055zM101.3308 90.545a6.188899999999999 6.188899999999999 0 0 1 -2.61685 0.1592 0.54725 0.54725 0 0 0 -0.12935 1.0845500000000001 5.3929 5.3929 0 0 0 3.1243000000000003 -0.5174c0.4378 -0.33830000000000005 0.08954999999999999 -1.0149 -0.3781 -0.7263499999999999zm-15.711049999999998 13.333a1.99 1.99 0 0 0 -1.5422500000000001 -3.3034 2.0497 2.0497 0 0 0 -1.6318 2.4775500000000004 1.8109 1.8109 0 0 0 3.17405 0.82585zm1.02485 2.13925a1.393 1.393 0 0 0 -1.2238499999999999 1.6417499999999998c0.4378 1.6417499999999998 2.45765 1.2238499999999999 2.3681 -0.4577a1.32335 1.32335 0 0 0 -1.14425 -1.18405zm-19.730849999999997 34.4668a1.1044500000000002 1.1044500000000002 0 0 0 -0.36815 -1.94025 1.0746 1.0746 0 0 0 -1.0547 0.995c-0.0398 0.86565 0.7562 1.50245 1.42285 0.9452499999999999z" stroke-width="1"></path><path d="M193.89565000000002 168.41369999999998s-10.03955 -0.16915000000000002 -16.5369 -0.35819999999999996c1.76115 -3.41285 3.4626 -6.8157499999999995 5.06455 -10.1291 0.76615 -1.8507 -1.5621500000000001 -2.985 -3.75115 -3.2039l-43.78 1.2039499999999999c0 -0.5771 0.28855 -3.98 0.23879999999999998 -4.5371999999999995 1.7313 -2.8855 2.27855 -6.51725 1.6517 -10.7858a27.17345 27.17345 0 0 0 2.8855 0.6766000000000001c0.9154 0.11939999999999999 1.36315 -0.0796 1.48255 -0.995 0.78605 -6.965 -2.5074 -17.790599999999998 -5.0347 -24.347649999999998 -2.0696 -5.52225 -5.66155 -12.935 -12.8753 -13.293199999999999a7.67145 7.67145 0 0 0 -8.50725 -6.965c-0.20895 -0.4179 -0.995 -1.6716 -1.5621500000000001 -2.4676 1.99 -5.193899999999999 1.99 -4.975 1.8705999999999998 -5.0944a4.10935 4.10935 0 0 0 -1.1044500000000002 -0.597 0.995 0.995 0 0 0 0.4179 -1.99 0.995 0.995 0 0 0 -0.86565 1.82085 3.98 3.98 0 0 0 -1.70145 0 76.416 76.416 0 0 0 -2.6268000000000002 -15.114049999999999 14.925 14.925 0 0 0 0.1393 -2.33825c0.28855 0.32835000000000003 1.4526999999999999 1.3532000000000002 1.72135 1.2039499999999999s0.50745 -2.73625 -0.62685 -5.4526c-0.50745 -1.2238499999999999 -2.5671 -2.51735 -3.27355 -3.33325 -0.30845 -0.34825 -0.0995 -0.4577 0.36815 -0.33830000000000005a8.5371 8.5371 0 0 1 2.985 1.9103999999999999 0.14925 0.14925 0 0 0 0.24875 -0.1592c-2.587 -5.84065 -7.96 -8.576899999999998 -15.114049999999999 -8.149049999999999 -2.985 0.16915000000000002 -11.94 0.42785 -15.92 6.89535a11.83055 11.83055 0 0 0 -1.8904999999999998 6.59685c0.1592 2.3283 0.47759999999999997 3.91035 3.3432 4.48745 0.8159 0.1592 -1.99 -3.7411999999999996 0.796 -5.30335 0.86565 -0.4975 1.99 0.08954999999999999 0.995 0.8358 -1.38305 0.995 -0.80595 3.582 0.17909999999999998 4.776 0.04975 0.059699999999999996 0 0 0.7761 0.14925s0.995 0.1592 0.995 0a0.1592 0.1592 0 0 0 0 -0.1592c-1.8308 -1.6716 -1.3532000000000002 -5.6914 4.9153 -7.7809 1.4327999999999999 -0.5671499999999999 2.4974499999999997 0.5771 1.194 1.0547a29.85 29.85 0 0 0 -3.17405 1.4327999999999999c-1.99 1.0845500000000001 -2.4377500000000003 3.98 0 4.975h0.059699999999999996c4.577 -0.4975 2.7462 -1.84075 11.0445 -5.8307 6.25855 -3.19395 11.6017 -0.6965 10.8455 0.398 -0.10945 0.16915000000000002 -0.35819999999999996 0.26865 -0.7064499999999999 0a4.975 4.975 0 0 0 -3.39295 -0.8756 0.14925 0.14925 0 0 0 -0.0995 0.24875 12.546949999999999 12.546949999999999 0 0 1 2.985 5.273499999999999 88.40575 88.40575 0 0 1 2.4974499999999997 16.0195c-0.62685 1.60195 -3.98 3.5123499999999996 -4.16905 3.7710500000000002a1.12435 1.12435 0 0 0 -0.16915000000000002 0.995c0 0.33830000000000005 0.4378 2.3283 0.7761 3.8407l-0.58705 1.393c-7.8605 6.47745 -7.0446 6.41775 -7.482399999999999 6.1690000000000005 0 0 -7.850549999999999 -5.06455 -9.36295 -6.13915 -0.3184 -3.41285 -0.9352999999999999 -7.3033 -2.985 -10.6067a1.3731 1.3731 0 0 0 -0.199 -0.92535 3.98 3.98 0 0 1 -1.92035 -1.5323c-0.74625 -1.30345 -0.6666500000000001 -3.1442 0.995 -2.81585 1.194 0.2985 1.16415 2.2487 2.55715 2.51735 1.6517 0.2786 0.8756 -1.34325 0.2587 -2.786a30.55645 30.55645 0 0 1 -1.5721 -4.26855c-0.36815 -2.3482 0.28855 -2.53725 0.0995 -2.75615a0.1592 0.1592 0 0 0 -0.12935 -0.059699999999999996c-3.83075 0.4975 -6.766 -0.16915000000000002 -8.746049999999999 -1.99a0.14925 0.14925 0 0 0 -0.22885 0c-1.6218499999999998 3.0646 -0.84575 6.31825 1.0945 9.10425 1.42285 1.99 0.90545 2.9253 2.55715 4.746149999999999 1.0746 1.16415 3.6815 1.90045 4.815799999999999 1.28355a16.686149999999998 16.686149999999998 0 0 1 1.1542 2.5472c-1.3731 1.3333000000000002 -8.48735 7.6415999999999995 -9.0346 8.0794a1.30345 1.30345 0 0 0 -0.199 1.8606500000000001c-17.56175 5.1640500000000005 -23.88 26.3675 -20.46715 44.0984 0.199 0.995 0.33830000000000005 1.6915 1.1044500000000002 1.9103999999999999a20.10895 20.10895 0 0 0 3.15415 -0.06965c1.0945 3.89045 -0.1393 -3.8606 2.985 21.18355 -48.90425 -0.2189 -58.4463 -0.33830000000000005 -60.217400000000005 -0.199 -0.5174 0 -0.35819999999999996 0.4975 -0.059699999999999996 0.4975l119.71839999999999 0.995c-0.5174 1.3134000000000001 -0.995 2.6268000000000002 -1.5621500000000001 3.98h-21.691c-0.16915000000000002 0 -0.08954999999999999 -0.08954999999999999 -0.7363 3.1243000000000003 0 0.1393 -0.995 -0.64675 14.33795 11.3828a0.1393 0.1393 0 0 0 0.2786 -0.04975c0.995 -2.985 0.995 -2.9352500000000004 0.86565 -2.985L102.485 174.3439h20.477099999999997l-0.62685 1.592c-2.19895 0 -10.726099999999999 0.16915000000000002 -12.935 0.2985a0.38805 0.38805 0 0 0 -0.199 0.7064499999999999c0.92535 0.6666500000000001 9.04455 6.6864 9.86045 7.2834l-1.99 4.9153a0.1393 0.1393 0 0 0 0.1393 0.199c23.571550000000002 -0.10945 49.5311 -1.90045 49.6306 -2.0696 3.3432 -5.80085 6.75605 -12.04945 9.95 -18.2881 3.5123499999999996 0.059699999999999996 16.3578 0.059699999999999996 16.9946 0a0.28855 0.28855 0 0 0 0.10945 -0.5671499999999999zm-75.29165 11.5619 -1.8606500000000001 -1.30345h2.83575c0.32835000000000003 0.26865 1.26365 1.0746 1.26365 1.0746 -0.0796 0.22885 0.22885 0.04975 -2.23875 0.22885zm2.985 -1.99h-1.9103999999999999c-0.2786 -0.199 -0.5572 -0.398 -0.82585 -0.60695s-0.5671499999999999 0.22885 -0.2985 0.4378c0.4179 0.3184 0.60695 0.12935 -2.5074 0.30845l-0.90545 -0.68655c-0.2189 -0.16915000000000002 -0.4975 0.1393 -0.28855 0.3184l0.47759999999999997 0.40795 -1.06465 0.06965a0.23879999999999998 0.23879999999999998 0 0 0 0 0.46764999999999995h1.6218499999999998c0.52735 0.44775 1.0845500000000001 0.92535 1.6517 1.38305l-0.8358 0.06965c-0.32835000000000003 0 -0.2985 0.5373 0 0.50745s0.9352999999999999 -0.059699999999999996 1.4526999999999999 -0.059699999999999996c0 0 1.4526999999999999 1.0845500000000001 1.8308 1.3532000000000002l-0.62685 1.5820500000000002c-1.0945 -0.8358 -8.26845 -6.1789499999999995 -8.835600000000001 -6.6068 2.4377500000000003 -0.10945 9.3928 -0.36815 11.61165 -0.398 -0.199 0.46764999999999995 -0.398 0.96515 -0.58705 1.4526999999999999zm14.55685 -31.1236c-0.6368 3.1641000000000004 -2.65665 6.8854 -5.76105 8.089350000000001a6.4675 6.4675 0 0 1 -4.7561 -0.2985c-8.24855 -3.71135 -6.0496 -17.6115 -8.1192 -42.436749999999996 2.6467 0.32835000000000003 5.0546 -1.14425 7.3033 -2.7263 1.84075 4.76605 5.46255 12.44745 7.6615 17.42245 3.15415 7.7411 4.34815 16.36775 3.63175 19.94975zM113.42999999999999 105.91775a3.73125 3.73125 0 0 0 2.985 -1.12435c0 0.22885 0.12935 1.1144 0.12935 1.18405a0.995 0.995 0 0 0 -0.47759999999999997 0.995c0 0.30845 0.995 11.05445 1.1044500000000002 12.58675 -0.059699999999999996 0.1393 -4.2785 10.835550000000001 -4.92525 12.66635h-0.18905a223.76555 223.76555 0 0 0 1.3731 -26.3078zm3.7809999999999997 15.47225c0 -0.10945 0.2786 5.78095 0.5771 10.3679 -1.6517 0.10945 -3.3133500000000002 0.23879999999999998 -4.975 0.3781 0.84575 -2.09945 3.5123499999999996 -8.557 4.3979 -10.746zm6.05955 -18.03935c4.84565 0.33830000000000005 8.7759 4.24865 11.67135 11.621599999999999 2.9253 7.0446 5.8307 17.2931 5.40285 24.875 0 0.398 -0.04975 0.5771 -0.30845 0.54725a25.3327 25.3327 0 0 1 -3.37305 -0.7363c-0.7761 -4.76605 -0.78605 -7.19385 -4.38795 -15.1837 -3.45265 -7.6814 -5.97 -12.4176 -7.7311499999999995 -18.099050000000002 -0.82585 -2.33825 -0.8159 -2.45765 -1.0746 -2.57705s-0.22885 0.22885 -0.199 -0.42785zm1.2736 5.50235c-2.5273 1.8904999999999998 -4.975 2.79595 -7.1441 2.6268000000000002 0 0 -0.52735 -4.68645 -0.52735 -4.72625a23.621299999999998 23.621299999999998 0 0 0 6.1789499999999995 -1.99zm-11.69125 -14.83545c0.398 0.62685 0.8358 1.3731 0.995 1.72135a9.20375 9.20375 0 0 0 -1.9103999999999999 0.54725zm-1.99 3.6616c6.25855 -3.5621 12.58675 0.9154 11.5022 6.4476 -0.995 0.78605 -4.24865 1.4726 -5.193899999999999 1.6616499999999998 -0.38805 -1.50245 0.16915000000000002 -2.4476999999999998 0 -2.8954500000000003a1.0547 1.0547 0 0 0 -1.0845500000000001 -0.80595c0.6368 -0.78605 1.1741 -0.6666500000000001 0.995 -0.995a0.199 0.199 0 0 0 -0.2587 -0.12935 2.985 2.985 0 0 0 -1.99 1.9303 0.35819999999999996 0.35819999999999996 0 0 0 0.64675 0.26865 0.4975 0.4975 0 0 1 0.74625 -0.2189c0.995 0.7562 -2.6467 3.5223 -3.98 1.592a1.99 1.99 0 0 1 0 -1.8507 4.9153 4.9153 0 0 0 0.7761 -1.7313 0.2189 0.2189 0 0 0 -0.398 -0.1592 6.5471 6.5471 0 0 1 -1.92035 2.37805c-0.26865 0.12935 -0.64675 0.24875 -0.86565 0 -0.60695 -0.58705 0.4975 -2.37805 0.995 -3.0845000000000002 0.17909999999999998 -0.2587 -0.22885 -0.5174 -0.40795 -0.24875a12.2982 12.2982 0 0 0 -1.3731 2.5074c-0.36815 0 -0.7163999999999999 0 -0.8557 -0.2189 -0.36815 -0.5771 0.6169 -2.2188499999999998 1.5721 -3.45265a11.2037 11.2037 0 0 1 1.0945 -0.995zm-3.3531500000000003 -4.5571a20.4373 20.4373 0 0 0 2.6069 -1.9103999999999999c-2.3283 5.54215 -1.99 4.975 -2.07955 4.56705 -0.22885 -1.0945 -0.5174 -2.45765 -0.52735 -2.65665zM99.5 105.83815a0.8159 0.8159 0 0 0 0.82585 -0.22885l5.97 -5.14415c-2.985 7.13415 -2.8556500000000002 6.706300000000001 -2.79595 6.8058a15.5021 15.5021 0 0 1 2.37805 0.58705c1.2736 0.5373 1.5422500000000001 1.0845500000000001 1.6716 0.7562l1.90045 -4.975a1.52235 1.52235 0 0 0 2.0696 0.0995 2.2288 2.2288 0 0 0 1.3532000000000002 2.0497 227.656 227.656 0 0 1 -1.6218499999999998 26.546599999999998 133.39964999999998 133.39964999999998 0 0 0 -17.3926 2.8059c0.23879999999999998 -11.94 -3.0447 -23.621299999999998 -3.7014 -35.501599999999996 2.4974499999999997 1.78105 8.9152 6.0794500000000005 9.34305 6.19885zm-20.298 -5.6317c0.23879999999999998 -0.24875 7.2734499999999995 -6.646599999999999 8.835600000000001 -8.2386 1.2935 4.14915 1.30345 8.62665 1.7313 12.935 1.06465 10.09925 3.3630999999999998 20.1786 3.5024 30.37735l-0.6965 0.1592c-1.4526999999999999 -9.95 -2.6367499999999997 -12.5967 -5.46255 -18.4473C78.605 99.41045 79.03285000000001 100.495 79.202 100.20644999999999zm-18.8055 46.33715c-0.84575 0 -1.26365 0.04975 -1.3532000000000002 -0.9452499999999999 -4.3382000000000005 -23.710849999999997 6.23865 -39.37215 19.83035 -43.78C92.22655 129.35 88.55499999999999 120.7731 92.04745 135.54885c-0.995 0.26865 -6.487399999999999 1.78105 -7.87045 2.2685999999999997 -0.46764999999999995 -2.05965 -4.8854500000000005 -21.014400000000002 -5.0546 -21.671100000000003a0.2189 0.2189 0 0 0 -0.4179 0.0995c0.58705 2.9253 4.60685 21.1537 4.62675 21.24325a1.6417499999999998 1.6417499999999998 0 0 1 0.059699999999999996 0.995 8.885349999999999 8.885349999999999 0 0 1 -3.4825 2.71635c-1.30345 0.6368 -9.46245 3.1044 -10.945 3.5422000000000002a27.13365 27.13365 0 0 0 -0.059699999999999996 -5.48245c-0.0796 -1.1342999999999999 -0.17909999999999998 -2.5472 -1.0746 -3.383a2.1492 2.1492 0 0 0 -3.2436999999999996 0.6368 6.1690000000000005 6.1690000000000005 0 0 0 -0.47759999999999997 3.89045 15.123999999999999 15.123999999999999 0 0 0 1.32335 5.3431500000000005c-0.50745 0.11939999999999999 -4.0994 0.76615 -5.0347 0.796zm7.96 -1.99v0.42785c-0.6766000000000001 0.199 -1.44275 0.42785 -2.2089000000000003 0.6368a15.5817 15.5817 0 0 1 -1.2537 -5.97c0 -1.3532000000000002 0 -2.6865 1.1044500000000002 -3.2834999999999996 2.5273 -1.4526999999999999 2.4476999999999998 5.2337 2.3084 8.1789zm15.92 -5.9003499999999995a141.1109 141.1109 0 0 1 33.640950000000004 -6.188899999999999c0.14925 2.13925 0.28855 4.0794999999999995 0.4378 5.97 -16.7558 4.746149999999999 -29.183349999999997 20.895 -42.4069 19.43235a15.5618 15.5618 0 0 1 -12.7559 -10.726099999999999c3.7710500000000002 -1.02485 19.79055 -4.72625 20.994500000000002 -8.4973zm-18.108999999999998 29.76045c-0.52735 -3.184 -1.99 -14.5668 -2.3084 -17.74085a16.387649999999997 16.387649999999997 0 0 0 10.05945 7.6415999999999995c6.965 1.74125 13.8504 -1.76115 20.20845 -5.86055 0.0995 2.5273 0.6965 13.561850000000002 0.8955 16.0991zm42.19795 0.2189 -12.546949999999999 -0.06965c-0.08954999999999999 -1.42285 -0.995 -15.6414 -1.0845500000000001 -16.4971 3.47255 -2.29845 11.7609 -7.71125 16.178700000000003 -9.95 -0.4179 7.0645 -2.33825 23.949650000000002 -2.5472 26.51675zm0.74625 0c0.4378 -2.985 2.6069 -22.686 2.4974499999999997 -26.865 1.7711000000000001 -0.84575 5.76105 -2.388 6.71625 -2.73625 0.46764999999999995 5.5521 0.74625 11.621599999999999 5.20385 15.114049999999999 3.61185 2.8457 8.0794 2.27855 10.945 -1.82085 0 0.22885 -0.30845 2.8457 -0.36815 3.5621a6.965 6.965 0 0 0 -5.771 4.80585l-3.17405 8.02965c-2.35815 0.00995 -8.1789 -0.029849999999999998 -16.04935 -0.0796zm44.377 2.73625a2.3979500000000002 2.3979500000000002 0 0 1 -2.11935 1.84075 2.1691000000000003 2.1691000000000003 0 0 1 -1.8904999999999998 -2.61685 2.0895 2.0895 0 1 1 3.98 0.7761zm21.20345 -12.935c-0.0995 0 -37.18315 0.32835000000000003 -38.93435 0.6766000000000001a5.68145 5.68145 0 0 0 -3.8805 2.4476999999999998c-0.24875 0.398 -2.1691000000000003 4.975 -3.85065 9.10425 -3.582 8.64655 -3.37305 8.2187 -3.6815 8.2187a0.33830000000000005 0.33830000000000005 0 0 1 -0.32835000000000003 -0.44775c0.8756 -2.69645 1.52235 -4.2785 4.6765 -12.26835 1.8109 -4.58695 2.37805 -7.57195 7.7212 -8.2983 1.90045 -0.2587 33.83 -0.26865 38.2876 -0.1393a0.35819999999999996 0.35819999999999996 0 0 1 -0.00995 0.7363z" stroke-width="1"></path></g></svg>