<svg xmlns="http://www.w3.org/2000/svg" viewBox="-0.5 -0.5 400 400" height="400" width="400"><g fill="#000000" fill-rule="evenodd"><path d="M165.00645 154.67235000000002c1.1172000000000002 -1.1371499999999999 0.7182000000000001 -1.1172000000000002 -0.61845 -7.102200000000001 -0.9177000000000001 -4.2294 -0.61845 -2.7531 -1.596 -6.384 0 -0.25935 0 -0.5386500000000001 -0.399 -0.5386500000000001s-0.33915000000000006 0.5985 -0.31920000000000004 1.995a38.722950000000004 38.722950000000004 0 0 0 0.6583500000000001 5.2867500000000005 20.0697 20.0697 0 0 0 1.09725 4.84785c0.21945 0.6783000000000001 0.2394 0.57855 -0.09975 0.9177000000000001a19.4313 19.4313 0 0 1 -2.6334000000000004 1.7955c-0.81795 0.41895 -1.3566000000000003 0.17955000000000002 -1.3566000000000003 0.6583500000000001 0 1.01745 3.85035 -0.2394 5.266800000000001 -1.4763000000000002zm-14.523600000000002 -11.3316v2.1147a0.8778 0.8778 0 0 0 1.7556 0v-2.3142c0.1995 -1.1172000000000002 -1.7955 -1.7556 -1.7556 0.1995zm19.96995 0.15960000000000002v2.1546000000000003a0.8778 0.8778 0 0 0 1.7556 0v-2.13465a0.8778 0.8778 0 0 0 -1.7556 -0.019950000000000002zm-13.7256 23.16195a8.19945 8.19945 0 0 0 8.379000000000001 -2.793c0.41895 -0.5386500000000001 0.399 -0.49875 0.399 -0.81795s-0.4788 -0.1995 -0.77805 0a35.750400000000006 35.750400000000006 0 0 1 -7.98 2.9925 0.33915000000000006 0.33915000000000006 0 0 0 -0.019950000000000002 0.61845zm-13.526100000000001 -29.50605a0.35910000000000003 0.35910000000000003 0 1 0 0.21945 0.69825 56.219100000000005 56.219100000000005 0 0 0 7.0224 -1.45635c2.4139500000000003 -0.8778 2.4139500000000003 -0.93765 2.4139500000000003 -1.1571 -0.1197 -1.25685 -6.5037 0.31920000000000004 -7.7007 0.7381500000000001a6.6633000000000004 6.6633000000000004 0 0 0 -1.9551 1.17705zm26.533500000000004 -1.29675c3.85035 -0.21945 6.483750000000001 1.05735 5.985 0a2.4139500000000003 2.4139500000000003 0 0 0 -0.97755 -0.7182000000000001 7.102200000000001 7.102200000000001 0 0 0 -3.8304 -0.9177000000000001 6.9426000000000005 6.9426000000000005 0 0 0 -2.5137 0.4788c-1.89525 0.4788 -2.1147 1.3566000000000003 1.3366500000000001 1.1571z" stroke-width="1"></path><path d="M241.8738 245.70420000000001C231.42000000000002 230.38260000000002 225.435 222.02355000000003 207.28050000000002 209.47500000000002a38.822700000000005 38.822700000000005 0 0 0 -0.93765 -8.398950000000001 1.65585 1.65585 0 0 0 -1.7556 -0.9177000000000001l-10.8129 0.6583500000000001a137.83455 137.83455 0 0 0 -28.329 -12.8079 26.0946 26.0946 0 0 1 -4.3690500000000005 -6.84285c5.52615 -1.49625 9.7356 -2.9526000000000003 13.6857 -7.1421a29.2068 29.2068 0 0 0 6.44385 -14.204400000000001c2.1745500000000004 -11.571 -0.2394 -20.2692 -1.21695 -31.0422 7.98 -3.2319000000000004 13.965 -6.463800000000001 16.378950000000003 -14.3241a21.186899999999998 21.186899999999998 0 0 0 -0.2394 -12.927600000000002A13.546050000000001 13.546050000000001 0 0 0 191.06115 93.765a17.41635 17.41635 0 0 0 -12.8079 -5.426400000000001A15.441300000000002 15.441300000000002 0 0 0 169.57500000000002 90.75255000000001c-1.37655 -0.9177000000000001 -2.29425 -1.995 -3.99 -2.9526000000000003a9.615900000000002 9.615900000000002 0 0 0 -4.3690500000000005 -1.21695 16.378950000000003 16.378950000000003 0 0 0 -14.683200000000001 4.5885c-0.5187 -0.13965000000000002 -1.25685 -0.7381500000000001 -2.0947500000000003 -0.9975a27.4911 27.4911 0 0 0 -14.543550000000002 0.13965000000000002c-7.24185 1.7755500000000002 -13.0473 5.426400000000001 -18.2343 15.86025a21.945 21.945 0 0 0 -2.1147 14.224350000000001c0.6583500000000001 5.0074499999999995 1.17705 7.6608 4.468800000000001 11.451300000000002a15.96 15.96 0 0 0 1.29675 1.3167000000000002 38.922450000000005 38.922450000000005 0 0 0 -0.7581 5.7057 14.2443 14.2443 0 0 0 1.49625 6.2244c1.2768000000000002 2.4339 1.995 4.52865 4.60845 5.4663 0.45885000000000004 4.189500000000001 4.8877500000000005 5.426400000000001 9.07725 5.36655a50.333850000000005 50.333850000000005 0 0 1 -4.8678 28.408800000000003A125.22615000000002 125.22615000000002 0 0 0 97.75500000000001 189.2856a108.42825 108.42825 0 0 0 -34.21425 16.05975 109.46565 109.46565 0 0 0 -27.93 26.074650000000002c-12.1695 15.4014 -19.01235 28.5684 -23.5011 53.12685 -3.6907500000000004 20.3091 -4.68825 47.2017 12.74805 58.353750000000005a29.087100000000003 29.087100000000003 0 0 0 16.85775 4.3690500000000005c18.77295 -0.5586000000000001 30.4437 -17.1171 38.48355 -33.915a121.69500000000001 121.69500000000001 0 0 0 8.857800000000001 -23.36145c0.45885000000000004 -1.5561 4.6284 -16.6383 4.1496 -18.61335 -0.1197 -0.399 0 -0.1995 -1.8354000000000001 -1.995 4.189500000000001 -0.35910000000000003 10.95255 -1.1571 11.112150000000002 -1.17705a0.9177000000000001 0.9177000000000001 0 0 0 0.61845 -1.01745c-0.33915000000000006 -3.1521000000000003 0.29925 -7.4613000000000005 2.5935 -9.7356a8.618400000000001 8.618400000000001 0 0 1 9.975000000000001 -1.29675c-0.798 1.5361500000000001 -0.8778 1.05735 0.7581 4.3690500000000005 43.052099999999996 74.51325000000001 40.259100000000004 70.0245 41.0172 70.1442a0.6384000000000001 0.6384000000000001 0 0 0 0.5386500000000001 0 0.97755 0.97755 0 0 0 0.8778 -0.31920000000000004c0 -0.1197 13.10715 -34.81275 21.60585 -57.855000000000004a14.14455 14.14455 0 0 0 6.2643 -10.374c2.3142 0 6.72315 0 10.792950000000001 -0.15960000000000002 -2.29425 2.4339 -2.33415 2.2742999999999998 -2.394 2.793 -0.13965000000000002 1.7955 3.0723000000000003 20.468700000000002 12.967500000000001 39.72045 7.261800000000001 14.14455 17.157 27.15195 33.117000000000004 27.8103 15.561 0.6384000000000001 23.1021 -8.07975 23.44125 -23.720550000000003a64.1991 64.1991 0 0 0 -3.3117 -21.8253 132.08894999999998 132.08894999999998 0 0 0 -19.4712 -41.037150000000004zm-25.1769 -6.9027c-1.41645 1.8753 -3.77055 6.1047 -5.20695 7.5411 -1.05735 1.0773000000000001 -1.995 2.13465 -2.97255 3.1521000000000003 -1.995 -2.9127 -4.72815 -7.0623000000000005 -4.9077 -7.261800000000001s-13.10715 -3.8703000000000003 -14.50365 -5.985c0.81795 -1.0773000000000001 5.985 0.7581 8.359050000000002 1.3965a0.8379 0.8379 0 0 0 1.0374 -0.9177000000000001c-0.15960000000000002 -0.7581 -0.6384000000000001 -0.7182000000000001 -2.29425 -1.21695a34.77285 34.77285 0 0 1 -6.344100000000001 -2.0947500000000003c-0.798 -0.4389 -0.6783000000000001 -0.37905 -0.7581 -0.69825 1.41645 -1.09725 9.1371 1.7955 10.0947 1.7356500000000001a0.85785 0.85785 0 0 0 0.4788 -1.4763000000000002 1.45635 1.45635 0 0 0 -0.6583500000000001 -0.29925c-2.6932500000000004 -0.7581 -7.98 -2.25435 -8.758049999999999 -3.4314 1.7955 -1.995 13.965 2.1546000000000003 15.0822 1.995s0.69825 -0.77805 1.197 -4.56855a16.29915 16.29915 0 0 1 0.33915000000000006 -1.7955 6.423900000000001 6.423900000000001 0 0 1 2.53365 5.6259c0.05985 0.9177000000000001 4.04985 5.16705 7.281750000000001 8.2992zm-25.935000000000002 -37.905 -11.97 0.7381500000000001c-0.7581 -2.33415 -1.6359 -4.9476 -2.6134500000000003 -7.98 5.36655 2.5536000000000003 10.014899999999999 4.8678 14.523600000000002 7.341600000000001zm-25.715550000000004 -9.7356c-0.17955000000000002 1.995 -0.49875 5.3067 -1.05735 11.451300000000002l-8.87775 0.5586000000000001c3.5311500000000002 -3.97005 8.0997 -9.296700000000001 9.935100000000002 -12.0099zm0.9576 -1.17705a60.089400000000005 60.089400000000005 0 0 1 9.07725 3.4114500000000003c0.9975 3.1521000000000003 1.89525 5.985 2.65335 8.398950000000001l-12.867750000000001 0.7581c0.7182000000000001 -8.5785 0.9576 -11.55105 1.1371499999999999 -12.5685zM129.675 175.85925000000003a59.07195 59.07195 0 0 0 1.0374 -20.728050000000003 0.5985 0.5985 0 0 0 -0.6384000000000001 -0.399c-2.8728000000000002 0.2394 -6.68325 -0.25935 -7.98 -2.81295 -1.1571 -2.1546000000000003 -0.1995 -5.3067 0.93765 -7.4613000000000005 2.1745500000000004 -3.99 7.6209 -4.4887500000000005 9.2568 -0.2394 0.17955000000000002 0.49875 0 0 0.41895 0.49875 3.0723000000000003 0 1.995 -15.96 2.6334000000000004 -20.64825 6.12465 3.99 20.9874 0.33915000000000006 24.27915 -4.8678 4.309200000000001 6.12465 11.032350000000001 8.438850000000002 18.65325 7.581 0.49875 11.5311 5.5062 28.82775 -2.394 42.79275 -6.802950000000001 11.172 -17.476200000000002 8.6583 -16.73805 11.4114a19.950000000000003 19.950000000000003 0 0 0 1.995 4.24935c2.77305 4.5087 3.1122 3.6907500000000004 2.8728000000000002 4.189500000000001 -1.01745 2.1147 -7.561050000000001 9.59595 -11.491200000000001 13.965 -2.25435 0.2394 -1.995 0.4389 -1.995 0.8778s0 0.77805 -0.13965000000000002 1.5361500000000001l-0.4389 0.4788c-8.91765 -7.98 -3.3915 -3.0324 -23.94 -21.12705A41.895 41.895 0 0 0 129.675 175.85925000000003zm20.48865 85.1067c0.8778 1.17705 1.7157 0.9975 8.31915 0.9975 -2.53365 27.23175 -1.7556 30.244200000000003 -1.7356500000000001 56.55825000000001 -6.783 -40.79775 -2.93265 -19.77045 -13.1271 -64.85745l1.3366500000000001 -13.346550000000002a11.8503 11.8503 0 0 0 1.995 -13.965 69.825 69.825 0 0 0 7.680750000000001 -0.1995c0.09975 1.01745 0.5586000000000001 3.7107000000000006 1.995 12.1296a24.1395 24.1395 0 0 1 -6.423900000000001 1.5361500000000001 1.5162 1.5162 0 0 0 -0.7381500000000001 1.1172000000000002c0.49875 21.206850000000003 0.35910000000000003 19.33155 0.6783000000000001 20.029799999999998zm-9.615900000000002 -17.715600000000002a13.4862 13.4862 0 0 0 2.4937500000000004 -1.3366500000000001c-0.29925 2.9925 -0.57855 5.7057 -0.77805 7.7805zm-23.022299999999998 -44.4885a83.391 83.391 0 0 0 1.25685 -11.97c1.8553500000000003 -0.2394 3.7306500000000002 -0.4389 5.60595 -0.57855 1.17705 4.32915 2.1546000000000003 7.98 3.0124500000000003 11.191950000000002 -2.4937500000000004 0.1995 -5.9451 0.69825 -9.875250000000001 1.3566000000000003zm18.393900000000002 17.955000000000002c-1.995 -15.96 -1.4364000000000001 -12.628350000000001 -2.1745500000000004 -16.797900000000002 -0.5586000000000001 -3.1122 -1.197 -3.2718 -5.6259 -2.77305q-1.37655 -5.187 -2.93265 -10.9326c1.7157 1.6758 7.12215 6.384 23.541000000000004 21.067200000000003 -7.6209 5.5062 -7.5211500000000004 5.446350000000001 -12.8079 9.51615zm5.725650000000001 -2.37405c1.1371499999999999 3.99 1.8553500000000003 6.763050000000001 2.3541 8.4987a12.428850000000002 12.428850000000002 0 0 0 -7.561050000000001 -2.6334000000000004c0 -0.798 -0.1995 -1.5760500000000002 -0.29925 -2.3142 2.6134500000000003 -1.69575 3.192 -2.0349 5.5062 -3.5511000000000004zM157.90425000000002 237.405c0 -0.35910000000000003 -1.7556 -11.83035 -1.995 -12.0897a24.9375 24.9375 0 0 0 1.17705 -3.2319000000000004 8.379000000000001 8.379000000000001 0 0 1 3.1122 2.7132000000000005 9.79545 9.79545 0 0 1 -2.29425 12.608400000000001zm-3.13215 -12.8079c-1.45635 0.13965000000000002 -7.381500000000001 0 -8.55855 0L143.06145 213.465a79.80000000000001 79.80000000000001 0 0 1 7.20195 -4.6683c-0.27930000000000005 4.5485999999999995 -0.5586000000000001 10.8129 -0.5187 11.0124 0.5386500000000001 1.3566000000000003 1.995 0 6.304200000000001 1.7556a24.6183 24.6183 0 0 1 -1.2768000000000002 3.05235zm-75.92970000000001 9.23685a6.304200000000001 6.304200000000001 0 0 1 2.5536000000000003 -5.386500000000001c0.8778 4.16955 0.35910000000000003 6.68325 1.8553500000000003 6.384 2.8728000000000002 -0.6384000000000001 11.6109 -3.2718 14.224350000000001 -2.394 0.33915000000000006 0.13965000000000002 0.27930000000000005 0.13965000000000002 0.5187 0.4389 -1.7755500000000002 1.7955 -8.8179 3.2119500000000003 -9.4164 3.6907500000000004a0.8778 0.8778 0 0 0 0 1.21695c0.5586000000000001 0.4788 0.6384000000000001 0.33915000000000006 4.349100000000001 -0.7581 1.37655 -0.33915000000000006 5.0074499999999995 -1.3167000000000002 6.16455 -0.798v0.33915000000000006c-1.8154500000000002 1.37655 -7.4613000000000005 2.6733000000000002 -8.87775 3.1521000000000003a0.8379 0.8379 0 0 0 0.37905 1.6159500000000002c1.8154500000000002 -0.2394 6.2643 -2.2144500000000003 8.359050000000002 -1.596v0.31920000000000004c-1.6159500000000002 1.7755500000000002 -12.66825 5.266800000000001 -14.14455 5.60595a105.03675 105.03675 0 0 0 -6.28425 9.11715c-3.4114500000000003 -4.468800000000001 -5.266800000000001 -6.24435 -8.51865 -11.0922 1.01745 -0.9576 7.98 -7.381500000000001 8.67825 -9.196950000000001a1.8154500000000002 1.8154500000000002 0 0 0 0.15960000000000002 -0.6384000000000001zm5.2867500000000005 14.523600000000002c1.197 7.6209 1.995 12.4887 2.4937500000000004 15.58095 -1.7556 -1.995 -3.99 -4.72815 -7.5012 -8.5785zm-5.566050000000001 -41.2566a1.65585 1.65585 0 0 0 -0.69825 1.6359c1.09725 6.9027 1.995 13.0074 2.93265 18.4338a7.24185 7.24185 0 0 0 -3.192 5.8653c0 1.3167000000000002 0.27930000000000005 0.9177000000000001 -0.798 2.2742999999999998a98.93205000000002 98.93205000000002 0 0 1 -7.16205 7.7007c-1.2369 -1.7955 -1.5361500000000001 -1.8354000000000001 -2.8728000000000002 -1.4763000000000002 -8.59845 2.4937500000000004 -23.94 23.94 -28.747950000000003 31.521000000000004 -1.995 3.2319000000000004 -3.0324 4.9476 -1.995 4.788s20.32905 -32.29905 31.022250000000003 -35.032199999999996c1.7556 -0.4788 1.5760500000000002 3.13215 9.296700000000001 11.75055 6.5037 7.221900000000001 9.097199999999999 10.67325 10.792950000000001 12.608400000000001 0.4788 2.5137 0.5985 2.1745500000000004 0.93765 2.2344000000000004a5.985 5.985 0 0 0 1.05735 0l2.29425 2.45385c0 0.29925 0 0.89775 -0.1995 1.4364000000000001a145.7946 145.7946 0 0 1 -14.443800000000001 42.67305c-5.5461 10.71315 -11.97 20.428800000000003 -22.643250000000002 26.1345a27.6507 27.6507 0 0 1 -16.97745 3.2718c-20.1495 -2.7132000000000005 -25.79535 -19.610850000000003 -25.935000000000002 -39.900000000000006a120.71745 120.71745 0 0 1 11.710650000000001 -50.513400000000004c7.0623000000000005 -12.8079 10.792950000000001 -19.950000000000003 20.907600000000002 -30.762900000000002a105.51555 105.51555 0 0 1 28.747950000000003 -22.5036A105.1764 105.1764 0 0 1 103.56045 189.525a132.60765 132.60765 0 0 1 14.423850000000002 -2.6932500000000004 95.76 95.76 0 0 1 -1.49625 12.1296c-14.862750000000002 2.4139500000000003 -35.730450000000005 6.52365 -37.92495 8.15955zm42.393750000000004 57.954750000000004a1.69575 1.69575 0 0 0 0.7381500000000001 0.27930000000000005c17.7954 -3.6907500000000004 17.1969 -3.5112 17.69565 -3.7506 1.5361500000000001 -0.7581 1.05735 -1.596 -0.5985 -17.5959l0.49875 -0.15960000000000002c8.618400000000001 35.910000000000004 6.56355 25.137 17.1171 82.5132 -22.16445 -38.304 -31.341450000000002 -54.0645 -35.45115 -61.266450000000006zm37.5858 61.22655c0 -26.9724 -0.37905 -37.56585 1.7157 -64.3587 5.64585 0 5.107200000000001 0 5.12715 0.1197 1.1172000000000002 9.576 7.36155 13.0473 12.847800000000001 11.351550000000001 -4.0299000000000005 10.872750000000002 -10.214400000000001 27.47115 -19.690649999999998 52.9074zm25.7754 -67.51080000000002c-1.197 0.7381500000000001 -0.81795 1.3965 -1.09725 3.1720500000000005 -0.85785 4.987500000000001 -4.189500000000001 9.3366 -9.1371 8.15955 -5.6259 -1.6359 -5.3466000000000005 -9.975000000000001 -5.566050000000001 -10.63335a1.7356500000000001 1.7356500000000001 0 0 0 -0.7581 -0.7581c-0.8379 -0.33915000000000006 0.4788 0 -14.683200000000001 0 -0.8379 -17.49615 -0.8379 -16.239300000000004 -0.6384000000000001 -16.25925a13.38645 13.38645 0 0 0 10.35405 -6.72315 13.66575 13.66575 0 0 0 0.77805 -9.2169c-1.6159500000000002 -5.266800000000001 -6.5037 -7.581 -11.97 -7.840350000000001 0.17955000000000002 -9.975000000000001 0.15960000000000002 -11.97 0.33915000000000006 -13.8054l51.870000000000005 -1.7556c0.57855 5.52615 0.5985 15.96 0.77805 26.43375a70.1442 70.1442 0 0 0 -11.97 -2.53365c-1.5561 0 -3.1521000000000003 0.15960000000000002 -3.85035 1.5561a1.65585 1.65585 0 0 0 0.5386500000000001 2.1745500000000004c0.25935 0.2394 0.1197 0 -0.798 0.37905a1.8553500000000003 1.8553500000000003 0 0 0 -0.25935 3.3516c0.5187 0.35910000000000003 0.5586000000000001 0.1995 0.17955000000000002 0.41895a1.6159500000000002 1.6159500000000002 0 0 0 -0.798 1.0374c-0.25935 1.1371499999999999 0.5386500000000001 1.8354000000000001 1.5561 2.4339 3.4314 1.995 9.775500000000001 3.65085 13.645800000000001 4.7481l1.995 2.4937500000000004c0 3.1521000000000003 0 5.985 -0.17955000000000002 8.4189l-3.77055 4.32915c-5.845350000000001 0.09975 -15.800400000000002 0.1197 -16.558500000000002 0.4389zm77.1666 59.19165000000001a16.17945 16.17945 0 0 1 -11.152050000000001 11.371500000000001c-26.8926 7.8204 -43.052099999999996 -24.63825 -50.673 -51.51090000000001a115.92945 115.92945 0 0 1 -2.9127 -12.66825c0 -0.1995 -0.17955000000000002 0.15960000000000002 1.995 -2.29425 10.453800000000001 -11.5311 7.48125 -8.91765 11.8503 -13.645800000000001 3.1720500000000005 -3.4314 1.995 -1.995 6.6633000000000004 -9.11715a6.52365 6.52365 0 0 1 0.77805 -1.01745c17.3166 10.0947 27.47115 32.817750000000004 28.8078 31.0821 0.1197 -0.15960000000000002 0.15960000000000002 -0.2394 -0.15960000000000002 -0.5985 0 0 -15.66075 -23.94 -27.092100000000002 -31.022250000000003 -1.0773000000000001 -0.6583500000000001 -1.09725 -0.69825 -1.3965 -0.7381500000000001a1.1571 1.1571 0 0 0 -0.9576 0.29925 70.7427 70.7427 0 0 1 -6.52365 -7.32165c-0.25935 -0.4389 0 -0.21945 -0.17955000000000002 -1.8753a7.5012 7.5012 0 0 0 -2.8329 -5.16705c0 -4.2693 -0.1995 -8.47875 -0.37905 -12.0897 14.882700000000002 10.8129 20.6682 17.097150000000003 30.044700000000002 30.4038 10.1745 14.4039 16.13955 25.23675 21.5061 42.19425 3.45135 10.7331 6.1446000000000005 22.982400000000002 2.6134500000000003 33.73545zm78.603 -216.11835000000002a34.21425 34.21425 0 0 0 -9.037350000000002 -6.08475 77.9646 77.9646 0 0 0 -64.3986 -2.7531c-15.96 6.384 -27.0123 16.57845 -32.5983 32.658150000000006 -4.768050000000001 13.70565 -3.99 26.15445 0.09975 39.900000000000006a71.20155 71.20155 0 0 0 9.975000000000001 21.725550000000002 52.528349999999996 52.528349999999996 0 0 0 25.935000000000002 21.0273c-0.13965000000000002 2.13465 -0.21945 4.927650000000001 -0.5586000000000001 8.5785a39.4611 39.4611 0 0 0 -0.35910000000000003 4.648350000000001c0 21.3066 25.4961 25.2966 36.0696 16.358999999999998 4.72815 -3.99 6.28425 -9.775500000000001 7.4014500000000005 -15.720600000000001 0.29925 -1.6359 1.1371499999999999 -7.4014500000000005 1.5361500000000001 -12.6483a50.5932 50.5932 0 0 0 18.4338 -8.119650000000002 42.493500000000004 42.493500000000004 0 0 0 11.032350000000001 -9.71565c7.24185 -8.8179 8.91765 -17.097150000000003 11.491200000000001 -28.229250000000004a71.5407 71.5407 0 0 0 0 -34.6731c-2.6733000000000002 -10.8129 -6.802950000000001 -19.53105 -15.022350000000001 -26.952450000000002zm-107.11155000000001 50.4735c1.29675 0 4.927650000000001 0 15.481200000000001 -0.1995a28.189350000000005 28.189350000000005 0 0 0 0.41895 6.463800000000001c1.3965 7.341600000000001 6.52365 9.975000000000001 13.50615 9.037350000000002A7.98 7.98 0 0 0 267.33000000000004 165.585c2.93265 -2.6134500000000003 3.99 -7.680750000000001 4.3690500000000005 -11.59095 6.2643 0.15960000000000002 16.17945 0.6384000000000001 19.7904 -0.2394 -0.9576 4.32915 -1.41645 9.2568 -3.0124500000000003 22.76295 -7.08225 -0.81795 -12.54855 1.25685 -12.768 8.4987 -0.09975 3.29175 1.995 5.586 4.7481 7.341600000000001a14.98245 14.98245 0 0 0 5.6259 1.995c0.69825 0 0 9.11715 0.41895 16.65825 -31.42125 -2.85285 -49.97475000000001 -27.94995 -53.52585 -58.69290000000001zm69.1467 85.78500000000001a23.64075 23.64075 0 0 1 -14.70315 2.2742999999999998c-7.98 -1.3366500000000001 -14.264250000000002 -5.7057 -16.378950000000003 -13.625850000000002 6.8628 0.9177000000000001 32.57835 3.77055 37.5858 3.6708000000000003a15.66075 15.66075 0 0 1 -6.5037 7.740600000000001zm6.783 -8.31915c-4.44885 -0.6384000000000001 -11.451300000000002 -2.4139500000000003 -38.044650000000004 -3.8304a23.421300000000002 23.421300000000002 0 0 1 -0.4389 -7.4014500000000005c3.13215 0 14.763000000000002 1.7755500000000002 40.87755 2.97255a48.43860000000001 48.43860000000001 0 0 1 -2.394 8.31915zm2.5137 -8.91765c-0.7182000000000001 0 -3.2119500000000003 -0.5187 -10.852800000000002 -1.25685 -5.7057 -0.5386500000000001 -24.3789 -1.995 -30.084600000000002 -1.8154500000000002 0 -0.4389 0 -0.399 0.33915000000000006 -9.2169a61.70535 61.70535 0 0 0 14.922600000000001 3.3915 73.5357 73.5357 0 0 0 27.351450000000003 -2.2344000000000004c-0.31920000000000004 2.8728000000000002 -1.0374 8.0997 -1.6758 11.191950000000002zm42.5334 -57.675450000000005c-3.7506 16.877700000000004 -5.885250000000001 26.713050000000003 -21.4263 37.32645 -6.882750000000001 4.7082 -11.511149999999999 7.561050000000001 -26.613300000000002 9.975000000000001a78.603 78.603 0 0 1 -18.61335 0.69825c0.21945 -2.6334000000000004 0.15960000000000002 -4.40895 0.4788 -17.25675a0.7581 0.7581 0 0 0 -0.1995 -0.49875c-0.45885000000000004 -0.37905 -0.25935 0 -3.2319000000000004 -0.85785A11.3316 11.3316 0 0 1 279.3 189.525a5.5062 5.5062 0 0 1 -1.995 -5.40645c0.6384000000000001 -5.3067 4.987500000000001 -6.643350000000001 10.35405 -6.1446000000000005 1.25685 0.1197 2.29425 -1.1371499999999999 2.793 -3.2718 0.6384000000000001 -2.81295 1.7755500000000002 -18.1146 1.995 -21.067200000000003 3.5311500000000002 0.49875 26.47365 2.89275 26.63325 2.8728000000000002a0.7182000000000001 0.7182000000000001 0 0 0 0.57855 -0.6783000000000001 11.471250000000001 11.471250000000001 0 0 1 2.8728000000000002 -6.483750000000001 7.8004500000000005 7.8004500000000005 0 0 1 7.3017 -1.7356500000000001 6.7032 6.7032 0 0 1 4.72815 3.29175 10.374 10.374 0 0 1 1.1571 5.1471 0.7182000000000001 0.7182000000000001 0 0 0 0.57855 0.85785c0.17955000000000002 0 14.922600000000001 0 18.65325 -0.25935 -0.1995 2.1745500000000004 -0.49875 4.389 -0.9975 6.6034500000000005zm1.1571 -7.221900000000001 -17.955000000000002 -0.35910000000000003a9.196950000000001 9.196950000000001 0 0 0 -4.40895 -8.47875 11.07225 11.07225 0 0 0 -8.8179 -0.45885000000000004 10.693200000000001 10.693200000000001 0 0 0 -5.6658 8.379000000000001c-3.2319000000000004 -0.31920000000000004 -0.5187 0 -25.695600000000002 -2.1945 0.25935 -0.8379 0.15960000000000002 -0.399 3.1720500000000005 -21.32655a22.48365 22.48365 0 0 0 9.3765 -0.9975 9.296700000000001 9.296700000000001 0 0 0 5.2269000000000005 -4.40895 11.67075 11.67075 0 0 0 0.9576 -7.680750000000001c-1.5760500000000002 -4.4887500000000005 -8.937600000000002 -5.4663 -13.6857 -5.7456000000000005 0.6783000000000001 -9.11715 1.17705 -17.955000000000002 2.1147 -22.72305 0 0 0 -0.33915000000000006 -0.2394 -0.37905s-0.37905 -0.1995 -0.85785 2.793 -2.4139500000000003 20.728050000000003 -1.995 21.2268 12.867750000000001 0.41895 13.546050000000001 5.985a10.2942 10.2942 0 0 1 -1.8553500000000003 7.00245c-3.0723000000000003 3.6907500000000004 -7.98 3.4314 -12.66825 3.4114500000000003 -0.77805 0 -1.1172000000000002 0 -1.29675 0.798 -2.6932500000000004 18.753 -2.97255 21.246750000000002 -3.29175 21.585900000000002 -0.93765 0.5187 -19.610850000000003 0.1995 -20.209350000000004 0.21945a0.69825 0.69825 0 0 0 -0.41895 0.1995c-0.31920000000000004 0.33915000000000006 -0.13965000000000002 0.27930000000000005 -0.399 2.45385 -0.5187 4.1496 -1.8753 9.3765 -5.8653 10.6533a15.700650000000001 15.700650000000001 0 0 1 -8.47875 0c-7.36155 -2.45385 -5.985 -13.286700000000002 -6.364050000000001 -14.4039a0.5985 0.5985 0 0 0 -0.35910000000000003 -0.29925c-0.37905 0 -12.8079 0.27930000000000005 -16.13955 0.17955000000000002 -1.5561 -14.423850000000002 0.9177000000000001 -27.3315 10.274250000000002 -39.3414 12.768 -16.378950000000003 31.50105 -22.44375 52.10940000000001 -22.92255a76.209 76.209 0 0 1 24.6582 3.6708000000000003c14.58345 4.6284 24.1395 10.693200000000001 30.90255 27.4512A70.94220000000001 70.94220000000001 0 0 1 355.11 156.02895zM301.98315 77.805c1.29675 0 1.4364000000000001 -1.01745 1.5361500000000001 -1.5561 0.4389 -2.57355 0.69825 -2.8329 4.6284 -20.129550000000002a4.20945 4.20945 0 0 0 -0.6384000000000001 -2.8329c-1.3366500000000001 -1.2768000000000002 -0.77805 -0.89775 -2.4738 -1.5561h-1.49625c-1.6758 0.7581 -1.1371499999999999 0.37905 -2.3541 1.65585 -1.995 5.266800000000001 -1.3965 16.897650000000002 -0.69825 22.7829a1.5561 1.5561 0 0 0 1.49625 1.6359zm86.04435000000001 76.94715000000001a3.99 3.99 0 0 0 -2.6334000000000004 -1.2369c-23.2218 0.29925 -22.72305 3.13215 -22.6233 4.189500000000001s1.0374 1.0374 22.28415 3.4114500000000003a4.12965 4.12965 0 0 0 2.73315 -0.9975 3.99 3.99 0 0 0 1.2369 -2.6334000000000004 4.12965 4.12965 0 0 0 -0.9975 -2.73315z" stroke-width="1"></path><path d="M195.9888 142.5627a4.24935 4.24935 0 0 0 1.01745 2.73315c2.5935 1.8753 0.57855 -0.1197 19.710600000000003 0.798a13.0074 13.0074 0 0 0 4.788 -0.25935 1.0773000000000001 1.0773000000000001 0 0 0 0.37905 -1.89525 10.39395 10.39395 0 0 0 -4.16955 -1.8553500000000003 77.98455000000001 77.98455000000001 0 0 0 -17.775450000000003 -3.192 3.85035 3.85035 0 0 0 -3.99 3.6708000000000003zm183.63975 -46.54335a3.99 3.99 0 0 0 -0.27930000000000005 -2.9127c-1.1371499999999999 -1.3965 -0.61845 -0.97755 -2.2344000000000004 -1.8553500000000003 -2.33415 -0.25935 -1.6758 -0.81795 -9.55605 4.3690500000000005a40.059599999999996 40.059599999999996 0 0 0 -7.4613000000000005 5.985c-3.45135 3.2718 -4.1097 3.99 -3.2718 5.04735s1.37655 0.6384000000000001 5.7057 -1.5162c16.9575 -8.47875 15.66075 -6.44385 17.097150000000003 -9.11715zm-145.05644999999998 -3.2718c5.3067 4.1097 4.72815 3.99 6.763050000000001 4.807950000000001a1.0773000000000001 1.0773000000000001 0 0 0 1.4364000000000001 -1.2768000000000002 11.2518 11.2518 0 0 0 -1.995 -3.7107000000000006c-4.32915 -6.6034500000000005 -6.2044500000000005 -7.7805 -12.369000000000002 -13.625850000000002a3.99 3.99 0 0 0 -2.77305 -0.85785 3.99 3.99 0 0 0 -2.57355 1.3566000000000003 3.81045 3.81045 0 0 0 0.49875 5.36655z" stroke-width="1"></path></g></svg>