<svg xmlns="http://www.w3.org/2000/svg" viewBox="-0.5 -0.5 400 400" height="400" width="400"><g fill="#000000"><path d="M114.85215000000001 125.94435000000001a5.60595 5.60595 0 0 0 -4.648350000000001 3.25185 0.5586000000000001 0.5586000000000001 0 0 0 0 0.4389 0.49875 0.49875 0 0 0 0.89775 0 4.68825 4.68825 0 0 1 1.6359 -1.6758 8.718150000000001 8.718150000000001 0 0 1 2.2344000000000004 -0.85785 0.5985 0.5985 0 0 0 -0.1197 -1.1571zm5.36655 -5.8254a3.6309000000000005 3.6309000000000005 0 0 1 -0.6783000000000001 0.7581 0.5386500000000001 0.5386500000000001 0 0 0 0.35910000000000003 0.9177000000000001 2.45385 2.45385 0 0 0 1.49625 -1.6359c0.17955000000000002 -0.8379 -0.17955000000000002 -1.1371499999999999 -2.37405 -3.3316500000000002 -0.4389 -0.4389 -1.1172000000000002 0.25935 -0.7182000000000001 0.6583500000000001 1.9551 2.2144500000000003 2.0748 2.3142 1.9152 2.6334000000000004zm-9.2169 -2.57355c0.41895 0.81795 1.5760500000000002 0.37905 1.3566000000000003 -0.37905 0 -0.399 -0.399 -2.1745500000000004 -0.41895 -2.4339a0.5386500000000001 0.5386500000000001 0 0 0 -1.05735 0c0 0.2394 0.039900000000000005 2.6334000000000004 0.1197 2.81295zm11.191950000000002 -5.107200000000001a0.5586000000000001 0.5586000000000001 0 0 0 -1.09725 0.1995c0 0.2394 0.1995 2.1945 0.25935 2.4738a0.6583500000000001 0.6583500000000001 0 0 0 1.2768000000000002 -0.17955000000000002 19.750500000000002 19.750500000000002 0 0 0 -0.4389 -2.4937500000000004zm-1.2369 -2.9526000000000003a2.394 2.394 0 0 1 1.995 0.9576 0.49875 0.49875 0 0 0 0.85785 -0.4788 3.0723000000000003 3.0723000000000003 0 0 0 -2.9127 -1.7955 0.6583500000000001 0.6583500000000001 0 0 0 0.05985 1.3167000000000002zm22.304100000000002 59.6106A6.5436 6.5436 0 0 0 147.1113 163.59a0.5187 0.5187 0 0 0 -1.01745 -0.09975 6.423900000000001 6.423900000000001 0 0 1 -3.1720500000000005 4.807950000000001 0.399 0.399 0 1 0 0.33915000000000006 0.798zm4.8877500000000005 17.955000000000002a7.98 7.98 0 0 0 4.648350000000001 -6.5835 0.5187 0.5187 0 0 0 -1.01745 -0.1197 8.19945 8.19945 0 0 1 -3.99 5.985c-0.49875 0.2394 -0.15960000000000002 0.9177000000000001 0.35910000000000003 0.7182000000000001zm71.9397 -15.600900000000001c0.6583500000000001 0 1.2369 -0.2394 1.4364000000000001 0.33915000000000006s-1.05735 7.341600000000001 -1.1172000000000002 7.7805a1.17705 1.17705 0 0 1 -0.37905 0.8379 24.59835 24.59835 0 0 1 -8.8179 0 0.6384000000000001 0.6384000000000001 0 0 0 -0.798 0.4788 20.92755 20.92755 0 0 0 -0.4788 5.2269000000000005 0.61845 0.61845 0 1 0 1.21695 0 22.902600000000003 22.902600000000003 0 0 1 0.35910000000000003 -4.2693c2.4139500000000003 0.49875 8.718150000000001 0 9.4962 -0.7182000000000001a2.45385 2.45385 0 0 0 0.5586000000000001 -1.2369 45.486000000000004 45.486000000000004 0 0 0 0.77805 -8.738100000000001c-0.6384000000000001 -1.3566000000000003 -2.1745500000000004 -1.01745 -14.58345 -0.17955000000000002L201.495 171.57000000000002a54.882450000000006 54.882450000000006 0 0 1 -1.596 -6.68325c-0.09975 -0.77805 -0.09975 -1.09725 0.4389 -1.21695a111.9594 111.9594 0 0 1 12.408900000000001 -0.1197c0.7381500000000001 0 1.995 0.1995 2.2344000000000004 -0.9576a72.11925000000001 72.11925000000001 0 0 0 -1.37655 -7.341600000000001 76.92720000000001 76.92720000000001 0 0 0 10.0947 0.69825 0.6583500000000001 0.6583500000000001 0 0 0 0.61845 -0.6384000000000001c-0.1197 -1.995 -0.29925 -8.977500000000001 -0.5187 -11.27175a16.29915 16.29915 0 0 1 4.2294 -0.399c0.798 0.1197 0.81795 -1.1172000000000002 0 -1.1172000000000002a16.81785 16.81785 0 0 0 -5.12715 0.37905 0.5187 0.5187 0 0 0 -0.41895 0.21945c-0.33915000000000006 0.49875 0.77805 5.985 0.45885000000000004 11.351550000000001a81.29625 81.29625 0 0 1 -10.1346 -0.7381500000000001 0.6583500000000001 0.6583500000000001 0 0 0 -0.77805 0.798 61.02705 61.02705 0 0 1 1.197 7.680750000000001 114.6726 114.6726 0 0 0 -13.286700000000002 0.1197 1.69575 1.69575 0 0 0 -1.49625 1.6359 69.1467 69.1467 0 0 0 1.2768000000000002 7.12215c0.15960000000000002 0.81795 0.45885000000000004 1.5561 1.6159500000000002 1.5561zm-9.097199999999999 25.0572c0.1197 0.69825 1.2768000000000002 0.5586000000000001 1.1571 -0.13965000000000002a45.26655 45.26655 0 0 1 -0.37905 -4.8678 10.35405 10.35405 0 0 0 2.13465 1.995c0.69825 0.4788 1.37655 -0.61845 0.7182000000000001 -1.1172000000000002a12.349050000000002 12.349050000000002 0 0 1 -2.9127 -3.25185 0.5985 0.5985 0 0 0 -1.0773000000000001 0 32.897549999999995 32.897549999999995 0 0 1 -3.0922500000000004 3.99 0.6384000000000001 0.6384000000000001 0 0 0 0.89775 0.89775c0.4389 -0.4389 1.4763000000000002 -1.7356500000000001 1.995 -2.53365 0.17955000000000002 1.65585 0.31920000000000004 3.3516 0.5586000000000001 5.0274zm22.92255 -53.20665a34.17435 34.17435 0 0 1 -2.6134500000000003 3.0324 0.5586000000000001 0.5586000000000001 0 0 0 0.81795 0.7581c0.93765 -0.97755 1.8753 -1.995 2.73315 -3.05235 0.97755 0.7381500000000001 1.8154500000000002 1.3566000000000003 2.6932500000000004 1.995s1.49625 -0.69825 0.7381500000000001 -1.25685l-2.57355 -1.7157a23.142 23.142 0 0 0 2.57355 -3.81045 0.6783000000000001 0.6783000000000001 0 0 0 -1.1371499999999999 -0.6783000000000001s-1.995 3.1122 -2.4738 3.7905a31.201800000000002 31.201800000000002 0 0 1 -3.8703000000000003 -3.0723000000000003 0.5187 0.5187 0 1 0 -0.7182000000000001 0.7581c1.21695 1.0773000000000001 2.5536000000000003 2.1745500000000004 3.8304 3.25185zm61.14675 -22.084650000000003c0.6384000000000001 0.13965000000000002 0.9576 -0.77805 0.31920000000000004 -0.97755a6.16455 6.16455 0 0 1 -1.5760500000000002 -1.1371499999999999 14.50365 14.50365 0 0 0 1.0374 -4.16955 0.5187 0.5187 0 0 0 -1.01745 0 19.6308 19.6308 0 0 1 -1.25685 3.65085 1.69575 1.69575 0 0 0 0 1.09725 5.985 5.985 0 0 0 2.4937500000000004 1.5361500000000001zm2.0748 4.1097a4.6683 4.6683 0 0 0 5.985 -2.1745500000000004c0.2394 -0.6384000000000001 -0.7182000000000001 -0.9576 -0.97755 -0.33915000000000006 -0.5386500000000001 1.29675 -2.13465 1.6758 -4.6683 1.1371499999999999 -0.89775 -0.25935 -1.197 1.197 -0.33915000000000006 1.37655zm-6.24435 -12.768a0.5187 0.5187 0 0 0 -1.01745 0 11.5311 11.5311 0 0 0 -0.09975 2.57355 0.6384000000000001 0.6384000000000001 0 0 0 1.21695 0 16.5984 16.5984 0 0 0 -0.09975 -2.57355zm10.6134 -0.09975a15.5211 15.5211 0 0 0 0 2.89275 0.6384000000000001 0.6384000000000001 0 0 0 1.1571 0 19.710600000000003 19.710600000000003 0 0 0 0 -2.85285 0.5586000000000001 0.5586000000000001 0 0 0 -1.1571 -0.039900000000000005zm-10.114650000000001 -2.5137a3.49125 3.49125 0 0 0 -2.793 1.4364000000000001c-0.33915000000000006 0.6783000000000001 0.6783000000000001 1.197 0.9975 0.5386500000000001a1.8553500000000003 1.8553500000000003 0 0 1 1.6359 -0.69825c0.8778 0.07980000000000001 0.93765 -1.2768000000000002 0.15960000000000002 -1.2768000000000002zm10.274250000000002 0.399a1.25685 1.25685 0 0 1 1.3167000000000002 1.01745 0.49875 0.49875 0 0 0 0.49875 0.49875c1.1371499999999999 0 0.29925 -2.6334000000000004 -1.995 -2.85285a0.6783000000000001 0.6783000000000001 0 0 0 -0.6583500000000001 0.798 0.7581 0.7581 0 0 0 0.8379 0.5386500000000001zm9.1371 130.63260000000002a57.675450000000005 57.675450000000005 0 0 1 -5.725650000000001 1.995 72.65790000000001 72.65790000000001 0 0 0 0.31920000000000004 -20.349c1.5162 0 2.8329 -0.1995 3.99 -0.35910000000000003a0.6583500000000001 0.6583500000000001 0 0 0 -0.17955000000000002 -1.29675c-0.69825 0 -3.4114500000000003 0.1995 -3.99 0.25935 -0.1197 -0.8379 -0.25935 -1.69575 -0.399 -2.53365s-1.197 -0.41895 -1.05735 0.21945 0.2394 1.5561 0.35910000000000003 2.33415c-2.25435 0 -11.87025 -0.77805 -13.4463 -0.9177000000000001 -0.29925 -2.13465 -1.7955 -10.593449999999999 -2.394 -13.286700000000002a0.4389 0.4389 0 0 0 -0.57855 -0.31920000000000004c-0.9975 0.2394 0.21945 0.77805 1.7356500000000001 13.4463a152.55765 152.55765 0 0 1 -16.5186 -5.107200000000001c0.5187 -1.2768000000000002 2.5536000000000003 -6.384 3.6708000000000003 -8.698200000000002 0.25935 -0.5985 -0.57855 -1.05735 -0.85785 -0.4788 -1.49625 3.2119500000000003 -2.73315 5.985 -3.85035 8.67825 -5.266800000000001 -2.45385 -5.32665 -3.0723000000000003 -5.845350000000001 -2.7531a0.49875 0.49875 0 0 0 0 0.8778 56.897400000000005 56.897400000000005 0 0 0 5.446350000000001 2.89275c-2.4339 5.985 -6.6234 19.0323 -7.421400000000001 21.60585a40.8975 40.8975 0 0 1 -6.882750000000001 -6.44385 0.41895 0.41895 0 0 0 -0.37905 -0.21945 0.4788 0.4788 0 0 0 -0.4389 0.7182000000000001 58.07445 58.07445 0 0 0 7.221900000000001 7.3017c-0.15960000000000002 0.6583500000000001 -0.85785 3.4314 -1.05735 4.189500000000001s1.1172000000000002 1.197 1.3167000000000002 0.35910000000000003c0 -0.1995 0.7182000000000001 -2.81295 0.9975 -3.7306500000000002a20.249250000000004 20.249250000000004 0 0 0 6.5037 2.6733000000000002 0.69825 0.69825 0 0 0 0.35910000000000003 -1.3566000000000003c-1.3366500000000001 -0.4389 -5.3067 -2.0947500000000003 -6.483750000000001 -2.6733000000000002 2.1745500000000004 -7.76055 4.52865 -14.922600000000001 7.182 -21.945a82.992 82.992 0 0 0 17.137050000000002 5.40645c0.57855 5.386500000000001 0.8379 18.413850000000004 0.8379 21.206850000000003a59.85 59.85 0 0 1 -8.91765 -3.99 0.5386500000000001 0.5386500000000001 0 1 0 -0.5586000000000001 0.93765 66.633 66.633 0 0 0 9.4563 4.20945c0 1.01745 -0.09975 1.995 -0.09975 3.1521000000000003a0.6384000000000001 0.6384000000000001 0 0 0 1.2768000000000002 0c0 -0.93765 0.15960000000000002 -1.8154500000000002 0.1995 -2.77305a44.628150000000005 44.628150000000005 0 0 0 11.491200000000001 0.37905c0 0.2394 0 0.5386500000000001 -0.17955000000000002 0.93765a0.7381500000000001 0.7381500000000001 0 0 0 1.0773000000000001 0.77805c0.29925 -0.17955000000000002 0.29925 -0.31920000000000004 0.6384000000000001 -1.995a43.750350000000005 43.750350000000005 0 0 0 6.5436 -2.4937500000000004c0.7581 -0.07980000000000001 0.25935 -1.0773000000000001 -0.49875 -0.8379zm-7.261800000000001 2.4139500000000003a47.88 47.88 0 0 1 -11.690700000000001 -0.2394 129.1563 129.1563 0 0 0 -0.9576 -21.366450000000004c3.1521000000000003 0.4389 11.2119 0.89775 13.426350000000001 0.89775a75.9696 75.9696 0 0 1 -0.77805 20.7081zM73.815 54.70290000000001A2.4139500000000003 2.4139500000000003 0 0 0 73.815 49.875c-2.77305 0 -5.2867500000000005 -0.97755 -3.37155 -3.99a4.56855 4.56855 0 0 1 2.2144500000000003 -1.7157 9.4563 9.4563 0 0 0 5.5062 -10.533600000000002 11.0124 11.0124 0 0 0 -7.8004500000000005 -8.618400000000001 11.371500000000001 11.371500000000001 0 0 0 -8.937600000000002 1.3965 13.82535 13.82535 0 0 0 -5.985 8.2992 2.394 2.394 0 0 0 4.648350000000001 1.197 7.8004500000000005 7.8004500000000005 0 0 1 9.037350000000002 -6.2044500000000005 6.2643 6.2643 0 0 1 4.3690500000000005 4.7481 5.446350000000001 5.446350000000001 0 0 1 -0.798 3.99c-1.1571 1.6758 -3.99 1.6359 -6.2044500000000005 4.9476 -4.04985 5.8254 0.29925 11.451300000000002 7.32165 11.31165zm2.0947500000000003 2.1945a3.3316500000000002 3.3316500000000002 0 0 0 0 6.643350000000001 3.3316500000000002 3.3316500000000002 0 0 0 0 -6.643350000000001z" stroke-width="1"></path><path d="M389.02500000000003 166.84185V141.246c0 -0.399 -99.47070000000001 -116.2287 -101.08665 -118.16385 -0.1197 -0.1197 -0.17955000000000002 -0.17955000000000002 -36.20925 0.17955000000000002a0.29925 0.29925 0 0 0 -0.29925 0.29925v17.5959h-15.760500000000002c-0.17955000000000002 -18.553500000000003 0 -17.955000000000002 -0.4389 -17.955000000000002 -13.965 -1.1371499999999999 -82.73265 -0.17955000000000002 -129.21615 -0.41895a6.6234 6.6234 0 0 0 -3.0723000000000003 -1.995 8.47875 8.47875 0 0 1 -4.32915 -2.9925 11.23185 11.23185 0 0 0 -4.12965 -3.1521000000000003 10.75305 10.75305 0 0 0 -7.1421 -0.5386500000000001 17.955000000000002 17.955000000000002 0 0 0 -3.0124500000000003 1.21695c-4.68825 2.2144500000000003 -6.1047 1.995 -9.975000000000001 -0.9177000000000001l-1.197 -0.8379c-7.98 -5.446350000000001 -25.935000000000002 -3.37155 -33.0372 3.7905 -3.6109500000000003 2.81295 -6.384 9.855300000000002 -3.99 14.82285a9.6957 9.6957 0 0 1 0.89775 2.25435 9.4962 9.4962 0 0 1 -1.995 0.89775c-8.618400000000001 3.99 -11.0922 16.2792 -4.7481 24.1794 1.1571 1.4763000000000002 2.45385 2.6134500000000003 2.25435 4.44885 -1.5162 7.98 5.266800000000001 15.561 12.947550000000001 16.1994A17.81535 17.81535 0 0 0 62.224050000000005 69.825a18.17445 18.17445 0 0 0 3.49125 1.09725c-2.1147 2.53365 -55.52085 67.83 -55.9797 68.88735000000001 -0.1995 0 0.29925 63.12180000000001 0.29925 136.99665000000002 0 0.27930000000000005 0.1197 1.0374 0.6783000000000001 1.0374 13.186950000000001 -0.2394 44.14935 -0.85785 55.38120000000001 -1.1172000000000002 -3.1521000000000003 30.30405 -5.6259 61.845000000000006 -7.12215 91.5306a0.29925 0.29925 0 0 0 0.2394 0.29925c1.4364000000000001 0.33915000000000006 2.8728000000000002 0.5985 5.08725 1.01745 0 1.01745 0.1995 4.1496 0.33915000000000006 5.586 -1.7356500000000001 0.9576 -11.0523 7.20195 -11.491200000000001 7.740600000000001 -1.49625 2.1546000000000003 1.05735 3.7306500000000002 3.65085 4.12965a86.36355 86.36355 0 0 0 14.224350000000001 1.3965 42.87255 42.87255 0 0 0 4.4289000000000005 -0.2394c1.596 -0.13965000000000002 3.0922500000000004 -0.27930000000000005 3.99 -2.1147 1.3566000000000003 -2.9526000000000003 -0.6583500000000001 -7.4613000000000005 2.4937500000000004 -15.0822 1.995 0 3.99 -0.09975 5.985 -0.1995a0.29925 0.29925 0 0 0 0.27930000000000005 -0.27930000000000005c3.3316500000000002 -32.319 15.261750000000001 -86.44335 27.052200000000003 -112.45815 2.1147 -4.6683 3.1720500000000005 -0.399 2.37405 1.5561 -2.97255 7.16205 -7.98 20.2692 -7.7805 20.728050000000003 1.2768000000000002 3.4314 4.1496 13.1271 3.3915 28.708050000000004 -0.7581 16.9176 -2.4738 34.93245 -4.3690500000000005 51.51090000000001a0.31920000000000004 0.31920000000000004 0 0 0 0.13965000000000002 0.27930000000000005 32.75790000000001 32.75790000000001 0 0 0 3.81045 2.25435 48.5583 48.5583 0 0 1 0 8.15955 16.9575 16.9575 0 0 0 -1.4364000000000001 6.1047 3.4713000000000003 3.4713000000000003 0 0 0 2.5137 3.8304c1.7556 0.93765 15.481200000000001 3.57105 20.68815 2.81295 1.995 -0.27930000000000005 2.97255 -0.97755 3.13215 -1.995a2.4937500000000004 2.4937500000000004 0 0 0 -0.8778 -1.995s-7.6209 -7.76055 -9.177 -9.097199999999999c0.69825 -1.7356500000000001 1.49625 -3.5311500000000002 2.45385 -5.446350000000001 3.5311500000000002 0.1197 3.99 0.5386500000000001 4.1097 0 6.7032 -24.538500000000003 11.571 -58.3338 13.2468 -88.83735 14.06475 0.35910000000000003 45.106950000000005 -0.5187 48.61815000000001 -0.57855a0.29925 0.29925 0 0 0 0.21945 0c0.49875 -0.5187 -0.37905 -48.3189 -0.13965000000000002 -59.530800000000006 15.162 0.33915000000000006 51.9897 0 58.254000000000005 0v9.6957c-2.9526000000000003 7.7007 -6.56355 17.17695 -6.6633000000000004 17.396400000000003a4.9476 4.9476 0 0 0 -0.6384000000000001 3.0324 3.99 3.99 0 0 0 1.7356500000000001 2.1546000000000003c1.5361500000000001 1.17705 3.7306500000000002 2.33415 4.68825 2.9526000000000003 -1.6359 8.6583 1.197 52.149300000000004 1.8753 65.37615000000001 0.5985 12.867750000000001 1.4763000000000002 25.935000000000002 2.6134500000000003 38.80275a4.16955 4.16955 0 0 0 -3.1521000000000003 1.21695c-1.1571 1.37655 -0.6783000000000001 3.5511000000000004 -0.5386500000000001 5.3466000000000005 0.31920000000000004 3.99 0.35910000000000003 6.5835 -5.1471 11.451300000000002a21.745500000000003 21.745500000000003 0 0 0 -3.0723000000000003 2.8329 5.725650000000001 5.725650000000001 0 0 0 0.85785 5.6658 4.9476 4.9476 0 0 0 2.73315 1.09725 68.1093 68.1093 0 0 0 16.358999999999998 0.35910000000000003 6.5037 6.5037 0 0 0 5.64585 -4.84785c0.6583500000000001 -2.8329 -0.5586000000000001 -7.0224 -0.93765 -9.71565a64.3986 64.3986 0 0 1 -0.27930000000000005 -8.3391c0.5187 -1.1571 10.67325 -23.94 14.184450000000002 -42.413700000000006 2.1945 -12.50865 1.2369 -18.69315 -1.41645 -26.2941 0.15960000000000002 -1.25685 0.5187 -4.6683 0.6783000000000001 -5.985a0.29925 0.29925 0 0 0 -0.399 -0.31920000000000004 31.261650000000003 31.261650000000003 0 0 1 -25.156950000000002 -1.995c-1.09725 -0.6384000000000001 -2.793 -3.1720500000000005 0.2394 -1.7157a32.01975 32.01975 0 0 0 25.037250000000004 1.7556c0.33915000000000006 -0.1197 0.5586000000000001 -0.13965000000000002 0.5985 -0.37905 0.29925 -2.89275 0.85785 -6.28425 1.2768000000000002 -10.374 1.1571 6.24435 1.6159500000000002 9.296700000000001 2.93265 14.0847a0.29925 0.29925 0 0 0 0.2394 0.1995 31.301550000000002 31.301550000000002 0 0 0 21.945 -3.4713000000000003c2.4937500000000004 -1.5162 1.8354000000000001 1.1172000000000002 0.7381500000000001 1.995 -8.47875 5.985 -19.77045 4.389 -21.945 3.99a0.29925 0.29925 0 0 0 -0.33915000000000006 0.37905c7.98 28.887600000000003 12.5685 41.09700000000001 19.072200000000002 67.3113a4.8877500000000005 4.8877500000000005 0 0 0 -3.25185 3.99c-0.69825 4.16955 2.77305 8.47875 -0.37905 11.97 -2.1147 2.33415 -5.6857500000000005 6.24435 -5.6857500000000005 9.6957 0.1197 1.995 2.6733000000000002 3.4114500000000003 4.468800000000001 3.6907500000000004a14.90265 14.90265 0 0 0 3.77055 0 110.92200000000001 110.92200000000001 0 0 0 13.1271 -2.1147c4.7481 -2.2742999999999998 3.99 -5.76555 3.1720500000000005 -9.79545 -0.9576 -4.56855 -2.77305 -13.4463 -2.8329 -14.1645 0.4788 -3.05235 0.89775 -14.2443 1.7955 -28.9674 0 0 0.1197 -2.4339 0.15960000000000002 -21.64575a33.915 33.915 0 0 0 -1.6359 -12.46875 29.74545 29.74545 0 0 0 -5.985 -9.83535c0.399 -2.77305 0.7581 -6.7032 1.0374 -10.892700000000001 12.1695 -0.21945 68.02950000000001 0.31920000000000004 73.07685000000001 -0.77805 0.4788 -0.1995 0.1995 7.76055 0 -109.6053zm-110.2836 133.12635a1.41645 1.41645 0 0 1 0 2.8329 1.41645 1.41645 0 0 1 -0.05985 -2.8329zm-23.80035 68.3487c0.93765 0.399 3.3117 1.7157 4.52865 2.394a14.543550000000002 14.543550000000002 0 0 0 -1.0773000000000001 1.65585 45.46605 45.46605 0 0 0 -4.4887500000000005 -2.0947500000000003 8.778 8.778 0 0 0 0.97755 -1.9551zm0.29925 -0.93765a13.965 13.965 0 0 0 0.31920000000000004 -1.5162 11.451300000000002 11.451300000000002 0 0 1 5.08725 2.5935 0.5187 0.5187 0 0 1 0 0.41895 3.05235 3.05235 0 0 1 -0.69825 1.1571 25.935000000000002 25.935000000000002 0 0 0 -4.768050000000001 -2.65335zm-5.985 10.9725a3.45135 3.45135 0 0 0 -0.37905 0.89775 6.16455 6.16455 0 0 1 -1.6758 -0.6783000000000001 4.44885 4.44885 0 0 1 0.33915000000000006 -1.41645 3.1521000000000003 3.1521000000000003 0 0 0 1.8354000000000001 1.197zm20.388900000000003 0a7.740600000000001 7.740600000000001 0 0 1 -3.1521000000000003 1.21695 7.04235 7.04235 0 0 0 -0.29925 -0.9177000000000001 8.359050000000002 8.359050000000002 0 0 0 3.7107000000000006 -1.2369 8.957550000000001 8.957550000000001 0 0 1 -0.21945 0.9576zm-4.5087 0.41895a3.0124500000000003 3.0124500000000003 0 0 1 0.35910000000000003 0.97755 31.680600000000002 31.680600000000002 0 0 1 -4.2693 0.35910000000000003 7.00245 7.00245 0 0 0 -0.27930000000000005 -1.1571c1.7356500000000001 0.09975 3.3316500000000002 -0.07980000000000001 4.2294 -0.15960000000000002zm-5.24685 0.1995a7.0623000000000005 7.0623000000000005 0 0 1 0.33915000000000006 1.1571c-1.5561 0 -3.49125 0 -5.04735 -0.09975a4.648350000000001 4.648350000000001 0 0 1 0.1995 -1.1371499999999999c1.41645 0.15960000000000002 2.9526000000000003 0.15960000000000002 4.5485999999999995 0.15960000000000002zm-9.875250000000001 2.77305a2.6733000000000002 2.6733000000000002 0 0 1 -0.31920000000000004 -1.3167000000000002 35.17185 35.17185 0 0 0 4.468800000000001 0.5386500000000001 6.56355 6.56355 0 0 0 0.17955000000000002 1.2768000000000002c-1.8154500000000002 -0.1197 -3.29175 -0.31920000000000004 -4.28925 -0.4788zm-0.15960000000000002 -2.29425a3.1720500000000005 3.1720500000000005 0 0 1 0.41895 -0.8778c0.81795 0.1197 1.995 0.17955000000000002 3.99 0.27930000000000005a4.84785 4.84785 0 0 0 -0.17955000000000002 1.1172000000000002 40.3389 40.3389 0 0 1 -4.189500000000001 -0.49875zm-2.53365 0.27930000000000005a7.840350000000001 7.840350000000001 0 0 0 1.37655 0.4788 3.8703000000000003 3.8703000000000003 0 0 0 0.13965000000000002 1.2768000000000002 2.4738 2.4738 0 0 1 -1.45635 -1.7356500000000001zm7.98 2.57355a4.5485999999999995 4.5485999999999995 0 0 1 -0.2394 -1.2768000000000002c1.5760500000000002 0 3.57105 0.1197 5.12715 0.09975a3.6708000000000003 3.6708000000000003 0 0 1 -0.21945 1.2369q-2.4339 0.07980000000000001 -4.60845 -0.039900000000000005zm5.725650000000001 0a4.24935 4.24935 0 0 0 0.31920000000000004 -1.25685 32.29905 32.29905 0 0 0 4.28925 -0.35910000000000003 2.5536000000000003 2.5536000000000003 0 0 1 -0.33915000000000006 1.1371499999999999 25.63575 25.63575 0 0 1 -4.12965 0.5187zm5.32665 -0.798a3.7107000000000006 3.7107000000000006 0 0 0 0.1197 -0.9576 15.54105 15.54105 0 0 0 2.25435 -0.6384000000000001 5.04735 5.04735 0 0 1 -2.2344000000000004 1.6359zm3.3915 -69.00705a1.197 1.197 0 0 1 1.2369 1.21695 1.21695 1.21695 0 1 1 -1.2369 -1.21695zm-2.9925 26.1744a1.5561 1.5561 0 1 1 -3.1122 0 1.5561 1.5561 0 0 1 3.25185 0.039900000000000005zm-4.20945 -15.720600000000001a1.5561 1.5561 0 0 1 3.0922500000000004 0 1.5561 1.5561 0 0 1 -2.9526000000000003 0.039900000000000005zm1.3566000000000003 -25.935000000000002a1.7955 1.7955 0 0 1 0 3.57105 1.7955 1.7955 0 1 1 0.13965000000000002 -3.57105zm-5.20695 59.94975a4.8877500000000005 4.8877500000000005 0 0 1 2.3142 6.24435 0.31920000000000004 0.31920000000000004 0 0 0 0.1197 0.33915000000000006 6.6633000000000004 6.6633000000000004 0 0 0 7.441350000000001 -0.5386500000000001c0.15960000000000002 1.995 1.4763000000000002 12.289200000000001 1.4763000000000002 12.388950000000001 -0.8379 1.7157 -3.0723000000000003 1.995 -4.967550000000001 1.995a5.12715 5.12715 0 0 1 3.45135 -3.99 0.45885000000000004 0.45885000000000004 0 0 0 -0.25935 -0.89775 6.16455 6.16455 0 0 0 -4.349100000000001 4.9476 65.5557 65.5557 0 0 1 -12.688200000000002 -0.21945c-1.995 -0.33915000000000006 -2.93265 -0.57855 -2.9526000000000003 -1.2369A27.092100000000002 27.092100000000002 0 0 0 253.365 371.07a44.66805 44.66805 0 0 1 4.987500000000001 2.33415c0.7182000000000001 0 1.05735 -0.5187 1.29675 -0.93765a30.623250000000002 30.623250000000002 0 0 0 1.995 -3.1122 2.4738 2.4738 0 0 0 -1.7356500000000001 -2.93265c-0.61845 -0.27930000000000005 -3.2718 -1.3167000000000002 -4.32915 -1.6359a29.685600000000004 29.685600000000004 0 0 1 0 -6.9027 3.8703000000000003 3.8703000000000003 0 0 1 3.25185 -0.9177000000000001zm38.922450000000005 -54.16425a1.41645 1.41645 0 0 1 0 -2.8329 1.41645 1.41645 0 0 1 0.13965000000000002 2.8329zM268.38735 42.13440000000001l15.96 23.7006c0.13965000000000002 0.1995 -1.7356500000000001 0.13965000000000002 28.82775 0.13965000000000002a0.31920000000000004 0.31920000000000004 0 0 0 0.2394 -0.49875c-18.61335 -23.1819 -19.81035 -23.94 -30.383850000000002 -37.007250000000006 -1.1571 -1.45635 -1.17705 -1.45635 -1.3167000000000002 -1.45635l-27.531000000000002 0.09975 -1.3965 -2.57355c3.05235 0 32.338950000000004 -0.45885000000000004 34.473600000000005 -0.5586000000000001l99.75 116.64765c-7.12215 0 -67.23150000000001 0.97755 -69.6255 0.9975l-1.3566000000000003 -0.81795a7.98 7.98 0 0 0 -1.41645 -7.1421 10.9326 10.9326 0 0 0 6.2244 -2.5137c49.5957 0 46.38375 0 46.50345 -0.17955000000000002a0.29925 0.29925 0 0 0 0 -0.31920000000000004c-0.17955000000000002 -0.1995 -17.0373 -19.5909 -25.456200000000003 -31.201800000000002s-22.92255 -28.109550000000002 -23.082150000000002 -28.26915a0.27930000000000005 0.27930000000000005 0 0 0 -0.31920000000000004 -0.09975c-1.09725 0.15960000000000002 -23.94 0.35910000000000003 -29.266650000000002 0.35910000000000003a0.6384000000000001 0.6384000000000001 0 0 0 -0.4389 1.0773000000000001c2.1147 2.394 8.778 13.965 11.032350000000001 17.45625a17.476200000000002 17.476200000000002 0 0 0 -7.441350000000001 2.97255 176.69715 176.69715 0 0 1 -11.2518 -19.13205c-9.0573 -16.558500000000002 -15.54105 -26.67315 -15.96 -26.67315 -2.93265 0 -36.6282 -0.33915000000000006 -38.244150000000005 -0.37905v-4.349100000000001c4.189500000000001 0.019950000000000002 37.56585 -0.21945 41.47605 -0.27930000000000005zm-14.184450000000002 -1.0374v-12.74805c4.9476 0 23.64075 -0.09975 27.092100000000002 -0.29925v30.962400000000002c-3.85035 -5.6658 -12.3291 -18.1146 -12.74805 -18.1146zm57.6156 174.86175000000003 -0.33915000000000006 0.1197c-1.41645 0.49875 -3.05235 1.0773000000000001 -4.2693 0.15960000000000002 -0.17955000000000002 -0.15960000000000002 -0.399 -0.45885000000000004 -0.29925 -0.6583500000000001a6.423900000000001 6.423900000000001 0 0 0 3.5311500000000002 -1.17705 0.399 0.399 0 0 0 -0.45885000000000004 -0.6384000000000001 9.975000000000001 9.975000000000001 0 0 1 -4.16955 0.7581c-0.5187 0 -1.4364000000000001 0 -1.45635 -0.45885000000000004s0.5586000000000001 -0.5586000000000001 0.77805 -0.69825l2.6334000000000004 -1.09725c0.6583500000000001 -0.29925 2.8728000000000002 -1.69575 2.97255 -2.1945s-0.15960000000000002 -0.41895 -0.7381500000000001 -1.1371499999999999 -0.93765 -1.197 -1.2768000000000002 -1.6758 -0.5586000000000001 -0.9177000000000001 0 -0.6783000000000001c1.0773000000000001 0.37905 1.8354000000000001 1.4763000000000002 3.1720500000000005 1.4364000000000001a14.0847 14.0847 0 0 0 3.85035 -2.53365 17.5959 17.5959 0 0 0 5.426400000000001 5.985c-0.81795 0.9177000000000001 -3.3915 3.99 -4.20945 4.5485999999999995a9.79545 9.79545 0 0 1 -2.9127 1.4763000000000002c-0.6783000000000001 0.1995 -3.25185 0.4788 -3.1720500000000005 0a10.83285 10.83285 0 0 1 1.29675 -0.6583500000000001 0.41895 0.41895 0 0 0 -0.35910000000000003 -0.8778zm5.0274 -11.2119a3.1122 3.1122 0 0 1 0.21945 -3.3516c1.17705 -1.995 9.975000000000001 -16.3989 11.690700000000001 -18.713100000000004a0.69825 0.69825 0 0 0 0 -1.1571 117.70500000000001 117.70500000000001 0 0 1 -15.780450000000002 -13.765500000000001c-0.41895 -0.5386500000000001 -1.17705 0.17955000000000002 -0.7381500000000001 0.6384000000000001 2.85285 2.9526000000000003 5.5062 5.7456000000000005 8.3391 8.2992a55.16175 55.16175 0 0 0 1.05735 14.82285c-0.77805 1.25685 -5.5461 8.718150000000001 -5.985 9.79545a4.16955 4.16955 0 0 0 -0.29925 3.0124500000000003 34.972350000000006 34.972350000000006 0 0 1 -3.7506 2.29425c-0.4389 -0.1995 -1.995 -1.2369 -2.53365 -1.4364000000000001a1.3566000000000003 1.3566000000000003 0 0 0 -1.7356500000000001 1.995 29.925 29.925 0 0 0 1.995 2.81295c-0.69825 0.4788 -1.8354000000000001 1.05735 -2.3142 1.3167000000000002a104.31855 104.31855 0 0 1 -8.99745 -29.2866c0.5985 -6.32415 3.3316500000000002 -12.18945 5.985 -17.955000000000002 1.8553500000000003 -3.99 3.99 -9.07725 7.24185 -14.543550000000002 0.85785 -1.49625 3.65085 -5.985 4.349100000000001 -7.5411 15.142050000000001 9.4164 32.2791 22.44375 31.62075 40.079550000000005 -0.49875 12.8877 -13.3665 19.1121 -23.80035 29.1669a18.2742 18.2742 0 0 1 -6.56355 -6.483750000000001zm4.927650000000001 -27.052200000000003c1.8354000000000001 1.6159500000000002 3.77055 3.1720500000000005 5.76555 4.6284 -1.8753 2.57355 -3.5311500000000002 5.2867500000000005 -4.987500000000001 7.720650000000001a81.65535 81.65535 0 0 1 -0.77805 -12.349050000000002zm-70.1841 -45.885000000000005c-8.67825 -2.793 -17.615850000000002 -5.8254 -26.733 -5.20695a3.99 3.99 0 0 0 -0.41895 -1.7556 1.5760500000000002 1.5760500000000002 0 0 0 -2.1745500000000004 -0.49875 1.6758 1.6758 0 0 0 -2.5536000000000003 -0.8778 1.995 1.995 0 0 0 -1.29675 -0.8379c-1.7356500000000001 -0.15960000000000002 -2.5935 1.995 -3.0723000000000003 3.65085a82.01445 82.01445 0 0 0 -12.867750000000001 0.97755 8.6583 8.6583 0 0 0 -3.57105 1.1371499999999999c-0.1197 0.2394 -0.21945 0.49875 -0.31920000000000004 0.7381500000000001h-13.965c0.13965000000000002 -4.40895 0 -19.5909 0 -22.24425 10.693200000000001 -0.1197 98.17395 -0.6783000000000001 100.20885 -0.6783000000000001a93.58545 93.58545 0 0 1 -4.9077 17.21685 2.2344000000000004 2.2344000000000004 0 0 0 -0.1197 2.4339 24.4188 24.4188 0 0 0 4.3690500000000005 3.4314c-30.66315 0.1995 -29.2866 0.4788 -29.2467 0.85785 0 1.21695 -0.15960000000000002 7.4613000000000005 0 9.615900000000002a45.885000000000005 45.885000000000005 0 0 1 -5.3466000000000005 -2.4339q1.0773000000000001 -2.29425 2.2742999999999998 -4.5485999999999995a0.5386500000000001 0.5386500000000001 0 0 0 -0.25935 -0.97755zm-27.93 -3.7506a5.16705 5.16705 0 0 1 -0.6783000000000001 3.0324c-0.97755 1.1172000000000002 -1.596 0.85785 -1.01745 -1.2369 0.399 -1.4763000000000002 0.1995 -4.52865 1.0773000000000001 -4.52865a0.6783000000000001 0.6783000000000001 0 0 1 0.4788 0.45885000000000004 5.985 5.985 0 0 1 0.21945 2.2742999999999998zm-5.985 2.6334000000000004a0.93765 0.93765 0 0 1 -1.49625 -0.5386500000000001c-0.61845 -1.17705 0.5586000000000001 -6.2643 1.995 -6.2643a0.8379 0.8379 0 0 1 0.61845 0.41895 17.775450000000003 17.775450000000003 0 0 0 -1.0773000000000001 6.384zm1.17705 -0.5985c0 -1.37655 0.4389 -5.7456000000000005 1.8354000000000001 -5.725650000000001a0.5586000000000001 0.5586000000000001 0 0 1 0.49875 0.29925c0.69825 1.1172000000000002 0 6.463800000000001 -1.0773000000000001 7.00245 -0.399 0.17955000000000002 -0.7182000000000001 0.1995 -0.9177000000000001 0a1.8354000000000001 1.8354000000000001 0 0 1 -0.29925 -1.5760500000000002zM118.48305 133.266c0 0.1995 1.0773000000000001 11.351550000000001 0.97755 11.97 -0.57855 3.4114500000000003 -2.77305 4.84785 -5.52615 6.8628 -0.37905 0.27930000000000005 -0.6384000000000001 0.15960000000000002 -1.17705 -0.1197 -0.1995 0 -9.097199999999999 -4.648350000000001 -11.3316 -5.985a7.261800000000001 7.261800000000001 0 0 1 -3.99 -4.9077c0.21945 -0.27930000000000005 0.17955000000000002 -0.27930000000000005 0.4788 -9.975000000000001a7.441350000000001 7.441350000000001 0 0 0 0.7581 -8.379000000000001 0.27930000000000005 0.27930000000000005 0 0 0 -0.25935 -0.15960000000000002c-3.2718 0.1197 -5.6857500000000005 -2.9127 -3.2718 -5.52615a3.29175 3.29175 0 0 1 4.8678 -0.21945c0.77805 0.7581 0.7381500000000001 1.49625 1.7556 2.6134500000000003 0 0 1.5361500000000001 1.6159500000000002 2.25435 1.1571s-1.2369 -2.89275 -1.0773000000000001 -6.5037c0 -1.09725 0 -1.995 0.6583500000000001 -2.5536000000000003s1.4763000000000002 -0.21945 2.65335 0.17955000000000002c4.6284 1.5760500000000002 5.8254 0.69825 10.852800000000002 -2.37405a30.962400000000002 30.962400000000002 0 0 0 7.16205 -5.187 38.1045 38.1045 0 0 1 1.995 11.5311c0.49875 6.2044500000000005 -0.41895 14.1645 -7.5411 16.797900000000002a0.5187 0.5187 0 0 0 -0.2394 0.77805zM90.3336 107.73c-0.57855 0.9177000000000001 -1.2369 1.995 -1.7955 3.0723000000000003a78.66285 78.66285 0 0 1 -3.3117 -7.3017c0.25935 0 0.399 -0.17955000000000002 0.7182000000000001 -0.27930000000000005a0.41895 0.41895 0 0 0 -0.33915000000000006 -0.77805 15.800400000000002 15.800400000000002 0 0 1 -3.29175 0.6384000000000001c0.21945 -6.9825 10.2942 -12.4488 16.93755 -14.0847a25.79535 25.79535 0 0 1 7.98 -0.17955000000000002A11.371500000000001 11.371500000000001 0 0 1 115.71000000000001 93.10665a17.955000000000002 17.955000000000002 0 0 0 -10.773000000000001 4.8877500000000005c-0.25935 0.2394 0 0.81795 0.49875 0.5586000000000001a23.0622 23.0622 0 0 1 11.0523 -4.32915c0.21945 0 0.5187 0 1.995 0.17955000000000002a7.98 7.98 0 0 1 3.7306500000000002 5.446350000000001c-3.89025 2.1745500000000004 -10.274250000000002 0.15960000000000002 -19.610850000000003 6.7431a64.49835 64.49835 0 0 0 -7.1421 6.8628c-5.985 6.1446000000000005 -4.44885 5.985 -5.426400000000001 9.4563 -2.7531 -4.32915 -2.37405 -9.75555 1.05735 -14.683200000000001a0.4788 0.4788 0 0 0 -0.7581 -0.49875zm-5.985 -21.206850000000003c3.8703000000000003 -1.37655 5.48625 -5.80545 1.45635 -8.0997a7.421400000000001 7.421400000000001 0 0 0 -6.1047 0.09975v-10.03485a34.4337 34.4337 0 0 1 5.845350000000001 0.5386500000000001 24.698100000000004 24.698100000000004 0 0 0 8.2593 -0.5187h7.20195C97.33605 73.47585 82.992 93.54555 79.80000000000001 98.15400000000001v-11.39145a8.47875 8.47875 0 0 0 4.6284 -0.1995zm-4.84785 -1.0773000000000001c-2.1147 -0.6783000000000001 -4.1496 -3.7306500000000002 0.6583500000000001 -5.7855a5.32665 5.32665 0 0 1 6.16455 0.85785c1.29675 1.6159500000000002 0 3.7306500000000002 -1.7955 4.56855a8.23935 8.23935 0 0 1 -4.9476 0.399zm0.29925 14.62335c1.1571 -1.45635 22.20435 -30.6432 23.042250000000003 -31.680600000000002a0.6583500000000001 0.6583500000000001 0 0 0 -0.7381500000000001 -1.01745c-1.995 -0.1197 -3.45135 -0.15960000000000002 -4.927650000000001 -0.1197a23.720550000000003 23.720550000000003 0 0 0 7.421400000000001 -7.60095c1.41645 0 13.546050000000001 0.15960000000000002 13.58595 0.15960000000000002L99.37095000000001 87.78a28.6482 28.6482 0 0 0 -11.431350000000002 5.187A16.53855 16.53855 0 0 0 81.795 100.2288l-1.8753 0.6583500000000001zm184.89660000000003 -3.5311500000000002c-5.16705 0 -10.453800000000001 0.13965000000000002 -15.561 0.1995 0.1197 -2.6733000000000002 0 -15.96 -0.1197 -18.9126 0 -0.37905 -5.12715 -8.5386 -5.48625 -9.0573 0 0 0 -0.17955000000000002 -2.5536000000000003 -0.17955000000000002 -2.1546000000000003 0 -14.30415 0.1995 -14.523600000000002 0.1995 0 -1.65585 0.27930000000000005 -19.750500000000002 0.29925 -20.7081 6.68325 0 36.5484 0.1995 37.905 0.1995 -0.61845 5.985 0.6783000000000001 37.266600000000004 0.07980000000000001 48.25905zm54.563250000000004 1.37655a11.97 11.97 0 0 1 2.4339 4.468800000000001c0.5985 2.29425 -0.1197 3.2319000000000004 -0.2394 8.3391a24.07965 24.07965 0 0 0 0.5985 7.5211500000000004c0.6783000000000001 2.13465 1.3167000000000002 2.4937500000000004 1.3167000000000002 3.99a15.96 15.96 0 0 1 -3.05235 7.16205c-3.1122 3.89025 -9.097199999999999 2.93265 -14.104650000000001 1.5760500000000002a92.2089 92.2089 0 0 0 2.4738 -8.99745c0.09975 -0.4788 0.4389 -0.5586000000000001 1.1571 -0.61845a7.98 7.98 0 0 0 5.36655 -2.394 3.591 3.591 0 0 0 -1.995 -6.16455c0.7581 -3.29175 1.05735 -6.643350000000001 -1.25685 -9.11715a4.807950000000001 4.807950000000001 0 0 0 -3.65085 -1.6758c-3.3316500000000002 0 -5.24685 3.3516 -7.60095 4.60845a13.965 13.965 0 0 1 -14.463750000000001 -1.3366500000000001c-1.09725 -0.93765 -1.995 -1.8553500000000003 -1.3566000000000003 -2.7132000000000005a24.63825 24.63825 0 0 1 11.8503 -10.2942c8.2194 -3.0723000000000003 16.8378 0.45885000000000004 22.563450000000003 5.64585zM301.12530000000004 89.775c-1.7955 -2.9127 -8.23935 -13.965 -10.6533 -17.157l27.770400000000002 -0.15960000000000002c0 3.99 0.45885000000000004 19.551000000000002 0.5386500000000001 23.241750000000003a26.234250000000003 26.234250000000003 0 0 0 -17.65575 -5.92515zm-9.39645 39.04215a10.51365 10.51365 0 0 1 -4.44885 -8.359050000000002c0 -3.99 1.09725 -8.0997 1.5361500000000001 -12.109650000000002a15.62085 15.62085 0 0 0 12.408900000000001 -0.29925c2.7531 -1.41645 4.56855 -4.8678 7.76055 -4.5087a4.6683 4.6683 0 0 1 3.3316500000000002 3.37155 13.46625 13.46625 0 0 1 -0.25935 6.5835 0.5985 0.5985 0 0 0 0.7182000000000001 0.7381500000000001c1.995 -0.41895 3.1521000000000003 2.0947500000000003 1.995 3.7107000000000006a6.28425 6.28425 0 0 1 -5.2867500000000005 2.5935 1.6758 1.6758 0 0 0 -1.6758 1.21695c-0.1995 0.69825 -1.596 6.763050000000001 -2.5137 9.316650000000001a0.35910000000000003 0.35910000000000003 0 0 0 -0.37905 0.45885000000000004 7.1421 7.1421 0 0 1 1.4364000000000001 4.987500000000001c-4.648350000000001 5.76555 -13.06725 5.266800000000001 -14.82285 1.45635a6.16455 6.16455 0 0 1 0.27930000000000005 -4.32915l0.2394 -0.77805c0.41895 -1.01745 1.01745 -2.93265 -0.31920000000000004 -4.00995zm-34.81275 1.7356500000000001c1.41645 0 26.4537 -0.17955000000000002 29.226750000000003 -0.29925h0.21945a15.6408 15.6408 0 0 0 -7.76055 5.40645c-1.49625 0 -13.186950000000001 1.8354000000000001 -17.25675 2.8329 -1.596 -2.4738 -2.793 -5.266800000000001 -4.4289000000000005 -7.900200000000001zm3.0324 8.398950000000001c-1.17705 0.29925 -2.4738 0.6384000000000001 -3.7306500000000002 0.9177000000000001 -0.25935 0 0 0.4788 0 -7.581 1.2768000000000002 2.2344000000000004 2.29425 4.5885 3.7306500000000002 6.7032zm20.728050000000003 -13.965a40.757850000000005 40.757850000000005 0 0 1 1.995 -5.985 103.74000000000001 103.74000000000001 0 0 0 3.13215 -12.30915 11.571 11.571 0 0 0 1.995 1.17705c-1.25685 9.4962 -4.20945 15.96 2.1745500000000004 21.16695a8.2992 8.2992 0 0 1 0.9576 0.93765c-2.73315 0.27930000000000005 -6.0648 -1.3366500000000001 -10.2543 -5.0074499999999995zm26.733 13.546050000000001a9.3366 9.3366 0 0 0 -0.29925 -5.8653 24.95745 24.95745 0 0 0 5.985 1.05735 6.5436 6.5436 0 0 1 1.995 6.5037c-1.1371499999999999 4.32915 -3.5311500000000002 4.8877500000000005 -10.6134 19.950000000000003 -2.5137 5.60595 -5.60595 11.23185 -6.9825 17.396400000000003 -1.6758 -16.239300000000004 8.4189 -31.939950000000003 9.91515 -39.0621zM283.8885 101.9445a2.2344000000000004 2.2344000000000004 0 0 0 0 2.9526000000000003l-99.47070000000001 0.6783000000000001v-7.561050000000001c5.48625 -0.1197 91.47075000000001 -0.41895 102.80235 -0.45885000000000004 -1.3965 1.7955 -3.0324 3.89025 -3.3316500000000002 4.389zm-36.0297 -5.24685c-12.90765 0.09975 -64.4385 -0.1995 -64.638 0s0 29.0073 0.1197 32.338950000000004H150.6225c0.1197 -31.66065 0 -31.740450000000003 0 -31.92s-0.17955000000000002 -0.17955000000000002 -2.89275 -0.17955000000000002v-18.45375c14.124600000000001 0 93.5655 -0.21945 100.0293 -0.37905 -0.05985 3.25185 -0.039900000000000005 16.119600000000002 0.09975 18.593400000000003zm-120.91695 13.346550000000002a28.0896 28.0896 0 0 0 -0.7381500000000001 -3.5511000000000004c3.5112 0 14.443800000000001 0.1995 17.8353 0.15960000000000002v22.563450000000003h-19.1121c3.4114500000000003 -5.08725 2.89275 -12.967500000000001 2.0149500000000002 -19.17195zm-1.1371499999999999 -4.8877500000000005c-0.1995 -0.5985 -0.41895 -1.21695 -0.6583500000000001 -1.8154500000000002a7.8603000000000005 7.8603000000000005 0 0 0 0.7381500000000001 -5.187c0.97755 0 19.950000000000003 0.15960000000000002 23.541000000000004 0.13965000000000002l-5.0274 7.0623000000000005c-3.3915 -0.1995 -15.341550000000002 -0.13965000000000002 -18.593400000000003 -0.1995zm20.60835 -7.98 -20.84775 -0.17955000000000002a0.29925 0.29925 0 0 0 -0.5586000000000001 0h-2.5536000000000003a6.32415 6.32415 0 0 0 -0.31920000000000004 -0.7182000000000001c0.15960000000000002 -4.52865 -0.15960000000000002 -45.72540000000001 -0.15960000000000002 -48.897450000000006 3.4713000000000003 0 31.92 0.37905 36.488550000000004 0.31920000000000004 -2.1745500000000004 5.3067 -12.109650000000002 30.10455 -12.109650000000002 30.383850000000002 0 2.5536000000000003 0.07980000000000001 17.01735 0.05985 19.072200000000002zm-22.1844 0.97755a6.6034500000000005 6.6034500000000005 0 0 1 -0.93765 1.01745c0 -0.25935 -0.21945 -0.6384000000000001 -0.35910000000000003 -1.01745zm-3.1521000000000003 -3.3915a6.40395 6.40395 0 0 0 -1.8154500000000002 -1.3167000000000002v-34.11450000000001a0.5586000000000001 0.5586000000000001 0 0 0 -0.4788 -0.798c-1.0773000000000001 -0.13965000000000002 -7.12215 -0.2394 -8.618400000000001 -0.25935v-6.28425c3.2119500000000003 -5.0074499999999995 5.386500000000001 -10.593449999999999 1.995 -15.96 -0.5985 -0.85785 -1.29675 -1.6758 -1.995 -2.45385 0 -1.995 0.09975 -4.6284 0.1197 -5.446350000000001H133.266c-1.995 2.89275 -12.428850000000002 18.2343 -12.428850000000002 18.5136 0 10.553550000000001 0.1197 40.358850000000004 0.2394 48.119400000000006zM89.63535 124.46805c-0.97755 2.85285 -1.995 2.97255 -3.7107000000000006 2.5935a0.29925 0.29925 0 0 0 -0.33915000000000006 0.41895 7.98 7.98 0 0 0 1.995 2.37405h-7.8603000000000005c-1.4763000000000002 -0.9576 -2.6932500000000004 -1.7356500000000001 -3.4713000000000003 -2.2742999999999998a32.059650000000005 32.059650000000005 0 0 1 10.9725 -8.758049999999999 12.78795 12.78795 0 0 0 2.4139500000000003 5.64585zm0 6.68325a7.182 7.182 0 0 0 3.49125 0.6384000000000001 1.995 1.995 0 0 1 -1.41645 1.5760500000000002 0.29925 0.29925 0 0 0 0 0.57855 4.189500000000001 4.189500000000001 0 0 0 5.107200000000001 -1.2768000000000002c-0.27930000000000005 7.98 0 7.381500000000001 -0.27930000000000005 7.421400000000001s-12.8877 -7.98 -15.042300000000001 -9.2568c1.8354000000000001 0.13965000000000002 6.12465 0.4389 8.039850000000001 0.31920000000000004zm34.45365 -0.69825c8.8977 0 66.05445 0.1995 74.01450000000001 0 -1.17705 2.93265 -2.2742999999999998 5.8653 -3.2718 8.857800000000001 -4.44885 -0.13965000000000002 -65.83500000000001 0.13965000000000002 -74.53320000000001 0.1995 -0.1995 -1.5162 -0.5386500000000001 -3.7905 -0.7182000000000001 -6.12465a10.91265 10.91265 0 0 0 4.40895 -2.93265zm134.40315 10.1745c3.7905 -1.1172000000000002 13.965 -2.6733000000000002 19.25175 -3.57105 -2.8329 4.12965 -10.533600000000002 22.743000000000002 -15.022350000000001 33.09705 0 -2.4738 0 -6.5037 -0.15960000000000002 -7.421400000000001 0.17955000000000002 -2.77305 -0.7182000000000001 -3.13215 -3.25185 -2.793a24.099600000000002 24.099600000000002 0 0 1 -15.920100000000001 -5.1471 92.0493 92.0493 0 0 1 5.64585 -16.49865c4.927650000000001 2.77305 5.16705 3.5311500000000002 9.356550000000002 2.33415zM261.345 161.595c0 0.1197 0 9.436350000000001 0.17955000000000002 11.31165 -1.8753 4.60845 -4.6284 9.8154 -5.7057 15.2019 0 -12.708150000000002 -0.1197 -24.2991 -0.13965000000000002 -27.07215 4.648350000000001 0.5586000000000001 5.6658 -0.5586000000000001 5.6658 0.5586000000000001zm-5.48625 38.8626a19.6308 19.6308 0 0 0 5.5461 7.76055c-1.6359 4.20945 -3.6708000000000003 9.47625 -5.64585 14.6433 -0.019950000000000002 -4.927650000000001 0 -13.38645 0 -22.44375zm1.3167000000000002 -12.66825c1.5361500000000001 -6.68325 4.9476 -12.927600000000002 7.5211500000000004 -19.231800000000003 10.453800000000001 -24.27915 11.032350000000001 -25.63575 12.5685 -28.448700000000002 1.3965 -2.45385 5.266800000000001 -8.2593 11.371500000000001 -8.937600000000002a7.5411 7.5411 0 0 0 2.6733000000000002 0c-0.25935 0.9975 -0.6384000000000001 1.995 -0.9576 3.3915 -10.792950000000001 6.6633000000000004 -17.17695 18.77295 -21.186899999999998 28.708050000000004 -0.85785 1.8553500000000003 -8.438850000000002 16.73805 -12.0897 24.478650000000002zm11.132100000000001 -8.67825a42.43365 42.43365 0 0 1 5.586 -22.7829c4.4887500000000005 -7.98 8.179499999999999 -14.204400000000001 16.219350000000002 -20.1495a4.3690500000000005 4.3690500000000005 0 0 0 0.57855 2.73315c2.29425 3.99 10.51365 4.768050000000001 15.5211 -0.17955000000000002 -1.2768000000000002 5.5461 -8.51865 18.294150000000002 -9.8154 30.922500000000003a86.28375 86.28375 0 0 0 5.446350000000001 31.92c-2.25435 0.21945 -4.468800000000001 0.5586000000000001 -6.643350000000001 0.7182000000000001a59.07195 59.07195 0 0 1 -26.2143 -5.0673c-0.85785 -8.857800000000001 -0.7381500000000001 -13.6857 -0.77805 -18.1545zm-33.915 -137.8545c-6.56355 0 -8.83785 -0.1995 -8.83785 0.49875 0 1.45635 -0.1197 25.137 0 27.07215h-20.1096c0 -3.13215 0 -27.052200000000003 -0.13965000000000002 -27.3315a0.31920000000000004 0.31920000000000004 0 0 0 -0.21945 0c-1.45635 0 -60.867450000000005 -0.25935 -64.9173 -0.35910000000000003v-12.74805c5.586 0 85.24634999999999 0.33915000000000006 94.24380000000001 -0.13965000000000002 -0.05985 4.32915 -0.05985 8.718150000000001 -0.05985 12.967500000000001zm-29.925 27.63075c-8.718150000000001 0 -31.58085 -0.15960000000000002 -35.650650000000006 -0.21945 -0.4788 -4.16955 0.57855 -10.6533 0.29925 -19.950000000000003 5.426400000000001 -0.13965000000000002 34.0347 -0.45885000000000004 35.3514 -0.49875 -0.1197 0.7182000000000001 -0.15960000000000002 18.69315 -0.1197 20.6283zm29.925 -44.82765v3.0922500000000004c-7.98 0.29925 -93.66525000000001 0.25935 -94.52310000000001 0.25935 -0.2394 0 -0.33915000000000006 0 -9.0573 14.4039a0.29925 0.29925 0 0 0 0.25935 0.45885000000000004c2.8329 0 67.83 0.29925 73.37610000000001 0.21945v4.7481c-3.65085 0 -33.73545 0.2394 -35.650650000000006 0.27930000000000005 -0.6384000000000001 0 -4.349100000000001 10.533600000000002 -5.16705 13.58595C161.595 67.83 160.39800000000002 69.1866 160.65735 69.56565a0.33915000000000006 0.33915000000000006 0 0 0 0.2394 0.13965000000000002c10.63335 0.15960000000000002 74.7726 0.15960000000000002 81.69525000000002 0 0.97755 1.37655 3.7905 6.1446000000000005 4.7082 7.64085 -9.59595 -0.17955000000000002 -90.15405 0.15960000000000002 -99.41085 0.21945 1.05735 -2.6134500000000003 11.6508 -29.605800000000002 11.97 -30.204300000000003a0.57855 0.57855 0 0 0 0 -0.4788c-0.33915000000000006 -0.41895 1.5760500000000002 -0.09975 -37.32645 -0.61845 3.99 -5.985 8.2194 -12.2094 12.428850000000002 -18.2742a0.5985 0.5985 0 0 0 -0.7381500000000001 -0.89775s-16.93755 -0.1197 -24.03975 -0.25935c-0.1995 0 -0.21945 0 -2.394 2.9925 -1.1371499999999999 -2.45385 -0.31920000000000004 -3.3316500000000002 -1.197 -5.80545 18.49365 0.1197 116.9469 0.15960000000000002 127.6401 -0.07980000000000001zm-172.3281 44.4885a0.61845 0.61845 0 0 0 -0.798 0.25935 17.25675 17.25675 0 0 1 -14.364 10.0947c-7.341600000000001 0.29925 -14.423850000000002 -6.423900000000001 -13.546050000000001 -13.82535a6.5037 6.5037 0 0 0 0 -2.77305c-0.85785 -2.2742999999999998 -2.81295 -3.6708000000000003 -3.99 -5.885250000000001 -3.99 -7.60095 -1.09725 -17.6757 7.421400000000001 -20.68815 0.27930000000000005 0 1.1172000000000002 -0.399 1.197 -1.17705a9.975000000000001 9.975000000000001 0 0 0 -1.01745 -2.8728000000000002c-1.995 -4.4289000000000005 0.15960000000000002 -9.975000000000001 3.6708000000000003 -13.326600000000001a0.6783000000000001 0.6783000000000001 0 0 0 0.15960000000000002 -0.27930000000000005C46.98225 12.408900000000001 61.166700000000006 9.975000000000001 69.5457 13.206900000000001c3.4713000000000003 1.29675 5.985 4.7481 9.775500000000001 4.927650000000001s6.822900000000001 -3.0124500000000003 10.553550000000001 -3.0124500000000003a9.8154 9.8154 0 0 1 6.6234 2.4937500000000004c0.41895 0.41895 0.81795 0.85785 1.197 1.2768000000000002A8.1396 8.1396 0 0 0 101.86470000000001 21.945c2.97255 1.1371499999999999 3.4314 1.8354000000000001 3.7107000000000006 4.6683a11.07225 11.07225 0 0 0 2.73315 6.6633000000000004 19.77045 19.77045 0 0 1 3.99 5.7456000000000005c1.596 5.3067 -1.596 10.274250000000002 -5.0074499999999995 14.882700000000002 -4.9077 6.6633000000000004 -7.12215 10.453800000000001 -10.892700000000001 12.4488 -4.468800000000001 2.3541 -9.675749999999999 1.65585 -14.62335 0.9576 -3.5511000000000004 -0.4788 -5.32665 1.3965 -8.119650000000002 2.2742999999999998a15.96 15.96 0 0 1 -11.59095 -1.0374zm4.9476 2.65335a19.950000000000003 19.950000000000003 0 0 0 11.6109 -2.4738C60.388650000000005 91.0119 45.4461 115.71000000000001 33.1569 129.675c-0.15960000000000002 0.17955000000000002 -0.09975 0.4389 0.27930000000000005 0.4788h14.842800000000002a27.79035 27.79035 0 0 0 2.4139500000000003 9.2568c-4.12965 -0.13965000000000002 -37.42620000000001 -0.35910000000000003 -38.88255 -0.37905 5.107200000000001 -6.04485 50.673 -62.224050000000005 55.20165000000001 -67.83zM11.4114 276.56685c0 -10.63335 -0.33915000000000006 -129.23610000000002 -0.35910000000000003 -136.07895 3.3117 0 37.905 0.27930000000000005 40.19925 0.21945 4.8877500000000005 10.1745 12.46875 16.3989 16.9974 29.925a65.49585 65.49585 0 0 1 2.8329 25.037250000000004c-0.6384000000000001 8.977500000000001 -7.04235 37.905 -7.102200000000001 39.12195 0 1.995 3.7506 4.8279000000000005 6.2244 6.32415 -1.41645 11.152050000000001 -2.7531 22.643250000000002 -3.99 34.314 -13.4862 0.25935 -49.45605 1.05735 -54.80265 1.1371499999999999zM78.20400000000001 385.035a2.1945 2.1945 0 0 1 -1.2768000000000002 1.8154500000000002c-4.9476 1.4763000000000002 -16.49865 -0.09975 -19.01235 -0.6384000000000001 -2.1546000000000003 -0.33915000000000006 -5.24685 -1.37655 -3.6708000000000003 -2.6733000000000002 1.0374 -0.81795 5.0274 -3.0922500000000004 6.24435 -3.89025 0.21945 0.27930000000000005 1.995 2.2344000000000004 1.995 2.2344000000000004 0.33915000000000006 0.4788 1.09725 0 0.7581 -0.5586000000000001l-1.69575 -2.4738 1.0374 -0.7581c0.25935 0.31920000000000004 1.8553500000000003 2.1546000000000003 1.995 2.2742999999999998 0.399 0.5386500000000001 1.197 -0.09975 0.798 -0.61845 0 0 -1.5361500000000001 -2.37405 -1.6159500000000002 -2.4738l1.65585 -0.89775a13.8054 13.8054 0 0 0 12.90765 3.1521000000000003 16.9974 16.9974 0 0 1 -0.1197 5.5062zm1.1172000000000002 -10.453800000000001a13.605900000000002 13.605900000000002 0 0 0 -1.25685 3.99 12.289200000000001 12.289200000000001 0 0 1 -11.690700000000001 -2.73315l-0.49875 -0.399c-0.13965000000000002 -1.3965 -0.29925 -4.32915 -0.29925 -5.3466000000000005 2.8329 0.35910000000000003 11.97 1.1371499999999999 14.90265 1.197a15.461250000000001 15.461250000000001 0 0 1 -1.1571 3.192zm7.6608 -77.10675c-3.3316500000000002 13.546050000000001 -4.2693 12.847800000000001 -11.67075 10.433850000000001a15.3216 15.3216 0 0 1 -6.802950000000001 -3.3915c-0.81795 -0.8778 -1.8553500000000003 -4.8877500000000005 0.41895 -21.745500000000003a61.5657 61.5657 0 0 0 4.309200000000001 7.98 2.1745500000000004 2.1745500000000004 0 0 0 2.4738 0c1.1371499999999999 -0.49875 6.962550000000001 -3.3117 9.4563 -4.5485999999999995 -0.49875 2.8728000000000002 -3.4713000000000003 14.543550000000002 -4.12965 17.25675a0.45885000000000004 0.45885000000000004 0 0 0 0.85785 0.33915000000000006c0.13965000000000002 -0.1995 4.309200000000001 -15.30165 4.3690500000000005 -18.373950000000004a0.4788 0.4788 0 0 0 -0.69825 -0.41895c-1.995 0.9177000000000001 -10.2543 4.6683 -10.75305 4.8678s-0.85785 0 -1.21695 -0.5985c-1.69575 -3.0324 -3.25185 -6.12465 -4.3690500000000005 -8.51865 0.8379 -5.76555 6.72315 -3.0124500000000003 11.97 -0.5386500000000001 2.65335 1.2369 5.5461 2.45385 6.6234 3.99 0.6583500000000001 0.7381500000000001 1.7955 2.4937500000000004 -0.8379 13.167zm41.6955 75.81c-2.2144500000000003 2.89275 -2.2344000000000004 2.57355 -2.2344000000000004 2.89275a0.4389 0.4389 0 0 0 0.7581 0.31920000000000004 26.0946 26.0946 0 0 0 2.33415 -2.25435c0.4389 0.5187 0.89775 1.05735 1.3965 1.596a15.341550000000002 15.341550000000002 0 0 1 -1.995 1.7356500000000001c-0.5586000000000001 0.29925 0 1.1371499999999999 0.49875 0.85785s1.8553500000000003 -1.2369 2.45385 -1.6758c3.77055 3.4314 5.0074499999999995 4.24935 4.8678 5.0274 0 0.35910000000000003 -0.5586000000000001 0.5985 -0.9177000000000001 0.7182000000000001a21.945 21.945 0 0 1 -6.9426000000000005 0.15960000000000002 59.43105 59.43105 0 0 1 -12.428850000000002 -1.995c-1.65585 -0.399 -3.7107000000000006 -0.89775 -3.8304 -2.6334000000000004a14.1645 14.1645 0 0 1 1.1172000000000002 -5.76555 12.66825 12.66825 0 0 0 13.0872 -0.4389c0.21945 -0.09975 1.1571 0.69825 1.8354000000000001 1.4364000000000001zm-1.995 -2.6932500000000004a11.75055 11.75055 0 0 1 -12.5685 0.5187 39.7005 39.7005 0 0 0 0 -7.5411c3.7306500000000002 1.5561 11.55105 1.5162 14.70315 1.65585 -0.798 1.596 -1.5162 3.3915 -2.2144500000000003 5.3466000000000005zm19.950000000000003 -129.675c-13.765500000000001 7.6209 -37.40625 12.1695 -57.855000000000004 4.40895a125.04660000000001 125.04660000000001 0 0 0 -3.37155 -13.90515 0.31920000000000004 0.31920000000000004 0 0 0 -0.5386500000000001 0l-7.4613000000000005 11.351550000000001c-1.0374 -0.31920000000000004 -3.65085 -1.2768000000000002 -5.32665 -1.995a29.366400000000002 29.366400000000002 0 0 1 -6.483750000000001 -4.9077 16.897650000000002 16.897650000000002 0 0 1 0.8778 -6.483750000000001l0.6583500000000001 -3.0124500000000003a20.209350000000004 20.209350000000004 0 0 0 12.847800000000001 7.24185c0.49875 0 0.6783000000000001 -1.1371499999999999 0 -1.2768000000000002a20.7081 20.7081 0 0 1 -12.628350000000001 -7.720650000000001v-0.21945c5.426400000000001 -24.67815 10.533600000000002 -47.9997 -8.398950000000001 -73.35615000000001 -3.6109500000000003 -5.187 -7.36155 -10.533600000000002 -8.91765 -16.73805 1.8553500000000003 -1.995 8.738100000000001 -7.840350000000001 21.945 -6.9426000000000005a0.57855 0.57855 0 0 0 0 -1.1371499999999999c-13.765500000000001 -1.3366500000000001 -20.7081 4.788 -22.383900000000004 6.56355a18.9525 18.9525 0 0 1 9.615900000000002 -20.16945A38.2242 38.2242 0 0 1 64.51830000000001 109.72500000000001a19.950000000000003 19.950000000000003 0 0 1 14.2842 11.191950000000002 0.45885000000000004 0.45885000000000004 0 1 0 0.798 -0.41895 20.767950000000003 20.767950000000003 0 0 0 -13.0074 -11.690700000000001 104.03925000000001 104.03925000000001 0 0 0 12.66825 -6.28425c0.6583500000000001 -0.1995 1.21695 -0.41895 1.995 -0.7182000000000001a8.8179 8.8179 0 0 0 0 1.995 0.5586000000000001 0.5586000000000001 0 0 0 0.57855 0.5586000000000001 10.573500000000001 10.573500000000001 0 0 0 2.3541 -0.399 45.705450000000006 45.705450000000006 0 0 0 3.99 7.98 11.152050000000001 11.152050000000001 0 0 0 -1.01745 5.48625 32.5983 32.5983 0 0 0 -12.289200000000001 9.775500000000001 0.6583500000000001 0.6583500000000001 0 0 0 0 0.9975c2.6932500000000004 1.995 4.987500000000001 3.5511000000000004 7.1421 4.987500000000001 -7.840350000000001 1.995 -17.0373 7.48125 -20.089650000000002 16.93755a0.57855 0.57855 0 0 0 1.09725 0.33915000000000006c3.3516 -10.214400000000001 14.124600000000001 -14.463750000000001 20.3091 -16.079700000000003 1.0773000000000001 0.57855 7.8204 4.52865 11.3316 6.2643a38.1843 38.1843 0 0 0 -22.264200000000002 25.935000000000002 0.5985 0.5985 0 0 0 1.1571 0.31920000000000004 35.251650000000005 35.251650000000005 0 0 1 5.187 -11.371500000000001c13.965 11.371500000000001 34.79280000000001 13.346550000000002 49.875 4.6683a0.4788 0.4788 0 0 0 0 -0.8379 0.399 0.399 0 0 0 -0.41895 0 45.885000000000005 45.885000000000005 0 0 1 -48.71790000000001 -4.9476 38.2641 38.2641 0 0 1 16.81785 -12.768 7.6608 7.6608 0 0 0 3.1720500000000005 4.8877500000000005c1.0374 0.77805 12.608400000000001 6.72315 13.0473 6.9426000000000005a1.596 1.596 0 0 0 1.4364000000000001 0.17955000000000002 20.1495 20.1495 0 0 0 5.3067 -4.56855 7.840350000000001 7.840350000000001 0 0 0 1.2369 -6.1047 32.9574 32.9574 0 0 1 19.73055 9.576c8.937600000000002 8.5386 13.546050000000001 27.052200000000003 15.700650000000001 36.0696 -0.1197 4.1496 -2.57355 9.55605 -7.00245 11.172a0.57855 0.57855 0 0 0 0.33915000000000006 1.09725c4.7481 -1.5561 7.5411 -7.00245 7.8603000000000005 -11.55105 4.20945 2.13465 15.30165 7.04235 17.057250000000003 7.98a7.98 7.98 0 0 1 3.8304 3.3915c1.2369 2.6733000000000002 0.15960000000000002 5.8653 -0.9975 8.6583 -0.31920000000000004 0.77805 -0.6783000000000001 1.5760500000000002 -1.45635 1.8154500000000002a103.28115000000001 103.28115000000001 0 0 1 -11.132100000000001 0.8778 15.501149999999999 15.501149999999999 0 0 0 4.2294 -6.1446000000000005c0.7581 -1.7955 2.7531 -6.56355 -0.15960000000000002 -8.5785 -0.41895 -0.27930000000000005 -0.93765 0.1995 -0.57855 0.7381500000000001 1.995 1.7556 0.5985 5.2867500000000005 -0.5985 7.8004500000000005a12.5685 12.5685 0 0 1 -5.426400000000001 6.364050000000001 33.3564 33.3564 0 0 1 -13.167 -0.9975 0.4788 0.4788 0 0 0 -0.13965000000000002 -0.31920000000000004c-0.85785 -10.95255 -1.37655 -14.0847 -1.6758 -16.85775 -0.5985 -5.7855 -2.1745500000000004 -21.16695 -12.46875 -42.772800000000004 -0.27930000000000005 -0.5586000000000001 -1.1172000000000002 0 -0.85785 0.45885000000000004a155.23095 155.23095 0 0 1 8.398950000000001 23.2617c-18.7929 16.29915 -41.47605 17.1171 -67.45095 2.4139500000000003a0.6384000000000001 0.6384000000000001 0 0 0 -0.61845 1.09725 79.02195 79.02195 0 0 0 29.10705 10.573500000000001c13.346550000000002 1.995 28.069650000000003 -2.6334000000000004 39.48105 -12.5685a119.97930000000001 119.97930000000001 0 0 1 3.2718 21.945A58.19415000000001 58.19415000000001 0 0 1 89.376 209.47500000000002a65.51580000000001 65.51580000000001 0 0 1 -15.361500000000001 -7.7007c-0.4788 -0.33915000000000006 -0.9576 0.4389 -0.49875 0.7381500000000001a58.09440000000001 58.09440000000001 0 0 0 72.79755 -2.57355c0.5187 5.0673 1.37655 17.955000000000002 1.49625 20.767950000000003a71.08185 71.08185 0 0 1 -59.55075000000001 12.1296c-0.77805 -0.21945 -1.01745 0.9975 -0.31920000000000004 1.09725a69.027 69.027 0 0 0 59.85 -11.75055c0.1197 2.7132000000000005 0.29925 10.4139 0.399 12.78795a9.655800000000001 9.655800000000001 0 0 1 -1.5561 5.8653zm33.37635 -37.6257a6.56355 6.56355 0 0 0 5.76555 -1.6758l0.57855 -0.45885000000000004c0.5586000000000001 -0.41895 0.77805 -0.399 0.57855 0.35910000000000003a3.25185 3.25185 0 0 1 -1.29675 1.6758c-0.8778 0.7381500000000001 -0.6583500000000001 1.2369 -0.21945 1.37655a12.847800000000001 12.847800000000001 0 0 1 7.20195 4.987500000000001c0.35910000000000003 0.4788 0.81795 0.8379 0.89775 1.25685 0.13965000000000002 0.7182000000000001 0 0.85785 -0.7182000000000001 0.4389s-2.45385 -1.89525 -2.6932500000000004 -1.995a0.399 0.399 0 0 0 -0.45885000000000004 0.6384000000000001c0.9975 0.9576 5.3466000000000005 3.99 3.99 5.0673s-3.6907500000000004 -1.995 -4.5087 -2.65335a0.37905 0.37905 0 0 0 -0.4788 0 0.399 0.399 0 0 0 0 0.5586000000000001c0.7182000000000001 0.81795 2.8329 2.89275 3.0922500000000004 3.25185a0.5586000000000001 0.5586000000000001 0 0 1 -0.31920000000000004 0.9576c-0.77805 0.1995 -1.5561 -0.6783000000000001 -2.1945 -1.17705a30.4836 30.4836 0 0 0 -11.132100000000001 -5.426400000000001 17.775450000000003 17.775450000000003 0 0 0 1.9152 -7.261800000000001zM195.51000000000002 274.79130000000004c-13.426350000000001 0.15960000000000002 -40.179300000000005 0.45885000000000004 -47.88 0.4389 0.6384000000000001 -12.109650000000002 0.7381500000000001 -23.6607 0.25935 -33.915 1.8354000000000001 -2.73315 1.7955 -5.725650000000001 1.65585 -9.2169 -0.17955000000000002 -4.6284 -0.7182000000000001 -16.9974 -0.8778 -19.950000000000003a34.5534 34.5534 0 0 0 13.645800000000001 1.0773000000000001c3.6309000000000005 -0.25935 12.1296 -0.798 13.14705 -0.9975a3.0324 3.0324 0 0 0 1.995 -1.17705 30.084600000000002 30.084600000000002 0 0 1 11.351550000000001 5.566050000000001 4.12965 4.12965 0 0 0 2.2344000000000004 1.1371499999999999 1.65585 1.65585 0 0 0 1.8154500000000002 -1.7955c1.89525 0.4389 3.25185 -1.5162 1.25685 -3.6109500000000003a1.5561 1.5561 0 0 0 0.5386500000000001 -1.995 31.8003 31.8003 0 0 0 -2.37405 -2.97255 13.7256 13.7256 0 0 0 -5.5062 -3.6708000000000003c2.45385 -1.7755500000000002 1.41645 -4.389 -0.17955000000000002 -3.8304 -0.6583500000000001 0.2394 -2.77305 1.8354000000000001 -3.3117 1.995a5.60595 5.60595 0 0 1 -3.2718 0.2394c-0.5386500000000001 -3.77055 -3.99 -5.426400000000001 -7.1421 -6.882750000000001 -4.8279000000000005 -2.2742999999999998 -13.22685 -6.24435 -15.441300000000002 -7.1421a106.8921 106.8921 0 0 0 -8.359050000000002 -25.4961c-5.04735 -9.615900000000002 -15.102150000000002 -20.129550000000002 -28.588350000000002 -20.9475l-0.1197 -0.9576h73.9347a140.6475 140.6475 0 0 0 -6.463800000000001 54.42360000000001 0.2394 0.2394 0 0 0 0 0.1995A23.421300000000002 23.421300000000002 0 0 0 195.51000000000002 199.5c-0.4389 11.0124 -0.27930000000000005 69.825 0 75.2913zm-6.5835 -79.97955000000002a142.84199999999998 142.84199999999998 0 0 1 11.0922 -65.67540000000001 24.99735 24.99735 0 0 1 3.25185 -0.69825c1.29675 -0.15960000000000002 8.698200000000002 -0.9576 11.790450000000002 -0.9975a4.468800000000001 4.468800000000001 0 0 0 0.69825 4.12965 2.1745500000000004 2.1745500000000004 0 0 0 2.2742999999999998 0.33915000000000006 1.8154500000000002 1.8154500000000002 0 0 0 2.7132000000000005 0.4389 1.995 1.995 0 0 0 2.9127 -0.25935 6.2044500000000005 6.2044500000000005 0 0 0 1.197 -3.99c8.758049999999999 -0.7381500000000001 17.33655 2.1945 25.7754 4.68825A89.27625 89.27625 0 0 0 240.35760000000002 187.53a41.39625 41.39625 0 0 1 0.4389 10.533600000000002c-8.4588 2.97255 -18.1146 3.99 -30.383850000000002 2.8728000000000002 -6.40395 -0.41895 -14.62335 -1.5760500000000002 -21.48615 -6.12465zm7.4014500000000005 20.3091c0 -5.0673 0.29925 -10.194450000000002 0.4788 -15.162 11.810400000000001 3.77055 34.0746 3.7107000000000006 44.76780000000001 -0.85785a0.5386500000000001 0.5386500000000001 0 0 0 0.37905 -0.6384000000000001c1.1371499999999999 -4.52865 -0.1197 -9.3765 -0.5985 -13.82535a88.4184 88.4184 0 0 1 1.7157 -28.408800000000003 25.6158 25.6158 0 0 0 11.3316 4.6284c0.1995 8.67825 0.1995 50.333850000000005 0.15960000000000002 54.3039 -15.162 0.15960000000000002 -52.80765 0.05985 -58.23405 -0.039900000000000005zm87.52065 59.85a30.90255 30.90255 0 0 1 -28.348950000000002 -2.7132000000000005 88.35855000000001 88.35855000000001 0 0 1 -0.798 -20.28915 43.89 43.89 0 0 0 5.985 1.8753 133.02660000000003 133.02660000000003 0 0 0 14.563500000000001 1.6159500000000002c0.1197 1.4763000000000002 0.15960000000000002 1.29675 0.21945 1.995s0.1995 2.3142 1.37655 2.81295a50.85255 50.85255 0 0 0 6.32415 0.5386500000000001c0.29925 1.995 0.7581 4.84785 1.2768000000000002 7.60095a45.1668 45.1668 0 0 1 -0.5985 6.5835zM311.1003 333.165a1.3566000000000003 1.3566000000000003 0 0 1 -1.37655 1.3965 1.4364000000000001 1.4364000000000001 0 1 1 1.41645 -1.3965zm-6.8628 -18.373950000000004a1.41645 1.41645 0 1 1 2.81295 -0.09975 1.41645 1.41645 0 0 1 -2.81295 0.07980000000000001zm3.1122 -13.78545a1.4364000000000001 1.4364000000000001 0 0 1 2.85285 0 1.4364000000000001 1.4364000000000001 0 0 1 -2.85285 -0.019950000000000002zm11.97 82.65285c-1.0374 0.2394 -2.57355 0.5187 -4.2693 0.798a3.8703000000000003 3.8703000000000003 0 0 0 0 -1.17705 30.30405 30.30405 0 0 0 4.5087 -0.9576 2.5137 2.5137 0 0 1 -0.35910000000000003 1.3167000000000002zm-9.975000000000001 1.596a2.37405 2.37405 0 0 1 -0.399 -1.1172000000000002l5.16705 -0.69825a2.37405 2.37405 0 0 1 -0.1197 1.197c-1.6359 0.21945 -3.25185 0.399 -4.768050000000001 0.5985zm9.196950000000001 -4.8279000000000005h0.1197a1.4364000000000001 1.4364000000000001 0 0 1 0.7381500000000001 0.8778 35.61075 35.61075 0 0 1 -4.5485999999999995 0.9576 7.16205 7.16205 0 0 0 -0.49875 -1.05735c1.3965 -0.15960000000000002 2.85285 -0.4788 4.0698 -0.798zm-5.24685 0.9975a10.51365 10.51365 0 0 1 0.5386500000000001 1.0374l-4.9077 0.6783000000000001a10.274250000000002 10.274250000000002 0 0 1 0.1197 -1.2369c1.197 -0.1197 2.6733000000000002 -0.27930000000000005 4.16955 -0.49875zm-9.196950000000001 0.6583500000000001a31.66065 31.66065 0 0 0 3.99 0c0 0.41895 -0.09975 0.85785 -0.1197 1.2768000000000002a25.695600000000002 25.695600000000002 0 0 1 -3.99 0.21945 7.7805 7.7805 0 0 1 0 -1.5162zm-3.4114500000000003 -0.7581a3.99 3.99 0 0 0 2.394 0.7182000000000001 8.59845 8.59845 0 0 0 -0.15960000000000002 1.3566000000000003 3.49125 3.49125 0 0 1 -2.394 -1.17705 3.81045 3.81045 0 0 1 0.039900000000000005 -0.9177000000000001zm0 2.4139500000000003a6.56355 6.56355 0 0 0 2.2144500000000003 0.6783000000000001 4.389 4.389 0 0 0 0.31920000000000004 1.197 2.89275 2.89275 0 0 1 -2.5935 -1.89525zm3.7107000000000006 1.995a2.73315 2.73315 0 0 1 -0.4788 -1.1571 24.099600000000002 24.099600000000002 0 0 0 3.99 -0.21945 3.99 3.99 0 0 0 0.31920000000000004 1.09725c-1.5561 0.05985 -2.89275 0.15960000000000002 -3.89025 0.17955000000000002zm16.079700000000003 -2.33415a3.99 3.99 0 0 0 0 -1.3167000000000002 8.4987 8.4987 0 0 0 2.2144500000000003 -1.1172000000000002 3.7506 3.7506 0 0 1 -2.2742999999999998 2.33415zm2.5137 -5.0673v0.7581a4.3690500000000005 4.3690500000000005 0 0 1 -2.73315 1.995 2.8329 2.8329 0 0 0 -0.61845 -0.97755 7.98 7.98 0 0 0 3.29175 -1.8753zm-3.1521000000000003 -14.94255c0.9177000000000001 3.99 1.65585 7.281750000000001 2.37405 10.4937s-1.29675 4.9476 -4.349100000000001 5.6259a5.985 5.985 0 0 1 3.29175 -4.7082 0.4788 0.4788 0 1 0 -0.27930000000000005 -0.89775 7.102200000000001 7.102200000000001 0 0 0 -4.16955 5.8254 50.1144 50.1144 0 0 1 -10.433850000000001 1.05735c-2.81295 0 -4.8678 0 -5.187 -0.5386500000000001a19.950000000000003 19.950000000000003 0 0 1 4.40895 -5.985c2.0947500000000003 0.31920000000000004 3.99 2.53365 5.386500000000001 1.995 1.05735 -0.41895 0.89775 -1.6359 1.2768000000000002 -2.3142s1.3167000000000002 -0.7381500000000001 1.3167000000000002 -2.4937500000000004a3.3915 3.3915 0 0 0 -0.35910000000000003 -1.89525 2.53365 2.53365 0 0 0 -1.5561 -1.01745c-0.798 -0.17955000000000002 -3.57105 -0.61845 -4.648350000000001 -0.77805 -0.45885000000000004 -2.53365 -1.45635 -4.967550000000001 -0.35910000000000003 -7.16205a3.4713000000000003 3.4713000000000003 0 0 1 2.1745500000000004 -1.7157 1.6159500000000002 1.6159500000000002 0 0 1 1.41645 0.4788 5.6658 5.6658 0 0 1 1.2369 2.97255 22.4238 22.4238 0 0 0 1.37655 3.7306500000000002 4.987500000000001 4.987500000000001 0 0 0 4.20945 0.8379 5.985 5.985 0 0 0 2.81295 -3.6109500000000003zm-12.82785 5.386500000000001c1.05735 0.1995 4.4887500000000005 0.798 4.84785 1.01745a1.6159500000000002 1.6159500000000002 0 0 1 0.49875 1.41645 3.99 3.99 0 0 1 -0.41895 1.37655 11.0922 11.0922 0 0 0 -4.927650000000001 -1.995 5.985 5.985 0 0 0 -0.05985 -1.9152zm4.32915 4.7082a2.2144500000000003 2.2144500000000003 0 0 0 -0.399 0.9177000000000001c-0.27930000000000005 1.21695 -0.5187 1.09725 -1.09725 0.7381500000000001a20.48865 20.48865 0 0 0 -3.6109500000000003 -1.8354000000000001c0.1995 -0.4389 0.4788 -1.1172000000000002 0.61845 -1.49625a8.379000000000001 8.379000000000001 0 0 1 4.3690500000000005 1.5760500000000002zM313.614 343.14000000000004a1.4364000000000001 1.4364000000000001 0 0 1 2.85285 0 1.4364000000000001 1.4364000000000001 0 0 1 -2.85285 0zm2.81295 -26.573400000000003a1.45635 1.45635 0 0 1 -1.3965 1.4763000000000002 1.41645 1.41645 0 0 1 -1.41645 -1.4763000000000002 1.41645 1.41645 0 0 1 2.81295 -0.07980000000000001zm-2.1147 -42.11445a31.92 31.92 0 0 1 -26.83275 1.995c-0.7182000000000001 -2.7132000000000005 -2.57355 -12.289200000000001 -3.1122 -15.361500000000001a242.57205000000002 242.57205000000002 0 0 0 31.0821 -0.399 93.366 93.366 0 0 1 -1.1371499999999999 13.6857zm-36.36885 -15.3216c-0.5985 0 -0.6583500000000001 -0.4389 -0.7581 -1.197a177.35550000000003 177.35550000000003 0 0 1 -0.33915000000000006 -23.142 0.49875 0.49875 0 0 0 -0.97755 0c-0.61845 5.40645 -0.5386500000000001 17.17695 -0.4788 19.4313 -9.436350000000001 -0.8379 -19.371450000000003 -0.9975 -26.43375 -7.20195a1.3167000000000002 1.3167000000000002 0 0 1 -0.4389 -1.5361500000000001c0.13965000000000002 -0.4788 11.27175 -29.78535 14.9625 -39.381299999999996q0.69825 -1.4763000000000002 1.49625 -3.05235a11.2518 11.2518 0 0 1 3.49125 -4.4887500000000005 57.595650000000006 57.595650000000006 0 0 0 33.695550000000004 4.2294c1.1371499999999999 2.9526000000000003 2.4139500000000003 5.985 3.8703000000000003 8.977500000000001a11.491200000000001 11.491200000000001 0 0 0 -1.995 0.97755 1.5162 1.5162 0 0 0 0 2.5935 5.20695 5.20695 0 0 0 1.8354000000000001 0.29925c0 1.7755500000000002 2.1945 2.4339 3.99 1.995 0.1995 0.9576 1.5361500000000001 1.21695 2.53365 1.21695 3.5311500000000002 0 6.802950000000001 -2.2344000000000004 9.975000000000001 -6.84285a8.758049999999999 8.758049999999999 0 0 0 1.3566000000000003 0.69825c0.4389 0 0 0 4.8877500000000005 -3.99 2.8329 5.985 8.119650000000002 14.344050000000001 8.47875 20.84775a30.90255 30.90255 0 0 1 -0.93765 8.67825 22.80285 22.80285 0 0 1 -1.6159500000000002 5.586 35.511 35.511 0 0 0 -4.788 -5.985c-0.798 -0.89775 -13.027350000000002 -15.102150000000002 -15.96 -18.373950000000004a0.29925 0.29925 0 0 0 -0.49875 0.29925 90.07425 90.07425 0 0 1 4.987500000000001 23.760450000000002c0 0.2394 1.3167000000000002 10.693200000000001 1.6359 13.965 0 0.7182000000000001 0 0.97755 -0.399 1.09725a14.58345 14.58345 0 0 1 -1.995 0.31920000000000004 226.53225 226.53225 0 0 1 -39.5808 0.13965000000000002zm38.20425 16.73805c0.35910000000000003 -5.52615 0.61845 -11.3316 0.7381500000000001 -15.441300000000002 3.7107000000000006 -0.5586000000000001 4.9077 -0.4788 3.99 -4.8279000000000005 0 -0.5386500000000001 -0.97755 -8.83785 -1.25685 -11.172 3.7107000000000006 1.8553500000000003 10.214400000000001 4.5885 13.965 2.6334000000000004a11.27175 11.27175 0 0 0 3.7306500000000002 -7.740600000000001 56.0196 56.0196 0 0 0 1.1172000000000002 -8.379000000000001c-0.31920000000000004 -8.4588 -5.3466000000000005 -15.700650000000001 -8.977500000000001 -22.96245 6.1047 -5.1471 12.408900000000001 -9.55605 16.29915 -15.82035 4.16955 -6.72315 3.7107000000000006 -16.49865 -0.7381500000000001 -24.6582 -5.8254 -10.71315 -15.96 -18.4737 -25.695600000000002 -24.6582 13.0074 0 61.845000000000006 -0.81795 68.40855 -0.93765 0.09975 9.59595 0.4389 128.33835 0.5187 133.66500000000002 -9.615900000000002 0.15960000000000002 -62.9223 0.27930000000000005 -72.0993 0.21945z" stroke-width="1"></path></g></svg>