<svg xmlns="http://www.w3.org/2000/svg" viewBox="-0.5 -0.5 200 200"><g fill="#000000" fill-rule="evenodd"><path d="M84.62474999999999 86.75404999999999a0.80595 0.80595 0 0 0 -0.0796 0.16915000000000002 1.3731 1.3731 0 0 0 -0.059699999999999996 0.1592 0.80595 0.80595 0 0 0 0 0.1592v0.33830000000000005a0.33830000000000005 0.33830000000000005 0 0 0 0 0.11939999999999999 0.6965 0.6965 0 0 0 0.11939999999999999 0.17909999999999998 0.5671499999999999 0.5671499999999999 0 0 0 0.0995 0.10945 0.14925 0.14925 0 0 0 0.1592 0.12935 0.1393 0.1393 0 0 0 0.11939999999999999 -0.1592 0.5572 0.5572 0 0 0 0.0796 -0.12935 1.4925 1.4925 0 0 0 0.06965 -0.199 0.52735 0.52735 0 0 0 0 -0.12935 1.0845500000000001 1.0845500000000001 0 0 0 0 -0.17909999999999998v-0.1592a0.82585 0.82585 0 0 0 0 -0.14925 0.995 0.995 0 0 0 -0.08954999999999999 -0.14925 0.995 0.995 0 0 0 -0.12935 -0.1393 0.1393 0.1393 0 0 0 -0.1592 -0.12935 0.14925 0.14925 0 0 0 -0.12935 0.1592m1.26365 2.19895a1.24375 1.24375 0 0 0 -0.06965 0.20895 1.18405 1.18405 0 0 0 0 0.2189 1.32335 1.32335 0 0 0 0 0.199 1.2238499999999999 1.2238499999999999 0 0 0 0 0.199 1.4925 1.4925 0 0 0 0 0.23879999999999998 0.74625 0.74625 0 0 0 0 0.1592 1.16415 1.16415 0 0 0 0.12935 0.22885 0.995 0.995 0 0 0 0.10945 0.14925 0.1393 0.1393 0 1 0 0.2786 0 0.995 0.995 0 0 0 0.06965 -0.16915000000000002 1.42285 1.42285 0 0 0 0.059699999999999996 -0.2587 0.8557 0.8557 0 0 0 0 -0.1592 1.12435 1.12435 0 0 0 0 -0.24875v-0.199a1.0547 1.0547 0 0 0 -0.059699999999999996 -0.18905 1.0845500000000001 1.0845500000000001 0 0 0 -0.0995 -0.18905 0.995 0.995 0 0 0 -0.12935 -0.18905 0.1592 0.1592 0 0 0 -0.16915000000000002 -0.12935 0.14925 0.14925 0 0 0 -0.11939999999999999 0.16915000000000002m-0.9154 1.9303a0.995 0.995 0 0 0 -0.04975 0.22885 0.68655 0.68655 0 0 0 0 0.2189 0.74625 0.74625 0 0 0 0 0.199 1.4128999999999998 1.4128999999999998 0 0 0 0 0.199l0.059699999999999996 0.23879999999999998a0.995 0.995 0 0 0 0.06965 0.14925 2.35815 2.35815 0 0 0 0.14925 0.20895l0.12935 0.1393a0.14925 0.14925 0 0 0 0.16915000000000002 0.10945 0.14925 0.14925 0 0 0 0.10945 -0.17909999999999998 0.9352999999999999 0.9352999999999999 0 0 0 0 -0.17909999999999998 1.5820500000000002 1.5820500000000002 0 0 0 0 -0.2587 1.1044500000000002 1.1044500000000002 0 0 0 0 -0.16915000000000002v-0.23879999999999998l-0.0398 -0.18905a1.8109 1.8109 0 0 0 -0.0796 -0.18905 0.92535 0.92535 0 0 0 -0.11939999999999999 -0.17909999999999998 2.05965 2.05965 0 0 0 -0.14925 -0.17909999999999998 0.1393 0.1393 0 0 0 -0.17909999999999998 -0.0995 0.1393 0.1393 0 0 0 -0.0995 0.16915000000000002M93.36085 87.56a4.24865 4.24865 0 0 0 0.5174 0h0.199l0.28855 -0.059699999999999996a5.174 5.174 0 0 0 0.50745 -0.10945l0.33830000000000005 -0.0796 0.32835000000000003 -0.12935 0.2189 -0.08954999999999999a0.1393 0.1393 0 0 0 0.1592 -0.1393 0.14925 0.14925 0 0 0 -0.1393 -0.1592 2.37805 2.37805 0 0 0 -0.3184 -0.10945 1.26365 1.26365 0 0 0 -0.33830000000000005 0 2.1094 2.1094 0 0 0 -0.42785 0 3.1442 3.1442 0 0 0 -0.54725 0.12935 2.985 2.985 0 0 0 -0.35819999999999996 0.12935 2.1293 2.1293 0 0 0 -0.26865 0.1592 2.6865 2.6865 0 0 0 -0.26865 0.199 0.1592 0.1592 0 1 0 0.10945 0.28855m11.6813 -0.96515s0.2189 0 0.5671499999999999 0.08954999999999999h2.09945a0.8557 0.8557 0 0 1 0.28855 0 0.16915000000000002 0.16915000000000002 0 0 0 0.2189 0 0.1592 0.1592 0 0 0 0 -0.2189 1.2935 1.2935 0 0 0 -0.5174 -0.33830000000000005 0.995 0.995 0 0 0 -0.23879999999999998 -0.08954999999999999 2.985 2.985 0 0 0 -0.52735 -0.06965 5.373 5.373 0 0 0 -0.6965 0l-0.4577 0.06965a1.99 1.99 0 0 0 -0.36815 0.11939999999999999 2.55715 2.55715 0 0 0 -0.36815 0.14925 0.1592 0.1592 0 0 0 -0.12935 0.16915000000000002 0.1393 0.1393 0 0 0 0.16915000000000002 0.12935m-2.6865 2.7462s0 0.48755 0.0796 1.2139c0 0.35819999999999996 0.059699999999999996 0.76615 0.08954999999999999 1.2039499999999999s0.0796 0.796 0.11939999999999999 1.194 0.059699999999999996 0.8159 0.08954999999999999 1.194a9.2137 9.2137 0 0 1 0 1.393 2.3482 2.3482 0 0 1 0 0.30845 0.2985 0.2985 0 0 1 0 0.0995 1.393 1.393 0 0 1 -0.6766000000000001 0.4577 5.5322 5.5322 0 0 1 -1.42285 0.32835000000000003 0.14925 0.14925 0 0 0 -0.14925 0.1393 0.1393 0.1393 0 0 0 0.1393 0.1592 5.2138 5.2138 0 0 0 1.6119 -0.06965 2.09945 2.09945 0 0 0 1.04475 -0.5671499999999999 1.48255 1.48255 0 0 0 0.26865 -0.7761 9.22365 9.22365 0 0 0 0 -1.5124c0 -0.38805 -0.059699999999999996 -0.80595 -0.10945 -1.2238499999999999s-0.0995 -0.82585 -0.16915000000000002 -1.2139 -0.16915000000000002 -0.84575 -0.24875 -1.194c-0.16915000000000002 -0.7064499999999999 -0.2985 -1.18405 -0.2985 -1.18405a0.1592 0.1592 0 1 0 -0.30845 0m-1.26365 11.9798 0.58705 -0.2786 0.2189 -0.10945 0.30845 -0.18905 0.38805 -0.20895 0.38805 -0.199 0.34825 -0.18905a3.3432 3.3432 0 0 1 0.5373 -0.2587 0.14925 0.14925 0 0 0 0.1393 -0.1592 0.14925 0.14925 0 0 0 -0.1592 -0.1393 2.15915 2.15915 0 0 0 -0.8756 0 2.2685999999999997 2.2685999999999997 0 0 0 -0.5373 0.17909999999999998 4.58695 4.58695 0 0 0 -0.64675 0.3781 2.77605 2.77605 0 0 0 -0.6666500000000001 0.6169c-0.1592 0.2189 -0.23879999999999998 0.34825 -0.23879999999999998 0.34825a0.16915000000000002 0.16915000000000002 0 0 0 0 0.2189 0.1592 0.1592 0 0 0 0.2189 0" stroke-width="1"></path><path d="M47.978899999999996 163.18v-0.4577a19.4622 19.4622 0 0 1 0.5572 -6.0894 64.50585 64.50585 0 0 1 5.4526 -13.93l-1.5820500000000002 -0.32835000000000003c12.60665 -26.13865 38.3473 -29.481849999999998 41.58105 -29.85l0.38805 -6.23865a12.4773 12.4773 0 0 1 -4.6964 -2.8059 14.41755 14.41755 0 0 1 -2.5074 -3.2636 2.4476999999999998 2.4476999999999998 0 0 1 -1.1741 0.8756 2.1691000000000003 2.1691000000000003 0 0 1 -0.82585 0.12935 1.88055 1.88055 0 0 1 -1.9303 -1.88055 2.37805 2.37805 0 0 1 0.23879999999999998 -0.995 4.5272499999999996 4.5272499999999996 0 0 1 -1.1542 -1.0547 4.64665 4.64665 0 0 1 -0.995 -3.33325 2.0696 2.0696 0 0 1 0.76615 -1.42285 1.8904999999999998 1.8904999999999998 0 0 1 1.6119 -0.4179 1.6218499999999998 1.6218499999999998 0 0 1 0.5771 0.26865c-0.10945 -0.6766000000000001 -0.20895 -1.40295 -0.28855 -2.1293 -0.2189 -1.88055 -0.36815 -3.7014 -0.4179 -4.3979l-0.2189 0.33830000000000005c-0.7562 1.2537 -3.23375 3.25365 -5.52225 0.84575 0 0 2.91535 -0.8358 2.41785 -2.0397499999999997s-1.6417499999999998 0 -2.4875 -2.5969499999999996 0.36815 -2.985 1.2338 -3.33325 2.11935 0 2.388 -1.72135 0.5771 -6.965 7.8207 -6.11925c0 0 1.48255 -4.3581 4.0596 -4.6964s3.8207999999999998 1.2238499999999999 6.0794500000000005 0.5572 2.55715 -2.9053999999999998 4.975 -2.8655999999999997 4.507350000000001 3.7213000000000003 6.87545 -0.34825a1.5820500000000002 1.5820500000000002 0 0 1 0.7562 2.4278s2.87555 -0.82585 3.8009 0.7363 0.08954999999999999 4.66655 1.99 5.52225 4.20885 0.6965 4.0994 2.9053999999999998 -2.13925 3.61185 -0.4179 4.975 3.63175 1.50245 2.985 3.98 -3.98 4.18895 -1.99 5.72125 2.7263 -1.30345 2.7263 -1.30345 -0.5671499999999999 5.68145 -6.7461 4.447649999999999a6.9053 6.9053 0 0 1 0 0.92535 4.4974 4.4974 0 0 1 -0.199 0.995 3.582 3.582 0 0 1 -0.6567000000000001 1.1542 3.3630999999999998 3.3630999999999998 0 0 1 -1.6815499999999999 1.0945 2.985 2.985 0 0 1 -0.6567000000000001 0.1393 3.61185 3.61185 0 0 1 -0.4378 0 3.5521499999999997 3.5521499999999997 0 0 1 -0.23879999999999998 0.48755 4.9153 4.9153 0 0 1 -0.3781 0.5373 5.8307 5.8307 0 0 1 0.47759999999999997 2.09945 11.482299999999999 11.482299999999999 0 0 1 -0.35819999999999996 2.53725c-0.33830000000000005 1.48255 -0.8159 3.0447 -0.995 3.49245 0.22885 0.5174 1.16415 2.61685 2.2685999999999997 4.875500000000001 3.15415 0.7562 25.68095 6.8655 35.342400000000005 29.91965l-3.98 0.8159c1.8109 6.8456 1.5323 13.2136 -0.6169 17.91 -0.23879999999999998 0.50745 -0.4975 0.995 -0.7761 1.48255h10.47735l3.6616 0.04975 4.3979 0.0796 2.985 0.0796c1.6815499999999999 0 3.19395 0.11939999999999999 4.3979 0.17909999999999998l2.9352500000000004 0.1393a0.14925 0.14925 0 0 1 0.14925 0.14925 0.1592 0.1592 0 0 1 -0.1592 0.14925h-10.2684l-4.3979 -0.06965 -3.67155 -0.06965 -3.6616 -0.08954999999999999 -3.67155 -0.1393 -3.3232999999999997 -0.1592a12.935 12.935 0 0 1 -8.76595 5.97c-5.06455 0.995 -9.1739 -0.995 -12.4574 -4.129250000000001q-0.60695 -0.597 -1.194 -1.2537l-26.7058 -0.14925c0.1393 0.32835000000000003 0.17909999999999998 0.7761 0.38805 1.30345a2.4278 2.4278 0 0 0 0.0995 0.23879999999999998h25.64115a0.3184 0.3184 0 0 1 0.2786 0.16915000000000002s2.5969499999999996 5.08445 5.52225 10.85545c3.83075 7.5520499999999995 8.22865 16.298099999999998 8.22865 16.298099999999998a0.3781 0.3781 0 0 1 0 0.36815 0.398 0.398 0 0 1 -0.32835000000000003 0.17909999999999998s-19.233349999999998 -0.40795 -35.88965 -0.796c-4.2785 -0.08954999999999999 -8.38785 -0.18905 -11.94 -0.2786l-11.94 -0.3184a0.2587 0.2587 0 0 1 -0.22885 -0.12935 0.28855 0.28855 0 0 1 0 -0.26865l8.4774 -16.656299999999998c-0.7263499999999999 0.22885 -1.5522 0.44775 -2.4974499999999997 0.64675a48.2774 48.2774 0 0 1 -5.14415 0.7562 43.23275 43.23275 0 0 1 -12.2385 -0.46764999999999995c-6.965 -1.3333000000000002 -12.367849999999999 -4.3183 -15.293149999999999 -7.770949999999999a6.5869 6.5869 0 0 1 -1.36315 -3.11435l-1.6616499999999998 0.0796c-0.82585 0 -1.84075 0.08954999999999999 -2.985 0.11939999999999999h-9.95l-2.4875 -0.06965c-1.52235 0 -2.4875 -0.0995 -2.4875 -0.0995a0.14925 0.14925 0 0 1 -0.1592 -0.14925 0.1592 0.1592 0 0 1 0.1592 -0.14925l2.4974499999999997 -0.059699999999999996 2.4875 -0.08954999999999999h9.95c1.14425 0 2.1691000000000003 0.059699999999999996 2.985 0.08954999999999999l1.6119 0.06965m48.82465 1.2537c0.17909999999999998 0.42785 0.35819999999999996 0.8955 0.54725 1.3731l0.62685 1.70145a2.8457 2.8457 0 0 1 0.2985 0.18905 4.58695 4.58695 0 0 1 0.58705 0.48755c0.12935 0.12935 0.2587 0.2786 0.398 0.44775a8.0794 8.0794 0 0 1 0.50745 0.74625 5.1541 5.1541 0 0 1 0.5671499999999999 1.4327999999999999 2.7661 2.7661 0 0 1 0.059699999999999996 0.5373 1.5721 1.5721 0 0 1 -0.11939999999999999 0.58705c-0.12935 0.26865 -0.30845 0.4179 -0.54725 0.398a0.78605 0.78605 0 0 1 -0.199 0c0 0.34825 0.26865 2.19895 0.30845 2.5273s0.06965 0.6666500000000001 0.06965 0.6666500000000001a0.3781 0.3781 0 0 1 -0.20895 0.3781 0.3781 0.3781 0 0 1 -0.4378 -0.0796s-0.08954999999999999 -0.0995 -0.20895 -0.2587a0.82585 0.82585 0 0 1 -0.12935 -0.17909999999999998c-0.0796 -0.10945 -0.14925 -0.2189 -0.20895 -0.3184L97.51 173.6872a3.3232999999999997 3.3232999999999997 0 0 1 -2.45765 0.20895 5.56205 5.56205 0 0 1 -2.3283 -1.5422500000000001 8.1391 8.1391 0 0 0 -3.184 -0.30845 24.457099999999997 24.457099999999997 0 0 0 -4.6367 1.4128999999999998L76.615 190.045l11.53205 0.18905 11.94 0.22885c14.925 0.2985 31.84 0.6666500000000001 35.2628 0.74625 -0.995 -2.0497 -4.6964 -9.32315 -7.96 -15.7608 -2.587 -5.1640500000000005 -4.8854500000000005 -9.790799999999999 -5.3431500000000005 -10.726099999999999zm-42.5462 -21.740750000000002a65.52074999999999 65.52074999999999 0 0 0 -5.1640500000000005 13.99965 19.41245 19.41245 0 0 0 -0.46764999999999995 5.88045A6.31825 6.31825 0 0 0 49.949000000000005 166.165c2.8556500000000002 3.3531500000000003 8.158999999999999 6.19885 14.925 7.5023a43.7004 43.7004 0 0 0 11.94 0.58705 49.4913 49.4913 0 0 0 5.0745 -0.68655c3.7611 -0.7064499999999999 5.48245 -1.8507 7.6217 -2.0497a7.31325 7.31325 0 0 1 3.43275 0.4179c0.24875 0.08954999999999999 0.398 0.68655 0.995 0.995 2.45765 0.995 2.71635 0.28855 2.985 -0.059699999999999996 0 0.0796 -0.44775 0 -0.4975 0a2.83575 2.83575 0 0 1 -1.46265 -0.50745 2.985 2.985 0 0 1 -0.92535 -1.0945 0.1592 0.1592 0 0 1 0 -0.20895 0.14925 0.14925 0 0 1 0.20895 0 2.6467 2.6467 0 0 0 1.1342999999999999 0.796 2.71635 2.71635 0 0 0 0.7761 0.16915000000000002 7.014749999999999 7.014749999999999 0 0 0 1.2935 0 0.62685 0.62685 0 0 0 0.2587 0 0.11939999999999999 0.11939999999999999 0 0 0 0.0796 -0.10945 0.5174 0.5174 0 0 0 -0.12935 -0.23879999999999998 0.76615 0.76615 0 0 0 -0.2985 -0.18905 2.1691000000000003 2.1691000000000003 0 0 1 -0.8955 -0.42785 4.5571 4.5571 0 0 1 -0.6169 -1.14425c-0.14925 -0.35819999999999996 -0.34825 -0.796 -0.5572 -1.2935 -0.10945 -0.26865 -0.2189 -0.5671499999999999 -0.33830000000000005 -0.8756 0 -0.06965 0 -0.14925 -0.0796 -0.22885a15.0245 15.0245 0 0 1 -1.72135 -0.199c-0.2985 -0.04975 -0.60695 -0.10945 -0.90545 -0.18905a12.74595 12.74595 0 0 1 -1.4726 -0.46764999999999995 7.89035 7.89035 0 0 1 -1.42285 -0.7064499999999999l-1.3532000000000002 -0.90545c-0.2985 -0.18905 -0.597 -0.398 -0.8955 -0.60695s-0.7761 -0.54725 -1.1044500000000002 -0.78605l-1.0945 -0.8159a0.1592 0.1592 0 0 1 0 -0.20895 25.113799999999998 25.113799999999998 0 0 1 -4.8357 -3.4626 27.312749999999998 27.312749999999998 0 0 0 -6.2088 -3.98 4.72625 4.72625 0 0 1 -0.995 0H67.262l-0.995 -0.059699999999999996 -0.9352999999999999 -0.06965a0.1592 0.1592 0 0 1 -0.16915000000000002 -0.14925 0.16915000000000002 0.16915000000000002 0 0 1 0.14925 -0.1592l0.995 -0.12935c0.28855 0 0.6368 -0.0796 0.995 -0.0995s0.78605 0 1.2139 0h1.82085c0.60695 0 0.92535 0 1.3532000000000002 0.10945a7.0943499999999995 7.0943499999999995 0 0 1 0.995 0.18905 6.6267000000000005 6.6267000000000005 0 0 1 0.68655 0.18905 58.705 58.705 0 0 0 3.1342499999999998 -6.75605c-6.0894 -1.99 -17.70105 -4.5571 -22.2482 -5.5322m39.959199999999996 13.979750000000001a16.198600000000003 16.198600000000003 0 0 0 -2.2188499999999998 0.7562l0.5373 1.9303c0 -0.059699999999999996 0 -0.06965 0.2786 -0.35819999999999996a0.995 0.995 0 0 1 0.17909999999999998 -0.14925l0.199 -0.0995 0.20895 -0.0796 0.24875 -0.0796a2.25865 2.25865 0 0 1 0.92535 -0.1393c0.0796 0 0.16915000000000002 0.22885 0 0.4378 0.28855 0 0.34825 0.30845 0.26865 0.33830000000000005l-0.1393 0.12935a1.04475 1.04475 0 0 1 -0.2189 0.16915000000000002l-0.14925 0.0796 -0.50745 0.2189h-0.64675c-0.35819999999999996 0 -0.398 -0.04975 -0.42785 -0.14925s0.059699999999999996 -0.14925 0.17909999999999998 -0.2587c-0.199 0 -0.2786 0 -0.32835000000000003 -0.11939999999999999s1.0746 2.7661 1.36315 3.4228c0.1393 0.30845 0.2985 0.6666500000000001 0.46764999999999995 1.0746s0.26865 0.7064499999999999 0.40795 1.0945 0.26865 0.7263499999999999 0.398 1.0945 0.3184 0.8955 0.4577 1.3333000000000002l0.28855 0.8855500000000001c0.14925 0.5174 0.26865 0.995 0.35819999999999996 1.36315 0 0.18905 0.17909999999999998 0.54725 0.18905 0.58705a0.76615 0.76615 0 0 0 0.2587 0.3781 0.7562 0.7562 0 0 0 0.17909999999999998 0.059699999999999996 3.7809999999999997 3.7809999999999997 0 0 0 0.5671499999999999 0.0995 1.34325 1.34325 0 0 1 0.7263499999999999 0.3781 1.16415 1.16415 0 0 1 0.2786 0.5373 0.80595 0.80595 0 0 1 -0.18905 0.6965 0.995 0.995 0 0 1 -0.4975 0.28855 1.8904999999999998 1.8904999999999998 0 0 1 -0.33830000000000005 0.44775 1.1741 1.1741 0 0 1 -0.26865 0.22885l-0.06965 0.04975c0.16915000000000002 -0.06965 0.4975 -0.2189 0.68655 0l0.7163999999999999 0.7363v-0.0995a0.796 0.796 0 0 1 0.23879999999999998 -0.199 0.4378 0.4378 0 0 1 0.16915000000000002 -0.06965v-0.1592c-0.11939999999999999 -0.80595 -0.20895 -1.6119 -0.23879999999999998 -1.80095s-0.50745 -1.4128999999999998 -0.995 -2.8954500000000003c-0.3184 -0.92535 -0.6766000000000001 -1.99 -0.995 -2.985 -0.22885 -0.7064499999999999 -0.42785 -1.38305 -0.60695 -1.99m2.2885 4.5969v0.0796c0.58705 1.6318 0.995 2.9253 0.995 2.9253a0.30845 0.30845 0 0 1 0 0.0796v0.08954999999999999a0.2786 0.2786 0 0 0 0.22885 0s0.06965 -0.1592 0 -0.68655c0 -0.11939999999999999 -0.059699999999999996 -0.23879999999999998 -0.0995 -0.35819999999999996a4.9153 4.9153 0 0 0 -0.4577 -1.04475 9.26345 9.26345 0 0 0 -0.52735 -0.82585l-0.199 -0.2786m41.0935 -24.78545c0.24875 0.6169 0.4577 1.2139 0.6368 1.80095a0.1592 0.1592 0 0 1 -0.0995 0.18905 0.14925 0.14925 0 0 1 -0.18905 -0.10945 28.52665 28.52665 0 0 0 -3.1641000000000004 -6.2684999999999995c-1.2039499999999999 -1.88055 -2.6268000000000002 -3.81085 -4.129250000000001 -5.7113000000000005 -1.78105 -2.2487 -3.6815 -4.4376999999999995 -5.4924 -6.45755 -4.1392 -4.5969 -7.8406 -8.2386 -8.726149999999999 -9.32315a27.7804 27.7804 0 0 1 -2.5671 -4.32825c-1.6318 -3.184 -3.1641000000000004 -6.7461 -3.1641000000000004 -6.7461a0.35819999999999996 0.35819999999999996 0 0 1 0 -0.24875s0.597 -1.84075 0.995 -3.5621a10.43755 10.43755 0 0 0 0.38805 -2.3681 5.3929 5.3929 0 0 0 -0.2587 -1.5522 2.1293 2.1293 0 0 0 -0.398 -0.78605 0.26865 0.26865 0 0 0 -0.0796 -0.06965 0.16915000000000002 0.16915000000000002 0 0 0 -0.059699999999999996 0.059699999999999996 1.99 1.99 0 0 0 -0.2786 1.0547c-0.08954999999999999 1.1044500000000002 0.06965 2.5074 -0.08954999999999999 2.985a0.199 0.199 0 0 1 -0.1592 0.14925 0.199 0.199 0 0 1 -0.199 -0.06965 3.3432 3.3432 0 0 0 -1.8308 -1.04475 1.74125 1.74125 0 0 0 -1.1044500000000002 0.22885h0.10945a2.2288 2.2288 0 0 1 0.995 0.24875 3.7411999999999996 3.7411999999999996 0 0 1 0.5174 0.30845 4.1193 4.1193 0 0 1 0.6368 0.60695 0.1592 0.1592 0 0 1 0 0.2189 0.1393 0.1393 0 0 1 -0.20895 0 4.975 4.975 0 0 0 -0.6368 -0.35819999999999996 2.985 2.985 0 0 0 -0.995 -0.2985 1.4327999999999999 1.4327999999999999 0 0 0 -1.3532000000000002 0.5671499999999999 2.5671 2.5671 0 0 0 -0.47759999999999997 0.76615 1.4925 1.4925 0 0 0 -0.0995 0.52735 1.2338 1.2338 0 0 0 0.35819999999999996 0.8855500000000001 0.84575 0.84575 0 0 0 0.33830000000000005 0.23879999999999998v-0.1393a2.985 2.985 0 0 1 0.7761 -1.2935 0.1592 0.1592 0 0 1 0.2189 0 0.1592 0.1592 0 0 1 0 0.20895 2.83575 2.83575 0 0 0 -0.74625 1.4925 5.97 5.97 0 0 0 -0.1393 1.7313c0.08954999999999999 1.99 0.60695 4.0397 0.8557 6.159050000000001 0.059699999999999996 0.5174 0.0995 0.995 0.11939999999999999 1.5721 0 0.995 0.50745 4.76605 1.194 9.38285 0.4378 2.9053999999999998 0.995 6.1690000000000005 1.5323 9.353a114.67375 114.67375 0 0 0 2.69645 12.30815c1.4925 4.825749999999999 4.4576 12.487250000000001 9.353 17.2334 3.1044 2.985 6.965 4.8556 11.800699999999999 3.98a12.56685 12.56685 0 0 0 9.32315 -7.37295c2.17905 -4.60685 2.29845 -10.81565 0.62685 -17.5717zM93.82849999999999 164.4735l-0.78605 0.08954999999999999h-3.67155l-0.2189 0.34825 0.597 0.38805a9.95 9.95 0 0 0 2.1094 0.995c0.44775 0.1592 0.90545 0.30845 1.3532000000000002 0.4378s0.995 0.30845 1.4925 0.40795l-0.23879999999999998 -0.6766000000000001c-0.12935 -0.3781 -0.2587 -0.74625 -0.3781 -1.1144s-0.17909999999999998 -0.5373 -0.2587 -0.796m-8.54705 -1.82085 0.995 0.5174c0.35819999999999996 0.199 0.76615 0.4179 1.18405 0.6666500000000001l0.92535 0.5572 0.42785 0.26865 0.1592 -0.5572a0.28855 0.28855 0 0 1 0.26865 -0.17909999999999998s0.22885 0 0.60695 -0.04975h2.4078999999999997l0.80595 0.04975 0.64675 0.0796c-0.10945 -0.35819999999999996 -0.44775 -1.2139 -0.47759999999999997 -1.32335zm8.955 -49.8097c-0.6666500000000001 2.3482 -1.8904999999999998 6.21875 1.5721 7.89035 3.7710500000000002 1.7512 7.67145 -3.4029 7.67145 -3.4029 2.17905 4.975 5.5322 4.16905 6.5371500000000005 3.79095 -0.3781 -2.985 -0.60695 -5.22375 -0.6169 -5.97 0 -0.4378 0 -0.8756 -0.0796 -1.3134000000000001a11.243500000000001 11.243500000000001 0 0 1 -2.55715 2.13925 8.6565 8.6565 0 0 1 -3.5223 1.2238499999999999 7.7411 7.7411 0 0 1 -4.06955 -0.995 23.969549999999998 23.969549999999998 0 0 1 -4.975 -3.41285m18.536849999999998 -23.7009a2.985 2.985 0 0 1 -1.99 -2.4377500000000003c-0.4179 -2.91535 0.32835000000000003 -3.2436999999999996 -2.37805 -4.56705s-4.40785 -1.1542 -6.19885 -3.4228 -0.995 -2.985 -4.1193 -3.19395 -5.0347 1.34325 -7.4525500000000005 -2.2487c0 0 0.995 4.9153 -0.44775 6.2287s-2.57705 0.23879999999999998 -3.07455 2.61685c-0.10945 0.54725 -0.18905 0.995 -0.26865 1.2736a0.18905 0.18905 0 0 1 0.04975 0.0995s0.1592 1.18405 0.32835000000000003 2.8059c0.059699999999999996 0.5771 0.10945 1.2139 0.16915000000000002 1.8705999999999998s0.08954999999999999 1.4128999999999998 0.1393 2.1094 0.0796 1.46265 0.11939999999999999 2.1094 0.06965 1.4726 0.08954999999999999 1.99 0 0.84575 0 0.84575A0.32835000000000003 0.32835000000000003 0 0 1 87.56 95.52a0.28855 0.28855 0 0 1 -0.32835000000000003 0c-0.5174 -0.33830000000000005 -0.995 -0.6666500000000001 -1.34325 -0.995 -2.09945 -1.7114 -1.74125 -1.80095 -2.31835 -1.9303a1.36315 1.36315 0 0 0 -1.1144 0.35819999999999996 1.42285 1.42285 0 0 0 -0.47759999999999997 0.995 3.9203 3.9203 0 0 0 0.8855500000000001 2.81585 3.8407 3.8407 0 0 0 1.06465 0.92535 2.5273 2.5273 0 0 1 0.74625 -0.44775 3.33325 3.33325 0 0 1 0.995 -0.23879999999999998 0.14925 0.14925 0 0 1 0.17909999999999998 0.12935 0.14925 0.14925 0 0 1 -0.12935 0.16915000000000002 3.4029 3.4029 0 0 0 -1.1741 0.6766000000000001 4.447649999999999 4.447649999999999 0 0 0 2.189 0.16915000000000002 0.36815 0.36815 0 0 1 0.398 0.24875 13.064350000000001 13.064350000000001 0 0 0 3.0546499999999996 4.4576 11.65145 11.65145 0 0 0 4.6367 2.7661 0.398 0.398 0 0 1 0.2587 0.38805l-0.4378 6.21875a24.3576 24.3576 0 0 0 4.746149999999999 3.39295 7.3431 7.3431 0 0 0 3.7411999999999996 0.995 8.1192 8.1192 0 0 0 3.3630999999999998 -1.06465 11.1042 11.1042 0 0 0 2.7263 -2.189c-0.2189 -2.0696 -0.6766000000000001 -4.0596 -0.7363 -5.97a6.77595 6.77595 0 0 1 0.1592 -1.74125 1.44275 1.44275 0 0 1 -0.84575 -0.44775 1.6417499999999998 1.6417499999999998 0 0 1 -0.4577 -0.92535 1.8904999999999998 1.8904999999999998 0 0 1 0.11939999999999999 -0.796 3.07455 3.07455 0 0 1 0.58705 -0.995 2.51735 2.51735 0 0 1 0.7163999999999999 -0.58705 2.2089000000000003 2.2089000000000003 0 0 1 1.9103999999999999 -0.8159 3.5024 3.5024 0 0 1 1.80095 0.8358c0 -0.62685 -0.10945 -1.6716 -0.059699999999999996 -2.5273a2.61685 2.61685 0 0 1 0.35819999999999996 -1.3532000000000002 0.64675 0.64675 0 0 1 0.4378 -0.26865 0.8557 0.8557 0 0 1 0.7163999999999999 0.46764999999999995 3.57205 3.57205 0 0 0 0.14925 -0.36815 3.1442 3.1442 0 0 0 0.14925 -0.6666500000000001 0.30845 0.30845 0 0 1 0.33830000000000005 -0.26865 3.4825 3.4825 0 0 0 1.0547 -0.20895 3.17405 3.17405 0 0 0 1.34325 -0.8855500000000001 4.1193 4.1193 0 0 0 0.597 -0.92535 7.1441 7.1441 0 0 0 0.3781 -0.995c0.059699999999999996 -0.20895 0.12935 -0.4378 0.17909999999999998 -0.68655a4.5571 4.5571 0 0 1 -2.31835 -1.1741 4.447649999999999 4.447649999999999 0 0 0 -1.2935 0.796 3.87055 3.87055 0 0 0 -0.398 0.4378 2.35815 2.35815 0 0 0 -0.4179 0.7064499999999999 0.3781 0.3781 0 0 1 -0.398 0.2786 0.3781 0.3781 0 0 1 -0.33830000000000005 -0.34825s-0.06965 -0.80595 -0.1393 -1.7711000000000001c0 -0.38805 0 -0.796 -0.059699999999999996 -1.194v-1.80095m-28.636100000000003 9.482349999999999a1.42285 1.42285 0 0 0 -0.12935 0.6766000000000001 1.194 1.194 0 0 0 1.2238499999999999 1.1741 2.13925 2.13925 0 0 0 0.82585 -0.06965 2.17905 2.17905 0 0 0 0.995 -0.54725c-0.18905 -0.3781 -0.32835000000000003 -0.68655 -0.40795 -0.8855500000000001a5.0546 5.0546 0 0 1 -2.45765 -0.32835000000000003M86.565 84.2367c-0.18905 0.28855 -0.46764999999999995 0.36815 -1.1044500000000002 0.5771 -0.995 0.32835000000000003 -1.2238499999999999 0.2189 -1.592 0.62685s0.23879999999999998 2.2885 0.58705 4.66655c0.1592 1.0746 0.30845 1.84075 0.50745 2.9053999999999998 0 0.2189 0.6368 0.7163999999999999 1.24375 1.1044500000000002 0.24875 0.1592 0.5174 0.33830000000000005 0.82585 0.5174v-0.23879999999999998c0 -0.4975 -0.08954999999999999 -1.18405 -0.1393 -1.99s-0.08954999999999999 -1.3731 -0.1393 -2.1094 -0.0796 -1.42285 -0.10945 -2.1094 0 -1.30345 -0.059699999999999996 -1.88055V84.17699999999999m26.57645 5.0745c0 0.16915000000000002 0.06965 0.3781 0.10945 0.6169s0.10945 0.62685 0.1592 0.995 0.08954999999999999 0.796 0.12935 1.18405c0 0.22885 0 0.4577 0.059699999999999996 0.6666500000000001a2.7462 2.7462 0 0 1 0.50745 -0.40795 3.91035 3.91035 0 0 1 1.4327999999999999 -0.5671499999999999 3.1641000000000004 3.1641000000000004 0 0 1 -0.68655 -2.19895 6.03965 6.03965 0 0 1 -1.7114 -0.2786" stroke-width="1"></path><path d="M23.4024 112.86285000000001a18.3478 18.3478 0 1 0 0 36.6956 18.3677 18.3677 0 0 0 12.935 -31.43205 18.1886 18.1886 0 0 0 -12.935 -5.26355zm0 0.2985a17.91 17.91 0 0 1 17.750799999999998 17.91 17.691100000000002 17.691100000000002 0 1 1 -17.750799999999998 -17.91zm19.29305 -83.59989999999999a27.41225 27.41225 0 1 0 19.41245 7.96 27.25305 27.25305 0 0 0 -19.41245 -7.96zm0 0.30845a26.994349999999997 26.994349999999997 0 1 1 -19.0443 7.96 26.865 26.865 0 0 1 19.0443 -7.96zM104.5546 6.965a22.1288 22.1288 0 1 0 15.67125 6.3879A22.03925 22.03925 0 0 0 104.5546 6.965zm0 0.30845a21.691 21.691 0 1 1 -15.3031 6.487399999999999 21.64125 21.64125 0 0 1 15.3031 -6.4476zm56.446349999999995 31.45195a25.312800000000003 25.312800000000003 0 1 0 17.91 7.31325 25.16355 25.16355 0 0 0 -17.91 -7.31325zm0 0.2985a24.875 24.875 0 1 1 -17.5518 7.392849999999999 24.82525 24.82525 0 0 1 17.5518 -7.392849999999999zm15.43245 74.0479a17.46225 17.46225 0 1 0 12.377799999999999 4.975 17.382649999999998 17.382649999999998 0 0 0 -12.377799999999999 -4.975zm0 0.2985a16.98465 16.98465 0 0 1 0 33.9693 16.915 16.915 0 0 1 -12.00965 -28.855 17.0344 17.0344 0 0 1 12.00965 -5.08445zm-155.66774999999998 -5.24365 1.24375 0.16915000000000002A23.3228 23.3228 0 0 1 26.77545 92.535s-0.4378 4.1392 0.7064499999999999 6.8157499999999995c0 0 1.99 -8.54705 1.8705999999999998 -11.23355 0 0 -6.31825 2.11935 -9.95 5.0546 0 0 4.30835 -0.90545 5.8307 -1.12435A21.72085 21.72085 0 0 0 21.89 98.69405a26.5267 26.5267 0 0 0 -1.16415 9.4326M60.217400000000005 31.84l0.78605 0.995a23.3029 23.3029 0 0 1 14.29815 -8.1988s-3.1641000000000004 2.7064000000000004 -4.16905 5.4426499999999995c0 0 7.33315 -4.84565 9.074399999999999 -6.8854 0 0 -6.05955 -2.79595 -10.69625 -3.1342499999999998 0 0 3.7611 2.29845 4.975 3.184a21.60145 21.60145 0 0 0 -6.965 2.55715A26.7058 26.7058 0 0 0 60.217400000000005 31.84m68.4759 -7.89035 -0.4975 1.1542a23.33275 23.33275 0 0 1 13.93 8.78585s-3.8805 -1.52235 -6.766 -1.1342999999999999c0 0 7.71125 4.20885 10.33805 4.78595 0 0 -0.36815 -6.646599999999999 -2.23875 -10.945 0 0 -0.2786 4.3979 -0.46764999999999995 5.92025a21.89 21.89 0 0 0 -5.5322 -4.975 26.97445 26.97445 0 0 0 -8.78585 -3.6218m48.158 63.39145 -1.2139 0.32835000000000003a23.352649999999997 23.352649999999997 0 0 1 1.74125 16.387649999999997s-1.2039499999999999 -3.98 -3.3034 -5.97c0 0 1.4726 8.6565 2.6467 11.07435 0 0 4.975 -4.40785 7.17395 -8.5172 0 0 -3.6218 2.51735 -4.975 3.3034a21.7109 21.7109 0 0 0 0.47759999999999997 -7.4227 26.67595 26.67595 0 0 0 -2.587 -9.14405" stroke-width="1"></path><path d="M24.16855 122.1064a9.790799999999999 9.790799999999999 0 0 0 -1.8705999999999998 0l-0.30845 1.4925a8.64655 8.64655 0 0 0 -1.74125 0.46764999999999995l-0.995 -1.14425a9.95 9.95 0 0 0 -1.6119 0.9352999999999999l0.47759999999999997 1.46265a8.1192 8.1192 0 0 0 -1.2736 1.2736l-1.4526999999999999 -0.48755a9.3928 9.3928 0 0 0 -0.9352999999999999 1.6218499999999998l1.14425 0.995a8.0396 8.0396 0 0 0 -0.46764999999999995 1.74125l-1.50245 0.30845a9.790799999999999 9.790799999999999 0 0 0 0 1.8705999999999998l1.50245 0.30845a8.0396 8.0396 0 0 0 0.46764999999999995 1.74125l-1.14425 0.995a9.3132 9.3132 0 0 0 0.9352999999999999 1.6119l1.4526999999999999 -0.47759999999999997a8.566949999999999 8.566949999999999 0 0 0 1.2736 1.2736l-0.47759999999999997 1.4526999999999999a9.3132 9.3132 0 0 0 1.6119 0.9352999999999999l0.995 -1.14425a8.0396 8.0396 0 0 0 1.74125 0.46764999999999995l0.30845 1.50245a9.790799999999999 9.790799999999999 0 0 0 1.8705999999999998 0l0.30845 -1.50245a8.2784 8.2784 0 0 0 1.7512 -0.46764999999999995l0.995 1.14425a9.3928 9.3928 0 0 0 1.6218499999999998 -0.9352999999999999l-0.48755 -1.4526999999999999a7.71125 7.71125 0 0 0 1.2736 -1.2736l1.46265 0.47759999999999997a9.95 9.95 0 0 0 0.9352999999999999 -1.6119l-1.14425 -0.995a8.64655 8.64655 0 0 0 0.46764999999999995 -1.74125l1.4925 -0.30845a9.790799999999999 9.790799999999999 0 0 0 0 -1.8705999999999998l-1.4925 -0.30845a8.64655 8.64655 0 0 0 -0.46764999999999995 -1.74125l1.14425 -0.995a10.0893 10.0893 0 0 0 -0.9352999999999999 -1.6218499999999998l-1.46265 0.48755a7.3431 7.3431 0 0 0 -1.2537 -1.2238499999999999l0.48755 -1.46265a10.0893 10.0893 0 0 0 -1.6218499999999998 -0.9352999999999999l-0.995 1.14425a8.955 8.955 0 0 0 -1.7512 -0.46764999999999995zm-0.9352999999999999 7.691350000000001a1.99 1.99 0 1 1 -1.9303 1.99 1.94025 1.94025 0 0 1 1.9303 -1.99m14.07925 -64.9735a23.31285 23.31285 0 0 1 -4.7063500000000005 -5.6317 21.32285 21.32285 0 0 1 -2.6865 -6.965 11.402700000000001 11.402700000000001 0 0 1 1.50245 -8.566949999999999 12.4176 12.4176 0 0 1 7.104299999999999 -5.0745 9.68135 9.68135 0 0 1 8.099300000000001 1.9303 10.27835 10.27835 0 0 1 3.7809999999999997 7.4227 36.98415 36.98415 0 0 1 -0.20895 7.2734499999999995A42.9243 42.9243 0 0 1 48.755 62.287l2.2885 8.865450000000001a0.2587 0.2587 0 0 1 0 0.20895 0.2985 0.2985 0 0 1 -0.16915000000000002 0.11939999999999999l-11.39275 2.4078999999999997a0.199 0.199 0 0 1 -0.10945 0 0.16915000000000002 0.16915000000000002 0 0 1 -0.06965 -0.0995zm12.68625 4.48745 -0.74625 0.26865c-0.44775 0.1592 -0.995 0.35819999999999996 -1.6218499999999998 0.5671499999999999l-1.0945 0.33830000000000005 -1.6417499999999998 0.47759999999999997 -1.3731 0.38805 -1.38305 0.35819999999999996 -1.34325 0.32835000000000003 -1.40295 0.2985 0.24875 1.2139 10.895249999999999 -2.51735zm-0.6169 -2.2188499999999998 -0.90545 0.34825c-0.42785 0.1592 -0.995 0.35819999999999996 -1.5721 0.5671499999999999 -0.33830000000000005 0.11939999999999999 -0.68655 0.22885 -1.0547 0.33830000000000005s-1.06465 0.32835000000000003 -1.60195 0.48755l-1.3333000000000002 0.38805 -1.34325 0.36815 -1.3532000000000002 0.32835000000000003 -1.32335 0.2985 0.3781 1.8507 1.34325 -0.48755 1.3532000000000002 -0.46764999999999995 1.36315 -0.4179 1.3731 -0.398 1.6417499999999998 -0.46764999999999995 1.1044500000000002 -0.28855c0.64675 -0.1592 1.2139 -0.2786 1.6716 -0.3781l0.78605 -0.16915000000000002zM33.62105 66.665a12.4773 12.4773 0 0 0 -2.4377500000000003 3.5621 0.11939999999999999 0.11939999999999999 0 0 0 0 0.16915000000000002 0.11939999999999999 0.11939999999999999 0 0 0 0.16915000000000002 0 12.497200000000001 12.497200000000001 0 0 0 2.4775500000000004 -3.582 0.12935 0.12935 0 0 0 0 -0.14925 0.12935 0.12935 0 0 0 -0.17909999999999998 0m15.19365 -1.6716 -0.90545 0.32835000000000003c-0.42785 0.14925 -0.995 0.33830000000000005 -1.5522 0.52735l-1.04475 0.3184L43.78 66.665l-1.3134000000000001 0.35819999999999996 -1.32335 0.33830000000000005c-0.48755 0.11939999999999999 -0.9352999999999999 0.20895 -1.32335 0.28855 -0.8159 0.17909999999999998 -1.34325 0.26865 -1.34325 0.26865l0.32835000000000003 2.01985 1.2537 -0.47759999999999997c0.3781 -0.12935 0.8159 -0.2985 1.30345 -0.4577l1.3333000000000002 -0.42785 1.32335 -0.40795 1.6318 -0.50745 1.0746 -0.2985c0.6169 -0.1592 1.1741 -0.2786 1.6218499999999998 -0.3781l0.995 -0.2189zM48.18785 62.685l-0.995 0.28855c-0.42785 0.11939999999999999 -0.995 0.2786 -1.5721 0.42785 -0.32835000000000003 0.08954999999999999 -0.6766000000000001 0.16915000000000002 -0.995 0.24875l-1.5820500000000002 0.34825 -1.32335 0.26865 -1.32335 0.24875c-0.48755 0.08954999999999999 -0.995 0.1592 -1.3333000000000002 0.20895l-1.2537 0.199 0.54725 2.6765499999999998 1.28355 -0.4577c0.36815 -0.12935 0.80595 -0.2786 1.2935 -0.42785l1.30345 -0.38805 1.30345 -0.3781c0.5373 -0.14925 1.06465 -0.2985 1.5820500000000002 -0.42785l1.0547 -0.26865 1.5820500000000002 -0.34825 0.995 -0.22885zM32.039 61.3716a59.351749999999996 59.351749999999996 0 0 0 -8.78585 5.701350000000001 0.1592 0.1592 0 0 0 -0.04975 0.20895 0.14925 0.14925 0 0 0 0.20895 0 58.77465 58.77465 0 0 0 8.7958 -5.6914 0.14925 0.14925 0 0 0 0 -0.20895 0.1592 0.1592 0 0 0 -0.20895 0m20.40745 0.995s0.1393 0.14925 0.38805 0.3781a12.40765 12.40765 0 0 0 3.1243000000000003 2.1293 0.11939999999999999 0.11939999999999999 0 0 0 0.16915000000000002 0 0.11939999999999999 0.11939999999999999 0 0 0 0 -0.16915000000000002 12.507150000000001 12.507150000000001 0 0 0 -3.5123499999999996 -2.5273 0.12935 0.12935 0 0 0 -0.1393 0.20895m-4.3382000000000005 0v-0.06965a0.2786 0.2786 0 0 1 0 -0.17909999999999998 44.0586 44.0586 0 0 0 1.38305 -6.965 36.486650000000004 36.486650000000004 0 0 0 0.16915000000000002 -7.13415 9.44255 9.44255 0 0 0 -3.5024 -6.8854 8.855500000000001 8.855500000000001 0 0 0 -7.43265 -1.791 11.621599999999999 11.621599999999999 0 0 0 -6.6864 4.7362 10.77585 10.77585 0 0 0 -1.4327999999999999 8.04955 20.895 20.895 0 0 0 2.5273 6.7461 22.885 22.885 0 0 0 4.5571 5.6118 0.199 0.199 0 0 1 0.12935 0.1592l1.16415 -0.33830000000000005c0.3781 -0.0995 0.8159 -0.22885 1.30345 -0.34825l1.26365 -0.30845 0.7562 -0.1592c-0.17909999999999998 -0.8855500000000001 -0.7562 -3.582 -1.5124 -6.328200000000001a4.30835 4.30835 0 0 1 -0.4378 -0.2985 14.377749999999999 14.377749999999999 0 0 1 -2.8855 -3.98 7.2635 7.2635 0 0 1 -0.8358 -2.35815 0.995 0.995 0 0 1 0.199 -0.82585c0.20895 -0.20895 0.60695 -0.28855 1.2238499999999999 0a2.6666000000000003 2.6666000000000003 0 0 1 0.995 1.0845500000000001 16.50705 16.50705 0 0 1 1.194 2.9053999999999998c0.2985 0.92535 0.5771 1.99 0.84575 2.985a0.5572 0.5572 0 0 0 0.1592 0.06965h0.18905a1.60195 1.60195 0 0 0 0.23879999999999998 -0.2786 5.3431500000000005 5.3431500000000005 0 0 1 -0.398 -1.82085 1.99 1.99 0 0 1 0 -0.597 0.47759999999999997 0.47759999999999997 0 0 1 0.22885 -0.28855 0.3781 0.3781 0 0 1 0.3781 0 0.80595 0.80595 0 0 1 0.199 0.20895 2.37805 2.37805 0 0 1 0.2786 0.7163999999999999 2.985 2.985 0 0 1 -0.06965 1.74125 1.4526999999999999 1.4526999999999999 0 0 0 0.16915000000000002 0.23879999999999998 0.4577 0.4577 0 0 0 0.3184 0.20895c0.16915000000000002 0 0.33830000000000005 -0.11939999999999999 0.52735 -0.3781 -0.18905 -1.2238499999999999 -0.35819999999999996 -2.4775500000000004 -0.46764999999999995 -3.61185a15.15385 15.15385 0 0 1 0 -3.63175 1.80095 1.80095 0 0 1 0.2587 -0.68655 0.62685 0.62685 0 0 1 0.34825 -0.26865 0.7761 0.7761 0 0 1 0.995 0.47759999999999997A5.0546 5.0546 0 0 1 44.775 50.6455a18.17865 18.17865 0 0 1 -0.35819999999999996 4.34815 5.08445 5.08445 0 0 1 -0.6368 1.84075c0.2985 2.189 0.6666500000000001 4.24865 0.92535 5.3530999999999995a6.57695 6.57695 0 0 0 0.17909999999999998 0.6766000000000001v0.059699999999999996l0.5771 -0.10945 1.60195 -0.23879999999999998 0.995 -0.1393m-3.4228 0.5373c-0.059699999999999996 -0.16915000000000002 -0.14925 -0.46764999999999995 -0.24875 -0.86565 -0.26865 -1.0845500000000001 -0.64675 -2.9253 -0.995 -4.9153a0.995 0.995 0 0 1 -0.6965 0.2587 0.995 0.995 0 0 1 -0.74625 -0.42785v-0.059699999999999996a1.36315 1.36315 0 0 1 -0.16915000000000002 0.16915000000000002 0.68655 0.68655 0 0 1 -0.5572 0.1592c0.6567000000000001 2.6865 1.1342999999999999 5.2536000000000005 1.2935 6.11925l0.32835000000000003 -0.06965 1.5820500000000002 -0.32835000000000003h0.23879999999999998m7.5222 -5.97A58.5458 58.5458 0 0 0 62.386500000000005 59.401500000000006a0.14925 0.14925 0 0 0 0.17909999999999998 -0.10945 0.1592 0.1592 0 0 0 -0.10945 -0.18905A59.94875 59.94875 0 0 0 52.2773 56.714999999999996a0.1592 0.1592 0 0 0 -0.18905 0.11939999999999999 0.1592 0.1592 0 0 0 0.11939999999999999 0.17909999999999998m-24.44715 0.995a8.955 8.955 0 0 0 -3.21385 0.5771l-0.33830000000000005 0.14925a0.11939999999999999 0.11939999999999999 0 0 0 -0.0995 0.1393 0.12935 0.12935 0 0 0 0.14925 0.0995 8.80575 8.80575 0 0 0 3.6019 -0.7562 0.11939999999999999 0.11939999999999999 0 0 0 0.0995 -0.1393 0.12935 0.12935 0 0 0 -0.14925 -0.0995m12.76585 -1.7512c-0.23879999999999998 -0.8358 -0.48755 -1.6517 -0.74625 -2.4078999999999997a16.218500000000002 16.218500000000002 0 0 0 -1.2039499999999999 -2.786 2.15915 2.15915 0 0 0 -0.7562 -0.86565 1.6218499999999998 1.6218499999999998 0 0 0 -0.4577 -0.1393h-0.1393c-0.029849999999999998 0 -0.06965 0.2189 0 0.398a6.965 6.965 0 0 0 0.796 2.1492 14.4275 14.4275 0 0 0 2.55715 3.6218m3.03475 -0.47759999999999997c0.059699999999999996 -0.18905 0.10945 -0.398 0.16915000000000002 -0.62685a18.218449999999997 18.218449999999997 0 0 0 0.42785 -3.5919499999999998 7.5421000000000005 7.5421000000000005 0 0 0 -0.24875 -2.3283 0.9352999999999999 0.9352999999999999 0 0 0 -0.18905 -0.35819999999999996 0.18905 0.18905 0 0 0 -0.20895 -0.059699999999999996c-0.059699999999999996 0 -0.08954999999999999 0.08954999999999999 -0.12935 0.17909999999999998a2.6865 2.6865 0 0 0 -0.1393 0.62685 22.437250000000002 22.437250000000002 0 0 0 0.14925 4.68645c0 0.48755 0.0995 0.995 0.16915000000000002 1.4726M28.258 53.22255a31.84 31.84 0 0 0 -7.6814 -0.995 0.14925 0.14925 0 0 0 0 0.2985 31.84 31.84 0 0 0 7.6814 0.995 0.1592 0.1592 0 0 0 0.16915000000000002 -0.12935 0.1592 0.1592 0 0 0 -0.12935 -0.17909999999999998m26.91475 -0.995a8.676400000000001 8.676400000000001 0 0 0 3.5521499999999997 -0.47759999999999997 0.12935 0.12935 0 0 0 0.0995 -0.1393 0.11939999999999999 0.11939999999999999 0 0 0 -0.1393 -0.10945 8.6366 8.6366 0 0 0 -3.582 0.5373 0.11939999999999999 0.11939999999999999 0 0 0 -0.10945 0.1393 0.11939999999999999 0.11939999999999999 0 0 0 0.1393 0.0995m-22.7258 -6.029699999999999a2.29845 2.29845 0 0 0 0.06965 0.86565 1.2736 1.2736 0 0 0 0.5671499999999999 0.74625 1.60195 1.60195 0 0 0 1.1144 0.12935 5.06455 5.06455 0 0 0 1.42285 -0.58705 4.2785 4.2785 0 0 0 1.7512 -1.791 3.0845000000000002 3.0845000000000002 0 0 0 0.28855 -1.6915 2.6367499999999997 2.6367499999999997 0 0 0 -0.14925 -0.5671499999999999 1.36315 1.36315 0 0 0 -1.92035 -0.8756 0.11939999999999999 0.11939999999999999 0 0 0 -0.059699999999999996 0.1592 0.10945 0.10945 0 0 0 0.14925 0.059699999999999996 0.995 0.995 0 0 1 1.3333000000000002 0.7163999999999999 2.19895 2.19895 0 0 1 0.08954999999999999 1.1542 2.91535 2.91535 0 0 1 -0.4378 1.1044500000000002 3.98 3.98 0 0 1 -1.3333000000000002 1.24375 5.1640500000000005 5.1640500000000005 0 0 1 -1.2537 0.5671499999999999 1.24375 1.24375 0 0 1 -0.796 0 0.9352999999999999 0.9352999999999999 0 0 1 -0.4975 -0.60695 2.45765 2.45765 0 0 1 -0.10945 -0.597 0.11939999999999999 0.11939999999999999 0 0 0 -0.10945 -0.12935 0.11939999999999999 0.11939999999999999 0 0 0 -0.11939999999999999 0.10945m20.74575 1.76115a31.84 31.84 0 0 0 6.9053 -3.5123499999999996 0.14925 0.14925 0 0 0 0.059699999999999996 -0.199 0.1592 0.1592 0 0 0 -0.199 -0.06965A32.3176 32.3176 0 0 0 53.0534 47.76a0.14925 0.14925 0 0 0 -0.059699999999999996 0.199 0.1393 0.1393 0 0 0 0.199 0.06965m66.0282 -15.49215h-0.0995c-0.48755 -0.16915000000000002 -1.0945 -0.38805 -1.7711000000000001 -0.6567000000000001l-1.16415 -0.46764999999999995 -1.76115 -0.7761 -1.44275 -0.62685 -1.4327999999999999 -0.64675c-0.52735 -0.23879999999999998 -0.995 -0.47759999999999997 -1.42285 -0.6766000000000001l-1.40295 -0.7064499999999999a0.1393 0.1393 0 1 1 0.10945 -0.24875l1.48255 0.52735c0.42785 0.1592 0.92535 0.33830000000000005 1.4726 0.5572l1.4526999999999999 0.58705 1.44275 0.6169 1.7313 0.74625 1.1542 0.5174c0.6567000000000001 0.30845 1.2338 0.597 1.6915 0.82585l0.68655 0.33830000000000005h0.10945a1.2537 1.2537 0 0 1 0.82585 0.36815 1.2736 1.2736 0 0 1 0.32835000000000003 0.8358 3.91035 3.91035 0 0 1 -0.44775 1.74125 16.0195 16.0195 0 0 1 -3.4228 4.40785 15.92 15.92 0 0 1 -4.6367 3.1641000000000004 4.3183 4.3183 0 0 1 -1.48255 0.33830000000000005 1.38305 1.38305 0 0 1 -1.1044500000000002 -0.398 1.24375 1.24375 0 0 1 -0.3184 -0.84575v-0.28855c0 -0.0995 -0.16915000000000002 -0.48755 -0.26865 -0.80595 -0.17909999999999998 -0.5373 -0.40795 -1.2039499999999999 -0.6368 -1.99 -0.12935 -0.4179 -0.2587 -0.86565 -0.38805 -1.3134000000000001 -0.17909999999999998 -0.64675 -0.36815 -1.3134000000000001 -0.54725 -1.99s-0.30845 -1.1144 -0.44775 -1.6517 -0.2985 -1.1342999999999999 -0.42785 -1.6616499999999998a93.94591000000001 93.94591000000001 0 0 1 -0.74625 -3.3432 0.12935 0.12935 0 0 1 0.08954999999999999 -0.1592 0.12935 0.12935 0 0 1 0.16915000000000002 0.08954999999999999s0.2189 0.6368 0.54725 1.6218499999999998c0.1592 0.47759999999999997 0.33830000000000005 0.995 0.5174 1.6318s0.3184 1.0746 0.48755 1.6417499999999998 0.30845 1.0945 0.4577 1.6517 0.36815 1.3333000000000002 0.5373 1.99c0.11939999999999999 0.4577 0.23879999999999998 0.90545 0.33830000000000005 1.32335 0.18905 0.76615 0.33830000000000005 1.4526999999999999 0.4577 1.99v0.16915000000000002a4.7561 4.7561 0 0 1 0.28855 -0.6766000000000001 15.860299999999999 15.860299999999999 0 0 1 3.5422000000000002 -4.30835 15.92 15.92 0 0 1 4.577 -3.1442 4.975 4.975 0 0 1 0.8756 -0.28855m-5.2138 3.73125a17.9697 17.9697 0 0 1 3.83075 -2.65665 5.0546 5.0546 0 0 1 1.99 -0.58705 0.796 0.796 0 0 1 0.6368 0.20895 0.7761 0.7761 0 0 1 0.14925 0.6567000000000001 4.905349999999999 4.905349999999999 0 0 1 -0.76615 1.90045 17.332900000000002 17.332900000000002 0 0 1 -2.985 3.5521499999999997 17.671200000000002 17.671200000000002 0 0 1 -3.73125 2.7263 5.1143 5.1143 0 0 1 -1.99 0.6368 0.6766000000000001 0.6766000000000001 0 0 1 -0.80595 -0.8358 4.975 4.975 0 0 1 0.7163999999999999 -1.99 17.263250000000003 17.263250000000003 0 0 1 2.8954500000000003 -3.65165zM91.41065 36.815l1.6119 1.2238499999999999 7.6415999999999995 -8.358a6.4078 6.4078 0 0 0 6.159050000000001 -1.99c2.7263 -2.985 2.2487 -5.24365 2.2487 -5.24365 -0.3781 -0.50745 -2.6765499999999998 -5.6715 -8.4575 -1.1342999999999999 -0.398 0.30845 -4.875500000000001 3.6019 -1.32335 7.25355zm7.51225 -10.825600000000001c-0.10945 1.3532000000000002 1.30345 2.7263 4.368049999999999 0.995s5.42275 -4.975 3.41285 -6.45755 -7.59185 2.985 -7.7809 5.4327m59.41145 28.317700000000002 0.42785 -1.1044500000000002a0.08954999999999999 0.08954999999999999 0 0 1 0.10945 -0.06965l2.0895 0.059699999999999996 2.07955 0.0796 1.1144 0.059699999999999996 1.6716 0.0995a0.23879999999999998 0.23879999999999998 0 0 1 0.199 0.10945 0.26865 0.26865 0 0 1 0 0.22885l-0.2189 0.8159 4.0794999999999995 0.1592a0.30845 0.30845 0 0 1 0.22885 0.11939999999999999 0.3184 0.3184 0 0 1 0.06965 0.24875s-0.54725 3.8606 -1.18405 8.2386c-0.8358 5.731199999999999 -1.8308 12.34795 -1.8308 12.34795a0.36815 0.36815 0 0 1 -0.398 0.3184L149.10075 74.625a0.35819999999999996 0.35819999999999996 0 0 1 -0.26865 -0.14925 0.34825 0.34825 0 0 1 -0.04975 -0.2985s0.6766000000000001 -2.6367499999999997 1.5522 -5.97c1.5422500000000001 -5.88045 3.69145 -13.93 3.69145 -13.93a0.1592 0.1592 0 0 1 0.1592 -0.11939999999999999zm-0.1393 0.38805 -3.9004 -0.22885c-0.24875 0.995 -1.99 8.4376 -3.3531500000000003 13.93 -0.62685 2.57705 -1.1542 4.72625 -1.3731 5.60185l16.915 1.24375c0.2189 -1.4327999999999999 1.0547 -7.0446 1.8109 -11.94 0.54725 -3.5919499999999998 1.0547 -6.83565 1.2139 -7.8804l-3.85065 -0.22885 -0.2587 0.995a0.2786 0.2786 0 0 1 -0.28855 0.199s-2.2685999999999997 -0.20895 -4.2188 -0.40795c-1.50245 -0.1592 -2.81585 -0.32835000000000003 -2.81585 -0.32835000000000003a0.22885 0.22885 0 0 1 -0.1393 -0.0796 0.24875 0.24875 0 0 1 0 -0.16915000000000002l0.24875 -0.62685m-3.4228 1.44275a0.10945 0.10945 0 0 0 -0.10945 0.0796s-1.8904999999999998 6.736149999999999 -3.2436999999999996 11.641499999999999c-0.7761 2.79595 -1.3731 4.975 -1.3731 4.975a0.22885 0.22885 0 0 0 0 0.20895 0.20895 0.20895 0 0 0 0.18905 0.10945l7.43265 0.5572 7.43265 0.54725a0.26865 0.26865 0 0 0 0.28855 -0.22885s0.995 -5.56205 1.92035 -10.387799999999999l1.2537 -6.965a0.24875 0.24875 0 0 0 0 -0.18905 0.2786 0.2786 0 0 0 -0.16915000000000002 -0.08954999999999999l-6.8058 -0.16915000000000002 -6.8058 -0.14925zm0.0796 0.2189c-0.20895 0.80595 -1.8109 7.024699999999999 -2.985 11.621599999999999 -0.5671499999999999 2.189 -1.04475 3.98 -1.2338 4.7063500000000005l7.13415 0.50745 7.19385 0.5174c0.20895 -1.1144 1.0945 -5.9103 1.8904999999999998 -10.13905 0.5771 -3.0546499999999996 1.1044500000000002 -5.8107999999999995 1.26365 -6.65655l-6.5272 -0.26865 -6.71625 -0.28855m-2.4278 15.15385 1.393 0.17909999999999998 1.393 0.1592 1.393 0.11939999999999999 1.40295 0.10945 1.6716 0.10945 1.1144 0.059699999999999996h2.8059a0.12935 0.12935 0 0 0 0.11939999999999999 -0.10945 0.0995 0.0995 0 0 0 -0.0995 -0.10945l-1.1144 -0.14925c-0.4577 0 -0.995 -0.12935 -1.6716 -0.18905l-1.1144 -0.0995 -1.6716 -0.12935 -1.40295 -0.08954999999999999 -1.393 -0.0796h-2.8059a0.11939999999999999 0.11939999999999999 0 0 0 -0.11939999999999999 0.0995 0.10945 0.10945 0 0 0 0.0995 0.11939999999999999m0.4179 -1.52235 1.42285 0.18905c0.4179 0 0.8955 0.11939999999999999 1.4327999999999999 0.16915000000000002l1.42285 0.1393 1.4327999999999999 0.11939999999999999 1.72135 0.1393 1.14425 0.06965c0.6666500000000001 0 1.2537 0 1.7313 0.06965h1.14425a0.10945 0.10945 0 0 0 0.11939999999999999 -0.0995 0.0995 0.0995 0 0 0 -0.0995 -0.10945l-1.14425 -0.1393 -1.7114 -0.2189 -1.14425 -0.10945 -1.7114 -0.1393 -1.40295 -0.10945 -1.4327999999999999 -0.0995 -1.44275 -0.059699999999999996h-1.4327999999999999a0.10945 0.10945 0 0 0 -0.11939999999999999 0.0995 0.10945 0.10945 0 0 0 0.0995 0.11939999999999999m0.04975 -1.4128999999999998 1.4526999999999999 0.18905 1.44275 0.16915000000000002 1.4526999999999999 0.1393 1.4526999999999999 0.11939999999999999 1.74125 0.1393 1.16415 0.06965 1.7512 0.059699999999999996h1.1741a0.0995 0.0995 0 0 0 0.10945 -0.0995 0.10945 0.10945 0 0 0 -0.0995 -0.11939999999999999l-1.1542 -0.14925 -1.74125 -0.2189 -1.1542 -0.10945 -1.74125 -0.1393 -1.4526999999999999 -0.04975 -1.46265 -0.0995 -1.4526999999999999 -0.059699999999999996h-1.46265a0.12935 0.12935 0 0 0 -0.11939999999999999 0.10945 0.11939999999999999 0.11939999999999999 0 0 0 0.0995 0.11939999999999999M173.41854999999998 61.69a0.1393 0.1393 0 0 0 -0.10945 0 0.16915000000000002 0.16915000000000002 0 0 0 -0.059699999999999996 0.0995s-0.10945 0.92535 -0.23879999999999998 1.99c-0.1592 1.38305 -0.32835000000000003 2.985 -0.32835000000000003 2.985a0.3184 0.3184 0 0 0 0.22885 0.32835000000000003l1.9303 0.52735 2.8954500000000003 0.76615a0.36815 0.36815 0 0 0 0.28855 -0.059699999999999996 0.33830000000000005 0.33830000000000005 0 0 0 0.1393 -0.2587s0.06965 -1.6815499999999999 0.10945 -3.1243000000000003c0 -1.1144 0.059699999999999996 -2.0895 0.059699999999999996 -2.0895a0.30845 0.30845 0 0 0 -0.23879999999999998 -0.30845s-1.16415 -0.22885 -2.33825 -0.4378l-2.33825 -0.4179zm0.0995 0.30845c0 0.30845 0 0.995 -0.06965 1.8308 0 1.04475 -0.10945 2.2089000000000003 -0.12935 2.7263l1.6915 0.4179 2.4974499999999997 0.64675c0 -0.58705 0.06965 -1.70145 0.11939999999999999 -2.7064000000000004 0 -0.7761 0.06965 -1.48255 0.08954999999999999 -1.84075l-2.05965 -0.5174 -2.13925 -0.5572m-19.959699999999998 4.776 1.393 0.16915000000000002 1.393 0.14925 1.393 0.10945 1.40295 0.0995 1.6716 0.10945 1.12435 0.059699999999999996h2.79595a0.10945 0.10945 0 0 0 0.11939999999999999 -0.0995 0.11939999999999999 0.11939999999999999 0 0 0 -0.0995 -0.11939999999999999l-1.1144 -0.1393 -1.6716 -0.17909999999999998 -1.1144 -0.0995 -1.6517 -0.11939999999999999 -1.393 -0.08954999999999999c-0.48755 0 -0.995 -0.059699999999999996 -1.40295 -0.06965h-2.79595a0.0995 0.0995 0 0 0 -0.11939999999999999 0.0995 0.10945 0.10945 0 0 0 0.0995 0.11939999999999999m21.78055 -1.7711000000000001 -0.2587 -0.35819999999999996c-0.12935 -0.16915000000000002 -0.24875 -0.32835000000000003 -0.35819999999999996 -0.48755l-0.3184 -0.52735c-0.18905 -0.32835000000000003 -0.2985 -0.5373 -0.2985 -0.5373a0.14925 0.14925 0 0 1 0 -0.199 0.1393 0.1393 0 0 1 0.18905 0s0.17909999999999998 0.14925 0.44775 0.4179l0.4378 0.4378c0.12935 0.1393 0.2587 0.2985 0.38805 0.4577l0.24875 0.30845 0.30845 -0.2587 0.34825 -0.2587c0.199 -0.14925 0.38805 -0.2587 0.5373 -0.35819999999999996l0.3781 -0.2189a0.1393 0.1393 0 0 1 0.17909999999999998 0.20895l-0.26865 0.33830000000000005c-0.11939999999999999 0.1393 -0.24875 0.30845 -0.42785 0.4975s-0.199 0.18905 -0.2985 0.2985l-0.33830000000000005 0.28855 0.1592 0.20895c0.0995 0.1393 0.199 0.26865 0.2786 0.398s0.2786 0.4577 0.3781 0.6368l0.23879999999999998 0.4378a0.1393 0.1393 0 0 1 -0.2189 0.1592l-0.35819999999999996 -0.32835000000000003 -0.52735 -0.5174 -0.3184 -0.36815a1.32335 1.32335 0 0 1 -0.1393 -0.18905q-0.20895 0.17909999999999998 -0.4179 0.32835000000000003l-0.44775 0.2985 -0.46764999999999995 0.2786a0.1393 0.1393 0 1 1 -0.17909999999999998 -0.20895s0.11939999999999999 -0.1592 0.33830000000000005 -0.4179l0.35819999999999996 -0.40795c0.10945 -0.11939999999999999 0.24875 -0.23879999999999998 0.3781 -0.36815l0.06965 -0.059699999999999996m-21.372600000000002 0 1.42285 0.18905 1.4327999999999999 0.16915000000000002 1.4327999999999999 0.12935 1.4327999999999999 0.11939999999999999 1.7114 0.12935 1.1542 0.06965h2.87555a0.11939999999999999 0.11939999999999999 0 0 0 0.11939999999999999 -0.0995 0.10945 0.10945 0 0 0 -0.0995 -0.11939999999999999l-1.14425 -0.14925c-0.46764999999999995 -0.059699999999999996 -1.0547 -0.1393 -1.7114 -0.20895l-1.14425 -0.10945 -1.72135 -0.1393 -1.4327999999999999 -0.0995 -1.4327999999999999 -0.08954999999999999h-2.87555a0.10945 0.10945 0 0 0 -0.11939999999999999 0.10945 0.0995 0.0995 0 0 0 0.0995 0.10945m0.0796 -1.5621500000000001 1.4526999999999999 0.18905 1.44275 0.16915000000000002 1.4526999999999999 0.12935 1.4526999999999999 0.11939999999999999 1.7512 0.11939999999999999 1.16415 0.06965 1.74125 0.059699999999999996h1.1741a0.0995 0.0995 0 0 0 0.10945 -0.0995 0.10945 0.10945 0 0 0 -0.0995 -0.11939999999999999l-1.1542 -0.14925c-0.47759999999999997 -0.059699999999999996 -1.0746 -0.1393 -1.74125 -0.20895l-1.1542 -0.0995 -1.7512 -0.1393 -1.4526999999999999 -0.0995 -1.4526999999999999 -0.08954999999999999 -1.46265 -0.059699999999999996h-1.4526999999999999a0.10945 0.10945 0 0 0 -0.11939999999999999 0.0995 0.0995 0.0995 0 0 0 0.0995 0.11939999999999999m0.796 -2.23875 1.40295 0.11939999999999999 1.393 0.0995 1.40295 0.059699999999999996h1.40295l1.6716 0.04975h3.93025a0.10945 0.10945 0 0 0 0 -0.2189l-1.1144 -0.0995 -1.6815499999999999 -0.11939999999999999H162.185l-1.6815499999999999 -0.04975h-5.60185a0.10945 0.10945 0 0 0 -0.10945 0.10945 0.0995 0.0995 0 0 0 0.0995 0.10945m0.34825 -1.7512 1.4327999999999999 0.12935c0.4179 0 0.8955 0.0796 1.4327999999999999 0.10945l1.4327999999999999 0.0796 1.4327999999999999 0.059699999999999996 1.72135 0.059699999999999996h4.02975a0.10945 0.10945 0 0 0 0.10945 -0.10945 0.0995 0.0995 0 0 0 -0.0995 -0.10945l-1.14425 -0.10945c-0.47759999999999997 0 -1.06465 -0.0995 -1.72135 -0.1393l-1.14425 -0.06965 -1.7313 -0.06965h-5.741149999999999a0.11939999999999999 0.11939999999999999 0 0 0 -0.11939999999999999 0.10945 0.12935 0.12935 0 0 0 0.10945 0.11939999999999999M146.265 52.068349999999995v-0.46764999999999995c0 -0.3781 0 -0.74625 0.06965 -1.0845500000000001 0.0796 -0.995 0.1592 -1.6417499999999998 0.1592 -1.6417499999999998a0.11939999999999999 0.11939999999999999 0 0 1 0.11939999999999999 -0.11939999999999999 0.11939999999999999 0.11939999999999999 0 0 1 0.11939999999999999 0.12935s0.04975 0.68655 0.08954999999999999 1.6417499999999998v1.1542l0.3184 -0.20895a0.30845 0.30845 0 0 1 0.22885 0 0.30845 0.30845 0 0 1 0.17909999999999998 0.1592s0.35819999999999996 0.7761 0.7562 1.6616499999999998c0.5174 1.16415 1.1044500000000002 2.5074 1.1044500000000002 2.5074a0.30845 0.30845 0 0 1 -0.10945 0.3781l-2.0397499999999997 1.393c-1.06465 0.7163999999999999 -2.1492 1.42285 -2.1492 1.42285a0.2786 0.2786 0 0 1 -0.2189 0 0.26865 0.26865 0 0 1 -0.17909999999999998 -0.14925s-0.4577 -1.1044500000000002 -0.90545 -2.2089000000000003l-0.8955 -2.2089000000000003a0.1393 0.1393 0 0 1 0 -0.1592l1.70145 -1.1342999999999999 1.6616499999999998 -1.0945m0 0.60695 -1.4327999999999999 0.82585 -1.6815499999999999 0.995 0.995 2.0397499999999997 0.8855500000000001 1.8606500000000001c0.3781 -0.2587 1.1144 -0.7761 1.8606500000000001 -1.2736s1.5522 -1.0547 1.92035 -1.30345c-0.199 -0.4378 -0.62685 -1.40295 -0.995 -2.27855 -0.23879999999999998 -0.5572 -0.4577 -1.0746 -0.597 -1.38305l-0.32835000000000003 0.18905v1.36315c0 1.14425 -0.06965 2.0497 -0.06965 2.0497a0.2786 0.2786 0 0 1 -0.12935 0.22885 0.2985 0.2985 0 0 1 -0.2587 0l-0.995 -0.54725 -0.995 -0.5572A0.12935 0.12935 0 0 1 144.275 54.725a0.11939999999999999 0.11939999999999999 0 0 1 0.16915000000000002 -0.059699999999999996s0.54725 0.18905 1.0945 0.398l0.6965 0.26865v-2.6467m8.955 5.174 1.4526999999999999 0.12935c0.4179 0 0.9154 0.0796 1.4526999999999999 0.10945l1.4526999999999999 0.0796 1.46265 0.059699999999999996 1.74125 0.059699999999999996h4.08945a0.0995 0.0995 0 0 0 0.10945 -0.0995 0.0995 0.0995 0 0 0 -0.0995 -0.10945l-1.16415 -0.10945c-0.47759999999999997 0 -1.0746 -0.0995 -1.7512 -0.1393l-1.14425 -0.12935H155.22a0.10945 0.10945 0 0 0 -0.11939999999999999 0.10945 0.10945 0.10945 0 0 0 0.10945 0.10945m3.3133500000000002 -3.2039 -0.14925 0.4975 2.587 0.17909999999999998 3.98 0.34825 0.17909999999999998 -0.6368zm0.11939999999999999 -0.398 6.646599999999999 0.24875 0.16915000000000002 -0.62685 -1.3333000000000002 -0.0995 -1.1144 -0.11939999999999999 -2.07955 -0.18905 -1.99 -0.199zm17.60155 85.1521a6.45755 6.45755 0 0 1 -2.11935 0.6965 4.9153 4.9153 0 0 1 -2.15915 -0.12935 4.6367 4.6367 0 0 1 -1.52235 -0.78605 6.6267000000000005 6.6267000000000005 0 0 1 -1.6815499999999999 -1.99 8.5371 8.5371 0 0 1 -1.06465 -4.86555 15.1638 15.1638 0 0 1 0.14925 -1.52235c0.0796 -0.52735 0.18905 -0.995 0.2985 -1.52235a21.12385 21.12385 0 0 1 1.5820500000000002 -4.40785 0.14925 0.14925 0 0 0 -0.059699999999999996 -0.20895 0.14925 0.14925 0 0 0 -0.20895 0.059699999999999996 17.5319 17.5319 0 0 0 -1.1044500000000002 2.1293 18.13885 18.13885 0 0 0 -0.8358 2.25865 14.925 14.925 0 0 0 -0.3781 1.5621500000000001 14.25835 14.25835 0 0 0 -0.18905 1.6119 9.2734 9.2734 0 0 0 1.16415 5.2934 7.2038 7.2038 0 0 0 1.9103999999999999 2.1691000000000003 5.1541 5.1541 0 0 0 1.78105 0.8358 5.2934 5.2934 0 0 0 2.4078999999999997 0 6.7461 6.7461 0 0 0 2.189 -0.9154 0.1592 0.1592 0 0 0 0.04975 -0.20895 0.14925 0.14925 0 0 0 -0.20895 0m-6.2884 0.4975a11.631549999999999 11.631549999999999 0 0 1 -1.6417499999999998 -0.995 13.50215 13.50215 0 0 1 -1.48255 -1.2238499999999999 11.03455 11.03455 0 0 1 -1.2537 -1.42285 8.865450000000001 8.865450000000001 0 0 1 -0.995 -1.6417499999999998 7.8008 7.8008 0 0 1 -0.597 -2.17905 8.4973 8.4973 0 0 1 0 -1.52235 10.8654 10.8654 0 0 1 0.36815 -2.25865c0.1393 -0.46764999999999995 0.2985 -0.995 0.4975 -1.46265a0.0796 0.0796 0 0 0 -0.14925 -0.06965 12.6962 12.6962 0 0 0 -0.7263499999999999 1.8308 9.004750000000001 9.004750000000001 0 0 0 -0.3781 1.99 7.7013 7.7013 0 0 0 0 1.592 7.96 7.96 0 0 0 0.6169 2.29845 8.6167 8.6167 0 0 0 0.995 1.72135 9.482349999999999 9.482349999999999 0 0 0 1.3333000000000002 1.46265 12.2584 12.2584 0 0 0 1.5721 1.18405 10.7659 10.7659 0 0 0 1.74125 0.9154s0.0995 0 0.10945 -0.04975a0.0796 0.0796 0 0 0 0 -0.10945m11.2833 -16.4374s2.77605 -2.51735 5.0944 -2.61685a10.79575 10.79575 0 0 1 -0.7761 5.6217500000000005q-0.16915000000000002 0.47759999999999997 -0.38805 0.995a13.8305 13.8305 0 0 1 -1.3134000000000001 2.2685999999999997 23.6611 23.6611 0 0 1 -4.16905 4.378 0.2189 0.2189 0 0 1 -0.1592 0v1.99l-4.06955 1.8705999999999998 2.985 -2.4476999999999998 0.3184 -1.5621500000000001 -1.1144 0.995 -3.0546499999999996 2.3084 1.7114 -3.2238 0.995 -1.26365 -1.6815499999999999 0.52735 -1.8606500000000001 3.0845000000000002 0.995 -3.98 1.60195 -0.597a0.199 0.199 0 0 1 0 -0.10945 20.775599999999997 20.775599999999997 0 0 1 1.592 -3.98 16.9946 16.9946 0 0 1 2.4377500000000003 -3.5024 11.8405 11.8405 0 0 1 0.8756 -0.8557m0.30845 0.7263499999999999c-0.2189 0.20895 -0.4378 0.4179 -0.6368 0.6368a16.76575 16.76575 0 0 0 -2.388 3.3232999999999997 24.28795 24.28795 0 0 0 -1.6417499999999998 3.5919499999999998l2.69645 1.99a24.994400000000002 24.994400000000002 0 0 0 3.29345 -3.7014 16.02945 16.02945 0 0 0 1.6517 -2.9053999999999998c0.10945 -0.2587 0.199 -0.50745 0.2786 -0.74625a4.6964 4.6964 0 0 1 -3.25365 -2.2288m1.28355 2.8556500000000002a1.6517 1.6517 0 0 0 -0.995 -0.84575 1.6417499999999998 1.6417499999999998 0 0 0 -1.2935 0.08954999999999999 1.6517 1.6517 0 0 0 -0.82585 0.995 1.791 1.791 0 0 0 0.1393 1.3134000000000001 1.82085 1.82085 0 0 0 0.995 0.84575 1.6915 1.6915 0 0 0 1.3134000000000001 -0.1393 1.6218499999999998 1.6218499999999998 0 0 0 0.7761 -0.995 1.6417499999999998 1.6417499999999998 0 0 0 -0.17909999999999998 -1.2537zm-0.10945 0.059699999999999996a1.5621500000000001 1.5621500000000001 0 0 1 0.08954999999999999 1.1342999999999999 1.4327999999999999 1.4327999999999999 0 0 1 -1.80095 0.9352999999999999 1.46265 1.46265 0 0 1 -0.8358 -0.6965 1.4925 1.4925 0 0 1 -0.12935 -1.0845500000000001 1.40295 1.40295 0 0 1 0.6766000000000001 -0.8557 1.3731 1.3731 0 0 1 1.0945 -0.12935 1.4925 1.4925 0 0 1 0.90545 0.6965zm-0.33830000000000005 0.17909999999999998a1.24375 1.24375 0 0 0 -0.64675 -0.62685 1.1144 1.1144 0 0 0 -1.5124 0.78605 1.32335 1.32335 0 0 0 0.11939999999999999 0.995 1.34325 1.34325 0 0 0 0.7163999999999999 0.6169 1.18405 1.18405 0 0 0 0.995 -0.06965 1.14425 1.14425 0 0 0 0.5373 -0.76615 1.2338 1.2338 0 0 0 -0.16915000000000002 -0.8855500000000001m-0.10945 0.059699999999999996a1.0547 1.0547 0 0 1 0.06965 0.7761 0.86565 0.86565 0 0 1 -0.46764999999999995 0.5572 0.8358 0.8358 0 0 1 -0.7064499999999999 0 0.995 0.995 0 0 1 -0.54725 -0.47759999999999997 0.995 0.995 0 0 1 -0.10945 -0.7263499999999999 0.8955 0.8955 0 0 1 0.42785 -0.5771 0.8855500000000001 0.8855500000000001 0 0 1 0.7263499999999999 -0.06965 0.995 0.995 0 0 1 0.60695 0.47759999999999997zM165.69735 122.385a3.15415 3.15415 0 0 1 0.6169 -0.995 1.0746 1.0746 0 0 1 0.995 -0.35819999999999996 1.5323 1.5323 0 0 1 0.995 0.8756 2.9253 2.9253 0 0 1 0.8358 -0.62685 1.1144 1.1144 0 0 1 0.995 -0.08954999999999999 0.995 0.995 0 0 1 0.47759999999999997 0.8557 3.61185 3.61185 0 0 1 -0.059699999999999996 1.1144 3.8009 3.8009 0 0 1 0.8756 0.34825 0.08954999999999999 0.08954999999999999 0 0 1 0 0.11939999999999999 0.06965 0.06965 0 0 1 -0.10945 0 3.3034 3.3034 0 0 0 -0.84575 -0.2985 2.1492 2.1492 0 0 1 -0.28855 0.58705 1.16415 1.16415 0 0 1 -0.4378 0.40795 0.398 0.398 0 0 1 -0.35819999999999996 0 0.5771 0.5771 0 0 1 -0.10945 -0.62685 0.76615 0.76615 0 0 1 0.7761 -0.60695h0.12935a2.83575 2.83575 0 0 0 0 -0.995c0 -0.2985 -0.12935 -0.46764999999999995 -0.2786 -0.5373a0.7263499999999999 0.7263499999999999 0 0 0 -0.6169 0.0995 2.83575 2.83575 0 0 0 -0.8557 0.6965l0.059699999999999996 0.23879999999999998a2.5671 2.5671 0 0 1 0 0.6666500000000001 0.6666500000000001 0.6666500000000001 0 0 1 -0.12935 0.33830000000000005 0.35819999999999996 0.35819999999999996 0 0 1 -0.24875 0.1393 0.50745 0.50745 0 0 1 -0.38805 -0.22885 0.8855500000000001 0.8855500000000001 0 0 1 0 -0.9352999999999999 1.3134000000000001 1.3134000000000001 0 0 1 0.18905 -0.28855 0.995 0.995 0 0 0 -0.06965 -0.14925 1.1044500000000002 1.1044500000000002 0 0 0 -0.7163999999999999 -0.6766000000000001 0.6567000000000001 0.6567000000000001 0 0 0 -0.62685 0.23879999999999998 2.5969499999999996 2.5969499999999996 0 0 0 -0.5572 0.9154 1.99 1.99 0 0 1 0.6368 1.30345 1.5522 1.5522 0 0 1 -0.16915000000000002 0.9352999999999999 0.60695 0.60695 0 0 1 -0.30845 0.26865 0.5771 0.5771 0 0 1 -0.4179 0 0.8855500000000001 0.8855500000000001 0 0 1 -0.4378 -0.7363 3.98 3.98 0 0 1 0.2189 -1.6716 0.92535 0.92535 0 0 0 -0.32835000000000003 -0.11939999999999999 0.7761 0.7761 0 0 0 -0.8855500000000001 0.26865 2.6367499999999997 2.6367499999999997 0 0 0 -0.26865 1.5621500000000001 0.0796 0.0796 0 0 1 -0.06965 0.0995 0.0796 0.0796 0 0 1 -0.0995 -0.06965 2.985 2.985 0 0 1 0.23879999999999998 -1.74125 0.995 0.995 0 0 1 1.1342999999999999 -0.40795 1.18405 1.18405 0 0 1 0.38805 0.11939999999999999m0.24875 0.5671499999999999a3.3432 3.3432 0 0 0 -0.16915000000000002 1.34325c0 0.199 0.06965 0.36815 0.199 0.42785a0.20895 0.20895 0 0 0 0.12935 0c0.06965 0 0.11939999999999999 -0.08954999999999999 0.1592 -0.18905a1.6815499999999999 1.6815499999999999 0 0 0 0 -0.92535 1.6119 1.6119 0 0 0 -0.33830000000000005 -0.6766000000000001m4.22875 0.38805h0.10945a0.5373 0.5373 0 0 0 -0.52735 0.44775 0.64675 0.64675 0 0 0 0 0.22885 0.199 0.199 0 0 0 0 0.08954999999999999h0.04975a0.58705 0.58705 0 0 0 0.22885 -0.2189 1.52235 1.52235 0 0 0 0.199 -0.33830000000000005 1.06465 1.06465 0 0 0 0.06965 -0.18905m-1.99 -0.4179a0.64675 0.64675 0 0 0 0 0.12935 0.4378 0.4378 0 0 0 0 0.16915000000000002 0.4975 0.4975 0 0 0 0 -0.11939999999999999v-0.17909999999999998m-72.03800000000001 -30.81515v-1.4925a0.796 0.796 0 0 0 -0.6965 -0.8358 0.7064499999999999 0.7064499999999999 0 0 0 -0.74625 0.7064499999999999v1.6119a0.796 0.796 0 0 0 0.7562 0.7761 0.7064499999999999 0.7064499999999999 0 0 0 0.68655 -0.76615M108.455 91.54v-1.4925a0.8159 0.8159 0 0 0 -0.6965 -0.8358 0.6965 0.6965 0 0 0 -0.74625 0.7064499999999999v1.6119a0.78605 0.78605 0 0 0 0.74625 0.7761 0.7163999999999999 0.7163999999999999 0 0 0 0.6965 -0.76615" stroke-width="1"></path></g></svg>