<svg xmlns="http://www.w3.org/2000/svg" fill="none" viewBox="-0.5 -0.5 200 200"><g id="problem-solving-4--work-problem-solving"><g id="maze"><path id="vector" fill="#000000" d="M153.29169000000002 111.91561c0.55322 -23.762590000000003 -0.11939999999999999 -37.842835 -1.1900199999999999 -54.715050000000005 -0.35322499999999996 -5.608815 -0.633815 -10.038555 -4.888435 -14.611575 -2.10343 -2.25865 -6.1620349999999995 -2.9053999999999998 -7.0943499999999995 -2.9053999999999998 -40.4169 -2.7223200000000003 -79.039815 -2.7223200000000003 -114.75335 0 -3.42877 0 -6.134175 2.78998 -6.21875 6.193874999999999 -0.317405 12.800675 -0.988035 26.133675 -0.9343049999999999 26.3874 0.11542000000000001 0.5382950000000001 5.9829349999999994 6.9451 6.599835 8.676400000000001 0.22686 0.6368 0.16915000000000002 0.73829 0.255715 9.216685 -7.1958400000000005 -0.00199 -6.661525 -0.016915 -6.790875 0.029849999999999998a0.4975 0.4975 0 0 0 -0.28656 0.33830000000000005c-0.4179 1.6954799999999999 1.025845 44.604855 1.155195 49.8495 0.059699999999999996 2.420835 1.91438 5.0406699999999995 2.84371 6.36203 2.072585 2.9452 4.6506300000000005 6.61078 8.74804 6.61078 37.961240000000004 2.785005 76.6349 2.6695849999999997 114.75633499999999 0.000995 3.42877 0 6.21875 -2.788985 6.2177549999999995 -6.185915 0.23879999999999998 -3.7372199999999998 1.4477250000000002 -7.642595 -1.95816 -10.322130000000001l-3.085495 -2.428795 0.01791 -0.31044c0.0398 -0.657695 -0.9561949999999999 -0.715405 -0.99301 -0.057710000000000004 -0.11144 1.9183599999999998 -0.22885 3.843685 -0.35322499999999996 5.79886 -1.374095 -2.243725 -2.96908 -3.87254 -4.641675 -6.09139 -0.110445 -0.14626499999999998 -0.27064 -0.25671 -0.45372 -0.261685a330.33403000000004 330.33403000000004 0 0 1 -12.512125 -0.55322c-1.342255 -14.951865 0.12935 -30.29178 -1.121365 -45.4317 -0.082585 -1.00495 -4.39591 -8.739085 -4.603865 -9.123155a0.4975 0.4975 0 0 0 -0.85371 -0.04179c-0.134325 0.223875 -0.08358 0.011940000000000001 -0.070645 6.23268h-2.1959649999999997c-0.0029850000000000002 -2.948185 0.006965 -2.71436 -0.010945 -2.814855 -0.030845 -0.11542000000000001 0.0199 -0.03383 -1.37509 -2.37805 -4.13323 -6.94709 -3.68946 -6.841620000000001 -4.01582 -7.238625000000001 -0.259695 -0.31641 -0.85769 -0.217905 -0.878585 0.28058999999999995 -0.8278399999999999 19.16569 -0.426855 19.0045 -0.325365 19.18559 0.05572 0.100495 0.0059700000000000005 0.014924999999999999 5.92025 7.78488 -1.35917 0.036815 -2.6865 0.06567 -4.046665 0.20298a0.4975 0.4975 0 0 0 -0.44775 0.488545l-0.44178 33.914575c-49.404734999999995 2.2248200000000002 -76.88763 -1.87259 -77.99407 -1.537275a0.494515 0.494515 0 0 0 -0.337305 0.341285c-0.21691 0.753215 -0.004975 11.28927 0.07561999999999999 13.44046 -0.9830599999999999 -0.059699999999999996 -1.965125 -0.120395 -2.94719 -0.184075l0.034825 -7.01276c-0.192035 -0.75222 -2.930275 -4.834705 -4.88943 -7.172955a0.49551 0.49551 0 0 0 -0.44576 -0.31442c-0.2587 -0.008955 -0.52337 -0.016915 -0.79401 -0.022885l-0.037809999999999996 -2.1412400000000003c3.18201 0.10347999999999999 9.04256 -0.2587 12.0395 -0.124375a0.49551 0.49551 0 0 0 0.51541 -0.432825c0.365165 -2.7939599999999998 0.39899500000000004 -31.121609999999997 0.345265 -31.2828 -0.048755 -0.14626499999999998 -4.731225 -7.35305 -4.80784 -7.44658 -0.33830000000000005 -0.40795 -0.04577 0.004975 -7.957015 0.047760000000000004 -0.08457500000000001 -8.301285 -0.06169 -8.275415 -0.142285 -8.838584999999998 5.728215 -0.50745 28.133625 0.26566500000000004 28.463964999999998 0.14626499999999998a0.490535 0.490535 0 0 0 0.31044 -0.373125c0.385065 -15.71503 0.420885 -15.530955 0.31243 -15.71901 -1.0845500000000001 -1.8904999999999998 -5.678465 -9.14604 -6.16701 -9.385835 -0.07761 -0.711425 -1.063655 -0.5771 -0.99301 0.07164 0.550235 5.059575 0.426855 9.86045 0.438795 14.93694 -4.60884 0.059699999999999996 -20.302975 0.49551 -23.140715 0.5611799999999999v-3.1243000000000003c6.4764550000000005 -0.47063499999999997 15.01654 -0.42785 15.51404 -0.84177a0.49352 0.49352 0 0 0 0.17810499999999999 -0.4179c-0.679585 -9.216685 -0.27462000000000003 -11.457425 -1.38902 -14.05736 18.1687 -0.42188 17.27519 0.39999 18.718935 0.26865 0.150245 3.97602 0.29053999999999996 7.733140000000001 0.34029000000000004 11.916120000000001 0.00398 0.37412 0.011940000000000001 0.995 0.39999 1.453695 1.84871 2.8457 3.4645900000000003 6.334169999999999 5.339169999999999 9.210715 0.462675 0.7094349999999999 0.802965 0.932315 1.64971 0.932315l9.59777 -0.00995c0.00995 3.6476699999999997 -0.0059700000000000005 7.29733 -0.048755 10.9251a130.5042 130.5042 0 0 0 -13.26136 0.261685c-0.7094349999999999 -1.559165 -4.062585 -8.862465 -4.82376 -10.540035 -0.20198500000000003 -0.444765 -0.858685 -0.36019 -0.94326 0.12139l0.717395 34.593165000000006c0.006965 0.410935 0.018904999999999998 1.0905200000000002 0.47063499999999997 1.56016 2.036765 3.11037 6.010795000000001 9.515185 6.182930000000001 9.642545a0.47759999999999997 0.47759999999999997 0 0 0 0.24278 0.094525c12.233525 1.537275 24.939675 0.836795 25.43618 0.590035a0.4975 0.4975 0 0 0 0.225865 -0.6666500000000001 65.095885 65.095885 0 0 0 -5.68344 -9.39081 0.4975 0.4975 0 0 0 -0.534315 -0.18706c-3.718315 0.032835 -12.311135 -0.044774999999999995 -18.63436 -0.2587 -0.331335 -3.35713 -0.516405 -7.55802 -0.55123 -12.498194999999999 0.44775 -0.01592 1.189025 -0.034825 2.138255 -0.056715 2.711375 4.37601 3.787965 5.27947 5.669510000000001 9.344045a0.4975 0.4975 0 0 0 0.466655 0.29651c4.516305 -0.04975 20.60048 0.0995 25.032210000000003 0.9751a0.496505 0.496505 0 0 0 0.5780949999999999 -0.436805l-0.866645 -49.271405c13.602644999999999 -0.5591900000000001 29.07987 -1.0547 41.39001 -0.5422750000000001 -0.01592 13.32305 1.4109099999999999 39.3224 1.3611600000000001 52.339985 0.02786 0.5492400000000001 0.114425 -0.10347999999999999 4.299395 4.7451550000000005 0.48755 0.56516 2.408895 2.808885 2.677545 2.9233100000000003a0.49152999999999997 0.49152999999999997 0 0 0 0.609935 -0.203975c0.25074 -0.41889499999999996 -0.209945 -0.681575 -0.025869999999999997 -4.00587 1.24574 1.616875 2.5412299999999997 3.24768 4.0406949999999995 4.37402 0.186065 0.1393 0.440785 0.132335 0.6169 -0.014924999999999999 1.887515 -1.5701100000000001 0.964155 -7.425685 1.015895 -9.679359999999999l-0.00398 -0.00398ZM33.14743 90.95295c0.029849999999999998 2.84371 0.03582 5.7550799999999995 0.03184 8.66048 -2.7272950000000002 -0.14626499999999998 -5.50633 0.044774999999999995 -7.750055 0.53332 -1.893485 -2.7044099999999998 -4.0794999999999995 -6.2127799999999995 -6.000845 -9.00276 4.48745 0.010945 9.566925 0.056715 13.71906 -0.19104000000000002Zm65.10086 51.985765c0.613915 1.4895150000000001 1.376085 2.94918 2.3491950000000004 4.49143 -6.751075 0.15323 -13.479265 0.223875 -20.18059 0.209945 -0.8756 -1.74921 -1.6765750000000001 -3.6019 -2.43974 -5.357080000000001 6.65655 0.85769 13.465335 1.08853 20.271135 0.655705Zm7.818709999999999 -6.7461c0.697495 1.7541849999999999 3.6775200000000003 9.145045000000001 4.39591 10.95495 -1.4526999999999999 0.050745 -2.904405 0.096515 -4.355115 0.1393l-0.040795000000000005 -11.09425Zm20.20447 3.314345c-1.09251 -1.897465 -2.5481949999999998 -4.045669999999999 -3.6755299999999997 -5.937164999999999 3.109375 0.24477 6.239644999999999 0.44576 9.370909999999999 0.60297 0.038805 1.883535 0.07263499999999999 3.8247799999999996 0.10746 5.766025a30.105715 30.105715 0 0 0 -5.80284 -0.43183Zm-6.71625 -40.1582c-0.33631 -1.799955 -0.24079 -4.19691 -0.18308 -6.03169 0.5452600000000001 -0.16517 1.268625 -0.16417500000000002 1.7313 0.00796l0.012934999999999999 5.926220000000001a38.07865 38.07865 0 0 1 -1.5611549999999998 0.096515Zm13.4325 36.102579999999996c1.30743 1.86264 2.91535 3.889455 4.64665 5.8506 0.08159000000000001 1.057685 0.357205 4.016815 0.395015 4.436705 -1.6158800000000002 0.10945 -3.230765 0.21293 -4.8446549999999995 0.31243l-0.19701000000000002 -10.60073v0.000995Zm7.06052 10.149 -1.025845 0.070645c-0.038805 -0.428845 -0.291535 -3.145195 -0.36616 -4.07353 0.9303250000000001 0.00398 5.52623 0.06169 6.490385 0.064675a5.2516099999999994 5.2516099999999994 0 0 1 -5.09838 3.93821Zm-62.383515 -4.36009 -0.016915 -4.064575 2.4218300000000004 4.35611c-0.802965 -0.08756 -1.604935 -0.18506999999999998 -2.404915 -0.29053999999999996v-0.000995Zm-0.99301 0.436805c0.008955 0.15522 0.00995 0.124375 0.327355 0.852715 -5.965025 -0.23481999999999997 -30.219144999999997 -0.988035 -36.308545 -1.22982 -1.3910099999999999 -2.65267 -3.173055 -5.752095 -4.363074999999999 -7.7868699999999995a601.2785 601.2785 0 0 0 40.318395 2.00393l0.025869999999999997 6.160045Zm-35.741395 0.627845c6.004825 0.23681 30.39725 0.995 36.509535 1.2377799999999999a103.93969 103.93969 0 0 0 1.865625 4.094425 784.773415 784.773415 0 0 1 -38.38909 -1.0616649999999999c0.011940000000000001 -1.439765 0.059699999999999996 -2.7263 0.01393 -4.27054Zm-14.643415000000001 3.35912 -0.920375 -0.066665c-2.880525 0 -5.1521099999999995 -2.34422 -5.22375 -5.24763 -0.05870499999999999 -2.363125 -0.22487000000000001 -4.72625 -0.32437 -7.093355 2.426805 2.663615 6.410785 7.069475000000001 6.45357 7.117235l0.014924999999999999 5.290415Zm-1.5671249999999999 -44.798880000000004c0.02189 1.774085 0.03383 6.09736 0.032835 10.94301 -1.734285 -1.97806 -3.260615 -3.465585 -5.27549 -5.42872 -0.10746 -0.104475 -0.20895 -0.23084000000000002 -0.41690499999999997 -0.247755a940.530715 940.530715 0 0 1 -0.090545 -13.89816c0.8019700000000001 1.181065 4.701375 7.14211 5.750105 8.631625000000001Zm-5.640655 6.516255c2.132285 2.07756 3.72727 3.648665 5.67349 5.950100000000001l-0.01592 8.056515c-2.0397499999999997 -0.030845 -4.002885 -0.07761 -5.34713 -0.11740999999999999a953.62193 953.62193 0 0 1 -0.31044 -13.889204999999999Zm6.63864 -6.279445c2.158155 -0.460685 4.832715 -0.6368 7.46051 -0.492525 -0.040795000000000005 20.663165 0.029849999999999998 20.553715 -0.016915 20.66615 -0.39601000000000003 0.20695999999999998 -6.964004999999999 0.132335 -7.43066 0.126365 0.026865 -7.5013049999999994 0.020895 -17.085145 -0.012934999999999999 -20.29999Zm118.95623 39.5612c-0.8616699999999999 -0.004975 -5.340165 -0.06169 -6.33218 -0.06368 -1.893485 -2.150195 -3.634735 -4.37402 -4.98097 -6.361034999999999 2.217855 0.10248499999999999 4.434715 0.182085 6.6416249999999994 0.23879999999999998 1.68354 2.21686 3.32529 3.89841 4.671525 6.185915Zm-19.047285000000002 -53.006635c1.18803 14.962810000000001 -0.225865 30.199244999999998 1.10246 45.213795000000005a338.77163 338.77163 0 0 1 -4.5441650000000005 -0.331335l-0.11343 -51.97084c1.24176 2.25865 2.753165 5.021764999999999 3.555135 7.08838Zm-4.52526 4.63073a4.14318 4.14318 0 0 0 -2.034775 0.08358 113.862825 113.862825 0 0 0 -5.3023549999999995 -6.80381h7.322205l0.014924999999999999 6.72023Zm-3.2078800000000003 -10.29029v2.57506h-4.5391900000000005c0.016915 -0.86565 0.148255 -7.65553 0.20099 -10.095270000000001 1.3382749999999999 2.54919 2.8984349999999997 5.051615 4.3382000000000005 7.52021Zm-4.67849 9.20176 0.09850500000000001 -4.62078a112.656885 112.656885 0 0 1 5.06853 6.5471c-0.048755 1.57409 -0.11542000000000001 3.27753 0.0029850000000000002 4.868535 -0.661675 -0.868635 -4.211835 -5.54215 -5.17002 -6.794855Zm7.9032849999999994 9.05052 0.07363 32.7952c0.050745 0.504465 2.866595 4.675505 4.361085 7.212755a0.490535 0.490535 0 0 0 0.44974000000000003 0.25273c3.815825 -0.11939999999999999 5.65359 0.42785 6.0894 0.43581l0.09850500000000001 5.163055c-6.906295 0.41889499999999996 -13.79866 0.755205 -20.67212 1.001965a875.165185 875.165185 0 0 0 -1.77309 -4.430735c3.1342499999999998 -0.414915 6.4675 -0.41989 8.98684 -0.006965 0.452725 0.070645 0.765155 -0.48158 0.53929 -0.8358l-5.009825 -7.8983099999999995 0.434815 -33.394189999999995c2.154175 -0.18109 4.227754999999999 -0.11542000000000001 6.421729999999999 -0.29551499999999997Zm-7.379915 34.723510000000005 4.17502 6.581925c-2.53128 -0.293525 -5.640655 -0.23382499999999998 -8.55302 0.17312999999999998 -0.06965 -0.17312999999999998 -1.833785 -4.548145 -2.597945 -6.47745 2.327305 -0.078605 4.653614999999999 -0.17114 6.975945 -0.27760500000000005Zm-8.66844 0.33332500000000004c0.00199 1.875575 0.040795000000000005 10.074375 0.04179 12.00965a756.72735 756.72735 0 0 1 -3.350165 0.08756c-2.92928 -4.48745 -2.41586 -5.4088199999999995 -3.1402200000000002 -5.477475 -0.428845 -0.040795000000000005 -7.41275 0.7024699999999999 -17.343845 -0.269645l-3.4029 -6.120245c9.075395 0.128355 18.15079 0.051739999999999994 27.19534 -0.22984500000000002Zm-69.19528500000001 -0.59302c1.1959899999999999 2.056665 2.798935 4.870525 4.048655 7.26748 0.06368 1.664635 0.010945 3.0845000000000002 -0.00199 4.54118 -1.306435 -0.06965 -2.6108800000000003 -0.14328 -3.913335 -0.219895 -0.14029499999999998 -3.702395 -0.188055 -7.87045 -0.13333 -11.588765Zm-8.59282 11.023605 -0.03582 -12.2385a44.097405 44.097405 0 0 1 3.8645799999999997 5.775975l-0.042785 6.72023c-1.26365 -0.082585 -2.5263050000000002 -0.168155 -3.785975 -0.257705Zm-1.0149 -6.8495800000000004c-1.28753 -1.42285 -3.9670650000000003 -4.3819799999999995 -5.76105 -6.351085a107.261 107.261 0 0 1 5.742145 0l0.01791 6.35009 0.000995 0.000995Zm-6.51924 -7.322205c-0.11542000000000001 -2.8775399999999998 -0.2189 -5.758065 -0.30845 -8.64058l5.489415 6.14313 0.04378 2.446705a107.14956000000001 107.14956000000001 0 0 0 -5.224745 0.050745Zm5.9073150000000005 -3.17803 -5.44862 -6.096365c1.137285 0.029849999999999998 12.229545 0.3184 13.28723 -0.074625 0.6119249999999999 1.017885 3.0397250000000002 5.0944 3.598915 6.02572 -3.21385 -0.06567 -8.52118 0.275615 -11.437524999999999 0.14526999999999998Zm12.205665 -30.53058c-0.01592 10.918135000000001 0.025869999999999997 18.82938 -0.30944499999999997 29.21519 -0.43382 -0.725355 -2.725305 -4.57302 -3.3959349999999997 -5.686425 0.018904999999999998 -0.116415 0.00398 -28.558490000000003 -0.00199 -29.218175 0.480585 0.74426 2.9501749999999998 4.470535 3.70737 5.68941Zm107.447065 -51.909150000000004c0.18706 2.142235 0.36019 4.32825 0.518395 6.550085l-47.42767 0.203975c0.01393 -0.17213499999999998 0.023880000000000002 -0.0199 -5.149125 -13.79866a0.50546 0.50546 0 0 0 -0.110445 -0.17312999999999998 896.6542 896.6542 0 0 1 46.943105 1.9502c2.880525 0 5.22375 2.3422300000000003 5.22574 5.266535ZM96.307045 61.792485c0.12537 8.343074999999999 0.7094349999999999 39.034845000000004 0.82585 46.349090000000004 -1.04674 -2.8855 -2.12134 -5.39688 -4.052635 -8.488345a0.48556 0.48556 0 0 0 -0.17312999999999998 -0.16716c0.028855000000000002 -8.89729 -0.22984500000000002 -40.00696 -0.259695 -44.774005a55.09116 55.09116 0 0 1 3.65961 7.080419999999999ZM59.675125 66.11775c-0.15323 -0.16915000000000002 -0.16915000000000002 -0.504465 -0.17312999999999998 -0.8338099999999999 -0.09751 -8.357005 -0.625855 -16.283175 -0.737295 -26.332675a781.06505 781.06505 0 0 1 14.607595 -0.27661c-0.25273 4.66854 0.66864 14.843409999999999 0.584065 15.6613 -0.158205 0.06567 -7.047585 0.68456 -7.21176 0.73431a0.494515 0.494515 0 0 0 -0.345265 0.43382c-0.03383 0.6427700000000001 1.0815649999999999 0.86565 5.827715 7.941095a0.492525 0.492525 0 0 0 0.412925 0.22089c0.894505 -0.00995 5.887415 -0.307455 9.25151 -0.621875 -0.05870499999999999 2.15915 0.056715 2.120345 -0.621875 2.15716 -21.49996 1.167135 -21.26912 1.27758 -21.594485 0.9163950000000001Zm17.337875 0.30845c4.6765 -0.25074 4.69043 -0.20895 5.077484999999999 -0.377105a44.92425 44.92425 0 0 1 5.1013649999999995 9.666425c-0.7363 0.03383 -4.31432 0.16318000000000002 -5.17201 0.20695999999999998 -1.57807 -3.2397199999999997 -3.32728 -6.42372 -5.007835 -9.495284999999999l0.000995 0Zm10.72013 -15.395635c0.657695 7.65155 0.23879999999999998 15.028479999999998 -0.20496999999999999 22.836245a45.812785 45.812785 0 0 0 -4.76804 -8.5968c0.158205 -0.5492400000000001 0.500485 -11.96189 -0.12537 -24.52675 1.73727 3.41683 3.6755299999999997 7.186885 5.09838 10.2883Zm-5.8157749999999995 11.011665c-0.49152999999999997 0.046765 -1.0149 0.09253499999999999 -1.5561800000000001 0.13731000000000002l-5.451605 -7.5819c0.271635 -1.023855 -0.5771 -6.2287 -0.5591900000000001 -14.171785 2.3093950000000003 3.63175 5.77697 8.890325 7.638615 12.546949999999999 0.022885 3.0267899999999996 0.000995 6.053579999999999 -0.07164 9.069425Zm-7.724185 -6.736149999999999 5.00883 6.965c-2.2238249999999997 0.16915000000000002 -4.5969 0.311435 -6.304320000000001 0.38904500000000003 -1.85468 -2.753165 -3.4626 -4.9153 -4.993905 -6.713265 6.251585 -0.61292 6.0675099999999995 -0.580085 6.289395 -0.641775Zm2.20691 12.074325c2.41785 4.417800000000001 5.129225 9.3928 6.973955 13.99965 0.247755 5.567025 -0.633815 11.119125 -1.2039499999999999 16.62048 -1.801945 -3.26957 -4.094425 -6.5321750000000005 -5.736174999999999 -9.793785 0.08557 -6.91525 0.074625 -13.91408 -0.03383 -20.82535Zm6.59884 32.370335000000004c0.5562050000000001 -6.159050000000001 1.80294 -12.27432 1.36514 -18.50302 -0.026865 -0.38805 -1.716375 -4.01383 -1.8765699999999998 -4.351135l5.499365 -0.227855c0.512425 -0.116415 0.40397000000000005 -0.46764999999999995 0.53332 -2.74421 0.44576 -7.874429999999999 0.950225 -15.323 0.196015 -23.069074999999998 -0.048755 -0.504465 -4.769035 -9.70523 -6.029699999999999 -12.213625 2.962115 0.0059700000000000005 5.93816 0.029849999999999998 8.92714 0.066665 -0.032835 8.955995 0.32636000000000004 51.945965 0.29651 60.85221 -1.26166 0.042785 -8.91122 0.190045 -8.91122 0.190045Zm9.634585 -47.01972a1649.2323999999999 1649.2323999999999 0 0 1 -0.028855000000000002 -12.716099999999999l4.78197 12.691225000000001 -4.753115 0.024875ZM81.52432999999999 38.640825c0.231835 4.04169 0.3781 8.111239999999999 0.43979 12.183774999999999 -2.219845 -3.9650749999999997 -5.50036 -8.87739 -7.549065 -12.15691a803.55205 803.55205 0 0 1 7.109274999999999 -0.026865Zm-61.46115 8.841569999999999c4.749135 6.9252 4.570035 6.85356 5.264545 7.14211 0.06567 1.608915 -0.014924999999999999 2.83575 0.04378 4.45362 -2.02184 0.06766 -3.98995 0.17512 -5.805825 0.32138500000000003 0.14129 -3.9780100000000003 0.307455 -7.957015 0.4975 -11.917115Zm6.3023299999999995 11.56588c-0.05572 -1.52633 0.01592 -2.701425 -0.03582 -4.246659999999999 1.48852 0.047760000000000004 5.330215 -0.026865 8.360985000000001 -0.28357499999999997l-0.01791 4.540185a146.21126999999998 146.21126999999998 0 0 0 -8.307255 -0.00995Zm8.34805 -12.874305 -0.018904999999999998 7.3460849999999995a91.69024499999999 91.69024499999999 0 0 1 -8.167955 0.291535c-0.8756 -0.00995 -0.990025 -0.108455 -1.38902 -0.6885399999999999l-4.1153200000000005 -5.998855c8.778885 -1.08256 13.415585 -0.860675 13.6912 -0.950225Zm19.359715 19.57364 -0.32039 13.349915c-1.57807 -2.840725 -2.792965 -4.480485 -4.472525 -7.733140000000001 -0.01592 -4.53123 0.088555 -8.959975 -0.26865 -13.51011a125.82172999999999 125.82172999999999 0 0 1 5.061565 7.8933349999999995Zm-5.590904999999999 6.239644999999999c1.8526900000000002 3.5621 3.10042 5.13022 4.88943 8.494315 -4.353125 -0.10945 -23.56558 -0.5611799999999999 -27.73065 -0.13631500000000002 -0.747245 -1.640755 -4.4327250000000005 -5.835675 -5.92423 -7.691350000000001 9.141065 -0.126365 19.703985 -0.5562050000000001 28.76545 -0.6666500000000001Zm-29.273895 -0.32238c0.07761 -3.419815 0.17312999999999998 -6.85555 0.28855 -10.294270000000001 0.5552100000000001 0.8238599999999999 3.606875 5.274495 4.323275 6.3630249999999995 0.07761 0.11740999999999999 0.180095 0.273625 0.32835000000000003 0.40894499999999995v3.4357349999999998c-1.68354 0.036815 -3.338225 0.066665 -4.940175 0.08656499999999999Zm13.533990000000001 -4.593915c-7.4913549999999995 0.20895 -7.724185 0.4378 -7.89234 0.359195 -0.056715 -0.025869999999999997 -4.796895 -7.014749999999999 -4.83172 -7.067485 4.518295 -0.34426999999999996 10.106215 -0.4577 14.87724 -0.2985 0.74824 1.16614 2.8835100000000002 4.9461450000000005 4.349145 6.7311749999999995 -2.18303 0.15522 -4.373024999999999 0.21691 -6.502325 0.275615Zm7.005795 -1.23977c-1.4526999999999999 -1.9103999999999999 -3.4397149999999996 -5.4327 -4.082485 -6.4078l0.04577 -11.29922c4.193925 7.6814 3.2436999999999996 4.746149999999999 4.036715 17.70702Zm-0.751225 -13.70115c-0.530335 -1.12435 -1.1223599999999998 -2.178055 -1.696475 -3.198925 -1.821845 -3.236735 -1.62981 -3.2436999999999996 -1.8705999999999998 -3.47852 -0.28656 -0.2786 -0.68456 -0.27064 -0.86963 -0.26865 -4.808835 0.07761 -9.662445 0.43083499999999997 -14.436455 1.04873 0.004975 -0.10945 0.012934999999999999 -0.2189 0.01592 -0.32835000000000003 0.07164 -2.880525 2.343225 -5.22375 5.26156 -5.22574a701.981455 701.981455 0 0 1 32.366355000000006 -1.69747c0.056715 5.072509999999999 0.20695999999999998 9.328125 0.359195 13.405635 -6.09139 -0.572125 -13.02853 -0.40098500000000004 -19.130865 -0.2587l0.000995 0.000995Zm26.925695 23.77055c-0.49551 0 -0.544265 -0.014924999999999999 -0.84575 -0.47958999999999996 -1.589015 -2.4377500000000003 -3.0914650000000004 -5.52225 -4.649635 -8.10726l14.96082 -0.796c0.052735 3.109375 0.08557 6.239644999999999 0.09850500000000001 9.3729l-9.56394 0.00995Zm9.699259999999999 12.91311c1.881545 3.69145 4.516305 7.318225 6.359045 10.963905 -1.6616499999999998 0.030845 -15.49215 0.27263000000000004 -17.91597 0.37013999999999997 -1.8049300000000001 -3.17007 -4.4327250000000005 -7.397824999999999 -6.0496 -10.711175 5.827715 -0.605955 11.749955 -0.8159 17.606525 -0.62287Zm-14.499139999999999 -0.66068c-0.21492 0.016915 -3.322305 0.27263000000000004 -3.505385 0.34029000000000004 -0.064675 -2.9611199999999998 -0.12537 -5.80483 -0.174125 -8.36795 0.49352 1.0765900000000002 3.00888 6.55705 3.67951 8.02766Zm22.23825 26.733659999999997a64.08098500000001 64.08098500000001 0 0 1 5.097385 8.351035000000001c-8.01373 0.34426999999999996 -16.112035000000002 0.122385 -24.09293 -0.6596850000000001 -1.01689 -1.5561800000000001 -4.43571 -7.000819999999999 -5.234695 -8.24059 5.1143 0.42984 19.029374999999998 0.58904 24.23024 0.5492400000000001Zm-24.27999 -1.5522c-0.8139099999999999 -0.07164 -0.940275 -0.18109 -0.9561949999999999 -1.1044500000000002 -0.082585 -4.824755000000001 -0.422875 -19.936815 -0.452725 -21.26315 1.66961 3.21385 4.026764999999999 7.02271 5.613790000000001 9.82463 0.028855000000000002 5.055595 0.21193499999999998 9.359965 0.5452600000000001 12.80366 -1.929305 -0.07263499999999999 -3.58996 -0.1592 -4.75013 -0.26069000000000003Zm13.77279 -3.618815c-2.0248250000000003 -4.096415 -2.991965 -5.035695 -5.27549 -8.66446 2.8218199999999998 -0.060695 24.29989 -0.46566 24.870025000000002 -0.51939 2.1691000000000003 3.54419 3.2068849999999998 6.359045 4.46954 10.003730000000001 -4.128255 -0.613915 -18.523915000000002 -0.9163950000000001 -24.064075 -0.8198799999999999Zm24.189445 -48.7152a56.19959 56.19959 0 0 0 -3.84468 -7.278425l52.6952 -0.227855c0.42785 6.19885 0.74426 12.68625 0.94724 19.4025 -0.93729 -1.6318 -1.98801 -3.340215 -3.015845 -5.009825 -4.577995 -7.43862 -4.088455 -7.36698 -4.613815 -7.419715 -12.484265 -0.5492400000000001 -28.317700000000002 -0.038805 -42.1681 0.532325Zm44.005865 52.562864999999995c0.032835 -12.37979 -1.27758 -37.1931 -1.358175 -50.64152 2.180045 3.8576149999999996 5.196885 8.380885 7.210764999999999 12.130045 0.8139099999999999 30.747490000000003 -0.460685 41.56314 -0.31243 44.52227 -1.8606500000000001 -2.07557 -3.3839949999999996 -4.048655 -5.541155 -6.0117899999999995l0.000995 0.000995Z" stroke-width="1"></path></g><path id="navigation" fill="#000000" d="M166.42469499999999 129.36393a89.64751 89.64751 0 0 0 -8.53909 -4.3919299999999994 1.1183800000000002 1.1183800000000002 0 1 0 -0.9154 2.04174 87.22568 87.22568 0 0 1 5.899355 2.91734c-4.864555 0.23283 -9.763935 0.188055 -14.599635 -0.35223 -5.133204999999999 -0.5741149999999999 -11.027585 -1.77906 -13.52205 -6.860525 -1.945225 -3.9620900000000003 -1.501455 -8.323175 -1.82085 -17.554785 -0.47163 -13.636475 -0.97908 -16.432425000000002 -1.5760800000000001 -28.04706 -0.120395 -2.3482 -0.38009 -4.72625 -1.308425 -6.908284999999999 -1.760155 -4.140194999999999 -5.9222399999999995 -6.736149999999999 -10.28034 -7.3431 -7.99781 -1.115395 -16.63839 3.74717 -18.287105 12.87331 -1.1561899999999998 6.396855 -0.434815 12.878285 0.122385 19.296035 0.40795 4.697395 0.5422750000000001 9.406730000000001 0.9422649999999999 14.106114999999999 0.42586 5.005845 0.980075 12.076315000000001 -2.5133699999999997 15.944874999999998 -3.393945 3.7571199999999996 -9.451505000000001 3.6287649999999996 -14.46332 3.4914549999999998 -7.208775 -0.199995 -15.006590000000001 0.07164 -22.410384999999998 -1.1144 -3.5919499999999998 -0.576105 -9.797765 -1.985025 -12.219595 -4.6993849999999995 -6.09537 -6.828685 -1.3193700000000002 -22.798435 -7.2635 -33.44593 -1.9502 -3.493445 -5.163055 -5.8565700000000005 -9.212705 -6.1351700000000005 -3.5223 -0.24278 -26.237155 -0.225865 -29.480855000000002 -0.190045 -0.852715 0.008955 -0.8477399999999999 1.286535 0 1.32136 10.53705 0.42984 25.97547 0.38805 29.683835 0.765155 5.997859999999999 0.609935 8.52914 6.426704999999999 9.66543 12.323075 1.49051 7.7311499999999995 0.19303 16.167755 2.9611199999999998 23.015345 1.791995 4.43372 4.217805 5.876469999999999 8.840575 7.42469 8.848535 2.964105 20.06915 2.4656100000000003 29.73458 2.7342600000000004 5.072509999999999 0.14129 11.010670000000001 0.190045 14.985695 -3.48847 5.444640000000001 -5.03868 3.9093549999999997 -14.78968 3.356135 -21.707915 -0.18506999999999998 -2.3193449999999998 -0.19701000000000002 -4.64466 -0.35024 -6.965995 -0.47362 -7.157035 -2.48949 -20.34974 1.015895 -26.607295 3.8367199999999997 -6.8495800000000004 13.938955 -9.470410000000001 20.354715000000002 -4.63272 4.122285 3.10838 4.066565 8.26447 4.256609999999999 12.94296 0.14129 3.461605 0.701475 8.082384999999999 1.2188750000000002 19.17166 0.619885 13.273299999999999 0.23681 15.10609 0.767145 18.991565 0.80396 5.899355 3.41086 9.709209999999999 9.18385 11.751945 5.8496049999999995 2.0696 15.967759999999998 2.17109 22.17258 1.8904999999999998l-5.220765 2.731275c-1.0338049999999999 0.540285 -0.64675 2.1113899999999997 0.51939 2.1113899999999997 0.39004 0 -0.22984500000000002 0.26467 8.432625 -4.269545 1.3134000000000001 -0.687545 1.3999650000000001 -2.237755 -0.12935 -3.131265Z" stroke-width="1"></path><g id="goal"><path id="vector_2" fill="#000000" d="M190.62707500000002 125.05757000000001c-0.323375 -1.2238499999999999 -2.26064 -2.146215 -3.449665 -0.060695 -1.29549 -1.457675 -3.38499 -2.428795 -5.786919999999999 -2.428795 -4.27054 0 -7.10231 3.0447 -7.1858900000000006 5.441655a25.044150000000002 25.044150000000002 0 0 0 0.106465 3.254645c-0.814905 -0.323375 -2.00791 -0.41192999999999996 -2.6536649999999997 -0.012934999999999999 -0.980075 0.60695 -1.38902 1.9870150000000002 -0.8994800000000001 3.029775 1.19201 2.53526 5.6655299999999995 1.64971 5.411805 4.098405 -0.025869999999999997 0.24875 -0.09751 0.54327 0.08159000000000001 0.71839 0.14526999999999998 0.142285 0.39899500000000004 0.11542000000000001 0.5572 -0.011940000000000001 0.124375 -0.100495 0.207955 -0.259695 0.26467 -0.43382 0.438795 0.462675 0.936295 0.8547049999999999 1.4994649999999998 1.1571850000000001 -0.703465 0.540285 -1.13828 1.278575 -1.13828 2.09149 0 1.654685 1.80095 3.00092 4.01383 3.00092 2.21288 0 4.01383 -1.346235 4.01383 -3.00092 0 -0.846745 -0.47163 -1.6119 -1.22783 -2.158155 0.77013 -0.45571 1.407925 -1.0984800000000001 1.9332850000000001 -1.863635 1.14624 -1.6706050000000001 1.5721 -3.539215 1.935275 -5.387925 0.09850500000000001 -0.49949 0.203975 -0.9412699999999999 0.45471500000000004 -1.45469 0.777095 -1.585035 2.52133 -4.26457 2.0686050000000002 -5.978955h0.000995Zm-18.543815 8.285365a1.1203699999999999 1.1203699999999999 0 0 1 1.30743 -1.3522049999999999c0.144275 0.028855000000000002 0.6955049999999999 0.27462000000000003 1.065645 0.426855 0.156215 1.011915 0.38904500000000003 2.00393 0.711425 2.92729 -1.37509 -0.6965 -2.83973 -0.96117 -3.0845000000000002 -2.00194Zm12.385760000000001 8.557c0 1.087535 -1.38305 2.00592 -3.01883 2.00592s-3.01883 -0.918385 -3.01883 -2.00592c0 -0.66466 0.516405 -1.26564 1.2905149999999999 -1.632795 0.16318000000000002 0.044774999999999995 0.329345 0.08358 0.50148 0.116415 0.0199 0.132335 0.040795000000000005 0.26467 0.06567 0.395015 0.31641 1.65966 2.094475 1.336285 2.29248 -0.016915 0.018904999999999998 -0.124375 0.028855000000000002 -0.257705 0.03582 -0.395015a5.5322 5.5322 0 0 0 0.498495 -0.128355c0.8099299999999999 0.36417 1.354195 0.97908 1.354195 1.660655l-0.000995 0.000995Zm-3.0785299999999998 -2.404915c-3.957115 0 -5.535184999999999 -3.89244 -6.03169 -7.80478 2.725305 3.487475 8.796795 3.64568 11.78876 0.327355 -0.510435 3.648665 -2.0576600000000003 7.47842 -5.75707 7.47842v-0.000995Zm0 -6.0794500000000005c-3.40688 0 -6.177955 -2.209895 -6.177955 -4.926245 0 -2.71635 2.771075 -4.926245 6.177955 -4.926245 3.40688 0 6.177955 2.209895 6.177955 4.926245 0 2.71635 -2.771075 4.926245 -6.177955 4.926245Zm7.176935 -5.009825a5.02873 5.02873 0 0 0 -0.7163999999999999 -2.486505c0.38407 -0.45571 1.4526999999999999 -1.6536899999999999 1.7044350000000001 -0.18706 0.100495 0.586055 -0.41591 1.52235 -0.988035 2.673565Z" stroke-width="1"></path><g id="group"><path id="vector_3" fill="#000000" d="M177.57964 118.557235c0.034825 -1.545235 -0.20198500000000003 -3.467575 -0.456705 -5.87448 -0.066665 -0.629835 -0.059699999999999996 -1.3392700000000002 -0.26268 -1.94224 -0.182085 -0.54327 -0.96117 -0.44277500000000003 -0.992015 0.134325 -0.034825 0.6358050000000001 0.160195 1.31539 0.263675 1.941245 0.36019 2.178055 0.67461 4.29243 1.123355 5.783935 0.05373 0.17810499999999999 0.32039 0.14526999999999998 0.32437 -0.042785Z" stroke-width="1"></path><path id="vector_4" fill="#000000" d="M183.89988000000002 119.100505c1.111415 -2.1959649999999997 2.034775 -4.259595 3.515335 -8.364965 0.13731000000000002 -0.381085 0.34029000000000004 -0.783065 0.090545 -1.153205 -0.080595 -0.11939999999999999 -0.231835 -0.20198500000000003 -0.3781 -0.154225 -0.414915 0.13532 -0.508445 0.48158 -0.641775 0.86565 -0.13631500000000002 0.39601000000000003 -2.4685949999999997 6.95107 -3.0387299999999997 8.6167 -0.090545 0.263675 0.32636000000000004 0.440785 0.452725 0.190045Z" stroke-width="1"></path><path id="vector_5" fill="#000000" d="M173.20960000000002 143.63322499999998c-0.62685 0.381085 -1.16614 0.93331 -1.6895099999999998 1.443745 -0.19303 0.188055 -4.3581 4.277505000000001 -4.850625 4.97898 -0.26666 0.38009 0.27263000000000004 0.936295 0.653715 0.653715 0.6984899999999999 -0.518395 4.7163 -4.82774 4.80983 -4.928235 0.512425 -0.550235 1.073605 -1.121365 1.44872 -1.7760749999999998 0.13333 -0.23283 -0.13631500000000002 -0.51541 -0.37213 -0.37213Z" stroke-width="1"></path><path id="vector_6" fill="#000000" d="M180.314895 147.29382999999999c-1.5332949999999999 7.85652 -1.51439 7.77493 -1.29549 8.15701 0.126365 0.219895 0.395015 0.217905 0.572125 0.07363 0.31641 -0.257705 0.36417 -0.707445 0.566155 -1.937265 0.43382 -2.635755 0.54725 -3.52628 0.739285 -6.214770000000001 0.023880000000000002 -0.33034 -0.518395 -0.40695499999999996 -0.582075 -0.078605Z" stroke-width="1"></path><path id="vector_7" fill="#000000" d="M171.28128999999998 123.530245c-0.968135 -0.711425 -2.243725 -1.4109099999999999 -3.0954450000000002 -1.813885 -0.38904500000000003 -0.184075 -0.828835 -0.46963999999999995 -1.25569 -0.23481999999999997 -0.15522 0.08557 -0.20099 0.26069000000000003 -0.17213499999999998 0.422875 0.08656499999999999 0.482575 0.66068 0.67461 2.05169 1.272605 0.743265 0.319395 1.50046 0.5979949999999999 2.28054 0.80595 0.28656 0.076615 0.40795 -0.293525 0.19104000000000002 -0.452725Z" stroke-width="1"></path><path id="vector_8" fill="#000000" d="M188.672895 143.19642c2.26263 2.410885 2.379045 2.595955 2.7392350000000003 2.56113 0.16119 -0.01592 0.28556499999999996 -0.12139 0.291535 -0.291535 0.012934999999999999 -0.361185 0.04577 -0.29651 -2.7213249999999998 -2.57904 -0.213925 -0.176115 -0.50546 0.100495 -0.30944499999999997 0.30944499999999997Z" stroke-width="1"></path></g><path id="vector_9" fill="#000000" d="M191.651925 120.88852c-0.062685 -1.985025 -1.34922 -3.8387100000000003 -3.12828 -4.50934 -0.584065 -0.22089 -0.307455 -1.1044500000000002 0.301485 -0.94724 1.7820449999999999 0.46764999999999995 2.924305 -1.22982 3.2854900000000002 -3.03674 0.11939999999999999 -0.5979949999999999 1.00296 -0.49152999999999997 0.98505 0.11243500000000001 -0.020895 0.667645 -0.040795000000000005 1.35718 0.15721 1.969105 0.19104000000000002 0.592025 0.61093 1.04475 1.071615 1.155195 0.7333149999999999 0.17512 2.03378 -0.221885 2.637745 0.77013a0.498495 0.498495 0 0 1 -0.43183 0.7562c-1.94025 -0.046765 -3.83075 1.7502049999999998 -3.88448 3.728265 -0.018904999999999998 0.64078 -0.974105 0.639785 -0.995 0.00199h0.000995Zm-1.24972 -4.552125a6.185915 6.185915 0 0 1 1.807915 2.47357 5.162059999999999 5.162059999999999 0 0 1 2.2238249999999997 -2.1531800000000003c-1.634785 -0.174125 -2.0964650000000002 -1.77508 -2.1511899999999997 -1.9472150000000001 -0.44576 0.7263499999999999 -1.067635 1.340265 -1.88055 1.626825Z" stroke-width="1"></path></g></g></svg>