<svg xmlns="http://www.w3.org/2000/svg" fill="none" viewBox="-0.5 -0.5 200 200"><g id="problem-solving-5--work-problem-solving"><path id="head" fill="#000" d="M179.839285 67.98566349999999c-5.109325 -35.223 -34.162330000000004 -62.95266495 -76.791115 -62.95266495 -0.00398 -0.23481999999999997 -11.676324999999999 0.26268 -18.593565 1.847715C63.595425 11.6646835 42.461625 25.293198500000003 35.743385 45.2389685c-8.430635 25.02624 -5.373995 29.801245 -8.351035000000001 41.997955000000005 -2.7213249999999998 11.146984999999999 -4.100395000000001 10.352974999999999 -8.351035000000001 19.6469715 -1.7512 3.8267700000000002 4.41581 6.713265 8.484364999999999 7.67941 0.570135 0.13333 0.23481999999999997 -0.01791 0.23979499999999998 3.03077 0.01791 10.900225 0.834805 25.30683 6.100345 34.849875 1.7621449999999999 3.1959400000000002 5.06256 6.398845 10.35994 8.548045 8.615705 3.4974250000000002 14.289195000000001 2.61486 17.332900000000002 2.8387350000000002 0.884555 0.06567 -0.11740999999999999 0.04975 -3.06261 11.239519999999999 -1.1760899999999999 4.47153 -2.33029 8.997784999999999 -3.171065 14.625505 -0.655705 4.38795 -0.755205 4.1710400000000005 0.64874 4.184970000000001 11.791745 0.106465 93.42154500000001 0.357205 93.753875 -0.237805 0.23084000000000002 -0.41391999999999995 0.36616 -0.836795 0.21492 -1.332305 -12.175815 -39.713435 -11.974825000000001 -42.596945 4.132235 -61.78552 3.750155 -4.46755 15.911045 -17.715975 21.140765 -31.698411500000002 1.92234 -5.143154999999999 2.8068950000000004 -7.44857 3.598915 -11.25146 1.27559 -6.1232299999999995 1.941245 -13.273299999999999 1.02485 -19.590555v0.000995ZM45.876464999999996 140.66713c-0.6885399999999999 0.522375 -1.3134000000000001 0.8925150000000001 -1.7820449999999999 1.0815649999999999 -1.4696150000000001 0.5910299999999999 -1.7561749999999998 0.078605 0.337305 -1.752195 1.50643 -1.393995 3.3959349999999997 -2.611875 4.776 -6.136165 0.70844 -1.8049300000000001 0.661675 -3.71334 0.6427700000000001 -3.813835 -0.715405 0.25671 -4.06159 4.605854999999999 -10.279345 4.940175 -1.50046 0.078605 -3.975025 -0.492525 -3.51036 -1.376085 0.21094 -0.40596 0.52934 -0.221885 1.189025 -0.12139 1.91637 0.29252999999999996 4.14119 0.011940000000000001 6.26452 -0.7880400000000001 2.667595 -1.00694 4.072535 -2.82381 6.672470000000001 -4.30835 1.163155 -0.66466 1.222855 1.322355 1.2248450000000002 2.54919 0.0059700000000000005 4.29044 -3.16012 7.919205 -5.535184999999999 9.725129999999998Zm126.172965 -51.5775165c-4.84565 17.4052365 -19.833334999999998 36.6365965 -41.006935 47.7338315 -53.384735 27.980394999999998 -107.29084999999999 -28.879875 -92.43749 -80.97976650000001 9.543045 -33.472795 44.197900000000004 -50.42461995 76.56724 -44.9143 36.421974999999996 6.199845 67.31274499999999 40.670625 56.877185 78.160235Z" stroke-width="1"></path><g id="labyrinth"><path id="vector" fill="#000" d="M90.65246 136.83837c-4.741174999999999 -0.9024650000000001 -9.111215 -2.0556699999999997 -14.93296 -5.186935 -4.872515 -2.6208299999999998 -6.014775 -3.89244 -10.33009 -7.46449 -3.085495 -2.5531699999999997 -5.3023549999999995 -5.238675 -7.10032 -7.326185000000001 -6.160045 -7.154050000000001 -12.010645 -19.645678 -13.124049999999999 -24.042583 -1.113405 -4.396904999999999 -2.2238249999999997 -6.997835 -0.341285 -7.254545 10.004725 -1.360165 3.8934349999999998 -0.580085 10.138055 -1.22783 1.3711099999999998 -0.142285 1.003955 1.9700005 4.924255 11.1737505 3.26161 7.659012499999999 8.25452 14.2777525 12.1987 17.9174625 5.57001 5.14017 7.789854999999999 5.98592 11.67135 8.04557 5.8107999999999995 3.083505 15.467274999999999 5.444640000000001 21.825325 5.105345 3.982985 -0.21293 2.0924850000000004 -0.339295 3.9740300000000004 -0.31442 0.520385 0.006965 0.64476 0.789035 -2.7999300000000003 1.38902 -10.036565 1.746225 -28.440085 -4.528245 -37.64085 -15.14788 -6.35407 -7.33315 -9.700255 -12.12507 -14.0693 -26.621623000000003 -0.11740999999999999 -0.38904500000000003 0.01592 -0.29859949999999996 -1.74125 -0.11352949999999999 -2.61287 0.275615 -7.762989999999999 1.0198749999999999 -7.785875 1.02286 -0.32238 0.0398 -0.57511 -0.1083555 -0.44377 0.6130194999999999 1.139275 6.245615 6.930175 19.231758 13.074300000000001 27.048478 17.592595 22.384515 34.27178 20.24228 33.368320000000004 21.993479999999998 -0.28258 0.54725 -0.83978 0.22885 -0.864655 0.391035Z" stroke-width="1"></path><path id="vector_2" fill="#000" d="M90.181825 116.985135c-5.72523 -2.2417350000000003 -10.98679 -5.139175 -16.195615 -10.251485 -6.247605 -6.132185000000001 -11.63951 -17.867414 -11.74896 -22.825499 -0.008955 -0.424865 0.40198 -0.8547049999999999 0.7233649999999999 -0.391035 0.26865 0.38705500000000004 8.749035 36.597294 43.983975 34.248099 21.6313 -1.44275 36.42496 -18.369889 36.254815 -39.278819 0 -0.074625 0.004975 -0.0199 -0.122385 -0.7711250000000001 -8.944055 1.364145 -9.48434 0.41591 -9.477375 1.1422599999999998 0.01791 1.95418 -0.9293300000000001 7.66349 -3.797915 14.157855 -3.84468 8.704459 -11.531055 13.614783999999998 -12.143975 12.598889 -0.61292 -1.015895 2.261635 -0.35322499999999996 7.674435 -7.3830990000000005 3.1551449999999996 -4.096415 5.73717 -10.84351 6.56899 -15.946865 0.174125 -1.069625 0.30049 -2.148205 0.456705 -3.220815 0.03184 -0.2189 0.13034500000000002 -0.42984 0.16318000000000002 -0.64874 0.10149 -0.69053 0.15123999999999999 -0.894505 6.064525 -1.4477250000000002 4.444665 -0.41591 5.165045 -0.586055 5.412800000000001 0.337305 0.506455 1.883535 0.432825 5.57598 0.142285 7.505285 -0.27263000000000004 1.813885 -0.458695 9.554985 -8.116215 19.487274 -1.626825 2.110395 -4.987935 5.6914 -8.63859 8.12517 -7.740105 5.16007 -13.083255 5.499365 -13.632495 5.632695 -5.35509 1.294495 -16.512024999999998 1.696475 -23.571550000000002 -1.067635v-0.00199Z" stroke-width="1"></path><path id="vector_3" fill="#000" d="M42.6855 69.152102c0.17810499999999999 -7.81473 1.72931 -13.645430000000001 4.25263 -19.38459 1.129325 -2.5690899999999997 4.593915 -8.665455 5.521255 -9.92811 9.103254999999999 -12.392725 23.280015 -20.117905 36.107555 -22.49496 3.25962 -0.603965 10.825600000000001 -2.1492 15.055345 -1.80692 0.36417 0.029849999999999998 0.65073 0.59302 0.16318000000000002 0.6855549999999999 -0.022885 0.00398 -17.02843 0.94326 -30.75545 7.8445800000000006 -11.60369 5.833685 -19.484090000000002 14.289195000000001 -24.827240000000003 25.297875 -2.73028 5.62573 -3.825775 11.608665 -4.528245 17.824430000000003 -0.17810499999999999 1.579065 -0.38705500000000004 1.5482200000000002 0.038805 1.65767 0.307455 0.0796 14.189694999999999 -1.22783 23.361605 -1.2716100000000001 0.888535 -0.00398 -0.28258 -11.243500000000001 9.31917 -20.75371 3.3113599999999996 -3.2795199999999998 4.510335 -3.1621099999999998 4.247655 -3.6685649999999996 -1.14027 -2.20691 -1.95617 -4.160095 -4.087459999999999 -8.771920000000001 -2.38601 -5.162059999999999 -2.46163 -5.0944 -2.225815 -5.290415 0.14726 -0.122385 0.28258 -0.07561999999999999 0.40695499999999996 0.0199 0.160195 0.12338 0.35322499999999996 0.23283 0.45471500000000004 0.39601000000000003 0.62088 0.99699 1.29549 1.96811 1.8049300000000001 3.0218149999999997 0.49949 1.031815 3.6377200000000003 7.7022949999999994 4.243675 9.96592 0.13134 0.490535 0.34029000000000004 0.8377899999999999 0.004975 1.25569 -1.077585 1.34325 -6.26054 5.17997 -8.98684 10.667395 -6.15308 12.384765 -1.53827 14.227504999999999 -6.0098 14.390685 -24.599384999999998 0.8994800000000001 -23.58349 1.350215 -23.560605 0.34426999999999996l-0.000995 -0.000995Z" stroke-width="1"></path><path id="vector_4" fill="#000" d="M161.8268 99.6791c-2.0835299999999997 4.313325 -6.12124 10.405710000000001 -10.443520000000001 13.985719999999999 -0.18308 0.15123999999999999 -0.33631 0.11542000000000001 -0.488545 -0.022885 -0.33830000000000005 -0.30646 0.13631500000000002 -0.671625 0.597 -1.246735 5.97796 -7.4475750000000005 11.507175 -13.5519 14.64839 -29.662940000000003 0.655705 -3.3630999999999998 0.8238599999999999 -8.324169999999999 0.687545 -11.33703 -0.050745 -1.1104200000000002 -0.5979949999999999 -4.625755 -0.7780900000000001 -5.72523 -1.0706200000000001 -6.554065 -3.3790199999999997 -12.022585 -6.78789 -17.719955000000002 -6.62073 -11.067385 -11.817615 -16.9548 -23.994425 -23.361605 -5.478470000000001 -2.8825149999999997 -17.460259999999998 -6.1789499999999995 -23.580505000000002 -7.105295 -1.2964849999999999 -0.196015 -1.583045 0.01791 -1.7303050000000002 -0.5492400000000001 -0.13333 -0.51541 0.26467 -0.5562050000000001 1.4138950000000001 -0.458695 9.031615 0.76615 20.190540000000002 5.37499 20.491030000000002 5.485435 4.58894 1.688515 10.370885 4.892415 16.129945 9.76891 5.082459999999999 4.30437 10.0296 11.48827 13.32504 17.419465000000002 9.055495 16.299095 8.62068 33.739455 0.51143 50.53008h-0.000995Z" stroke-width="1"></path><path id="vector_5" fill="#000" d="M101.13378999999999 46.8936535c-3.055645 0 -3.563095 0.319395 -3.831745 -0.43382 -0.303475 -0.852715 -6.55108 -18.905995 -7.672445000000001 -23.37056 -0.04577 -0.18109 -0.00398 -0.271635 0.16915000000000002 -0.34625999999999996 1.23579 -0.532325 7.710254999999999 21.672095 8.070445000000001 22.929775000000003 0.190045 0.66267 0.17213499999999998 0.042785 2.4974499999999997 0.04975 1.943235 0.0059700000000000005 2.83177 -0.08656499999999999 5.72722 0.319395 4.5829699999999995 0.641775 10.780825 3.340215 15.41255 7.606775 2.0626349999999998 1.90045 1.815875 2.428795 2.2238249999999997 2.03378 7.873435000000001 -7.63961 7.22967 -6.892365 7.048579999999999 -7.059525 -5.5540899999999995 -5.129225 -10.569885 -8.30825 -18.400534999999998 -9.903234999999999 -5.385935 -1.0964900000000002 -6.85356 0.21293 -7.514239999999999 -1.60593 -2.43974 -6.72023 -4.7839599999999995 -15.506079999999999 -4.7909250000000005 -15.532945 -0.08557 -0.3184 -0.14029499999999998 -0.55123 0.16716 -0.66068 0.2786 -0.09850500000000001 0.444765 0.13134 0.5591900000000001 0.40496499999999996 1.7512 4.1929300000000005 4.66655 14.557845 4.8854500000000005 15.49414 0.255715 1.0905200000000002 3.07654 -0.90744 12.0196 2.03776 5.90632 1.945225 12.143975 7.354045 13.989700000000001 9.565930000000002 0.422875 0.506455 0.6119249999999999 0.88157 -7.459515 8.11323 -0.73232 0.6567000000000001 -0.52735 0.41591 -4.81779 -3.069575 -4.10736 -3.3362350000000003 -10.24452 -6.317255 -15.580705 -6.487399999999999 -2.703415 -0.08557 -2.6974449999999996 -0.21691 -2.70242 -0.08557Z" stroke-width="1"></path><path id="vector_6" fill="#000" d="M43.2825 77.490799c-0.7333149999999999 0.03383 -1.515385 -0.20596499999999998 -0.97908 -0.7054549999999999 0.904455 -0.84177 19.276135 -0.9193800000000001 31.441005 -2.63277 1.252705 -0.176115 1.393995 -0.026865 1.38902 -0.375115 -0.156215 -10.53904 4.723265 -19.03435 12.223575 -23.861095000000002 3.16012 -2.03378 3.119325 -2.058655 3.14221 -2.06562 0.357205 -0.10547 0.0796 -0.35322499999999996 -0.209945 -1.216885 -7.194845 -21.44225 -7.652545 -20.76963 -7.568965 -21.38454 0.06965 -0.50944 0.540285 -0.5979949999999999 0.7780900000000001 -0.26268 0.028855000000000002 0.040795000000000005 7.7600050000000005 19.670154999999998 8.34009 22.82132 0.056715 0.305465 -0.06766 0.5522250000000001 -0.339295 0.7124199999999999 -6.673465 3.923285 -12.51909 10.102235 -14.494165 17.717965 -0.16915000000000002 0.653715 -0.6994849999999999 4.10338 -0.7193849999999999 4.243675 -0.482575 3.4606100000000004 0.325365 4.15711 -0.6358050000000001 4.546155 -4.179995 1.6915 -27.86 2.25268 -32.366355000000006 2.46362l-0.000995 -0.000995Z" stroke-width="1"></path><path id="vector_7" fill="#000" d="M102.43525 111.33453c-9.631599999999999 0 -20.318894999999998 -4.648639999999999 -28.40128 -16.758387000000003 -1.965125 -2.9452 -5.123255 -8.928135000000001 -5.682445 -11.80269 -0.23979499999999998 -1.234795 0.534315 -1.25967 3.750155 -1.60792 6.713265 -0.727345 6.613765 -0.572125 6.880425 0.029849999999999998 2.542225 5.72921 1.07858 3.9203 4.86754 9.296285 0.40496499999999996 0.5741149999999999 1.68752 1.877565 2.16711 2.2845199999999997 5.423744999999999 4.5998850000000004 7.02271 3.984975 6.828685 4.826745 -0.30646 1.332305 -5.768015 -2.3611350000000004 -7.6366249999999996 -3.95612 -2.9113700000000002 -2.48551 -5.732195 -6.80182 -7.093355 -11.91811 -0.160195 -0.603965 0.00199 0.032835 -7.41872 0.66267 -1.00893 0.08557 -1.0746 0.11343 -0.970125 0.38208000000000003 6.77197 17.441951999999997 17.79458 28.348147 36.487645 27.534236999999997 0.522375 -0.022885 1.1422599999999998 -0.11939999999999999 1.34325 -0.106465 0.46168000000000003 0.029849999999999998 0.7124199999999999 0.584065 0.090545 0.773115 -0.253725 0.07761 -5.206835 0.49352 -5.2138 0.359195l0.000995 0.000995Z" stroke-width="1"></path><path id="vector_8" fill="#000" d="M96.852305 137.227415c-0.41192999999999996 -0.0995 -0.623865 -0.56516 -0.253725 -0.8168949999999999 0.67461 -0.456705 8.882365 1.23579 23.20738 -2.74421 0.456705 -0.12736 -0.6358050000000001 -2.792965 -1.302455 -5.8157749999999995 -1.7422449999999998 -7.89632 -1.66364 -7.324195 -1.6417499999999998 -8.04557 0.00995 -0.325365 0.546255 -0.597 0.787045 -0.203975 0.41989 0.68655 3.36111 13.451405 3.600905 13.524040000000001 0.291535 0.088555 4.363074999999999 -1.6417499999999998 4.385960000000001 -1.6517 13.647419999999999 -5.620755 16.651325 -11.321110000000001 21.452199999999998 -15.06231 0.293525 -0.22885 1.097485 0.029849999999999998 -0.968135 2.2238249999999997 -5.439665 5.777965 -9.528120000000001 9.11221 -16.691125 12.52904 -6.10731 2.912365 -12.148950000000001 5.138179999999999 -19.79851 6.080445 -3.286485 0.40496499999999996 -9.55996 0.763165 -12.777790000000001 -0.01791v0.000995Z" stroke-width="1"></path><path id="vector_9" fill="#000" d="M132.99369000000002 72.3994835c-0.651725 0.056715 -0.773115 -0.6427700000000001 -1.200965 -2.06562 -2.28054 -7.584885 -4.41979 -8.87142 -3.700405 -9.654485 1.53628 -1.67359 18.86122 -17.367724999999997 20.866145 -18.792565 0.369145 -0.261685 1.031815 0.026865 0.67859 0.51143 -0.7124199999999999 0.97709 -6.856545 6.5709800000000005 -7.095345 6.794855 -13.243450000000001 12.387749999999999 -13.875275 11.694235 -13.499165 12.173824999999999 0.890525 1.1362899999999998 2.639735 4.377005 3.630755 8.812714999999999 0.23084000000000002 1.0338049999999999 -0.006965 1.4138950000000001 0.43183 1.334295 4.890425 -0.87958 7.46847 -1.415885 14.21656 -2.48551 11.90418 -1.887515 15.930945 -3.27554 16.09114 -2.460635 0.31243 1.58802 -27.946565 5.6147849999999995 -30.41914 5.831695Z" stroke-width="1"></path><path id="vector_10" fill="#000" d="M154.32848 81.779448c-1.00694 11.940995 -4.2267600000000005 21.783137 -13.207629999999998 30.339142 -1.5900100000000001 1.515385 -9.51618 8.259495 -11.63354 8.681375 -0.36417 0.07263499999999999 -0.597 -0.23084000000000002 -0.47461499999999995 -0.40695499999999996 1.0218649999999998 -1.4696150000000001 7.55006 -5.507325 12.12905 -10.35994 8.993805 -9.5321 12.70615 -21.632892 11.93204 -31.330162 -0.24676 -3.087485 -0.291535 -3.065595 0.35322499999999996 -3.32927 1.17808 -0.482575 3.69145 -0.936295 4.63471 -0.97908 1.25967 -0.057710000000000004 5.4983699999999995 -0.8616699999999999 5.969004999999999 -0.31641 0.5611799999999999 0.6497350000000001 -1.04475 0.7910250000000001 -4.078505 1.346235 -4.59889 0.8407749999999999 -6.166015 0.56516 -6.0894 1.0765900000000002 0.377105 2.5014299999999996 0.23979499999999998 2.02383 0.46566 5.278474999999999Z" stroke-width="1"></path><path id="vector_11" fill="#000" d="M51.529059999999994 63.584679c-2.18502 0.13532 -2.989975 0.39402000000000004 -2.9561450000000002 -0.597 0.038805 -1.12634 0.5711299999999999 -3.551155 0.76018 -4.35412 2.8556500000000002 -12.110145 13.471305 -23.687965 18.02144 -24.10089 0.22885 -0.020895 0.21691 0.24576499999999998 0.13134 0.34825 -0.73232 0.874605 -9.891295000000001 4.880475000000001 -15.92199 20.69003 -0.958185 2.5133699999999997 -1.037785 3.501405 -1.44275 5.636675 -0.38606 2.03577 -1.300465 1.08057 8.58685 0.920375 1.230815 -0.0199 -0.68257 -4.58894 5.984925 -14.159845 3.8496550000000003 -5.52623 7.9799 -7.853535 8.25651 -7.46648 0.665655 0.9343049999999999 -1.60792 1.380065 -4.377005 4.33422 -2.010895 2.1442249999999996 -5.790900000000001 7.6973199999999995 -7.2635 12.37979 -1.515385 4.81779 -1.0765900000000002 5.696375 -1.992985 5.785925000000001 -4.464565 0.4378 -7.77692 0.73033 -7.785875 0.584065l-0.000995 -0.000995Z" stroke-width="1"></path><path id="vector_12" fill="#000" d="M135.303085 41.363543c-13.15589 -12.92903 -23.45016 -9.21967 -24.112830000000002 -11.133055 -1.063655 -3.071565 -2.010895 -9.475385 -2.010895 -9.50026 -0.022885 -0.28058999999999995 0.36019 -0.64476 0.621875 -0.20099 0.43183 0.73033 2.2845199999999997 8.699285 2.406905 9.373895 0.15323 0.84376 2.9790300000000003 -0.7810750000000001 9.96592 1.5900100000000001 3.75911 1.27559 6.91326 2.75217 10.314169999999999 5.49439 5.30335 4.2755149999999995 4.7163 4.886444999999999 5.218775 4.380985 1.48852 -1.49648 6.27646 -6.257555 8.174919999999998 -7.4963299999999995 0.26268 -0.17114 0.63481 0.078605 0.391035 0.422875 -0.17014500000000002 0.23979499999999998 -0.924355 1.2129050000000001 -1.2716100000000001 1.5721 -7.809755 8.09333 -7.220714999999999 7.933135 -9.699259999999999 5.49638h0.000995Z" stroke-width="1"></path><path id="vector_13" fill="#000" d="M116.05182500000001 23.795226c0.79401 -0.06766 1.3731 0.040795000000000005 6.647595 1.3392700000000002 6.3242199999999995 1.5561800000000001 17.708015 8.5172 16.677194999999998 9.70125 -0.717395 0.824855 -4.150145 -3.4635949999999998 -10.92709 -6.32621 -9.660454999999999 -4.0814900000000005 -11.08828 -3.2954399999999997 -13.680255 -3.9222900000000003 -0.307455 -0.074625 -0.834805 -0.7920200000000001 1.282555 -0.7920200000000001Z" stroke-width="1"></path><path id="vector_14" fill="#000" d="M133.858345 64.3827685c-0.056715 -0.047760000000000004 -0.42386999999999997 -0.223875 -0.16517 -0.51342 1.294495 -1.449715 27.98139 -13.521055 25.266035000000002 -10.678339999999999 -0.365165 0.38208000000000003 -22.31188 10.14701 -25.100865 11.191759999999999Z" stroke-width="1"></path></g><path id="light bulb" fill="#000" d="M123.948145 69.633682c-1.95418 -19.373645 -27.795325 -21.38255 -36.84286 -8.430635 -1.2646449999999998 1.811895 -1.246735 2.0904949999999998 -2.110395 4.250640000000001 -0.773115 1.929305 -0.9094300000000001 3.7611 -0.9452499999999999 5.807815 -0.064675 3.65563 0.769135 5.178975 1.8904999999999998 7.90428 1.7303050000000002 4.20288 7.5301599999999995 5.949105 9.84453 10.020645 3.9670650000000003 6.9849 1.33728 11.232953 5.12823 11.206088 1.545235 -0.014924999999999999 0.12537 2.1720849999999996 3.93622 2.836745 2.0855200000000003 0.36218 3.863585 -0.4179 4.05164 -0.45471500000000004 0.6766000000000001 -0.13333 1.62384 -0.767145 2.060645 -1.815875 0.259695 -0.623865 0.106465 -1.115395 0.42785 -1.24176 0.04975 -0.020895 1.3412600000000001 0.028855000000000002 1.7959749999999999 -1.303848 0.29651 -0.868635 0.31442 -6.1570599999999995 0.43382 -6.709285 1.596975 -7.310265 3.77702 -6.9829099999999995 7.622694999999999 -11.814630000000001 2.1561649999999997 -2.705405 2.997935 -7.354045 2.7064000000000004 -10.255465000000001Zm-12.05741 26.92868c0.08159000000000001 0.287555 -0.345265 0.43183 -0.50546 0.48556 -1.58006 0.532325 -10.47934 1.23579 -10.71217 0.645755 -0.26765500000000003 -0.68257 1.06067 -0.520385 6.01776 -0.968135 3.0267899999999996 -0.26865 5.013805 -0.8198799999999999 5.19987 -0.16318000000000002Zm-0.33830000000000005 -2.72829c-1.10843 0.32039 -10.61267 1.734285 -11.328075 0.8099299999999999 -0.22885 -0.299495 0.235815 -0.592025 0.67262 -0.639785 0.10347999999999999 -0.010945 10.48531 -1.039775 10.93505 -0.661675 0.16716 0.14129 0.016915 0.40596 -0.27959500000000004 0.49152999999999997Zm11.262405000000001 -22.351679999999998c-0.8208749999999999 9.76692 -6.88142 9.574885 -9.230614999999998 15.806569999999999 -0.75819 2.0128850000000003 -0.61292 2.408895 -1.119375 2.4496900000000004 -0.022885 0.00199 -13.85637 1.22584 -13.879255 1.22783 -0.8268449999999999 0.08557 -0.126365 -0.03184 -2.0626349999999998 -3.1034050000000004 -1.4835450000000001 -2.3521799999999997 -3.485485 -3.3790199999999997 -7.041615 -6.251585 -2.339245 -1.893485 -3.4228 -4.75411 -4.112335 -7.684385 -0.32835000000000003 -1.3910099999999999 -0.142285 -1.897465 -0.18308 -3.535235 -0.06965 -2.9262949999999996 1.362155 -6.40382 2.8705749999999997 -8.855500000000001 5.67946 -9.230614999999998 23.43424 -9.730105 30.20621 -2.225815 4.0397 4.4765049999999995 4.701375 10.400735 4.552125 12.171835Z" stroke-width="1"></path><g id="question mark"><path id="vector_15" fill="#000" d="M108.13262 58.718332999999994c-7.20579 -2.635755 -13.542945000000001 3.9222900000000003 -11.73702 8.94107 0.5950099999999999 1.6536899999999999 2.6367499999999997 2.2685999999999997 3.8337350000000003 0.701475 1.017885 -1.332305 0.468645 -4.2785 3.45663 -4.7451550000000005 2.06562 -0.32238 5.441655 1.04674 4.63471 4.18696 -0.751225 2.9223149999999998 -4.98296 5.005845 -5.54215 8.02965 -1.001965 5.42872 3.88846 5.412800000000001 4.460585 2.345215 0.59302 -3.18201 6.406805 -4.329245 6.579935000000001 -11.658415 0.074625 -3.1641000000000004 -1.829805 -6.389889999999999 -5.686425 -7.8008Z" stroke-width="1"></path><path id="vector_16" fill="#000" d="M102.878025 84.32018049999999c-1.328325 3.03475 2.84769 5.26554 4.59889 2.43178 2.042735 -3.3073799999999998 -2.8825149999999997 -6.35208 -4.59889 -2.43178Z" stroke-width="1"></path></g><g id="elements"><path id="vector_17" fill="#000" d="M95.099115 74.15516099999999c-2.580035 2.6467 -3.2636 3.32131 -3.1063899999999998 3.6257800000000002 0.028855000000000002 0.056715 0.090545 0.116415 0.223875 0.116415 0.737295 0 4.299395 -2.74819 4.32825 -3.6218 0.0199 -0.671625 -0.56914 -1.0198749999999999 -1.445735 -0.120395Z" stroke-width="1"></path><path id="vector_18" fill="#000" d="M94.18073 70.188295c-0.042785 -0.281585 -0.43183 -0.422875 -0.57511 -0.504465 -0.032835 -0.01791 -0.07363 -0.022885 -0.108455 -0.01393 -5.01082 1.26962 -5.0526100000000005 1.6536899999999999 -5.069525 1.8178649999999998 -0.030845 0.29750499999999996 0.436805 0.311435 0.7363 0.311435 1.06465 0 5.161065000000001 -0.6775950000000001 5.016789999999999 -1.610905Z" stroke-width="1"></path><path id="vector_19" fill="#000" d="M93.226525 66.405106c0.87958 0.1393 1.3044449999999999 -0.73232 0.138305 -1.28753 -2.6865 -1.26962 -2.80789 -1.3054400000000002 -3.1670849999999997 -1.4138950000000001 -0.18706 -0.05572 -0.398 -0.17312999999999998 -0.456705 0.01393 -0.037809999999999996 0.0995 -0.070645 0.148255 -0.048755 0.247755 0.10547 0.45173 2.3243199999999997 2.2417350000000003 3.533245 2.4407349999999997l0.000995 -0.000995Z" stroke-width="1"></path><path id="vector_20" fill="#000" d="M116.03093 74.447293c-0.653715 -0.5552100000000001 -0.918385 -0.8994800000000001 -1.44275 -0.450735 -0.080595 0.06766 -0.118405 0.16119 -0.11144 0.269645 0.030845 0.494515 1.09251 1.411905 4.08547 3.374045 0.19701000000000002 0.12935 0.48755 0.287555 0.64675 0.110445 0.13134 -0.144275 0.040795000000000005 -0.398 -0.0995 -0.57312 -0.29452 -0.367155 -1.1094249999999999 -1.059675 -3.0785299999999998 -2.73028Z" stroke-width="1"></path><path id="vector_21" fill="#000" d="M120.61589 70.62350799999999c-0.43183 -0.263675 -3.334245 -0.9193800000000001 -3.98597 -1.035795 -0.414915 -0.074625 -0.9382849999999999 0.050745 -0.95321 0.47461499999999995 -0.023880000000000002 0.6696350000000001 0.25074 0.62685 4.362080000000001 1.1561899999999998 0.273625 0.034825 0.80595 0.09751 0.894505 -0.150245 0.07263499999999999 -0.20298 -0.19104000000000002 -0.36616 -0.317405 -0.44377v-0.000995Z" stroke-width="1"></path><path id="vector_22" fill="#000" d="M116.20605 66.12839650000001c0.6775950000000001 0 2.8556500000000002 -1.429815 3.19395 -1.76314 0.213925 -0.20895 0.174125 -0.34228 0.10347999999999999 -0.41591 -0.34029000000000004 -0.36019 -3.163105 0.866645 -3.6367249999999998 1.3044449999999999 -0.325365 0.30049 -0.20099 0.8756 0.33830000000000005 0.8756l0.000995 -0.000995Z" stroke-width="1"></path></g></g></svg>