<svg xmlns="http://www.w3.org/2000/svg" viewBox="-0.5 -0.5 200 200"><g fill="#000000" fill-rule="evenodd"><path d="M86.9033 85.03269999999999c-0.1393 0.26865 -0.54725 2.985 1.0547 2.985a1.16415 1.16415 0 0 0 1.1542 -0.995c0.33830000000000005 -3.0447 -1.6517 -3.03475 -2.2089000000000003 -1.99zm14.4275 -0.0398c0.08954999999999999 1.0547 0.20895 1.99 1.26365 1.99a1.16415 1.16415 0 0 0 1.1542 -0.995 6.706300000000001 6.706300000000001 0 0 0 -0.20895 -1.90045c-0.5771 -1.06465 -2.35815 -0.80595 -2.2089000000000003 0.90545zm-6.965 9.6117c0.30845 0 2.985 -0.12935 3.61185 -0.6169 0.18905 -0.1393 0.16915000000000002 -0.40795 0.16915000000000002 -0.6567000000000001a56.06825 56.06825 0 0 0 -0.8159 -8.4177c0 -0.14925 -0.12935 -0.17909999999999998 -0.20895 -0.1592s-0.11939999999999999 0.1592 -0.10945 0.398c0 0.8159 -0.06965 1.0945 0.2189 5.66155 0.18905 2.985 0.10945 2.1492 0.16915000000000002 2.6467a19.3428 19.3428 0 0 1 -2.8655999999999997 0.80595c-0.64675 0.1393 -0.18905 0.33830000000000005 -0.16915000000000002 0.33830000000000005zM97.51 101.49a5.9003499999999995 5.9003499999999995 0 0 1 -2.388 0.68655 0.1592 0.1592 0 1 0 0 0.3184 3.3034 3.3034 0 0 0 4.3979 -2.71635 0.1592 0.1592 0 1 0 -0.30845 -0.0796A4.84565 4.84565 0 0 1 97.51 101.49zM52.9141 24.755599999999998c2.55715 8.54705 11.6017 8.12915 12.656400000000001 8.76595 0 0.0995 2.0696 8.06945 2.9053999999999998 9.163950000000002 0.46764999999999995 0.60695 1.592 0.36815 2.33825 0.22885 1.7512 -0.34825 3.7809999999999997 -0.4577 5.26355 -1.6417499999999998 0.3781 -0.30845 0.1592 -1.5621500000000001 0.059699999999999996 -1.99a39.8 39.8 0 0 0 -1.3134000000000001 -5.283449999999999 13.38275 13.38275 0 0 1 -0.5572 -1.60195 13.5121 13.5121 0 0 1 2.2288 -1.60195 15.522 15.522 0 0 0 3.4626 -3.23375 14.33795 14.33795 0 0 0 -1.82085 -18.33785C70.76440000000001 1.99 57.4314 4.34815 53.10315 13.472299999999999c-1.48255 3.1641000000000004 -1.194 7.96 -0.18905 11.2833zM75.62 40.795c-1.32335 1.06465 -3.27355 1.2039499999999999 -4.975 1.5522 -0.4577 0.0995 -1.5422500000000001 0.36815 -1.8308 0a7.8804 7.8804 0 0 1 -1.194 -2.6865 30.77535 30.77535 0 0 0 7.5023 -2.0497A10.726099999999999 10.726099999999999 0 0 1 75.62 40.795zm-0.60695 -3.5919499999999998a44.9342 44.9342 0 0 0 -7.4625 2.0696 27.0839 27.0839 0 0 0 -0.995 -3.4029 28.08885 28.08885 0 0 0 7.49235 -1.8507 25.87 25.87 0 0 1 0.995 3.2238zM53.73 13.78075c4.16905 -8.6167 16.915 -10.79575 23.88 -3.98a13.5917 13.5917 0 0 1 1.7711000000000001 17.2732c-1.72135 2.4278 -5.20385 4.0994 -5.741149999999999 4.975 -0.18905 0.30845 0.1592 1.0945 0.3781 1.6517 -1.1342999999999999 0.2189 -2.37805 0.48755 -3.49245 0.7363 -0.2985 -1.36315 -1.6915 -6.8655 -2.2089000000000003 -8.158999999999999 -0.199 -0.5174 -0.3781 -0.47759999999999997 -0.90545 -0.32835000000000003 -2.9053999999999998 0 -6.09935 -0.7363 -7.1242 -3.47255a4.5173 4.5173 0 0 1 -0.2587 -0.995c-0.1393 -1.4327999999999999 0.995 -3.1044 2.2487 -2.985 -0.17909999999999998 1.0945 0 3.184 0.9352999999999999 3.81085s1.99 -0.36815 1.99 -1.26365A3.98 3.98 0 0 0 63.202400000000004 17.91a2.6765499999999998 2.6765499999999998 0 0 1 3.91035 -1.16415c-0.78605 1.5323 0 5.04465 1.393 4.2188s0.9352999999999999 -2.8556500000000002 0.06965 -3.98c-0.4179 -0.54725 -0.50745 -0.398 -0.2985 -0.5572 1.6218499999999998 -1.18405 3.4626 0.18905 4.2387 1.99C73.63 20.895 71.24199999999999 23.949650000000002 69.7296 24.875a0.1592 0.1592 0 0 0 0.16915000000000002 0.2786c1.8507 -1.0845500000000001 4.18895 -4.2785 3.1243000000000003 -6.965s-3.7411999999999996 -3.7213000000000003 -5.4327 -2.11935a3.45265 3.45265 0 0 0 -5.1541 1.5522c-1.8507 -0.23879999999999998 -3.41285 1.92035 -3.2039 3.8805a5.2337 5.2337 0 0 0 2.9352500000000004 4.049650000000001c0.9352999999999999 0.44775 4.2586 1.26365 5.572 0.8855500000000001 0.4577 0.995 2.11935 6.83565 2.41785 8.0595 -4.417800000000001 0.995 -3.5223 1.46265 -3.7411999999999996 0.8159 -0.2587 -0.80595 -0.4179 -1.99 -0.6368 -2.0696 -5.4924 -1.24375 -10.4475 -2.15915 -12.2982 -8.676400000000001 -0.90545 -3.15415 -1.14425 -7.83065 0.24875 -10.7858zm9.2336 4.9153a3.2238 3.2238 0 0 1 1.34325 2.31835c0 0.26865 -0.60695 0.995 -0.995 0.199a5.5123 5.5123 0 0 1 -0.30845 -2.51735zM67.66 17.1737c0.796 0.7761 1.2935 2.587 0.42785 3.11435a3.63175 3.63175 0 0 1 -0.42785 -3.11435zM37.81 55.15285c4.049650000000001 -1.26365 8.955 -0.16915000000000002 10.8455 4.30835 3.27355 7.5819 -5.38295 11.4425 -5.2934 11.8405 0.199 0.995 0.5572 2.73625 0.7064499999999999 3.7411999999999996a0.3184 0.3184 0 0 0 0.6368 -0.08954999999999999c-0.11939999999999999 -0.995 -0.24875 -2.4278 -0.38805 -3.4626a13.50215 13.50215 0 0 0 3.85065 -2.35815c7.024699999999999 -8.28835 -0.8159 -18.7458 -10.835550000000001 -15.47225a7.96 7.96 0 0 0 -5.72125 7.23365c-0.3184 3.9203 2.8059 7.3033 7.850549999999999 6.8655a0.32835000000000003 0.32835000000000003 0 0 0 0 -0.64675c-4.4775 0.22885 -6.87545 -2.985 -6.4476 -6.0695A6.6267000000000005 6.6267000000000005 0 0 1 37.81 55.15285zm74.31654999999999 -25.95955a0.32835000000000003 0.32835000000000003 0 0 0 0.16915000000000002 -0.6368c-4.30835 -1.2139 -5.5521 -5.02475 -4.1591 -7.8207a6.6366499999999995 6.6366499999999995 0 0 1 6.487399999999999 -3.98c7.482399999999999 0.18905 10.7659 7.074450000000001 7.96 11.98975 -1.8606500000000001 3.3630999999999998 -4.34815 4.26855 -7.532150000000001 4.68645a0.46764999999999995 0.46764999999999995 0 0 0 -0.398 0.398c-0.10945 0.9154 -0.34825 2.71635 -0.52735 3.7611a0.3184 0.3184 0 0 0 0.62685 0.12935c0.22885 -1.0746 0.5373 -2.33825 0.74625 -3.4029a13.42255 13.42255 0 0 0 4.3979 -0.995c3.37305 -1.99 5.42275 -5.1342 5.1541 -9.1142 -0.62685 -9.34305 -14.25835 -12.68625 -18.17865 -3.98 -1.52235 3.5422000000000002 0.32835000000000003 7.850549999999999 5.2536000000000005 8.96495zm55.2822 46.6854a9.353 9.353 0 0 0 -1.8904999999999998 -5.08445 11.87035 11.87035 0 0 0 -8.5371 -3.98 7.96 7.96 0 0 0 -7.75105 4.975c-1.5621500000000001 3.61185 0.3184 7.8207 5.22375 9.014700000000001a0.32835000000000003 0.32835000000000003 0 1 0 0.1592 -0.62685c-4.2785 -1.2935 -5.5521 -4.975 -4.14915 -7.8207a6.6366499999999995 6.6366499999999995 0 0 1 6.487399999999999 -3.98 10.2087 10.2087 0 0 1 7.29335 3.3630999999999998 7.81075 7.81075 0 0 1 1.592 4.20885c0.7064499999999999 8.7759 -8.746049999999999 8.80575 -8.835600000000001 9.50225 -0.11939999999999999 0.995 -0.33830000000000005 2.7462 -0.52735 3.7611a0.3184 0.3184 0 0 0 0.62685 0.12935c0.23879999999999998 -1.06465 0.5373 -2.33825 0.74625 -3.4029a13.68125 13.68125 0 0 0 4.40785 -0.995c3.3232999999999997 -1.9502 5.42275 -5.04465 5.1541 -9.064449999999999zM48.496300000000005 82.585c0.42785 -1.7711000000000001 -0.8557 -3.63175 -2.1293 -3.4825a15.6215 15.6215 0 0 0 -2.4875 -0.06965c-2.15915 0.5174 -3.17405 3.3432 -1.14425 4.72625 2.3283 1.5522 5.3431500000000005 0.47759999999999997 5.76105 -1.1741zm-1.5422500000000001 -0.199a2.3283 2.3283 0 0 1 -1.24375 0.52735c-2.7064000000000004 0.3781 -3.2834999999999996 -1.99 -1.46265 -2.7661l2.13925 -0.398c0.92535 0.0796 1.1342999999999999 2.05965 0.5671499999999999 2.587zm66.34660000000001 -40.994c-2.31835 -0.84575 -4.825749999999999 1.7711000000000001 -3.184 3.98s4.8953999999999995 2.2089000000000003 5.8307 0.7363 0.36815 -3.7014 -0.8855500000000001 -3.98c-0.10945 -0.04975 -0.9751 -0.44775 -1.76115 -0.7363zm1.2537 3.98a2.7263 2.7263 0 0 1 -2.6367499999999997 -0.4975 2.3681 2.3681 0 0 1 -0.7064499999999999 -0.80595c-0.28855 -0.80595 0.74625 -1.6318 1.50245 -1.6815499999999999l2.1492 0.30845c0.8358 0.44775 0.4179 2.3979500000000002 -0.30845 2.7064000000000004zm42.824799999999996 48.4366c-0.199 -0.08954999999999999 -1.2238499999999999 -0.5174 -1.7512 -0.7163999999999999 -2.3283 -0.84575 -4.825749999999999 1.7711000000000001 -3.184 3.98s4.8854500000000005 2.2089000000000003 5.8307 0.7363 0.36815 -3.7213000000000003 -0.8955 -3.9998999999999993zm-0.50745 3.29345a2.73625 2.73625 0 0 1 -2.6367499999999997 -0.4975 2.5273 2.5273 0 0 1 -0.7064499999999999 -0.8159c-0.2786 -0.796 0.74625 -1.6218499999999998 1.50245 -1.6716l2.1492 0.30845c0.8358 0.4179 0.4179 2.35815 -0.30845 2.6765499999999998z" stroke-width="1"></path><path d="M149.25 148.6928c-1.99 -9.790799999999999 -9.7311 -24.875 -19.0244 -28.72565l-1.8705999999999998 -3.91035a0.2189 0.2189 0 0 0 -0.3184 -0.08954999999999999l-1.99 1.28355a20.586550000000003 20.586550000000003 0 0 0 -5.52225 -11.2236c2.0696 -3.19395 5.38295 -4.16905 8.80575 -4.3183 2.83575 -0.11939999999999999 4.92525 -0.28855 6.566999999999999 -2.71635 3.25365 -4.7959000000000005 2.4875 -9.4724 -1.3333000000000002 -13.93 -5.820749999999999 -6.7859 -8.109250000000001 -4.7561 -10.945 -8.50725 -5.3929 -7.0446 -6.616750000000001 -17.46225 -14.55685 -22.885 -10.149 -6.87545 -15.6215 -1.3333000000000002 -17.750799999999998 0.3781 -3.11435 -1.8904999999999998 -10.05945 -1.2338 -13.04445 1.32335 -2.53725 2.1691000000000003 -5.9003499999999995 4.975 -7.2038 8.109250000000001 -2.77605 6.616750000000001 -2.4775500000000004 14.4474 -6.5371500000000005 20.44725 -0.995 1.4925 -2.69645 2.4974499999999997 -3.9004 3.91035a34.15835 34.15835 0 0 0 -4.18895 6.7261999999999995c-1.4726 2.786 -2.5969499999999996 5.88045 -1.2537 8.76595 1.80095 3.8606 5.8307 7.5421000000000005 10.1291 7.2635 2.4875 -0.16915000000000002 5.78095 -1.6616499999999998 8.1192 -0.6766000000000001 1.393 0.5771 1.9303 1.92035 2.985 3.0447 2.388 2.65665 7.96 3.4626 11.0445 1.6218499999999998 -3.39295 4.3183 -8.566949999999999 4.16905 -17.5916 9.14405 -13.8504 7.6217 -18.905 16.2782 -20.387549999999997 25.14365a78.605 78.605 0 0 0 -1.2537 8.34805c-0.8557 14.45735 3.53225 32.785250000000005 17.76075 35.82 3.9004 0.8358 8.36795 1.3731 12.228549999999998 0.40795 7.31325 -1.82085 16.0394 -6.7461 22.4472 -10.746 2.985 -1.8606500000000001 14.029499999999999 -9.3132 19.163700000000002 -10.2883a29.42215 29.42215 0 0 0 1.99 7.7311499999999995c4.10935 8.44755 10.686300000000001 13.44245 19.9 11.27335 5.97 -1.40295 7.67145 -7.761 7.83065 -13.8504 2.99495 -6.4277 0.6169 -24.1984 -0.2985 -28.8749zm-34.427 -46.5859c1.7711000000000001 0.32835000000000003 2.985 1.99 4.2984 3.3432 3.47255 3.47255 5.86055 7.19385 6.57695 11.94 -2.87555 1.8308 -4.746149999999999 2.985 -4.78595 3.0447s-1.42285 -3.4626 -2.25865 -3.89045a12.16885 12.16885 0 0 1 -3.3531500000000003 -2.45765c-0.74625 -0.82585 -1.6616499999999998 -2.27855 -1.5422500000000001 -3.37305a4.7561 4.7561 0 0 1 1.70145 -0.52735v-0.6169c-3.07455 0.08954999999999999 -4.129250000000001 2.8954500000000003 -4.40785 3.5223 -0.199 0.44775 -0.47759999999999997 0.8955 -1.1144 0.82585s-0.86565 -0.80595 -0.62685 -1.46265 0.8159 -3.5422000000000002 4.8854500000000005 -4.16905a0.38805 0.38805 0 0 0 -0.10945 -0.7761 7.21375 7.21375 0 0 0 -2.4377500000000003 0.76615 5.4924 5.4924 0 0 0 -2.8556500000000002 3.37305c-0.47759999999999997 1.36315 -2.1492 0.7562 -1.7512 -0.4179a10.4475 10.4475 0 0 1 1.76115 -3.1442 7.8406 7.8406 0 0 1 2.985 -1.78105c0.8756 -0.35819999999999996 1.6218499999999998 -0.18905 1.82085 -0.47759999999999997s-0.26865 -1.2537 -0.50745 -1.5422500000000001c-1.28355 -1.5323 -4.975 -0.20895 -6.3879 -1.92035 -0.90545 -1.12435 0.995 -1.16415 1.76115 -1.26365 2.1492 -0.23879999999999998 4.18895 0.597 6.3481 1.00495zm3.65165 24.656100000000002a69.03309999999999 69.03309999999999 0 0 1 -8.686350000000001 2.2188499999999998c0.995 -5.66155 1.6716 -10.51715 1.5721 -12.2783 2.31835 0.44775 4.975 0.76615 7.8804 1.24375 0.78605 1.30345 1.2139 2.3979500000000002 1.40295 2.7064000000000004l-1.9303 1.2238499999999999c-0.0995 0.12935 -0.0796 -0.40795 -0.23879999999999998 4.8854500000000005zm-10.8057 28.74555a44.0188 44.0188 0 0 1 0.9352999999999999 5.80085c-4.0794999999999995 -0.2587 -7.19385 -0.20895 -8.726149999999999 -0.26865 0.059699999999999996 -2.79595 0.08954999999999999 -3.6616 0.1393 -4.24865a47.352050000000006 47.352050000000006 0 0 1 7.65155 -1.28355zm-15.65135 -24.50685a95.6593 95.6593 0 0 0 16.84535 -1.3731c-1.7711000000000001 9.552 -4.46755 21.0343 -5.741149999999999 23.33275 -2.9253 -7.9799 -2.6268000000000002 -8.00975 -11.1042 -21.95965zm11.94 21.8303c1.6119 -3.61185 4.0596 -14.3877 5.6914 -23.3626a66.665 66.665 0 0 0 8.76595 -2.2685999999999997c-0.30845 10.746 -0.398 24.1586 0.24875 34.93445 -1.8904999999999998 -0.16915000000000002 -4.6367 -0.40795 -7.3033 -0.6169 -0.16915000000000002 -1.6119 -0.8358 -7.2237 -1.40295 -8.6963 -0.14925 -0.398 -0.32835000000000003 -0.5572 -0.995 -0.5771a33.68075 33.68075 0 0 0 -4.955100000000001 0.58705zm3.5521499999999997 -37.95925a5.76105 5.76105 0 0 1 -2.3084 -2.5273 6.87545 6.87545 0 0 0 1.4327999999999999 0.42785 1.5323 1.5323 0 0 0 1.52235 0.46764999999999995c0.44775 -0.1393 0.1592 -0.199 0.398 0.42785a1.5820500000000002 1.5820500000000002 0 0 0 2.6268000000000002 0.5572c0.38805 -0.34825 0.4179 -0.76615 0.8855500000000001 -1.6616499999999998 0.4577 -0.08954999999999999 0.90545 -0.20895 1.34325 -0.33830000000000005 1.18405 3.1044 4.8953999999999995 4.60685 5.1541 4.8357 -4.368049999999999 -0.64675 -8.2386 -1.0547 -11.0047 -2.189zm-19.074150000000003 -1.194c2.388 -2.7661 1.90045 -4.746149999999999 -0.5572 -6.706300000000001 -4.975 -3.9004 -4.3581 -2.8556500000000002 -6.4476 -7.21375 -2.45765 -7.074450000000001 -0.33830000000000005 -18.218449999999997 1.48255 -25.472 0.4975 -1.99 3.89045 -4.1193 6.3580499999999995 -3.8009 3.4228 0.4378 1.99 2.23875 4.9153 3.2636a5.97 5.97 0 0 0 1.5621500000000001 0.23879999999999998 0.24875 0.24875 0 1 0 0.14925 -0.47759999999999997 21.89 21.89 0 0 1 -4.2586 -3.33325c0.60695 -2.4775500000000004 2.1492 -3.83075 5.04465 -3.85065 1.99 0 3.5621 1.5124 4.975 2.8059 1.7114 1.5621500000000001 3.5521499999999997 5.78095 3.41285 8.099300000000001a11.65145 11.65145 0 0 0 1.78105 7.67145c0.995 1.7313 2.8655999999999997 3.23375 3.98 4.6964 0.6169 0.8159 0.2587 4.4576 -0.0995 6.05955 -0.46764999999999995 1.40295 -1.46265 4.0794999999999995 -1.6915 4.68645 -4.1591 0.14925 -3.98 2.37805 -1.99 3.33325 -1.8606500000000001 2.2288 -6.4078 4.7063500000000005 -3.15415 7.83065 0.6965 1.46265 1.8109 3.4626 3.3034 4.06955a19.03435 19.03435 0 0 0 3.27355 0.995c0.2189 1.5422500000000001 -0.4975 6.646599999999999 -1.592 12.58675a96.88315 96.88315 0 0 1 -17.283150000000003 1.30345c-3.5919499999999998 -5.88045 -7.164 -11.452449999999999 -8.06945 -12.34795a12.935 12.935 0 0 0 4.955100000000001 -4.4376999999999995zm-6.7859 5.24365c1.99 -0.74625 0.995 -0.6169 1.4726 -0.24875s3.7611 5.572 7.57195 11.75095c-4.5173 -0.06965 -9.601750000000001 -0.40795 -11.5221 -0.62685 0.5771 -0.4577 -0.9154 -8.3182 -1.4925 -9.3132 1.44275 -0.5771 2.77605 -1.0845500000000001 4.0198 -1.5621500000000001zm-4.7063500000000005 1.8705999999999998a51.33205 51.33205 0 0 1 1.6616499999999998 8.955 58.45625 58.45625 0 0 1 -12.556899999999999 -3.25365 69.56045 69.56045 0 0 1 10.945 -5.701350000000001zm0.90545 71.93849999999999c-3.73125 0.9352999999999999 -8.099300000000001 0.38805 -11.8604 -0.4179 -5.88045 -1.26365 -9.95 -5.193899999999999 -12.5967 -10.2286 -4.20885 -7.96 -5.46255 -19.79055 -4.179 -28.078899999999997 0.2587 -1.6616499999999998 0.58705 -3.3034 0.86565 -4.975 1.5820500000000002 -9.482349999999999 7.3431 -16.626450000000002 15.382700000000002 -22.0293 7.89035 2.8954500000000003 13.1937 3.91035 25.5914 3.98 8.58685 13.93 8.7759 15.323 11.23355 22.138749999999998 -0.7562 0.1393 -4.2586 0.84575 -4.8556 1.3333000000000002 -0.23879999999999998 0.18905 -0.23879999999999998 0.5671499999999999 0 6.5471 -9.054499999999999 0.17909999999999998 -17.91 1.592 -26.23815 6.965 -0.995 -7.17395 0.14925 -9.34305 2.4676 -13.452399999999999 3.6417 -6.45755 2.985 -7.65155 0.68655 -11.3231a4.4775 4.4775 0 0 1 -0.796 -1.6716c0 -0.23879999999999998 -0.995 -0.5671499999999999 0.40795 1.90045 1.99 3.6218 2.5273 4.4775 -0.995 10.69625 -2.57705 4.5571 -3.63175 6.89535 -2.07955 14.05935 -0.6965 0.46764999999999995 -1.4925 0.995 -2.25865 1.6119a25.30285 25.30285 0 0 0 -3.2834999999999996 2.75615 0.1592 0.1592 0 0 0 0.28855 0.14925c0.30845 -0.54725 5.4526 -3.98 6.83565 -4.68645 7.7212 -3.89045 16.2583 -7.25355 30.23805 -6.328200000000001a66.665 66.665 0 0 0 1.82085 17.581650000000003c-7.1838999999999995 4.5371999999999995 -17.3926 11.1639 -26.6262 13.472299999999999zm27.292849999999998 -13.8703a68.3963 68.3963 0 0 1 -1.6815499999999999 -17.114c15.104099999999999 0.995 10.3679 0.6766000000000001 15.2434 0.995 0.17909999999999998 2.9053999999999998 0.44775 6.05955 0.84575 8.955 -3.9004 0.7263499999999999 -10.91515 5.00485 -14.35785 7.164zm36.158300000000004 11.8405c-8.78585 2.07955 -15.0245 -2.71635 -18.984599999999997 -10.835550000000001 -4.378 -8.955 -3.65165 -47.84955 -3.4029 -57.75975l9.0943 -5.6317c12.2783 26.51675 13.7509 29.024150000000002 16.50705 37.81 3.5621 11.19375 8.258500000000002 33.7703 -3.1641000000000004 36.417zm8.0197 -15.223500000000001a72.09769999999999 72.09769999999999 0 0 0 -2.4476999999999998 -15.7608c-3.15415 -12.26835 -6.566999999999999 -18.417450000000002 -16.00955 -38.2677l0.2786 -0.14925c8.3381 4.4576 15.4026 18.29805 17.2533 27.5416 1.0149 4.825749999999999 2.95515 20.606450000000002 0.9751 26.63615z" stroke-width="1"></path></g></svg>