<svg xmlns="http://www.w3.org/2000/svg" viewBox="0 0 200 200"><g fill="#000000" fill-rule="evenodd"><path d="M82.71 77.53c.56-.57.36-.56-.31-3.56-.46-2.12-.31-1.38-.8-3.2 0-.13 0-.27-.2-.27s-.17.3-.16 1a19.41 19.41 0 0 0 .33 2.65 10.06 10.06 0 0 0 .55 2.43c.11.34.12.29-.05.46a9.74 9.74 0 0 1-1.32.9c-.41.21-.68.09-.68.33 0 .51 1.93-.12 2.64-.74zm-7.28-5.68v1.06a.44.44 0 0 0 .88 0v-1.16c.1-.56-.9-.88-.88.1zm10.01.08v1.08a.44.44 0 0 0 .88 0v-1.07a.44.44 0 0 0-.88-.01zm-6.88 11.61a4.11 4.11 0 0 0 4.2-1.4c.21-.27.2-.25.2-.41s-.24-.1-.39 0a17.92 17.92 0 0 1-4 1.5.17.17 0 0 0-.01.31zm-6.78-14.79a.18.18 0 1 0 .11.35 28.18 28.18 0 0 0 3.52-.73c1.21-.44 1.21-.47 1.21-.58-.06-.63-3.26.16-3.86.37a3.34 3.34 0 0 0-.98.59zm13.3-.65c1.93-.11 3.25.53 3 0a1.21 1.21 0 0 0-.49-.36 3.56 3.56 0 0 0-1.92-.46 3.48 3.48 0 0 0-1.26.24c-.95.24-1.06.68.67.58z"></path><path d="M121.24 123.16C116 115.48 113 111.29 103.9 105a19.46 19.46 0 0 0-.47-4.21.83.83 0 0 0-.88-.46l-5.42.33a69.09 69.09 0 0 0-14.2-6.42 13.08 13.08 0 0 1-2.19-3.43c2.77-.75 4.88-1.48 6.86-3.58a14.64 14.64 0 0 0 3.23-7.12c1.09-5.8-.12-10.16-.61-15.56 4-1.62 7-3.24 8.21-7.18a10.62 10.62 0 0 0-.12-6.48A6.79 6.79 0 0 0 95.77 47a8.73 8.73 0 0 0-6.42-2.72A7.74 7.74 0 0 0 85 45.49c-.69-.46-1.15-1-2-1.48a4.82 4.82 0 0 0-2.19-.61 8.21 8.21 0 0 0-7.36 2.3c-.26-.07-.63-.37-1.05-.5a13.78 13.78 0 0 0-7.29.07c-3.63.89-6.54 2.72-9.14 7.95a11 11 0 0 0-1.06 7.13c.33 2.51.59 3.84 2.24 5.74a8 8 0 0 0 .65.66 19.51 19.51 0 0 0-.38 2.86 7.14 7.14 0 0 0 .75 3.12c.64 1.22 1 2.27 2.31 2.74.23 2.1 2.45 2.72 4.55 2.69a25.23 25.23 0 0 1-2.44 14.24A62.77 62.77 0 0 0 49 94.88a54.35 54.35 0 0 0-17.15 8.05 54.87 54.87 0 0 0-14 13.07c-6.1 7.72-9.53 14.32-11.78 26.63-1.85 10.18-2.35 23.66 6.39 29.25a14.58 14.58 0 0 0 8.45 2.19c9.41-.28 15.26-8.58 19.29-17a61 61 0 0 0 4.44-11.71c.23-.78 2.32-8.34 2.08-9.33-.06-.2 0-.1-.92-1 2.1-.18 5.49-.58 5.57-.59a.46.46 0 0 0 .31-.51c-.17-1.58.15-3.74 1.3-4.88a4.32 4.32 0 0 1 5-.65c-.4.77-.44.53.38 2.19 21.58 37.35 20.18 35.1 20.56 35.16a.32.32 0 0 0 .27 0 .49.49 0 0 0 .44-.16c0-.06 6.57-17.45 10.83-29a7.09 7.09 0 0 0 3.14-5.2c1.16 0 3.37 0 5.41-.08-1.15 1.22-1.17 1.14-1.2 1.4-.07.9 1.54 10.26 6.5 19.91 3.64 7.09 8.6 13.61 16.6 13.94 7.8.32 11.58-4.05 11.75-11.89a32.18 32.18 0 0 0-1.66-10.94 66.21 66.21 0 0 0-9.76-20.57zm-12.62-3.46c-.71.94-1.89 3.06-2.61 3.78-.53.54-1 1.07-1.49 1.58-1-1.46-2.37-3.54-2.46-3.64s-6.57-1.94-7.27-3c.41-.54 3 .38 4.19.7a.42.42 0 0 0 .52-.46c-.08-.38-.32-.36-1.15-.61a17.43 17.43 0 0 1-3.18-1.05c-.4-.22-.34-.19-.38-.35.71-.55 4.58.9 5.06.87a.43.43 0 0 0 .24-.74.73.73 0 0 0-.33-.15c-1.35-.38-4-1.13-4.39-1.72.9-1 7 1.08 7.56 1s.35-.39.6-2.29a8.17 8.17 0 0 1 .17-.9 3.22 3.22 0 0 1 1.27 2.82c.03.46 2.03 2.59 3.65 4.16zm-13-19-6 .37c-.38-1.17-.82-2.48-1.31-4 2.69 1.28 5.02 2.44 7.28 3.68zm-12.89-4.88c-.09 1-.25 2.66-.53 5.74l-4.45.28c1.77-1.99 4.06-4.66 4.98-6.02zm.48-.59a30.12 30.12 0 0 1 4.55 1.71c.5 1.58.95 3 1.33 4.21l-6.45.38c.36-4.3.48-5.79.57-6.3zM65 88.15a29.61 29.61 0 0 0 .52-10.39.3.3 0 0 0-.32-.2c-1.44.12-3.35-.13-4-1.41-.58-1.08-.1-2.66.47-3.74 1.09-2 3.82-2.25 4.64-.12.09.25 0 0 .21.25 1.54 0 1-8 1.32-10.35 3.07 2 10.52.17 12.17-2.44 2.16 3.07 5.53 4.23 9.35 3.8.25 5.78 2.76 14.45-1.2 21.45-3.41 5.6-8.76 4.34-8.39 5.72a10 10 0 0 0 1 2.13c1.39 2.26 1.56 1.85 1.44 2.1-.51 1.06-3.79 4.81-5.76 7-1.13.12-1 .22-1 .44s0 .39-.07.77l-.22.24c-4.47-4-1.7-1.52-12-10.59A21 21 0 0 0 65 88.15zm10.27 42.66c.44.59.86.5 4.17.5-1.27 13.65-.88 15.16-.87 28.35-3.4-20.45-1.47-9.91-6.58-32.51l.67-6.69a5.94 5.94 0 0 0 1-7 35 35 0 0 0 3.85-.1c.05.51.28 1.86 1 6.08a12.1 12.1 0 0 1-3.22.77.76.76 0 0 0-.37.56c.25 10.63.18 9.69.34 10.04zm-4.82-8.88a6.76 6.76 0 0 0 1.25-.67c-.15 1.5-.29 2.86-.39 3.9zm-11.54-22.3a41.8 41.8 0 0 0 .63-6c.93-.12 1.87-.22 2.81-.29.59 2.17 1.08 4 1.51 5.61-1.25.1-2.98.35-4.95.68zm9.22 9c-1-8-.72-6.33-1.09-8.42-.28-1.56-.6-1.64-2.82-1.39q-.69-2.6-1.47-5.48c.86.84 3.57 3.2 11.8 10.56-3.82 2.76-3.77 2.73-6.42 4.77zm2.87-1.19c.57 2 .93 3.39 1.18 4.26a6.23 6.23 0 0 0-3.79-1.32c0-.4-.1-.79-.15-1.16 1.31-.85 1.6-1.02 2.76-1.78zM79.15 119c0-.18-.88-5.93-1-6.06a12.5 12.5 0 0 0 .59-1.62 4.2 4.2 0 0 1 1.56 1.36 4.91 4.91 0 0 1-1.15 6.32zm-1.57-6.42c-.73.07-3.7 0-4.29 0L71.71 107a40 40 0 0 1 3.61-2.34c-.14 2.28-.28 5.42-.26 5.52.27.68 1 0 3.16.88a12.34 12.34 0 0 1-.64 1.53zm-38.06 4.63a3.16 3.16 0 0 1 1.28-2.7c.44 2.09.18 3.35.93 3.2 1.44-.32 5.82-1.64 7.13-1.2.17.07.14.07.26.22-.89.9-4.42 1.61-4.72 1.85a.44.44 0 0 0 0 .61c.28.24.32.17 2.18-.38.69-.17 2.51-.66 3.09-.4v.17c-.91.69-3.74 1.34-4.45 1.58a.42.42 0 0 0 .19.81c.91-.12 3.14-1.11 4.19-.8v.16c-.81.89-6.35 2.64-7.09 2.81a52.65 52.65 0 0 0-3.15 4.57c-1.71-2.24-2.64-3.13-4.27-5.56.51-.48 4-3.7 4.35-4.61a.91.91 0 0 0 .08-.32zm2.65 7.28c.6 3.82 1 6.26 1.25 7.81-.88-1-2-2.37-3.76-4.3zm-2.79-20.68a.83.83 0 0 0-.35.82c.55 3.46 1 6.52 1.47 9.24a3.63 3.63 0 0 0-1.6 2.94c0 .66.14.46-.4 1.14a49.59 49.59 0 0 1-3.59 3.86c-.62-.9-.77-.92-1.44-.74-4.31 1.25-12 12-14.41 15.8-1 1.62-1.52 2.48-1 2.4s10.19-16.19 15.55-17.56c.88-.24.79 1.57 4.66 5.89 3.26 3.62 4.56 5.35 5.41 6.32.24 1.26.3 1.09.47 1.12a3 3 0 0 0 .53 0l1.15 1.23c0 .15 0 .45-.1.72a73.08 73.08 0 0 1-7.24 21.39c-2.78 5.37-6 10.24-11.35 13.1a13.86 13.86 0 0 1-8.51 1.64c-10.1-1.36-12.93-9.83-13-20a60.51 60.51 0 0 1 5.87-25.32c3.54-6.42 5.41-10 10.48-15.42a52.89 52.89 0 0 1 14.41-11.28A52.72 52.72 0 0 1 51.91 95a66.47 66.47 0 0 1 7.23-1.35 48 48 0 0 1-.75 6.08c-7.45 1.21-17.91 3.27-19.01 4.09zm21.25 29.05a.85.85 0 0 0 .37.14c8.92-1.85 8.62-1.76 8.87-1.88.77-.38.53-.8-.3-8.82l.25-.08c4.32 18 3.29 12.6 8.58 41.36-11.11-19.2-15.71-27.1-17.77-30.71zm18.84 30.69c0-13.52-.19-18.83.86-32.26 2.83 0 2.56 0 2.57.06.56 4.8 3.69 6.54 6.44 5.69-2.02 5.45-5.12 13.77-9.87 26.52zm12.92-33.84c-.6.37-.41.7-.55 1.59-.43 2.5-2.1 4.68-4.58 4.09-2.82-.82-2.68-5-2.79-5.33a.87.87 0 0 0-.38-.38c-.42-.17.24 0-7.36 0-.42-8.77-.42-8.14-.32-8.15a6.71 6.71 0 0 0 5.19-3.37 6.85 6.85 0 0 0 .39-4.62c-.81-2.64-3.26-3.8-6-3.93.09-5 .08-6 .17-6.92l26-.88c.29 2.77.3 8 .39 13.25a35.16 35.16 0 0 0-6-1.27c-.78 0-1.58.08-1.93.78a.83.83 0 0 0 .27 1.09c.13.12.06 0-.4.19a.93.93 0 0 0-.13 1.68c.26.18.28.1.09.21a.81.81 0 0 0-.4.52c-.13.57.27.92.78 1.22 1.72 1 4.9 1.83 6.84 2.38l1 1.25c0 1.58 0 3-.09 4.22l-1.89 2.17c-2.93.05-7.92.06-8.3.22zm38.68 29.67a8.11 8.11 0 0 1-5.59 5.7c-13.48 3.92-21.58-12.35-25.4-25.82a58.11 58.11 0 0 1-1.46-6.35c0-.1-.09.08 1-1.15 5.24-5.78 3.75-4.47 5.94-6.84 1.59-1.72 1-1 3.34-4.57a3.27 3.27 0 0 1 .39-.51c8.68 5.06 13.77 16.45 14.44 15.58.06-.08.08-.12-.08-.3 0 0-7.85-12-13.58-15.55-.54-.33-.55-.35-.7-.37a.58.58 0 0 0-.48.15 35.46 35.46 0 0 1-3.27-3.67c-.13-.22 0-.11-.09-.94a3.76 3.76 0 0 0-1.42-2.59c0-2.14-.1-4.25-.19-6.06 7.46 5.42 10.36 8.57 15.06 15.24 5.1 7.22 8.09 12.65 10.78 21.15 1.73 5.38 3.08 11.52 1.31 16.91zm39.4-108.33a17.15 17.15 0 0 0-4.53-3.05 39.08 39.08 0 0 0-32.28-1.38c-8 3.2-13.54 8.31-16.34 16.37-2.39 6.87-2 13.11.05 20a35.69 35.69 0 0 0 5 10.89 26.33 26.33 0 0 0 13 10.54c-.07 1.07-.11 2.47-.28 4.3a19.78 19.78 0 0 0-.18 2.33c0 10.68 12.78 12.68 18.08 8.2 2.37-2 3.15-4.9 3.71-7.88.15-.82.57-3.71.77-6.34a25.36 25.36 0 0 0 9.24-4.07 21.3 21.3 0 0 0 5.53-4.87c3.63-4.42 4.47-8.57 5.76-14.15a35.86 35.86 0 0 0 0-17.38c-1.34-5.42-3.41-9.79-7.53-13.51zm-53.69 25.3c.65 0 2.47 0 7.76-.1a14.13 14.13 0 0 0 .21 3.24c.7 3.68 3.27 5 6.77 4.53A4 4 0 0 0 134 83c1.47-1.31 2-3.85 2.19-5.81 3.14.08 8.11.32 9.92-.12-.48 2.17-.71 4.64-1.51 11.41-3.55-.41-6.29.63-6.4 4.26-.05 1.65 1 2.8 2.38 3.68a7.51 7.51 0 0 0 2.82 1c.35 0 0 4.57.21 8.35-15.75-1.43-25.05-14.01-26.83-29.42zm34.66 43a11.85 11.85 0 0 1-7.37 1.14c-4-.67-7.15-2.86-8.21-6.83 3.44.46 16.33 1.89 18.84 1.84a7.85 7.85 0 0 1-3.26 3.88zm3.4-4.17c-2.23-.32-5.74-1.21-19.07-1.92a11.74 11.74 0 0 1-.22-3.71c1.57 0 7.4.89 20.49 1.49a24.28 24.28 0 0 1-1.2 4.17zm1.26-4.47c-.36 0-1.61-.26-5.44-.63-2.86-.27-12.22-1-15.08-.91 0-.22 0-.2.17-4.62a30.93 30.93 0 0 0 7.48 1.7 36.86 36.86 0 0 0 13.71-1.12c-.16 1.44-.52 4.06-.84 5.61zm21.32-28.91c-1.88 8.46-2.95 13.39-10.74 18.71-3.45 2.36-5.77 3.79-13.34 5a39.4 39.4 0 0 1-9.33.35c.11-1.32.08-2.21.24-8.65a.38.38 0 0 0-.1-.25c-.23-.19-.13 0-1.62-.43A5.68 5.68 0 0 1 140 95a2.76 2.76 0 0 1-1-2.71c.32-2.66 2.5-3.33 5.19-3.08.63.06 1.15-.57 1.4-1.64.32-1.41.89-9.08 1-10.56 1.77.25 13.27 1.45 13.35 1.44a.36.36 0 0 0 .29-.34 5.75 5.75 0 0 1 1.44-3.25 3.91 3.91 0 0 1 3.66-.87 3.36 3.36 0 0 1 2.37 1.65 5.2 5.2 0 0 1 .58 2.58.36.36 0 0 0 .29.43c.09 0 7.48 0 9.35-.13-.1 1.09-.25 2.2-.5 3.31zm.58-3.62-9-.18a4.61 4.61 0 0 0-2.21-4.25 5.55 5.55 0 0 0-4.42-.23 5.36 5.36 0 0 0-2.84 4.2c-1.62-.16-.26 0-12.88-1.1.13-.42.08-.2 1.59-10.69a11.27 11.27 0 0 0 4.7-.5 4.66 4.66 0 0 0 2.62-2.21 5.85 5.85 0 0 0 .48-3.85c-.79-2.25-4.48-2.74-6.86-2.88.34-4.57.59-9 1.06-11.39 0 0 0-.17-.12-.19s-.19-.1-.43 1.4-1.21 10.39-1 10.64 6.45.21 6.79 3a5.16 5.16 0 0 1-.93 3.51c-1.54 1.85-4 1.72-6.35 1.71-.39 0-.56 0-.65.4-1.35 9.4-1.49 10.65-1.65 10.82-.47.26-9.83.1-10.13.11a.35.35 0 0 0-.21.1c-.16.17-.07.14-.2 1.23-.26 2.08-.94 4.7-2.94 5.34a7.87 7.87 0 0 1-4.25 0c-3.69-1.23-3-6.66-3.19-7.22a.3.3 0 0 0-.18-.15c-.19 0-6.42.14-8.09.09-.78-7.23.46-13.7 5.15-19.72 6.4-8.21 15.79-11.25 26.12-11.49a38.2 38.2 0 0 1 12.36 1.84c7.31 2.32 12.1 5.36 15.49 13.76A35.56 35.56 0 0 1 178 78.21zM151.37 39c.65 0 .72-.51.77-.78.22-1.29.35-1.42 2.32-10.09a2.11 2.11 0 0 0-.32-1.42c-.67-.64-.39-.45-1.24-.78h-.75c-.84.38-.57.19-1.18.83-1 2.64-.7 8.47-.35 11.42a.78.78 0 0 0 .75.82zm43.13 38.57a2 2 0 0 0-1.32-.62c-11.64.15-11.39 1.57-11.34 2.1s.52.52 11.17 1.71a2.07 2.07 0 0 0 1.37-.5 2 2 0 0 0 .62-1.32 2.07 2.07 0 0 0-.5-1.37z"></path><path d="M98.24 71.46a2.13 2.13 0 0 0 .51 1.37c1.3.94.29-.06 9.88.4a6.52 6.52 0 0 0 2.4-.13.54.54 0 0 0 .19-.95 5.21 5.21 0 0 0-2.09-.93 39.09 39.09 0 0 0-8.91-1.6 1.93 1.93 0 0 0-2 1.84zm92.05-23.33a2 2 0 0 0-.14-1.46c-.57-.7-.31-.49-1.12-.93-1.17-.13-.84-.41-4.79 2.19a20.08 20.08 0 0 0-3.74 3c-1.73 1.64-2.06 2-1.64 2.53s.69.32 2.86-.76c8.5-4.25 7.85-3.23 8.57-4.57zm-72.71-1.64c2.66 2.06 2.37 2 3.39 2.41a.54.54 0 0 0 .72-.64 5.64 5.64 0 0 0-1-1.86c-2.17-3.31-3.11-3.9-6.2-6.83a2 2 0 0 0-1.39-.43 2 2 0 0 0-1.29.68 1.91 1.91 0 0 0 .25 2.69z"></path></g></svg>